<svg xmlns="http://www.w3.org/2000/svg" viewBox="0 0 209 240"><g fill="none"><path fill="#dc2878" d="M50.089 192.15h-48.1a1.41 1.41 0 0 1-1-.415 1.41 1.41 0 0 1-.415-1V49.265a1.412 1.412 0 0 1 1.415-1.415h48.1c.389 0 .742.16.999.415.256.257.415.61.415 1v141.47a1.41 1.41 0 0 1-1.415 1.415z"/><path fill="#ff4c98" d="m184.56 114.513 24.05-41.656a1.41 1.41 0 0 0 .14-1.073 1.41 1.41 0 0 0-.658-.86L85.575.19a1.413 1.413 0 0 0-1.933.517l-24.05 41.656a1.41 1.41 0 0 0-.139 1.073c.094.35.32.665.658.86l122.517 70.735a1.413 1.413 0 0 0 1.932-.518z"/><path fill="#af0d5b" d="m184.56 125.487 24.05 41.656c.195.336.233.723.14 1.073a1.41 1.41 0 0 1-.658.86L85.575 239.81a1.413 1.413 0 0 1-1.933-.517l-24.05-41.656a1.41 1.41 0 0 1-.139-1.073c.094-.35.32-.665.658-.86l122.517-70.735a1.413 1.413 0 0 1 1.932.518z"/></g></svg>