<svg viewBox="0 0 209 240" xmlns="http://www.w3.org/2000/svg"><g fill="none" transform="translate(.574)"><path d="m49.5145264 192.149738h-48.09982565c-.3890427 0-.74271789-.159153-.99877873-.415214-.25676818-.256768-.41592202-.610444-.41592202-.999486v-141.4700757c0-.3904574.15844648-.7441326.41450732-1.0001934s.60973603-.4145073 1.00019343-.4145073h48.09982565c.3890427 0 .7427179.1591538.9994861.4152146.2560608.2567682.4152146.6104434.4152146.9994861v141.4700757c0 .390457-.1584465.744132-.4145073 1.000193s-.609736.414507-1.0001934.414507z" fill="#dc2878"/><g transform="translate(58.830181)"><path d="m125.155896 114.513083 24.049913-41.6558636c.194521-.3366987.233426-.722912.139348-1.0730505-.094078-.3501384-.32043-.6649093-.657836-.8594307l-122.5166219-70.73503767c-.3381134-.1952287-.7236194-.23484033-1.0737578-.14147008-.3494311.09337025-.6634947.32113708-.8587234.65925056l-24.0499128 41.65586369c-.19452135.3366988-.23342562.7229121-.13934802 1.0730505.0940776.3501385.32042972.6649094.65783585.8594307l122.51662207 70.7350381c.338113.195228.723619.23484 1.073758.14147.349431-.094078.663494-.321137.858723-.659251z" fill="#ff4c98"/><path d="m125.155896 125.486917 24.049913 41.655864c.194521.336698.233426.722912.139348 1.07305-.094078.350139-.32043.664909-.657836.859431l-122.5166219 70.735037c-.3381134.195229-.7236194.234841-1.0737578.141471-.3494311-.093371-.6634947-.321138-.8587234-.659251l-24.0499128-41.655864c-.19452135-.336698-.23342562-.722912-.13934802-1.07305.0940776-.350139.32042972-.66491.65783585-.859431l122.51662207-70.735038c.338113-.195228.723619-.23484 1.073758-.14147.349431.094078.663494.321137.858723.659251z" fill="#af0d5b"/></g></g></svg>