<svg width="302" height="250" viewBox="0 0 302 250" fill="none" xmlns="http://www.w3.org/2000/svg">
<path d="M83.2168 170V78.4766H111.254C122.727 78.4766 131.6 81.1836 137.873 86.5977C144.146 91.9688 147.283 99.5742 147.283 109.414C147.283 120.328 144.146 128.793 137.873 134.809C131.6 140.781 122.727 143.768 111.254 143.768H100.232V170H83.2168ZM100.232 128.105H111.254C116.883 128.105 121.223 126.559 124.273 123.465C127.367 120.371 128.914 116.053 128.914 110.51C128.914 105.268 127.367 101.229 124.273 98.3926C121.223 95.5566 116.883 94.1387 111.254 94.1387H100.232V128.105Z" fill="white"/>
<path d="M160.561 170V78.4766H188.598C200.07 78.4766 208.943 81.1836 215.217 86.5977C221.49 91.9688 224.627 99.5742 224.627 109.414C224.627 120.328 221.49 128.793 215.217 134.809C208.943 140.781 200.07 143.768 188.598 143.768H177.576V170H160.561ZM177.576 128.105H188.598C194.227 128.105 198.566 126.559 201.617 123.465C204.711 120.371 206.258 116.053 206.258 110.51C206.258 105.268 204.711 101.229 201.617 98.3926C198.566 95.5566 194.227 94.1387 188.598 94.1387H177.576V128.105Z" fill="white"/>
<path d="M270.073 166.529C278.025 159.669 279.341 149.031 274.021 134.614L266.526 115.316C261.199 101.6 263.051 89.9156 272.083 80.2617C258.903 79.2346 249.59 71.7116 244.145 57.6927L236.756 38.6671C231.021 24.6212 222.87 17.66 212.302 17.7835L211.708 1.14752C223.749 -0.0371976 233.844 1.76897 241.993 6.56602C250.119 11.3024 256.38 19.2421 260.778 30.385L268.379 49.9568C273.313 61.9393 281.059 65.88 291.619 61.7787L298.937 80.6222C288.135 84.8178 285.197 93.2574 290.123 105.941L297.795 125.695C305.559 147.124 299.927 164.991 280.898 179.296L270.073 166.529Z" fill="white"/>
<path d="M28.0375 92.4666C21.1468 100.392 21.3633 111.109 28.6872 124.618L38.8613 142.649C46.0921 155.463 45.9271 167.292 38.3664 178.137C51.5581 177.271 61.8492 183.388 69.2399 196.485L79.2701 214.261C86.9516 227.344 96.0134 233.07 106.455 231.439L109.419 247.82C97.6702 250.712 87.4205 250.365 78.6702 246.781C69.9518 243.253 62.6208 236.289 56.6771 225.888L46.359 207.602C39.7653 196.447 31.5355 193.653 21.6697 199.22L11.7355 181.614C21.8281 175.919 23.531 167.147 16.8442 155.296L6.43009 136.841C-4.31431 116.739 -1.29098 98.2513 15.5001 81.376L28.0375 92.4666Z" fill="white"/>
<path d="M201.918 212.888C202.68 212.565 203.225 212.458 203.77 212.565C204.641 212.781 205.077 213.426 205.404 213.748C205.731 214.394 206.929 215.039 207.474 215.146C207.909 215.254 208.672 214.071 209.217 212.996C209.761 212.028 210.088 210.737 209.979 210.414C209.87 210.092 208.345 209.446 208.018 209.446C207.8 209.446 207.365 209.661 206.602 209.554C205.84 209.446 205.077 208.586 204.641 207.94C203.879 206.865 202.789 206.22 201.809 205.682C200.72 205.144 199.521 204.821 198.323 204.606C196.58 204.176 194.837 203.853 193.094 204.068C192.114 204.176 190.915 204.284 190.044 204.606C189.935 204.606 189.717 204.929 189.935 204.929C190.153 204.929 190.915 205.036 190.915 205.036C190.915 205.036 189.935 205.252 189.935 205.467C189.935 205.682 190.044 205.682 190.153 205.682C190.262 205.682 192.658 205.575 193.639 205.682C194.728 205.897 195.927 206.435 196.689 207.726C197.996 210.092 197.452 212.35 197.125 213.103C195.491 216.652 182.528 238.485 181.874 239.991C181.22 241.497 181.002 242.465 182.854 243.433C184.706 244.401 185.686 243.97 186.231 243.325C186.885 242.465 198.105 214.716 201.918 212.888ZM195.817 227.407H198.432C200.175 227.407 200.502 228.268 200.502 228.59C200.611 229.451 200.175 230.526 198.432 230.526H196.798L198.105 232.677C198.868 233.968 198.541 234.613 198.105 235.043C197.452 235.689 196.035 235.689 195.273 234.291L193.748 231.709C192.659 234.075 191.569 236.657 190.262 239.668H197.016C200.284 239.668 203.007 236.979 203.007 233.753V214.931C202.898 214.716 202.68 214.824 202.572 214.931C201.918 215.684 200.066 218.265 195.817 227.407ZM179.259 240.744H178.715C174.793 240.744 171.634 237.625 171.634 233.753V215.684C171.634 211.813 174.793 208.694 178.715 208.694H194.51C194.184 208.371 192.876 207.833 191.569 207.941C191.024 207.941 189.935 208.156 189.281 207.726C188.628 207.188 188.737 206.865 187.756 206.865H178.061C173.595 206.865 170 210.414 170 214.824V234.398C170 238.808 173.595 242.357 177.517 242.249C178.606 242.249 178.933 241.389 179.259 240.744ZM204.206 215.577V233.753C204.206 237.625 201.047 240.744 197.125 240.744H189.826C189.826 240.744 189.172 242.464 191.242 242.464H197.778C202.245 242.464 205.84 238.915 205.84 234.506V218.696C205.949 217.19 204.641 216.222 204.206 215.577ZM172.832 215.684V233.753C172.832 236.979 175.556 239.668 178.824 239.668H179.804C179.804 239.561 181.111 237.302 183.944 232.57C184.27 231.925 184.706 231.279 185.142 230.526H177.19C176.209 230.526 175.665 229.881 175.556 229.343C175.338 228.483 175.882 227.407 177.081 227.407H181.111L186.231 218.588C186.231 218.588 185.033 216.437 184.706 215.899C184.27 215.146 184.488 214.394 184.924 213.964C185.578 213.318 186.667 212.996 187.756 214.716L188.192 215.362L188.628 214.716C189.608 213.318 190.262 213.426 190.806 213.533C191.678 213.749 192.222 214.716 191.46 216.222L184.706 227.407H186.994C187.756 226.117 188.519 224.826 189.281 223.428C189.173 222.89 189.064 222.245 189.173 221.707C189.281 220.847 189.717 220.094 190.262 219.448L190.916 220.524C192.985 216.975 194.51 213.963 194.946 212.78C195.164 212.135 195.491 210.844 195.164 209.769H178.824C175.447 209.769 172.832 212.458 172.832 215.684ZM177.516 233.645C177.516 233.538 178.824 231.279 178.824 231.279C180.893 230.741 181.874 232.032 181.983 232.14C181.983 232.14 180.567 234.613 180.131 235.043C179.695 235.474 179.151 235.581 178.606 235.474C177.734 235.259 177.19 234.398 177.516 233.645Z" fill="white"/>
<path d="M127.639 35.2467C127.733 35.06 127.733 34.8733 127.826 34.6867C130.069 25.9 124.741 15.62 115.581 10.1983C119.601 15.62 121.189 22.0683 119.788 27.8633C119.694 28.33 119.508 28.8917 119.321 29.3583C119.063 29.2157 118.813 29.0599 118.571 28.8917C118.571 28.8917 109.506 23.2833 99.7877 13.47C99.506 13.19 105.021 21.32 111.189 27.77C108.293 26.0867 100.068 20.2 94.926 15.4317C95.4877 16.46 96.3293 17.4883 97.1693 18.5167C101.469 24.0317 107.078 30.76 113.808 35.9C109.041 38.8 102.404 38.985 95.6743 35.9C93.991 35.1533 92.591 34.2183 91.001 33.0967C93.8043 37.49 98.1977 41.51 103.433 43.6583C109.694 46.37 116.049 46.1833 120.629 43.6583H120.724C120.911 43.565 121.098 43.4717 121.284 43.285C123.528 42.1633 127.921 40.9483 130.351 45.6217C131.004 46.93 132.219 40.855 127.641 35.2467H127.639Z" fill="white"/>
<path d="M122.711 63.8672L122.672 63.0117L124 62.9727C124.385 62.9596 124.665 62.8516 124.84 62.6484C125.014 62.4479 125.103 62.151 125.105 61.7578V58.7344L125.184 57.8594H126.07V61.6328C126.07 62.3698 125.898 62.9128 125.555 63.2617C125.214 63.6133 124.669 63.8021 123.922 63.8281L122.711 63.8672ZM123.973 62.0781C123.447 62.0781 123.042 61.8958 122.758 61.5312C122.477 61.1667 122.336 60.6393 122.336 59.9492C122.336 59.2487 122.477 58.7122 122.758 58.3398C123.042 57.9674 123.448 57.7812 123.977 57.7812C124.294 57.7812 124.542 57.8516 124.719 57.9922C124.898 58.1328 125.009 58.3385 125.051 58.6094H125.363L125.105 59.875C125.105 59.4635 125.031 59.1589 124.883 58.9609C124.734 58.7604 124.514 58.6602 124.223 58.6602C123.928 58.6602 123.703 58.7708 123.547 58.9922C123.391 59.2135 123.312 59.5325 123.312 59.9492C123.312 60.3607 123.389 60.6719 123.543 60.8828C123.697 61.0937 123.923 61.1992 124.223 61.1992C124.535 61.1992 124.76 61.1003 124.898 60.9023C125.036 60.7044 125.105 60.3997 125.105 59.9883L125.387 61.25H125.023C124.987 61.5208 124.878 61.7266 124.695 61.8672C124.513 62.0078 124.272 62.0781 123.973 62.0781Z" fill="white"/>
<path d="M128.508 62.0781C128.096 62.0781 127.779 61.9492 127.555 61.6914C127.331 61.431 127.219 61.0651 127.219 60.5937V57.8594H128.184V60.4375C128.184 60.6745 128.243 60.8581 128.363 60.9883C128.483 61.1159 128.648 61.1797 128.859 61.1797C129.13 61.1797 129.333 61.0846 129.469 60.8945C129.607 60.7018 129.676 60.3802 129.676 59.9297L129.887 61.2031H129.586C129.521 61.4844 129.393 61.7005 129.203 61.8516C129.016 62.0026 128.784 62.0781 128.508 62.0781ZM129.746 62.0391L129.676 61.0469V60.3203H130.641V61.1328L131.211 61.2187V62L129.746 62.0391ZM129.676 60.8281V57.8594H130.641V60.5937L129.676 60.8281Z" fill="white"/>
<path d="M134.516 62.0391L134.441 60.8125L134.387 60.3516V59.4375C134.387 59.1953 134.292 59.0182 134.102 58.9062C133.911 58.7917 133.628 58.7292 133.25 58.7187L132.219 58.6914L132.297 57.8203L133.172 57.832C133.896 57.8424 134.434 57.9909 134.785 58.2773C135.137 58.5612 135.312 58.9766 135.312 59.5234V61.1328L135.937 61.2187V62L134.516 62.0391ZM133.09 62.0781C132.652 62.0781 132.312 61.9714 132.07 61.7578C131.831 61.5443 131.711 61.2422 131.711 60.8516C131.711 60.3984 131.872 60.0508 132.195 59.8086C132.518 59.5664 132.975 59.4453 133.566 59.4453C133.801 59.4453 134.006 59.4583 134.184 59.4844C134.361 59.5104 134.53 59.5508 134.691 59.6055L134.52 60.3242C134.35 60.2852 134.193 60.263 134.047 60.2578C133.901 60.25 133.749 60.2461 133.59 60.2461C132.975 60.2461 132.668 60.4271 132.668 60.7891C132.668 60.9479 132.721 61.069 132.828 61.1523C132.937 61.2357 133.095 61.2773 133.301 61.2773C133.54 61.2773 133.741 61.2344 133.902 61.1484C134.064 61.0599 134.185 60.9492 134.266 60.8164C134.346 60.681 134.387 60.5417 134.387 60.3984V60.0625L134.574 61.125H134.242L134.379 61C134.374 61.2396 134.318 61.4401 134.211 61.6016C134.107 61.7604 133.96 61.8802 133.77 61.9609C133.579 62.0391 133.353 62.0781 133.09 62.0781Z" fill="white"/>
<path d="M138.191 60.2187L137.949 58.8437H138.293C138.337 58.1354 138.701 57.7812 139.383 57.7812C139.789 57.7812 140.094 57.9167 140.297 58.1875C140.5 58.4583 140.602 58.8672 140.602 59.4141H139.641C139.641 59.1458 139.595 58.9531 139.504 58.8359C139.415 58.7187 139.272 58.6602 139.074 58.6602C138.777 58.6602 138.556 58.7956 138.41 59.0664C138.264 59.3372 138.191 59.7214 138.191 60.2187ZM136.336 62V61.1641H139.18V62H136.336ZM137.23 62V57.8594H138.035L138.191 59.0469V62H137.23ZM136.492 58.6953V57.8594H137.98L138.059 58.6953H136.492Z" fill="white"/>
<path d="M142.723 62.0781C142.197 62.0781 141.792 61.8958 141.508 61.5312C141.227 61.1667 141.086 60.6393 141.086 59.9492C141.086 59.2487 141.227 58.7122 141.508 58.3398C141.792 57.9674 142.198 57.7812 142.727 57.7812C143.031 57.7812 143.27 57.8516 143.441 57.9922C143.613 58.1328 143.72 58.3385 143.762 58.6094H144.098L143.855 59.875C143.855 59.4635 143.781 59.1589 143.633 58.9609C143.484 58.7604 143.264 58.6602 142.973 58.6602C142.678 58.6602 142.453 58.7708 142.297 58.9922C142.141 59.2135 142.062 59.5325 142.062 59.9492C142.062 60.3607 142.139 60.6719 142.293 60.8828C142.447 61.0937 142.673 61.1992 142.973 61.1992C143.285 61.1992 143.51 61.1003 143.648 60.9023C143.786 60.7044 143.855 60.3997 143.855 59.9883L144.137 61.25H143.773C143.737 61.5208 143.628 61.7266 143.445 61.8672C143.263 62.0078 143.022 62.0781 142.723 62.0781ZM143.98 62.0391L143.855 61.2227V56.1406H144.82V62L143.98 62.0391Z" fill="white"/>
<path d="M153.086 62.0781C152.581 62.0781 152.216 61.9401 151.992 61.6641C151.771 61.388 151.66 60.9466 151.66 60.3398V56.1406H152.621V60.3008C152.621 60.4909 152.641 60.6471 152.68 60.7695C152.719 60.8893 152.793 60.9779 152.902 61.0352C153.014 61.0924 153.18 61.1211 153.398 61.1211C153.622 61.1211 153.906 61.0716 154.25 60.9727L154.359 61.9141C154.143 61.9714 153.934 62.013 153.73 62.0391C153.53 62.0651 153.315 62.0781 153.086 62.0781ZM150.469 57.0156V56.1406H151.73V57.0156H150.469Z" fill="white"/>
<path d="M157.496 62.0781C156.785 62.0781 156.236 61.8932 155.848 61.5234C155.46 61.151 155.266 60.6172 155.266 59.9219C155.266 59.2448 155.43 58.7187 155.758 58.3437C156.089 57.9687 156.553 57.7812 157.152 57.7812C157.73 57.7812 158.177 57.9531 158.492 58.2969C158.81 58.6406 158.969 59.1393 158.969 59.793C158.969 59.9831 158.961 60.1615 158.945 60.3281H155.961V59.6328H158.047C158.047 59.3177 157.969 59.0755 157.812 58.9062C157.656 58.737 157.439 58.6523 157.16 58.6523C156.855 58.6523 156.618 58.7591 156.449 58.9727C156.28 59.1862 156.195 59.4896 156.195 59.8828C156.195 60.3073 156.316 60.6315 156.559 60.8555C156.801 61.0768 157.145 61.1875 157.59 61.1875C157.772 61.1875 157.951 61.1784 158.125 61.1602C158.302 61.1393 158.482 61.112 158.664 61.0781L158.766 61.9687C158.51 62.0156 158.276 62.0456 158.062 62.0586C157.849 62.0716 157.66 62.0781 157.496 62.0781Z" fill="white"/>
<path d="M162.672 62.0781C161.992 62.0781 161.501 61.9401 161.199 61.6641C160.897 61.388 160.746 60.9466 160.746 60.3398V59.7344H161.707V60.2617C161.707 60.582 161.788 60.8151 161.949 60.9609C162.113 61.1068 162.38 61.1797 162.75 61.1797C162.872 61.1797 163.004 61.1732 163.145 61.1602C163.285 61.1445 163.445 61.125 163.625 61.1016L163.719 61.9844C163.544 62.0156 163.372 62.0391 163.203 62.0547C163.036 62.0703 162.859 62.0781 162.672 62.0781ZM160.746 60.0078V56.6094H161.707V60.0078H160.746ZM159.734 58.7344V57.8594H163.562V58.7344H159.734Z" fill="white"/>
<path d="M49.9609 125.078C49.4557 125.078 49.0911 124.94 48.8672 124.664C48.6458 124.388 48.5351 123.947 48.5351 123.34V119.141H49.4961V123.301C49.4961 123.491 49.5156 123.647 49.5547 123.77C49.5937 123.889 49.668 123.978 49.7773 124.035C49.8893 124.092 50.0547 124.121 50.2734 124.121C50.4974 124.121 50.7812 124.072 51.125 123.973L51.2344 124.914C51.0182 124.971 50.8086 125.013 50.6055 125.039C50.4049 125.065 50.1901 125.078 49.9609 125.078ZM47.3437 120.016V119.141H48.6055V120.016H47.3437Z" fill="white"/>
<path d="M54.8281 125.039L54.7539 123.813L54.6992 123.352V122.438C54.6992 122.195 54.6042 122.018 54.4141 121.906C54.224 121.792 53.9401 121.729 53.5625 121.719L52.5312 121.691L52.6094 120.82L53.4844 120.832C54.2083 120.842 54.7461 120.991 55.0976 121.277C55.4492 121.561 55.625 121.977 55.625 122.523V124.133L56.25 124.219V125L54.8281 125.039ZM53.4023 125.078C52.9648 125.078 52.625 124.971 52.3828 124.758C52.1432 124.544 52.0234 124.242 52.0234 123.852C52.0234 123.398 52.1849 123.051 52.5078 122.809C52.8307 122.566 53.2878 122.445 53.8789 122.445C54.1133 122.445 54.319 122.458 54.4961 122.484C54.6732 122.51 54.8424 122.551 55.0039 122.605L54.832 123.324C54.6628 123.285 54.5052 123.263 54.3594 123.258C54.2135 123.25 54.0612 123.246 53.9023 123.246C53.2878 123.246 52.9805 123.427 52.9805 123.789C52.9805 123.948 53.0338 124.069 53.1406 124.152C53.25 124.236 53.4075 124.277 53.6133 124.277C53.8529 124.277 54.0534 124.234 54.2148 124.148C54.3763 124.06 54.4974 123.949 54.5781 123.816C54.6588 123.681 54.6992 123.542 54.6992 123.398V123.063L54.8867 124.125H54.5547L54.6914 124C54.6862 124.24 54.6302 124.44 54.5234 124.602C54.4193 124.76 54.2721 124.88 54.082 124.961C53.8919 125.039 53.6654 125.078 53.4023 125.078Z" fill="white"/>
<path d="M57.7344 124.637L57.0156 124.16L59.6562 121.238L60.3437 121.699L57.7344 124.637ZM57.0156 125V124.16H60.4219V125H57.0156ZM57.0156 121.699V120.859H60.3437V121.699H57.0156Z" fill="white"/>
<path d="M61.3164 126.875L61.2773 126.027L61.9648 125.949C62.22 125.918 62.4388 125.849 62.6211 125.742C62.8034 125.635 62.9596 125.477 63.0898 125.266C63.22 125.055 63.3333 124.779 63.4297 124.438L64.4414 120.859H65.457L64.2812 124.633C64.125 125.13 63.9466 125.53 63.7461 125.832C63.5482 126.134 63.3125 126.361 63.0391 126.512C62.7656 126.663 62.4388 126.758 62.0586 126.797L61.3164 126.875ZM62.7305 125L61.2383 120.859H62.2539L63.4101 124.211H63.5742V125H62.7305Z" fill="white"/>
<path d="M188.291 59.4883L192.168 51.5781H193.35L189.473 59.4883H188.291ZM185.879 57.3105V56.2119H195.84V57.3105H185.879ZM185.879 54.8643V53.7656H195.84V54.8643H185.879Z" fill="white"/>
<path d="M211.439 60.085V58.9912H216.42V60.085H211.439Z" fill="white"/>
<path d="M217.299 58.8643V57.7656H222.279V58.8643H217.299ZM217.299 61.3105V60.2119H222.279V61.3105H217.299Z" fill="white"/>
<path d="M232.984 78.0449C232.454 78.0449 232.042 77.8854 231.749 77.5664C231.459 77.2507 231.314 76.8079 231.314 76.2383C231.314 75.9876 231.349 75.7402 231.417 75.4961C231.485 75.252 231.52 74.998 231.52 74.7344C231.52 74.5749 231.454 74.4479 231.324 74.3535C231.197 74.2559 231.028 74.1859 230.816 74.1436C230.608 74.098 230.387 74.0752 230.152 74.0752V73.0303C230.325 73.0303 230.492 73.014 230.655 72.9814C230.818 72.9489 230.965 72.9017 231.095 72.8398C231.225 72.778 231.327 72.6999 231.402 72.6055C231.48 72.5111 231.52 72.4036 231.52 72.2832C231.52 72.0098 231.485 71.7542 231.417 71.5166C231.349 71.2757 231.314 71.0299 231.314 70.7793C231.314 70.2292 231.459 69.806 231.749 69.5098C232.042 69.2103 232.454 69.0605 232.984 69.0605C233.189 69.0605 233.359 69.0703 233.492 69.0898C233.626 69.1061 233.749 69.1289 233.863 69.1582L233.746 70.2031C233.645 70.1868 233.548 70.1755 233.453 70.1689C233.362 70.1592 233.276 70.1543 233.194 70.1543C232.973 70.1543 232.804 70.2275 232.687 70.374C232.573 70.5173 232.516 70.7223 232.516 70.9893C232.516 71.2334 232.553 71.4678 232.628 71.6924C232.703 71.917 232.74 72.153 232.74 72.4004C232.74 72.7324 232.628 72.9912 232.403 73.1768C232.179 73.359 231.865 73.4535 231.461 73.46V73.6455C231.865 73.652 232.179 73.7415 232.403 73.9141C232.628 74.0866 232.74 74.321 232.74 74.6172C232.74 74.8743 232.703 75.1152 232.628 75.3398C232.553 75.5645 232.516 75.7939 232.516 76.0283C232.516 76.3213 232.573 76.5492 232.687 76.7119C232.804 76.8714 232.973 76.9512 233.194 76.9512C233.276 76.9512 233.362 76.9463 233.453 76.9365C233.548 76.9268 233.645 76.9154 233.746 76.9023L233.863 77.9473C233.749 77.9766 233.626 77.9993 233.492 78.0156C233.359 78.0352 233.189 78.0449 232.984 78.0449Z" fill="white"/>
<path d="M236.744 78.0449C236.546 78.0449 236.378 78.0352 236.241 78.0156C236.104 77.9993 235.979 77.9766 235.865 77.9473L235.982 76.9023C236.083 76.9154 236.179 76.9268 236.27 76.9365C236.365 76.9463 236.453 76.9512 236.534 76.9512C236.756 76.9512 236.923 76.8714 237.037 76.7119C237.154 76.5492 237.213 76.3213 237.213 76.0283C237.213 75.7939 237.175 75.5645 237.101 75.3398C237.026 75.1152 236.988 74.8743 236.988 74.6172C236.988 74.321 237.101 74.0866 237.325 73.9141C237.55 73.7415 237.864 73.652 238.268 73.6455V73.46C237.864 73.4535 237.55 73.359 237.325 73.1768C237.101 72.9912 236.988 72.7324 236.988 72.4004C236.988 72.153 237.026 71.917 237.101 71.6924C237.175 71.4678 237.213 71.2334 237.213 70.9893C237.213 70.7223 237.154 70.5173 237.037 70.374C236.923 70.2275 236.756 70.1543 236.534 70.1543C236.453 70.1543 236.365 70.1592 236.27 70.1689C236.179 70.1755 236.083 70.1868 235.982 70.2031L235.865 69.1582C235.979 69.1289 236.104 69.1061 236.241 69.0898C236.378 69.0703 236.546 69.0605 236.744 69.0605C237.275 69.0605 237.685 69.2103 237.975 69.5098C238.268 69.806 238.414 70.2292 238.414 70.7793C238.414 71.0299 238.38 71.2757 238.312 71.5166C238.243 71.7542 238.209 72.0098 238.209 72.2832C238.209 72.4036 238.246 72.5111 238.321 72.6055C238.399 72.6999 238.504 72.778 238.634 72.8398C238.764 72.9017 238.91 72.9489 239.073 72.9814C239.236 73.014 239.404 73.0303 239.576 73.0303V74.0752C239.342 74.0752 239.119 74.098 238.907 74.1436C238.699 74.1859 238.53 74.2559 238.399 74.3535C238.272 74.4479 238.209 74.5749 238.209 74.7344C238.209 74.998 238.243 75.252 238.312 75.4961C238.38 75.7402 238.414 75.9876 238.414 76.2383C238.414 76.8079 238.268 77.2507 237.975 77.5664C237.685 77.8854 237.275 78.0449 236.744 78.0449Z" fill="white"/>
<path d="M56.4707 93.6367V92.416L61.8955 91.3613V91.2734L56.4707 90.2188V88.9981L63.5215 90.7022V91.9326L56.4707 93.6367ZM56.4707 95.375V94.2813H63.5215V95.375H56.4707Z" fill="white"/>
<path d="M150.563 148.514V138.553H151.745V148.514H150.563ZM145.974 148.514V138.553H147.155V148.514H145.974Z" fill="white"/>
<path d="M125.299 160.864V159.766H129.84V160.864H125.299ZM119.879 163.311V162.212H124.42V163.311H119.879ZM119.879 160.864V159.766H124.42V160.864H119.879ZM125.299 163.311V162.212H129.84V163.311H125.299Z" fill="white"/>
<path d="M145.329 206.072V201.004H146.53V206.072H145.329ZM143.488 204.085V202.986H148.371V204.085H143.488Z" fill="white"/>
<path d="M149.299 202.864V201.766H154.279V202.864H149.299ZM149.299 205.311V204.212H154.279V205.311H149.299Z" fill="white"/>
<path d="M104.82 212.175V210.954L108.238 209.582V209.494L104.82 208.122V206.901L109.547 208.947V210.129L104.82 212.175ZM100.367 212.175V210.954L103.736 209.582V209.494L100.367 208.122V206.901L105.045 208.947V210.129L100.367 212.175Z" fill="white"/>
<path d="M129.551 225L127.056 222.114C126.678 221.685 126.405 221.296 126.235 220.947C126.069 220.596 125.986 220.251 125.986 219.912C125.986 219.261 126.156 218.774 126.494 218.452C126.833 218.13 127.344 217.969 128.027 217.969L127.998 219.062C127.744 219.062 127.552 219.134 127.422 219.277C127.295 219.421 127.231 219.635 127.231 219.922C127.231 220.146 127.28 220.363 127.378 220.571C127.479 220.78 127.624 220.994 127.812 221.216L131.025 225H129.551ZM127.256 225.098C126.647 225.098 126.156 224.937 125.781 224.614C125.41 224.289 125.225 223.857 125.225 223.32C125.225 222.77 125.391 222.319 125.723 221.968C126.055 221.613 126.523 221.39 127.129 221.299L127.666 222.139C127.272 222.21 126.968 222.337 126.753 222.52C126.538 222.699 126.431 222.917 126.431 223.174C126.431 223.421 126.517 223.621 126.689 223.774C126.862 223.927 127.09 224.004 127.373 224.004C127.956 224.004 128.407 223.766 128.726 223.291C129.045 222.812 129.204 222.135 129.204 221.26H130.381C130.381 222.48 130.107 223.426 129.561 224.097C129.017 224.764 128.249 225.098 127.256 225.098ZM128.618 219.668C128.618 219.473 128.564 219.323 128.457 219.219C128.35 219.115 128.197 219.062 127.998 219.062L128.027 217.969C128.617 217.969 129.072 218.117 129.395 218.413C129.72 218.709 129.883 219.128 129.883 219.668H128.618Z" fill="white"/>
<path d="M133.188 224.072V219.004H134.39V224.072H133.188ZM131.348 222.085V220.986H136.23V222.085H131.348Z" fill="white"/>
<path d="M82.4336 66L80.251 62.5527C80.0296 62.1979 79.8587 61.8643 79.7383 61.5518C79.6178 61.2393 79.5576 60.9365 79.5576 60.6436C79.5576 60.1097 79.709 59.6979 80.0117 59.4082C80.3177 59.1152 80.7474 58.9687 81.3008 58.9687L81.3105 60.0625C81.1445 60.0625 81.0176 60.1227 80.9297 60.2432C80.845 60.3603 80.8027 60.5378 80.8027 60.7754C80.8027 60.9967 80.8402 61.2067 80.915 61.4053C80.9932 61.6038 81.0973 61.8057 81.2275 62.0107L83.7617 66H82.4336ZM75.6953 66.0977C75.1159 66.0977 74.665 65.9479 74.3428 65.6484C74.0205 65.3457 73.8594 64.9193 73.8594 64.3691C73.8594 63.7897 74.0059 63.3242 74.2988 62.9727C74.5918 62.6211 75.015 62.3965 75.5684 62.2988L76.1055 63.1387C75.7572 63.2168 75.4919 63.3519 75.3096 63.5439C75.1305 63.736 75.041 63.9785 75.041 64.2715C75.041 64.5221 75.1077 64.7158 75.2412 64.8525C75.3747 64.986 75.5651 65.0527 75.8125 65.0527C76.2682 65.0527 76.6133 64.8167 76.8476 64.3447C77.0853 63.8695 77.2041 63.1745 77.2041 62.2598H78.332C78.332 63.0931 78.2213 63.7962 78 64.3691C77.7819 64.9388 77.4743 65.3701 77.0771 65.6631C76.6833 65.9528 76.2226 66.0977 75.6953 66.0977ZM77.4531 66L75.2705 62.5527C75.0426 62.1979 74.8701 61.8626 74.7529 61.5469C74.6357 61.2279 74.5771 60.9268 74.5771 60.6436C74.5771 60.1097 74.7285 59.6979 75.0312 59.4082C75.3372 59.1152 75.7669 58.9687 76.3203 58.9687L76.3252 60.0625C76.1624 60.0625 76.0371 60.1227 75.9492 60.2432C75.8646 60.3603 75.8223 60.5378 75.8223 60.7754C75.8223 60.9967 75.8581 61.2067 75.9297 61.4053C76.0045 61.6006 76.1103 61.8024 76.2471 62.0107L78.7812 66H77.4531ZM80.6758 66.0977C80.0963 66.0977 79.6455 65.9479 79.3232 65.6484C79.001 65.3457 78.8398 64.9193 78.8398 64.3691C78.8398 63.7897 78.9863 63.3242 79.2793 62.9727C79.5723 62.6211 79.9954 62.3965 80.5488 62.2988L81.0859 63.1387C80.7376 63.2168 80.4723 63.3519 80.29 63.5439C80.111 63.736 80.0215 63.9785 80.0215 64.2715C80.0215 64.5221 80.0882 64.7158 80.2217 64.8525C80.3551 64.986 80.5456 65.0527 80.793 65.0527C81.2487 65.0527 81.5937 64.8151 81.8281 64.3398C82.0657 63.8646 82.1846 63.1712 82.1846 62.2598H83.3125C83.3125 63.0931 83.2034 63.7962 82.9853 64.3691C82.7705 64.9388 82.4661 65.3701 82.0723 65.6631C81.6784 65.9528 81.2129 66.0977 80.6758 66.0977ZM76.8135 60.668C76.8135 60.4727 76.7712 60.3229 76.6865 60.2187C76.6019 60.1146 76.4814 60.0625 76.3252 60.0625L76.3203 58.9687C76.8769 58.9687 77.3083 59.1169 77.6143 59.4131C77.9235 59.7093 78.0781 60.1276 78.0781 60.668H76.8135ZM81.7939 60.668C81.7939 60.4727 81.7516 60.3229 81.667 60.2187C81.5823 60.1146 81.4635 60.0625 81.3105 60.0625L81.3008 58.9687C81.8737 58.9687 82.3099 59.1152 82.6094 59.4082C82.9088 59.6979 83.0586 60.1178 83.0586 60.668H81.7939Z" fill="white"/>
<path d="M55.7676 160.045V151.021H56.9443V160.045H55.7676ZM56.8467 160.045V158.937H58.9219V160.045H56.8467ZM56.8467 152.13V151.021H58.9219V152.13H56.8467Z" fill="white"/>
<path d="M62.7646 160.045V151.021H63.9512V160.045H62.7646ZM60.7969 160.045V158.937H62.8623V160.045H60.7969ZM60.7969 152.13V151.021H62.8623V152.13H60.7969Z" fill="white"/>
<path d="M87.3437 189.078C87.1615 189.078 87.0065 189.014 86.8789 188.887C86.7513 188.757 86.6875 188.602 86.6875 188.422C86.6875 188.237 86.7513 188.081 86.8789 187.953C87.0065 187.826 87.1615 187.762 87.3437 187.762C87.5286 187.762 87.6836 187.826 87.8086 187.953C87.9362 188.081 88 188.237 88 188.422C88 188.602 87.9362 188.757 87.8086 188.887C87.6836 189.014 87.5286 189.078 87.3437 189.078Z" fill="white"/>
<path d="M92.4805 189.078C91.7461 189.078 91.1784 188.893 90.7773 188.523C90.3789 188.151 90.1797 187.617 90.1797 186.922C90.1797 186.245 90.3646 185.719 90.7344 185.344C91.1042 184.969 91.6328 184.781 92.3203 184.781C92.7396 184.781 93.0976 184.862 93.3945 185.023C93.694 185.182 93.9062 185.408 94.0312 185.699L93.3164 186.258C93.2018 186.073 93.0547 185.931 92.875 185.832C92.6979 185.73 92.5026 185.68 92.2891 185.68C91.9349 185.68 91.6588 185.784 91.4609 185.992C91.263 186.201 91.1641 186.497 91.1641 186.883C91.1641 187.305 91.2851 187.626 91.5273 187.848C91.7721 188.069 92.1211 188.18 92.5742 188.18C92.7643 188.18 92.9531 188.171 93.1406 188.152C93.3307 188.134 93.5156 188.109 93.6953 188.078L93.7969 188.961C93.5859 189.008 93.3672 189.039 93.1406 189.055C92.9141 189.07 92.694 189.078 92.4805 189.078Z" fill="white"/>
<path d="M96.7187 189.078C96.1328 189.078 95.6771 188.891 95.3516 188.516C95.0286 188.141 94.8672 187.612 94.8672 186.93C94.8672 186.245 95.0286 185.716 95.3516 185.344C95.6771 184.969 96.1328 184.781 96.7187 184.781C97.3073 184.781 97.763 184.969 98.0859 185.344C98.4088 185.716 98.5703 186.245 98.5703 186.93C98.5703 187.612 98.4088 188.141 98.0859 188.516C97.763 188.891 97.3073 189.078 96.7187 189.078ZM96.7187 188.18C96.9948 188.18 97.207 188.072 97.3555 187.855C97.5039 187.637 97.5781 187.328 97.5781 186.93C97.5781 186.529 97.5026 186.22 97.3516 186.004C97.2031 185.788 96.9922 185.68 96.7187 185.68C96.4453 185.68 96.2331 185.788 96.082 186.004C95.9336 186.22 95.8594 186.529 95.8594 186.93C95.8594 187.328 95.9336 187.637 96.082 187.855C96.2331 188.072 96.4453 188.18 96.7187 188.18Z" fill="white"/>
<path d="M102.398 189V186.051C102.398 185.764 102.306 185.621 102.121 185.621C101.9 185.621 101.789 185.789 101.789 186.125L101.508 185.375H101.848C101.866 185.201 101.934 185.059 102.051 184.949C102.171 184.837 102.335 184.781 102.543 184.781C102.824 184.781 103.029 184.858 103.156 185.012C103.286 185.165 103.352 185.414 103.352 185.758V189H102.398ZM99.4609 189V184.859H100.324L100.418 185.734V189H99.4609ZM101.035 189V185.973C101.035 185.738 100.941 185.621 100.754 185.621C100.53 185.621 100.418 185.789 100.418 186.125L100.176 185.375H100.461C100.508 184.979 100.728 184.781 101.121 184.781C101.329 184.781 101.492 184.855 101.609 185.004C101.729 185.152 101.789 185.378 101.789 185.68V189H101.035Z" fill="white"/>
<path d="M104.367 190.797V184.859H105.254L105.332 185.734V190.797H104.367ZM106.465 189.078C106.165 189.078 105.924 189.008 105.742 188.867C105.56 188.727 105.451 188.521 105.414 188.25H105.051L105.332 186.988C105.332 187.4 105.401 187.704 105.539 187.902C105.68 188.1 105.905 188.199 106.215 188.199C106.514 188.199 106.741 188.094 106.895 187.883C107.048 187.672 107.125 187.361 107.125 186.949C107.125 186.533 107.047 186.214 106.891 185.992C106.734 185.771 106.509 185.66 106.215 185.66C105.923 185.66 105.703 185.76 105.555 185.961C105.406 186.159 105.332 186.464 105.332 186.875L105.074 185.609H105.387C105.431 185.339 105.542 185.133 105.719 184.992C105.896 184.852 106.143 184.781 106.461 184.781C106.99 184.781 107.395 184.967 107.676 185.34C107.96 185.712 108.102 186.249 108.102 186.949C108.102 187.639 107.96 188.167 107.676 188.531C107.395 188.896 106.991 189.078 106.465 189.078Z" fill="white"/>
<path d="M111.578 189.039L111.504 187.812L111.449 187.352V186.438C111.449 186.195 111.354 186.018 111.164 185.906C110.974 185.792 110.69 185.729 110.312 185.719L109.281 185.691L109.359 184.82L110.234 184.832C110.958 184.842 111.496 184.991 111.848 185.277C112.199 185.561 112.375 185.977 112.375 186.523V188.133L113 188.219V189L111.578 189.039ZM110.152 189.078C109.715 189.078 109.375 188.971 109.133 188.758C108.893 188.544 108.773 188.242 108.773 187.852C108.773 187.398 108.935 187.051 109.258 186.809C109.581 186.566 110.038 186.445 110.629 186.445C110.863 186.445 111.069 186.458 111.246 186.484C111.423 186.51 111.592 186.551 111.754 186.605L111.582 187.324C111.413 187.285 111.255 187.263 111.109 187.258C110.964 187.25 110.811 187.246 110.652 187.246C110.038 187.246 109.73 187.427 109.73 187.789C109.73 187.948 109.784 188.069 109.891 188.152C110 188.236 110.158 188.277 110.363 188.277C110.603 188.277 110.803 188.234 110.965 188.148C111.126 188.06 111.247 187.949 111.328 187.816C111.409 187.681 111.449 187.542 111.449 187.398V187.062L111.637 188.125H111.305L111.441 188C111.436 188.24 111.38 188.44 111.273 188.602C111.169 188.76 111.022 188.88 110.832 188.961C110.642 189.039 110.415 189.078 110.152 189.078Z" fill="white"/>
<path d="M115.918 189.078C115.184 189.078 114.616 188.893 114.215 188.523C113.816 188.151 113.617 187.617 113.617 186.922C113.617 186.245 113.802 185.719 114.172 185.344C114.542 184.969 115.07 184.781 115.758 184.781C116.177 184.781 116.535 184.862 116.832 185.023C117.132 185.182 117.344 185.408 117.469 185.699L116.754 186.258C116.639 186.073 116.492 185.931 116.312 185.832C116.135 185.73 115.94 185.68 115.727 185.68C115.372 185.68 115.096 185.784 114.898 185.992C114.701 186.201 114.602 186.497 114.602 186.883C114.602 187.305 114.723 187.626 114.965 187.848C115.21 188.069 115.559 188.18 116.012 188.18C116.202 188.18 116.391 188.171 116.578 188.152C116.768 188.134 116.953 188.109 117.133 188.078L117.234 188.961C117.023 189.008 116.805 189.039 116.578 189.055C116.352 189.07 116.132 189.078 115.918 189.078Z" fill="white"/>
<path d="M120.984 189.078C120.305 189.078 119.814 188.94 119.512 188.664C119.21 188.388 119.059 187.947 119.059 187.34V186.734H120.02V187.262C120.02 187.582 120.1 187.815 120.262 187.961C120.426 188.107 120.693 188.18 121.062 188.18C121.185 188.18 121.316 188.173 121.457 188.16C121.598 188.145 121.758 188.125 121.937 188.102L122.031 188.984C121.857 189.016 121.685 189.039 121.516 189.055C121.349 189.07 121.172 189.078 120.984 189.078ZM119.059 187.008V183.609H120.02V187.008H119.059ZM118.047 185.734V184.859H121.875V185.734H118.047Z" fill="white"/>
<path d="M124.711 186.93L124.828 185.895H124.875L125.359 183.453H125.926L125.965 184.438H125.727L125.203 186.93H124.711ZM122.961 189V183.453H123.848V189H122.961ZM124.484 186.93L123.961 184.438H123.723L123.762 183.453H124.328L124.812 185.895H124.844L124.941 186.93H124.484ZM125.84 189V183.453H126.727V189H125.84Z" fill="white"/>
<path d="M130.328 189.039L130.254 187.812L130.199 187.352V186.438C130.199 186.195 130.104 186.018 129.914 185.906C129.724 185.792 129.44 185.729 129.062 185.719L128.031 185.691L128.109 184.82L128.984 184.832C129.708 184.842 130.246 184.991 130.598 185.277C130.949 185.561 131.125 185.977 131.125 186.523V188.133L131.75 188.219V189L130.328 189.039ZM128.902 189.078C128.465 189.078 128.125 188.971 127.883 188.758C127.643 188.544 127.523 188.242 127.523 187.852C127.523 187.398 127.685 187.051 128.008 186.809C128.331 186.566 128.788 186.445 129.379 186.445C129.613 186.445 129.819 186.458 129.996 186.484C130.173 186.51 130.342 186.551 130.504 186.605L130.332 187.324C130.163 187.285 130.005 187.263 129.859 187.258C129.714 187.25 129.561 187.246 129.402 187.246C128.788 187.246 128.48 187.427 128.48 187.789C128.48 187.948 128.534 188.069 128.641 188.152C128.75 188.236 128.908 188.277 129.113 188.277C129.353 188.277 129.553 188.234 129.715 188.148C129.876 188.06 129.997 187.949 130.078 187.816C130.159 187.681 130.199 187.542 130.199 187.398V187.062L130.387 188.125H130.055L130.191 188C130.186 188.24 130.13 188.44 130.023 188.602C129.919 188.76 129.772 188.88 129.582 188.961C129.392 189.039 129.165 189.078 128.902 189.078Z" fill="white"/>
<path d="M132.492 190.797V184.859H133.379L133.457 185.734V190.797H132.492ZM134.59 189.078C134.29 189.078 134.049 189.008 133.867 188.867C133.685 188.727 133.576 188.521 133.539 188.25H133.176L133.457 186.988C133.457 187.4 133.526 187.704 133.664 187.902C133.805 188.1 134.03 188.199 134.34 188.199C134.639 188.199 134.866 188.094 135.02 187.883C135.173 187.672 135.25 187.361 135.25 186.949C135.25 186.533 135.172 186.214 135.016 185.992C134.859 185.771 134.634 185.66 134.34 185.66C134.048 185.66 133.828 185.76 133.68 185.961C133.531 186.159 133.457 186.464 133.457 186.875L133.199 185.609H133.512C133.556 185.339 133.667 185.133 133.844 184.992C134.021 184.852 134.268 184.781 134.586 184.781C135.115 184.781 135.52 184.967 135.801 185.34C136.085 185.712 136.227 186.249 136.227 186.949C136.227 187.639 136.085 188.167 135.801 188.531C135.52 188.896 135.116 189.078 134.59 189.078Z" fill="white"/>
<path d="M144.437 189.836C144.013 189.836 143.684 189.708 143.449 189.453C143.217 189.201 143.102 188.846 143.102 188.391C143.102 188.19 143.129 187.992 143.184 187.797C143.238 187.602 143.266 187.398 143.266 187.188C143.266 187.06 143.214 186.958 143.109 186.883C143.008 186.805 142.872 186.749 142.703 186.715C142.536 186.678 142.359 186.66 142.172 186.66V185.824C142.31 185.824 142.444 185.811 142.574 185.785C142.704 185.759 142.822 185.721 142.926 185.672C143.03 185.622 143.112 185.56 143.172 185.484C143.234 185.409 143.266 185.323 143.266 185.227C143.266 185.008 143.238 184.803 143.184 184.613C143.129 184.421 143.102 184.224 143.102 184.023C143.102 183.583 143.217 183.245 143.449 183.008C143.684 182.768 144.013 182.648 144.437 182.648C144.602 182.648 144.737 182.656 144.844 182.672C144.951 182.685 145.049 182.703 145.141 182.727L145.047 183.562C144.966 183.549 144.888 183.54 144.812 183.535C144.74 183.527 144.671 183.523 144.605 183.523C144.428 183.523 144.293 183.582 144.199 183.699C144.108 183.814 144.062 183.978 144.062 184.191C144.062 184.387 144.092 184.574 144.152 184.754C144.212 184.934 144.242 185.122 144.242 185.32C144.242 185.586 144.152 185.793 143.973 185.941C143.793 186.087 143.542 186.163 143.219 186.168V186.316C143.542 186.322 143.793 186.393 143.973 186.531C144.152 186.669 144.242 186.857 144.242 187.094C144.242 187.299 144.212 187.492 144.152 187.672C144.092 187.852 144.062 188.035 144.062 188.223C144.062 188.457 144.108 188.639 144.199 188.77C144.293 188.897 144.428 188.961 144.605 188.961C144.671 188.961 144.74 188.957 144.812 188.949C144.888 188.941 144.966 188.932 145.047 188.922L145.141 189.758C145.049 189.781 144.951 189.799 144.844 189.812C144.737 189.828 144.602 189.836 144.437 189.836Z" fill="white"/>
<path d="M152.617 190.25V182.203H153.426V190.25H152.617ZM152.777 189.078C152.462 189.078 152.16 189.052 151.871 189C151.585 188.948 151.324 188.872 151.09 188.773L151.215 187.824C151.501 187.947 151.783 188.04 152.059 188.105C152.335 188.168 152.595 188.199 152.84 188.199C153.152 188.199 153.388 188.145 153.547 188.035C153.708 187.923 153.789 187.76 153.789 187.547C153.789 187.268 153.63 187.056 153.312 186.91L152.449 186.5C152.061 186.318 151.762 186.092 151.551 185.824C151.342 185.556 151.238 185.247 151.238 184.898C151.238 184.414 151.392 184.039 151.699 183.773C152.009 183.508 152.447 183.375 153.012 183.375C153.366 183.375 153.691 183.434 153.988 183.551C154.288 183.665 154.561 183.84 154.809 184.074L154.164 184.785C153.964 184.608 153.768 184.475 153.578 184.387C153.391 184.296 153.203 184.25 153.016 184.25C152.771 184.25 152.581 184.306 152.445 184.418C152.31 184.527 152.242 184.688 152.242 184.898C152.242 185.044 152.288 185.173 152.379 185.285C152.473 185.395 152.607 185.493 152.781 185.582L153.559 185.969C153.957 186.167 154.262 186.396 154.473 186.656C154.686 186.914 154.793 187.212 154.793 187.551C154.793 188.048 154.621 188.427 154.277 188.688C153.936 188.948 153.436 189.078 152.777 189.078Z" fill="white"/>
<path d="M157.656 189.078C156.37 189.078 155.727 188.141 155.727 186.266C155.727 184.339 156.37 183.375 157.656 183.375C158.943 183.375 159.586 184.339 159.586 186.266C159.586 188.141 158.943 189.078 157.656 189.078ZM157.652 186.93C157.488 186.93 157.355 186.87 157.254 186.75C157.155 186.628 157.105 186.466 157.105 186.266C157.105 186.065 157.155 185.905 157.254 185.785C157.355 185.663 157.488 185.602 157.652 185.602C157.816 185.602 157.948 185.663 158.047 185.785C158.148 185.905 158.199 186.065 158.199 186.266C158.199 186.466 158.148 186.628 158.047 186.75C157.948 186.87 157.816 186.93 157.652 186.93ZM157.656 188.199C158.294 188.199 158.613 187.555 158.613 186.266C158.613 184.924 158.294 184.254 157.656 184.254C157.013 184.254 156.691 184.924 156.691 186.266C156.691 187.555 157.013 188.199 157.656 188.199Z" fill="white"/>
<path d="M166.195 189.836C166.036 189.836 165.902 189.828 165.793 189.812C165.684 189.799 165.583 189.781 165.492 189.758L165.586 188.922C165.667 188.932 165.743 188.941 165.816 188.949C165.892 188.957 165.962 188.961 166.027 188.961C166.204 188.961 166.339 188.897 166.43 188.77C166.523 188.639 166.57 188.457 166.57 188.223C166.57 188.035 166.54 187.852 166.48 187.672C166.421 187.492 166.391 187.299 166.391 187.094C166.391 186.857 166.48 186.669 166.66 186.531C166.84 186.393 167.091 186.322 167.414 186.316V186.168C167.091 186.163 166.84 186.087 166.66 185.941C166.48 185.793 166.391 185.586 166.391 185.32C166.391 185.122 166.421 184.934 166.48 184.754C166.54 184.574 166.57 184.387 166.57 184.191C166.57 183.978 166.523 183.814 166.43 183.699C166.339 183.582 166.204 183.523 166.027 183.523C165.962 183.523 165.892 183.527 165.816 183.535C165.743 183.54 165.667 183.549 165.586 183.562L165.492 182.727C165.583 182.703 165.684 182.685 165.793 182.672C165.902 182.656 166.036 182.648 166.195 182.648C166.62 182.648 166.948 182.768 167.18 183.008C167.414 183.245 167.531 183.583 167.531 184.023C167.531 184.224 167.504 184.421 167.449 184.613C167.395 184.803 167.367 185.008 167.367 185.227C167.367 185.323 167.397 185.409 167.457 185.484C167.52 185.56 167.603 185.622 167.707 185.672C167.811 185.721 167.928 185.759 168.059 185.785C168.189 185.811 168.323 185.824 168.461 185.824V186.66C168.273 186.66 168.095 186.678 167.926 186.715C167.759 186.749 167.624 186.805 167.52 186.883C167.418 186.958 167.367 187.06 167.367 187.188C167.367 187.398 167.395 187.602 167.449 187.797C167.504 187.992 167.531 188.19 167.531 188.391C167.531 188.846 167.414 189.201 167.18 189.453C166.948 189.708 166.62 189.836 166.195 189.836Z" fill="white"/>
<path d="M195.137 185V181.094H196.098V185H195.137ZM193.586 185V184.125H195.215V185H193.586ZM196.02 185V184.125H197.344V185H196.02ZM193.82 181.734V180.859H196.098V181.734H193.82ZM195.578 180.262C195.393 180.262 195.241 180.202 195.121 180.082C195.001 179.962 194.941 179.81 194.941 179.625C194.941 179.44 195.001 179.288 195.121 179.168C195.241 179.048 195.393 178.988 195.578 178.988C195.763 178.988 195.915 179.048 196.035 179.168C196.155 179.288 196.215 179.44 196.215 179.625C196.215 179.81 196.155 179.962 196.035 180.082C195.915 180.202 195.763 180.262 195.578 180.262Z" fill="white"/>
<path d="M200.793 185V182.461C200.793 182.211 200.736 182.018 200.621 181.883C200.506 181.747 200.345 181.68 200.137 181.68C199.559 181.68 199.27 182.062 199.27 182.828L199.027 181.609H199.363C199.395 181.331 199.491 181.124 199.652 180.988C199.816 180.85 200.06 180.781 200.383 180.781C200.82 180.781 201.159 180.914 201.398 181.18C201.638 181.445 201.758 181.82 201.758 182.305V185H200.793ZM198.305 185V180.859H199.172L199.27 181.734V185H198.305Z" fill="white"/>
<path d="M204.719 185.078C204.133 185.078 203.677 184.891 203.352 184.516C203.029 184.141 202.867 183.612 202.867 182.93C202.867 182.245 203.029 181.716 203.352 181.344C203.677 180.969 204.133 180.781 204.719 180.781C205.307 180.781 205.763 180.969 206.086 181.344C206.409 181.716 206.57 182.245 206.57 182.93C206.57 183.612 206.409 184.141 206.086 184.516C205.763 184.891 205.307 185.078 204.719 185.078ZM204.719 184.18C204.995 184.18 205.207 184.072 205.355 183.855C205.504 183.637 205.578 183.328 205.578 182.93C205.578 182.529 205.503 182.22 205.352 182.004C205.203 181.788 204.992 181.68 204.719 181.68C204.445 181.68 204.233 181.788 204.082 182.004C203.934 182.22 203.859 182.529 203.859 182.93C203.859 183.328 203.934 183.637 204.082 183.855C204.233 184.072 204.445 184.18 204.719 184.18Z" fill="white"/>
<path d="M208.883 185.078C208.471 185.078 208.154 184.949 207.93 184.691C207.706 184.431 207.594 184.065 207.594 183.594V180.859H208.559V183.438C208.559 183.674 208.618 183.858 208.738 183.988C208.858 184.116 209.023 184.18 209.234 184.18C209.505 184.18 209.708 184.085 209.844 183.895C209.982 183.702 210.051 183.38 210.051 182.93L210.262 184.203H209.961C209.896 184.484 209.768 184.701 209.578 184.852C209.391 185.003 209.159 185.078 208.883 185.078ZM210.121 185.039L210.051 184.047V183.32H211.016V184.133L211.586 184.219V185L210.121 185.039ZM210.051 183.828V180.859H211.016V183.594L210.051 183.828Z" fill="white"/>
<path d="M214.922 185.078C214.242 185.078 213.751 184.94 213.449 184.664C213.147 184.388 212.996 183.947 212.996 183.34V182.734H213.957V183.262C213.957 183.582 214.038 183.815 214.199 183.961C214.363 184.107 214.63 184.18 215 184.18C215.122 184.18 215.254 184.173 215.395 184.16C215.535 184.145 215.695 184.125 215.875 184.102L215.969 184.984C215.794 185.016 215.622 185.039 215.453 185.055C215.286 185.07 215.109 185.078 214.922 185.078ZM212.996 183.008V179.609H213.957V183.008H212.996ZM211.984 181.734V180.859H215.812V181.734H211.984Z" fill="white"/>
<path d="M174.141 42.0391L174.066 40.8125L174.012 40.3516V39.4375C174.012 39.1953 173.917 39.0182 173.727 38.9062C173.536 38.7917 173.253 38.7292 172.875 38.7187L171.844 38.6914L171.922 37.8203L172.797 37.832C173.521 37.8424 174.059 37.9909 174.41 38.2773C174.762 38.5612 174.937 38.9766 174.937 39.5234V41.1328L175.562 41.2187V42L174.141 42.0391ZM172.715 42.0781C172.277 42.0781 171.937 41.9713 171.695 41.7578C171.456 41.5443 171.336 41.2422 171.336 40.8516C171.336 40.3984 171.497 40.0508 171.82 39.8086C172.143 39.5664 172.6 39.4453 173.191 39.4453C173.426 39.4453 173.631 39.4583 173.809 39.4844C173.986 39.5104 174.155 39.5508 174.316 39.6055L174.145 40.3242C173.975 40.2851 173.818 40.263 173.672 40.2578C173.526 40.25 173.374 40.2461 173.215 40.2461C172.6 40.2461 172.293 40.4271 172.293 40.7891C172.293 40.9479 172.346 41.069 172.453 41.1523C172.562 41.2357 172.72 41.2773 172.926 41.2773C173.165 41.2773 173.366 41.2344 173.527 41.1484C173.689 41.0599 173.81 40.9492 173.891 40.8164C173.971 40.681 174.012 40.5417 174.012 40.3984V40.0625L174.199 41.125H173.867L174.004 41C173.999 41.2396 173.943 41.4401 173.836 41.6016C173.732 41.7604 173.585 41.8802 173.395 41.9609C173.204 42.0391 172.978 42.0781 172.715 42.0781Z" fill="white"/>
<path d="M177.711 42.0781C177.396 42.0781 177.121 42.0677 176.887 42.0469C176.652 42.0286 176.443 42 176.258 41.9609L176.371 41.0547C176.676 41.0963 176.937 41.1276 177.156 41.1484C177.375 41.1693 177.56 41.1797 177.711 41.1797C178.091 41.1797 178.366 41.1484 178.535 41.0859C178.707 41.0234 178.793 40.9245 178.793 40.7891C178.793 40.7031 178.768 40.6367 178.719 40.5898C178.669 40.543 178.591 40.5052 178.484 40.4766L177.293 40.1445C176.965 40.0534 176.72 39.9284 176.559 39.7695C176.4 39.6081 176.32 39.3815 176.32 39.0898C176.32 38.6419 176.501 38.3125 176.863 38.1016C177.228 37.888 177.794 37.7812 178.562 37.7812C178.75 37.7812 178.935 37.7878 179.117 37.8008C179.302 37.8138 179.495 37.8333 179.695 37.8594L179.594 38.7344C179.367 38.7135 179.168 38.6992 178.996 38.6914C178.827 38.6836 178.674 38.6797 178.539 38.6797C178.109 38.6797 177.797 38.7096 177.602 38.7695C177.409 38.8294 177.312 38.9258 177.312 39.0586C177.312 39.1471 177.341 39.2122 177.398 39.2539C177.456 39.2956 177.544 39.332 177.664 39.3633L178.664 39.6328C179.052 39.7318 179.339 39.8711 179.523 40.0508C179.711 40.2305 179.805 40.4753 179.805 40.7851C179.805 41.2279 179.634 41.5547 179.293 41.7656C178.954 41.974 178.427 42.0781 177.711 42.0781Z" fill="white"/>
<path d="M180.629 43.875L180.59 43.0273L181.277 42.9492C181.533 42.918 181.751 42.849 181.934 42.7422C182.116 42.6354 182.272 42.4766 182.402 42.2656C182.533 42.0547 182.646 41.7786 182.742 41.4375L183.754 37.8594H184.77L183.594 41.6328C183.437 42.1302 183.259 42.5299 183.059 42.832C182.861 43.1341 182.625 43.3607 182.352 43.5117C182.078 43.6628 181.751 43.7578 181.371 43.7969L180.629 43.875ZM182.043 42L180.551 37.8594H181.566L182.723 41.2109H182.887V42H182.043Z" fill="white"/>
<path d="M188.168 42V39.4609C188.168 39.2109 188.111 39.0182 187.996 38.8828C187.881 38.7474 187.72 38.6797 187.512 38.6797C186.934 38.6797 186.645 39.0625 186.645 39.8281L186.402 38.6094H186.738C186.77 38.3307 186.866 38.1237 187.027 37.9883C187.191 37.8503 187.435 37.7812 187.758 37.7812C188.195 37.7812 188.534 37.9141 188.773 38.1797C189.013 38.4453 189.133 38.8203 189.133 39.3047V42H188.168ZM185.68 42V37.8594H186.547L186.645 38.7344V42H185.68Z" fill="white"/>
<path d="M192.543 42.0781C191.809 42.0781 191.241 41.8932 190.84 41.5234C190.441 41.151 190.242 40.6172 190.242 39.9219C190.242 39.2448 190.427 38.7187 190.797 38.3437C191.167 37.9687 191.695 37.7812 192.383 37.7812C192.802 37.7812 193.16 37.862 193.457 38.0234C193.756 38.1823 193.969 38.4075 194.094 38.6992L193.379 39.2578C193.264 39.0729 193.117 38.931 192.937 38.832C192.76 38.7305 192.565 38.6797 192.352 38.6797C191.997 38.6797 191.721 38.7838 191.523 38.9922C191.326 39.2005 191.227 39.4974 191.227 39.8828C191.227 40.3047 191.348 40.6263 191.59 40.8476C191.835 41.069 192.184 41.1797 192.637 41.1797C192.827 41.1797 193.016 41.1706 193.203 41.1523C193.393 41.1341 193.578 41.1094 193.758 41.0781L193.859 41.9609C193.648 42.0078 193.43 42.0391 193.203 42.0547C192.977 42.0703 192.756 42.0781 192.543 42.0781Z" fill="white"/>
<path d="M202.266 42.0391L202.191 40.8125L202.137 40.3516V39.4375C202.137 39.1953 202.042 39.0182 201.852 38.9062C201.661 38.7917 201.378 38.7292 201 38.7187L199.969 38.6914L200.047 37.8203L200.922 37.832C201.646 37.8424 202.184 37.9909 202.535 38.2773C202.887 38.5612 203.062 38.9766 203.062 39.5234V41.1328L203.687 41.2187V42L202.266 42.0391ZM200.84 42.0781C200.402 42.0781 200.062 41.9713 199.82 41.7578C199.581 41.5443 199.461 41.2422 199.461 40.8516C199.461 40.3984 199.622 40.0508 199.945 39.8086C200.268 39.5664 200.725 39.4453 201.316 39.4453C201.551 39.4453 201.756 39.4583 201.934 39.4844C202.111 39.5104 202.28 39.5508 202.441 39.6055L202.27 40.3242C202.1 40.2851 201.943 40.263 201.797 40.2578C201.651 40.25 201.499 40.2461 201.34 40.2461C200.725 40.2461 200.418 40.4271 200.418 40.7891C200.418 40.9479 200.471 41.069 200.578 41.1523C200.687 41.2357 200.845 41.2773 201.051 41.2773C201.29 41.2773 201.491 41.2344 201.652 41.1484C201.814 41.0599 201.935 40.9492 202.016 40.8164C202.096 40.681 202.137 40.5417 202.137 40.3984V40.0625L202.324 41.125H201.992L202.129 41C202.124 41.2396 202.068 41.4401 201.961 41.6016C201.857 41.7604 201.71 41.8802 201.52 41.9609C201.329 42.0391 201.103 42.0781 200.84 42.0781Z" fill="white"/>
<path d="M206.586 42L206.141 38.8125H206.078L205.738 37.8594H206.496L206.977 41.1601H207.047L207.34 37.8594H208.266L207.797 42H206.586ZM204.398 42L204.047 37.8594H204.977L205.187 41.1601H205.258L205.738 37.8594H206.496L206.148 38.8125H206.094L205.648 42H204.398Z" fill="white"/>
<path d="M211.641 42.0391L211.566 40.8125L211.512 40.3516V39.4375C211.512 39.1953 211.417 39.0182 211.227 38.9062C211.036 38.7917 210.753 38.7292 210.375 38.7187L209.344 38.6914L209.422 37.8203L210.297 37.832C211.021 37.8424 211.559 37.9909 211.91 38.2773C212.262 38.5612 212.437 38.9766 212.437 39.5234V41.1328L213.062 41.2187V42L211.641 42.0391ZM210.215 42.0781C209.777 42.0781 209.437 41.9713 209.195 41.7578C208.956 41.5443 208.836 41.2422 208.836 40.8516C208.836 40.3984 208.997 40.0508 209.32 39.8086C209.643 39.5664 210.1 39.4453 210.691 39.4453C210.926 39.4453 211.131 39.4583 211.309 39.4844C211.486 39.5104 211.655 39.5508 211.816 39.6055L211.645 40.3242C211.475 40.2851 211.318 40.263 211.172 40.2578C211.026 40.25 210.874 40.2461 210.715 40.2461C210.1 40.2461 209.793 40.4271 209.793 40.7891C209.793 40.9479 209.846 41.069 209.953 41.1523C210.062 41.2357 210.22 41.2773 210.426 41.2773C210.665 41.2773 210.866 41.2344 211.027 41.1484C211.189 41.0599 211.31 40.9492 211.391 40.8164C211.471 40.681 211.512 40.5417 211.512 40.3984V40.0625L211.699 41.125H211.367L211.504 41C211.499 41.2396 211.443 41.4401 211.336 41.6016C211.232 41.7604 211.085 41.8802 210.895 41.9609C210.704 42.0391 210.478 42.0781 210.215 42.0781Z" fill="white"/>
<path d="M215.324 42V38.0937H216.285V42H215.324ZM213.773 42V41.125H215.402V42H213.773ZM216.207 42V41.125H217.531V42H216.207ZM214.008 38.7344V37.8594H216.285V38.7344H214.008ZM215.766 37.2617C215.581 37.2617 215.428 37.2018 215.309 37.082C215.189 36.9622 215.129 36.8099 215.129 36.625C215.129 36.4401 215.189 36.2878 215.309 36.168C215.428 36.0482 215.581 35.9883 215.766 35.9883C215.951 35.9883 216.103 36.0482 216.223 36.168C216.342 36.2878 216.402 36.4401 216.402 36.625C216.402 36.8099 216.342 36.9622 216.223 37.082C216.103 37.2018 215.951 37.2617 215.766 37.2617Z" fill="white"/>
<path d="M221.047 42.0781C220.367 42.0781 219.876 41.9401 219.574 41.6641C219.272 41.388 219.121 40.9466 219.121 40.3398V39.7344H220.082V40.2617C220.082 40.582 220.163 40.8151 220.324 40.9609C220.488 41.1068 220.755 41.1797 221.125 41.1797C221.247 41.1797 221.379 41.1732 221.52 41.1601C221.66 41.1445 221.82 41.125 222 41.1016L222.094 41.9844C221.919 42.0156 221.747 42.0391 221.578 42.0547C221.411 42.0703 221.234 42.0781 221.047 42.0781ZM219.121 40.0078V36.6094H220.082V40.0078H219.121ZM218.109 38.7344V37.8594H221.937V38.7344H218.109Z" fill="white"/>
<path d="M246.152 180.959L242.415 180.335C241.002 180.098 240.407 179.314 240.63 177.981C240.681 177.675 240.756 177.384 240.855 177.108L241.703 177.344C241.654 177.51 241.615 177.657 241.586 177.784C241.557 177.911 241.532 178.034 241.512 178.152C241.398 178.838 241.739 179.247 242.535 179.38L246.311 180.011L246.152 180.959ZM243.53 181.816L242.705 181.678L243.349 177.825L244.174 177.963L243.53 181.816Z" fill="white"/>
<path d="M247.029 175.712L243.176 175.068L243.335 174.12L247.188 174.764L247.029 175.712ZM246.774 177.241L245.911 177.097L246.179 175.49L247.042 175.635L246.774 177.241ZM247.175 174.841L246.312 174.697L246.53 173.391L247.393 173.535L247.175 174.841ZM243.591 176.472L242.728 176.327L243.104 174.081L243.967 174.226L243.591 176.472ZM242.429 174.495C242.398 174.678 242.314 174.818 242.176 174.916C242.038 175.015 241.878 175.049 241.696 175.018C241.513 174.988 241.373 174.904 241.274 174.766C241.176 174.628 241.142 174.468 241.173 174.285C241.203 174.103 241.287 173.963 241.425 173.864C241.563 173.766 241.723 173.732 241.905 173.762C242.088 173.793 242.228 173.877 242.327 174.015C242.425 174.153 242.459 174.313 242.429 174.495Z" fill="white"/>
<path d="M248.015 170.288C247.932 170.787 247.735 171.123 247.426 171.299C247.117 171.472 246.664 171.508 246.065 171.408L241.924 170.716L242.082 169.768L246.185 170.454C246.373 170.485 246.53 170.492 246.657 170.473C246.782 170.454 246.881 170.396 246.956 170.297C247.031 170.196 247.086 170.038 247.122 169.822C247.159 169.601 247.157 169.313 247.116 168.958L248.063 169.005C248.084 169.228 248.09 169.441 248.083 169.646C248.075 169.848 248.053 170.062 248.015 170.288ZM242.59 172.035L241.727 171.891L241.935 170.646L242.798 170.791L242.59 172.035Z" fill="white"/>
<path d="M248.742 165.938C248.625 166.64 248.352 167.151 247.923 167.473C247.492 167.794 246.933 167.898 246.247 167.783C245.58 167.671 245.088 167.423 244.772 167.037C244.457 166.649 244.348 166.16 244.447 165.569C244.542 164.999 244.786 164.587 245.177 164.333C245.568 164.076 246.086 164.001 246.731 164.109C246.918 164.141 247.093 164.178 247.255 164.221L246.763 167.164L246.077 167.049L246.421 164.992C246.11 164.94 245.858 164.977 245.666 165.103C245.473 165.23 245.354 165.43 245.308 165.705C245.257 166.006 245.324 166.257 245.506 166.459C245.689 166.661 245.974 166.795 246.362 166.86C246.781 166.929 247.121 166.863 247.381 166.662C247.64 166.459 247.805 166.138 247.879 165.699C247.909 165.519 247.929 165.342 247.94 165.167C247.949 164.989 247.951 164.807 247.948 164.622L248.843 164.668C248.847 164.928 248.838 165.164 248.816 165.377C248.794 165.589 248.769 165.777 248.742 165.938Z" fill="white"/>
<path d="M250.869 163.637L245.013 162.658L245.159 161.783L246.035 161.85L251.028 162.685L250.869 163.637ZM249.52 161.284C249.47 161.58 249.361 161.806 249.193 161.962C249.024 162.119 248.803 162.193 248.53 162.184L248.47 162.542L247.272 162.057C247.678 162.125 247.99 162.107 248.207 162.004C248.426 161.897 248.561 161.692 248.612 161.386C248.661 161.091 248.594 160.85 248.412 160.663C248.229 160.477 247.935 160.35 247.529 160.282C247.118 160.213 246.79 160.238 246.546 160.356C246.302 160.473 246.156 160.677 246.107 160.967C246.059 161.255 246.122 161.489 246.295 161.668C246.466 161.847 246.754 161.971 247.16 162.038L245.869 162.084L245.921 161.776C245.661 161.687 245.476 161.544 245.367 161.347C245.257 161.149 245.229 160.893 245.281 160.58C245.368 160.058 245.619 159.69 246.032 159.474C246.446 159.255 246.999 159.203 247.69 159.319C248.37 159.433 248.867 159.66 249.18 160C249.493 160.337 249.606 160.765 249.52 161.284Z" fill="white"/>
<path d="M248.362 156.932L246.966 156.944L247.023 156.605C246.331 156.445 246.042 156.028 246.154 155.355C246.221 154.955 246.405 154.676 246.706 154.521C247.006 154.365 247.426 154.332 247.966 154.422L247.807 155.37C247.543 155.326 247.345 155.339 247.214 155.41C247.084 155.478 247.003 155.609 246.97 155.805C246.921 156.097 247.018 156.338 247.261 156.527C247.505 156.715 247.871 156.85 248.362 156.932ZM249.813 159.056L248.988 158.918L249.457 156.113L250.282 156.251L249.813 159.056ZM249.96 158.174L245.876 157.491L246.009 156.697L247.206 156.739L250.119 157.226L249.96 158.174ZM246.579 158.357L245.755 158.219L246 156.751L246.837 156.812L246.579 158.357Z" fill="white"/>
<path d="M250.893 152.595L247.04 151.951L247.199 151.003L251.051 151.647L250.893 152.595ZM250.637 154.124L249.774 153.98L250.043 152.374L250.906 152.518L250.637 154.124ZM251.038 151.724L250.175 151.58L250.394 150.274L251.257 150.418L251.038 151.724ZM247.455 153.355L246.592 153.211L246.967 150.964L247.83 151.109L247.455 153.355ZM246.292 151.378C246.262 151.561 246.178 151.701 246.04 151.8C245.902 151.898 245.742 151.932 245.559 151.901C245.377 151.871 245.236 151.787 245.138 151.649C245.04 151.511 245.006 151.351 245.036 151.168C245.067 150.986 245.151 150.846 245.289 150.747C245.427 150.649 245.587 150.615 245.769 150.645C245.952 150.676 246.092 150.76 246.19 150.898C246.289 151.036 246.323 151.196 246.292 151.378Z" fill="white"/>
<path d="M251.596 148.388L247.274 149.127L247.439 148.14L250.866 147.663L250.877 147.594L247.792 146.029L247.957 145.043L251.803 147.147L251.596 148.388Z" fill="white"/>
<path d="M252.642 142.364L251.42 142.235L250.957 142.213L250.055 142.063C249.816 142.023 249.626 142.087 249.484 142.256C249.34 142.425 249.231 142.695 249.159 143.065L248.962 144.078L248.116 143.857L248.271 142.996C248.401 142.284 248.636 141.778 248.977 141.478C249.315 141.178 249.753 141.074 250.293 141.164L251.88 141.429L252.068 140.827L252.838 140.956L252.642 142.364ZM252.446 143.777C252.374 144.209 252.212 144.526 251.962 144.73C251.712 144.931 251.394 144.999 251.009 144.935C250.562 144.86 250.246 144.644 250.06 144.285C249.874 143.927 249.83 143.456 249.928 142.873C249.966 142.642 250.013 142.441 250.068 142.271C250.123 142.1 250.191 141.94 250.271 141.79L250.952 142.078C250.885 142.238 250.837 142.39 250.808 142.533C250.776 142.676 250.748 142.825 250.721 142.982C250.62 143.588 250.748 143.921 251.105 143.981C251.262 144.007 251.39 143.974 251.49 143.883C251.59 143.788 251.657 143.64 251.691 143.437C251.73 143.201 251.721 142.996 251.663 142.822C251.602 142.649 251.513 142.511 251.395 142.409C251.275 142.307 251.144 142.245 251.003 142.221L250.672 142.166L251.751 142.156L251.696 142.483L251.595 142.328C251.83 142.373 252.019 142.461 252.161 142.593C252.3 142.722 252.394 142.887 252.442 143.087C252.488 143.288 252.489 143.518 252.446 143.777Z" fill="white"/>
<path d="M253.459 137.717C253.347 138.387 253.13 138.848 252.808 139.101C252.486 139.353 252.025 139.43 251.427 139.329L250.83 139.23L250.988 138.282L251.508 138.369C251.824 138.422 252.067 138.38 252.238 138.245C252.409 138.107 252.525 137.856 252.586 137.491C252.606 137.371 252.621 137.24 252.631 137.099C252.639 136.958 252.646 136.797 252.653 136.616L253.539 136.669C253.541 136.846 253.536 137.019 253.523 137.189C253.511 137.356 253.49 137.532 253.459 137.717ZM251.099 139.275L247.747 138.715L247.906 137.767L251.258 138.327L251.099 139.275ZM249.677 140.063L248.814 139.918L249.445 136.143L250.308 136.287L249.677 140.063Z" fill="white"/>
<path d="M254.151 133.575C254.034 134.276 253.761 134.788 253.332 135.109C252.901 135.431 252.342 135.534 251.657 135.419C250.989 135.308 250.497 135.059 250.181 134.674C249.866 134.286 249.758 133.796 249.856 133.206C249.952 132.635 250.195 132.223 250.586 131.969C250.977 131.712 251.495 131.638 252.14 131.746C252.327 131.777 252.502 131.814 252.664 131.857L252.172 134.801L251.486 134.686L251.83 132.628C251.519 132.577 251.267 132.614 251.075 132.74C250.882 132.866 250.763 133.067 250.717 133.341C250.667 133.642 250.733 133.893 250.915 134.095C251.098 134.298 251.383 134.431 251.771 134.496C252.19 134.566 252.53 134.5 252.791 134.298C253.049 134.096 253.215 133.775 253.288 133.336C253.318 133.156 253.339 132.978 253.349 132.803C253.358 132.625 253.361 132.443 253.357 132.258L254.252 132.305C254.257 132.564 254.248 132.8 254.225 133.013C254.203 133.226 254.178 133.413 254.151 133.575Z" fill="white"/>
<path d="M217.439 156.085V154.991H222.957V156.085H217.439Z" fill="white"/>
<path d="M222.762 156.085V154.991H227.684V156.085H222.762ZM225.389 158.99L224.632 158.263L227.225 155.582V155.494L224.632 152.813L225.389 152.086L228.406 155.24V155.836L225.389 158.99Z" fill="white"/>
<path d="M245.396 114.928L249.234 106.139H250.455L246.612 114.928H245.396ZM249.703 114.928L253.541 106.139H254.762L250.919 114.928H249.703Z" fill="white"/>
</svg>
