<svg xmlns="http://www.w3.org/2000/svg" width="800" height="800" viewBox="0 0 64 64"><path fill="#1d1d1b" d="M34 7c5-.34 8.5 0 15.75 7s7.94 12 8.13 18.25a22.62 22.62 0 0 1-6.38 16.47c-4.06 4-11.43 9.13-20.9 8.19S17 53.64 12.36 48 6.17 34 6.07 30.55s1.69-9.06 6.07-14.12S20.14 8 34 7z"/><path fill="#e6e4da" d="M30.57 9.24c4.19-.41 8.29-.53 11.88 1.31s8.94 8 9.81 9.06a7.75 7.75 0 0 1 1.28 2.19s-1.75 1.2-1.09 4.25 1.81 4.31 2.31 4.72a4.31 4.31 0 0 0 1.1.63s.31 6.43-1.38 9.87S48 50.8 43.7 52.43 31.82 57.49 24 53.86 13.86 46.8 11 41 7.89 29.36 9.29 25.15s5.91-9.75 9.57-12.25 8.53-3.35 11.71-3.66z"/><path fill="#fff" d="M54 23c.18 0 .78 1.78 1.25 3.66a6.62 6.62 0 0 1 .25 2.81 5.71 5.71 0 0 1-1.91-2.85c-.45-1.76.17-3.62.41-3.62z"/><g fill="#1d1d1b"><path d="M46.42 15.65A10.62 10.62 0 0 1 49.2 18c-.06.22.09.81-.22.59s-2.75-2.09-2.81-2.25a.78.78 0 0 1 .25-.69zM46.32 18.86A25.44 25.44 0 0 1 49.79 22a.88.88 0 0 1-.18.59s-3.41-2.93-3.5-3.06.21-.67.21-.67zM45.82 21.24A24.12 24.12 0 0 1 49.17 24c0 .28-.1.66-.19.69s-3.72-2.28-3.66-2.56.32-.98.5-.89zM38.29 18a2.47 2.47 0 0 1 3.47 2.31 3.26 3.26 0 0 1-4.31 3c-1.56-.85-1.78-4.31.84-5.31z"/></g><path fill="#fff" d="M38.52 18.78a1.71 1.71 0 0 1 2.4 1.6 2.26 2.26 0 0 1-3 2.05c-1.06-.54-1.22-2.94.6-3.65z"/><path fill="#1d1d1b" d="M15.2 20.8c.12 0 1.19.53 1.09.63a8.78 8.78 0 0 0-2.06 3.47c-.5 1.87-.28 2.59-.59 2.62s-1 0-1.07-.19a11.23 11.23 0 0 1 .82-3.33c.53-1.2 1.47-3.07 1.81-3.2zM24.57 20.71c2.58-.65 6.82.72 7.44 5.69s-5.12 7.5-9.15 5-5.86-8.79 1.71-10.69z"/><path fill="#fff" d="M24.94 22.57a4.16 4.16 0 0 1 5 3.85c.42 3.37-3.47 5.08-6.2 3.41s-3.92-5.97 1.2-7.26z"/><path fill="#1d1d1b" d="M14.86 33.36c.55-.24 2.09 0 2.15 2.07s-1.31 3.22-2.81 2.84-2.28-3.62.66-4.91z"/><path fill="#fff" d="M15 34.49c.63-.2 1.35.53 1.25 1.44s-.9 1.93-1.87 1.56a1.65 1.65 0 0 1 .62-3z"/><path fill="#1d1d1b" d="M30 39.9c1.38-.74 2.78-.29 3.13 1.21a2.5 2.5 0 0 1-2.41 3.25A2.32 2.32 0 0 1 30 39.9z"/><path fill="#fff" d="M30.48 40.8a1.21 1.21 0 0 1 1.94 1.06 1.57 1.57 0 0 1-2.16 1.54c-1.03-.5-1.09-1.82.22-2.6z"/><path fill="#1d1d1b" d="M20.76 42.52c.13.13 0 .69.75 1.31s1.13.63 1.06.85-.12.47-.34.47a4.06 4.06 0 0 1-1.5-.94c-.5-.47-1-1.5-.75-1.6a3.06 3.06 0 0 1 .78-.09zM18.64 42.77A6.38 6.38 0 0 0 20 44.9c1 1 1.63 1.21 1.53 1.43s-.37.53-.59.44a14.45 14.45 0 0 1-2.12-2c-.6-.69-1.22-1.69-1.07-1.84s.89-.16.89-.16zM16.73 43.05a19.8 19.8 0 0 0 1.88 2.88c1.09 1.22 1.65 1.34 1.59 1.53a.47.47 0 0 1-.47.37c-.31 0-1.66-1.22-2.62-2.34s-1.47-1.94-1.29-2.09a3.79 3.79 0 0 1 .91-.35zM39.11 47.43c1.44-.09 2.09.56 1.71 2.22s-1.75 1.5-2.62 1-1.72-3.07.91-3.22z"/><path fill="#fff" d="M39.17 48.24a1 1 0 0 1 .83 1.44.87.87 0 0 1-1.53 0 1 1 0 0 1 .7-1.44z"/><path fill="#1d1d1b" d="M44.82 35.52c2.51-.59 3.72.19 4.41 2.84s-1.78 4.54-3.72 4.94-2.87.25-3.94-2.19-.21-4.78 3.25-5.59z"/><path fill="#fff" d="M44.54 36.46c.83-.26 2.63-.85 3.35 1.12s.62 3.19-1 4.19S44.57 43 43 41.61s-1.83-4.09 1.54-5.15z"/><path fill="#1d1d1b" d="M52.76 32a10.61 10.61 0 0 1 2.16 2.5c0 .25-.16.62-.28.56a16.87 16.87 0 0 1-2.41-2.37c.03-.23.31-.69.53-.69zM51.32 33.49c0 .2 3 3.22 3 3.5s-.09.66-.21.59a37.28 37.28 0 0 1-3.32-3.47c.07-.11.53-.71.53-.62zM51.17 36.4a21.79 21.79 0 0 1 2.72 3c0 .22-.16.75-.32.68s-3-2.9-3-3 .43-.72.6-.68z"/></svg>