<svg width="312" height="319" viewBox="0 0 312 319" fill="none" xmlns="http://www.w3.org/2000/svg">
<path d="M88.0756 169.204V77.6814H116.113C127.586 77.6814 136.459 80.3885 142.732 85.8025C149.005 91.1735 152.142 98.7784 152.142 108.618C152.142 119.532 149.005 127.997 142.732 134.013C136.459 139.985 127.586 142.972 116.113 142.972H105.091V169.204H88.0756ZM105.091 127.309H116.113C121.742 127.309 126.082 125.763 129.132 122.669C132.226 119.575 133.773 115.257 133.773 109.714C133.773 104.472 132.226 100.433 129.132 97.5975C126.082 94.7614 121.742 93.3435 116.113 93.3435H105.091V127.309ZM165.42 169.204V77.6814H193.457C204.929 77.6814 213.802 80.3885 220.076 85.8025C226.349 91.1735 229.486 98.7784 229.486 108.618C229.486 119.532 226.349 127.997 220.076 134.013C213.802 139.985 204.929 142.972 193.457 142.972H182.435V169.204H165.42ZM182.435 127.309H193.457C199.086 127.309 203.425 125.763 206.476 122.669C209.57 119.575 211.117 115.257 211.117 109.714C211.117 104.472 209.57 100.433 206.476 97.5975C203.425 94.7614 199.086 93.3435 193.457 93.3435H182.435V127.309Z" fill="url(#paint0_linear)"/>
<path d="M274.932 165.733C282.884 158.873 284.2 148.235 278.88 133.818L271.385 114.52C266.058 100.804 267.91 89.1204 276.942 79.4664C263.762 78.4394 254.449 70.9165 249.004 56.8974L241.615 37.8715C235.88 23.8256 227.729 16.8644 217.161 16.9879L216.567 0.351947C228.608 -0.832753 238.703 0.973449 246.852 5.77045C254.978 10.5068 261.239 18.4464 265.637 29.5894L273.238 49.1613C278.172 61.1435 285.918 65.0844 296.478 60.9834L303.796 79.8264C292.994 84.0224 290.056 92.4614 294.982 105.145L302.654 124.899C310.418 146.328 304.786 164.195 285.757 178.5L274.932 165.733Z" fill="white"/>
<path d="M32.8961 91.6714C26.0054 99.5964 26.2219 110.313 33.5458 123.822L43.72 141.853C50.9507 154.667 50.7857 166.496 43.225 177.341C56.4167 176.475 66.7076 182.592 74.0986 195.689L84.1286 213.465C91.8106 226.548 100.872 232.274 111.315 230.643L114.278 247.024C102.529 249.916 92.2796 249.569 83.5286 245.985C74.8106 242.457 67.4796 235.493 61.5357 225.092L51.2176 206.806C44.6239 195.651 36.3942 192.857 26.5283 198.424L16.5941 180.818C26.6867 175.123 28.3897 166.351 21.7028 154.5L11.2887 136.045C0.544342 115.943 3.56764 97.4555 20.3587 80.5805L32.8961 91.6714Z" fill="white"/>
<path d="M206.777 212.092C207.539 211.769 208.084 211.662 208.629 211.769C209.5 211.985 209.936 212.63 210.263 212.952C210.59 213.598 211.788 214.243 212.333 214.35C212.768 214.458 213.531 213.275 214.076 212.2C214.62 211.232 214.947 209.941 214.838 209.618C214.729 209.296 213.204 208.65 212.877 208.65C212.659 208.65 212.224 208.865 211.461 208.758C210.699 208.65 209.936 207.79 209.5 207.144C208.738 206.069 207.648 205.424 206.668 204.886C205.579 204.348 204.38 204.025 203.182 203.81C201.439 203.38 199.696 203.057 197.953 203.272C196.973 203.38 195.774 203.488 194.903 203.81C194.794 203.81 194.576 204.133 194.794 204.133C195.012 204.133 195.774 204.24 195.774 204.24C195.774 204.24 194.794 204.456 194.794 204.671C194.794 204.886 194.903 204.886 195.012 204.886C195.121 204.886 197.518 204.779 198.498 204.886C199.587 205.101 200.786 205.639 201.548 206.93C202.855 209.296 202.311 211.554 201.984 212.307C200.35 215.856 187.387 237.689 186.733 239.195C186.079 240.701 185.861 241.669 187.713 242.637C189.565 243.605 190.545 243.174 191.09 242.529C191.744 241.669 202.964 213.92 206.777 212.092ZM200.676 226.611H203.291C205.034 226.611 205.361 227.472 205.361 227.794C205.47 228.655 205.034 229.73 203.291 229.73H201.657L202.964 231.881C203.727 233.172 203.4 233.817 202.964 234.247C202.311 234.893 200.894 234.893 200.132 233.495L198.607 230.913C197.518 233.279 196.428 235.861 195.121 238.872H201.875C205.143 238.872 207.866 236.183 207.866 232.957V214.135C207.757 213.92 207.539 214.028 207.431 214.135C206.777 214.888 204.925 217.469 200.676 226.611ZM184.118 239.948H183.574C179.652 239.948 176.493 236.829 176.493 232.957V214.888C176.493 211.017 179.652 207.898 183.574 207.898H199.369C199.043 207.575 197.735 207.037 196.428 207.145C195.883 207.145 194.794 207.36 194.14 206.93C193.487 206.392 193.596 206.069 192.615 206.069H182.92C178.454 206.069 174.859 209.618 174.859 214.028V233.602C174.859 238.012 178.454 241.561 182.376 241.453C183.465 241.453 183.792 240.593 184.118 239.948ZM209.065 214.781V232.957C209.065 236.829 205.906 239.948 201.984 239.948H194.685C194.685 239.948 194.031 241.668 196.101 241.668H202.637C207.104 241.668 210.699 238.119 210.699 233.71V217.9C210.808 216.394 209.5 215.426 209.065 214.781ZM177.691 214.888V232.957C177.691 236.183 180.415 238.872 183.683 238.872H184.663C184.663 238.765 185.97 236.506 188.803 231.774C189.129 231.129 189.565 230.483 190.001 229.73H182.049C181.068 229.73 180.524 229.085 180.415 228.547C180.197 227.687 180.741 226.611 181.94 226.611H185.97L191.09 217.792C191.09 217.792 189.892 215.641 189.565 215.103C189.129 214.35 189.347 213.598 189.783 213.167C190.437 212.522 191.526 212.2 192.615 213.92L193.051 214.566L193.487 213.92C194.467 212.522 195.121 212.63 195.665 212.737C196.537 212.952 197.081 213.92 196.319 215.426L189.565 226.611H191.853C192.615 225.321 193.378 224.03 194.14 222.632C194.032 222.094 193.923 221.449 194.032 220.911C194.14 220.051 194.576 219.298 195.121 218.652L195.775 219.728C197.844 216.179 199.369 213.167 199.805 211.984C200.023 211.339 200.35 210.048 200.023 208.973H183.683C180.306 208.973 177.691 211.662 177.691 214.888ZM182.375 232.849C182.375 232.742 183.683 230.483 183.683 230.483C185.752 229.945 186.733 231.236 186.842 231.344C186.842 231.344 185.426 233.817 184.99 234.247C184.554 234.678 184.01 234.785 183.465 234.678C182.593 234.463 182.049 233.602 182.375 232.849Z" fill="white"/>
<path d="M132.498 34.4512C132.592 34.2645 132.592 34.0778 132.685 33.8912C134.928 25.1045 129.6 14.8245 120.44 9.40276C124.46 14.8245 126.048 21.2728 124.647 27.0678C124.553 27.5345 124.367 28.0962 124.18 28.5628C123.922 28.4202 123.672 28.2644 123.43 28.0962C123.43 28.0962 114.365 22.4878 104.647 12.6745C104.365 12.3945 109.88 20.5245 116.048 26.9745C113.152 25.2912 104.927 19.4045 99.7846 14.6362C100.347 15.6645 101.188 16.6928 102.028 17.7212C106.328 23.2362 111.937 29.9645 118.667 35.1045C113.9 38.0045 107.263 38.1895 100.533 35.1045C98.8496 34.3578 97.4496 33.4228 95.8596 32.3012C98.6626 36.6945 103.057 40.7145 108.292 42.8628C114.553 45.5745 120.908 45.3878 125.488 42.8628H125.583C125.77 42.7695 125.957 42.6762 126.143 42.4895C128.387 41.3678 132.78 40.1528 135.21 44.8262C135.863 46.1345 137.078 40.0595 132.5 34.4512H132.498Z" fill="white"/>
<path d="M127.57 63.0714L127.531 62.2164L128.859 62.1774C129.244 62.1644 129.524 62.0564 129.699 61.8524C129.873 61.6524 129.962 61.3554 129.964 60.9624V57.9384L130.043 57.0634H130.929V60.8374C130.929 61.5744 130.757 62.1174 130.414 62.4664C130.073 62.8174 129.528 63.0064 128.781 63.0324L127.57 63.0714ZM128.832 61.2824C128.306 61.2824 127.901 61.1004 127.617 60.7354C127.336 60.3714 127.195 59.8434 127.195 59.1534C127.195 58.4534 127.336 57.9164 127.617 57.5444C127.901 57.1714 128.307 56.9854 128.836 56.9854C129.153 56.9854 129.401 57.0564 129.578 57.1964C129.757 57.3374 129.868 57.5434 129.91 57.8134H130.222L129.964 59.0794C129.964 58.6684 129.89 58.3634 129.742 58.1654C129.593 57.9644 129.373 57.8644 129.082 57.8644C128.787 57.8644 128.562 57.9754 128.406 58.1964C128.25 58.4184 128.171 58.7374 128.171 59.1534C128.171 59.5654 128.248 59.8764 128.402 60.0874C128.556 60.2984 128.782 60.4034 129.082 60.4034C129.394 60.4034 129.619 60.3044 129.757 60.1064C129.895 59.9084 129.964 59.6044 129.964 59.1924L130.246 60.4544H129.882C129.846 60.7254 129.737 60.9314 129.554 61.0714C129.372 61.2124 129.131 61.2824 128.832 61.2824ZM133.367 61.2824C132.955 61.2824 132.638 61.1534 132.414 60.8954C132.19 60.6354 132.078 60.2694 132.078 59.7984V57.0634H133.043V59.6414C133.043 59.8784 133.102 60.0624 133.222 60.1924C133.342 60.3204 133.507 60.3844 133.718 60.3844C133.989 60.3844 134.192 60.2894 134.328 60.0994C134.466 59.9064 134.535 59.5844 134.535 59.1344L134.746 60.4074H134.445C134.38 60.6884 134.252 60.9054 134.062 61.0564C133.875 61.2074 133.643 61.2824 133.367 61.2824ZM134.605 61.2434L134.535 60.2514V59.5244H135.5V60.3374L136.07 60.4234V61.2044L134.605 61.2434ZM134.535 60.0324V57.0634H135.5V59.7984L134.535 60.0324ZM139.375 61.2434L139.3 60.0164L139.246 59.5564V58.6414C139.246 58.3994 139.151 58.2224 138.961 58.1104C138.77 57.9964 138.487 57.9334 138.109 57.9234L137.078 57.8954L137.156 57.0244L138.031 57.0364C138.755 57.0464 139.293 57.1954 139.644 57.4814C139.996 57.7654 140.171 58.1814 140.171 58.7274V60.3374L140.797 60.4234V61.2044L139.375 61.2434ZM137.949 61.2824C137.511 61.2824 137.171 61.1754 136.929 60.9624C136.69 60.7484 136.57 60.4464 136.57 60.0564C136.57 59.6024 136.731 59.2554 137.054 59.0134C137.377 58.7704 137.834 58.6494 138.425 58.6494C138.66 58.6494 138.866 58.6624 139.043 58.6884C139.22 58.7144 139.389 58.7554 139.55 58.8094L139.379 59.5284C139.209 59.4894 139.052 59.4674 138.906 59.4624C138.76 59.4544 138.608 59.4504 138.449 59.4504C137.834 59.4504 137.527 59.6314 137.527 59.9934C137.527 60.1524 137.58 60.2734 137.687 60.3564C137.797 60.4404 137.954 60.4814 138.16 60.4814C138.399 60.4814 138.6 60.4384 138.761 60.3524C138.923 60.2644 139.044 60.1534 139.125 60.0204C139.205 59.8854 139.246 59.7464 139.246 59.6024V59.2664L139.433 60.3294H139.101L139.238 60.2044C139.233 60.4444 139.177 60.6444 139.07 60.8064C138.966 60.9644 138.819 61.0844 138.629 61.1654C138.438 61.2434 138.212 61.2824 137.949 61.2824ZM143.05 59.4234L142.808 58.0484H143.152C143.196 57.3394 143.56 56.9854 144.242 56.9854C144.648 56.9854 144.953 57.1214 145.156 57.3914C145.359 57.6624 145.461 58.0714 145.461 58.6184H144.5C144.5 58.3504 144.454 58.1574 144.363 58.0404C144.274 57.9234 144.131 57.8644 143.933 57.8644C143.636 57.8644 143.415 58.0004 143.269 58.2704C143.123 58.5414 143.05 58.9254 143.05 59.4234ZM141.195 61.2044V60.3684H144.039V61.2044H141.195ZM142.089 61.2044V57.0634H142.894L143.05 58.2514V61.2044H142.089ZM141.351 57.8994V57.0634H142.839L142.918 57.8994H141.351ZM147.582 61.2824C147.056 61.2824 146.651 61.1004 146.367 60.7354C146.086 60.3714 145.945 59.8434 145.945 59.1534C145.945 58.4534 146.086 57.9164 146.367 57.5444C146.651 57.1714 147.057 56.9854 147.586 56.9854C147.89 56.9854 148.129 57.0564 148.3 57.1964C148.472 57.3374 148.579 57.5434 148.621 57.8134H148.957L148.714 59.0794C148.714 58.6684 148.64 58.3634 148.492 58.1654C148.343 57.9644 148.123 57.8644 147.832 57.8644C147.537 57.8644 147.312 57.9754 147.156 58.1964C147 58.4184 146.921 58.7374 146.921 59.1534C146.921 59.5654 146.998 59.8764 147.152 60.0874C147.306 60.2984 147.532 60.4034 147.832 60.4034C148.144 60.4034 148.369 60.3044 148.507 60.1064C148.645 59.9084 148.714 59.6044 148.714 59.1924L148.996 60.4544H148.632C148.596 60.7254 148.487 60.9314 148.304 61.0714C148.122 61.2124 147.881 61.2824 147.582 61.2824ZM148.839 61.2434L148.714 60.4274V55.3454H149.679V61.2044L148.839 61.2434ZM157.945 61.2824C157.44 61.2824 157.075 61.1444 156.851 60.8684C156.63 60.5924 156.519 60.1514 156.519 59.5444V55.3454H157.48V59.5054C157.48 59.6954 157.5 59.8514 157.539 59.9744C157.578 60.0934 157.652 60.1824 157.761 60.2394C157.873 60.2964 158.039 60.3254 158.257 60.3254C158.481 60.3254 158.765 60.2764 159.109 60.1774L159.218 61.1184C159.002 61.1754 158.793 61.2174 158.589 61.2434C158.389 61.2694 158.174 61.2824 157.945 61.2824ZM155.328 56.2204V55.3454H156.589V56.2204H155.328ZM162.355 61.2824C161.644 61.2824 161.095 61.0974 160.707 60.7274C160.319 60.3554 160.125 59.8214 160.125 59.1264C160.125 58.4494 160.289 57.9234 160.617 57.5484C160.948 57.1734 161.412 56.9854 162.011 56.9854C162.589 56.9854 163.036 57.1574 163.351 57.5014C163.669 57.8454 163.828 58.3434 163.828 58.9974C163.828 59.1874 163.82 59.3654 163.804 59.5324H160.82V58.8374H162.906C162.906 58.5224 162.828 58.2804 162.671 58.1104C162.515 57.9414 162.298 57.8564 162.019 57.8564C161.714 57.8564 161.477 57.9634 161.308 58.1774C161.139 58.3904 161.054 58.6944 161.054 59.0874C161.054 59.5114 161.175 59.8364 161.418 60.0594C161.66 60.2814 162.004 60.3914 162.449 60.3914C162.631 60.3914 162.81 60.3824 162.984 60.3644C163.161 60.3434 163.341 60.3164 163.523 60.2824L163.625 61.1734C163.369 61.2204 163.135 61.2504 162.921 61.2634C162.708 61.2764 162.519 61.2824 162.355 61.2824ZM167.531 61.2824C166.851 61.2824 166.36 61.1444 166.058 60.8684C165.756 60.5924 165.605 60.1514 165.605 59.5444V58.9384H166.566V59.4664C166.566 59.7864 166.647 60.0194 166.808 60.1654C166.972 60.3114 167.239 60.3844 167.609 60.3844C167.731 60.3844 167.863 60.3774 168.004 60.3644C168.144 60.3494 168.304 60.3294 168.484 60.3064L168.578 61.1884C168.403 61.2204 168.231 61.2434 168.062 61.2594C167.895 61.2744 167.718 61.2824 167.531 61.2824ZM165.605 59.2124V55.8134H166.566V59.2124H165.605ZM164.593 57.9384V57.0634H168.421V57.9384H164.593Z" fill="#CFCDCD" fill-opacity="0.52"/>
<path d="M54.8195 124.282C54.3143 124.282 53.9497 124.144 53.7258 123.868C53.5044 123.592 53.3938 123.151 53.3938 122.544V118.345H54.3547V122.505C54.3547 122.695 54.3742 122.851 54.4133 122.974C54.4524 123.093 54.5266 123.182 54.6359 123.239C54.7479 123.296 54.9133 123.325 55.132 123.325C55.356 123.325 55.6398 123.276 55.9836 123.177L56.093 124.118C55.8768 124.175 55.6672 124.217 55.4641 124.243C55.2635 124.269 55.0487 124.282 54.8195 124.282ZM52.2024 119.22V118.345H53.4641V119.22H52.2024ZM59.6867 124.243L59.6125 123.016L59.5578 122.556V121.642C59.5578 121.399 59.4628 121.222 59.2727 121.11C59.0826 120.996 58.7987 120.933 58.4211 120.923L57.3898 120.895L57.468 120.024L58.343 120.036C59.0669 120.046 59.6047 120.195 59.9563 120.481C60.3078 120.765 60.4836 121.181 60.4836 121.727V123.337L61.1086 123.423V124.204L59.6867 124.243ZM58.2609 124.282C57.8234 124.282 57.4836 124.175 57.2414 123.962C57.0018 123.748 56.882 123.446 56.882 123.056C56.882 122.602 57.0435 122.255 57.3664 122.013C57.6893 121.77 58.1464 121.649 58.7375 121.649C58.9719 121.649 59.1776 121.662 59.3547 121.688C59.5318 121.714 59.701 121.755 59.8625 121.809L59.6906 122.528C59.5214 122.489 59.3638 122.467 59.218 122.462C59.0721 122.454 58.9198 122.45 58.7609 122.45C58.1464 122.45 57.8391 122.631 57.8391 122.993C57.8391 123.152 57.8925 123.273 57.9992 123.356C58.1086 123.44 58.2662 123.481 58.4719 123.481C58.7115 123.481 58.912 123.438 59.0734 123.352C59.2349 123.264 59.356 123.153 59.4367 123.02C59.5175 122.885 59.5578 122.746 59.5578 122.602V122.266L59.7453 123.329H59.4133L59.55 123.204C59.5448 123.444 59.4888 123.644 59.382 123.806C59.2779 123.964 59.1307 124.084 58.9406 124.165C58.7505 124.243 58.524 124.282 58.2609 124.282ZM62.593 123.841L61.8742 123.364L64.5146 120.442L65.2026 120.903L62.593 123.841ZM61.8742 124.204V123.364H65.2806V124.204H61.8742ZM61.8742 120.903V120.063H65.2026V120.903H61.8742ZM66.1746 126.079L66.1356 125.231L66.8236 125.153C67.0786 125.122 67.2976 125.053 67.4796 124.946C67.6616 124.839 67.8186 124.681 67.9486 124.47C68.0786 124.259 68.1916 123.983 68.2886 123.642L69.2996 120.063H70.3156L69.1396 123.837C68.9836 124.334 68.8056 124.734 68.6046 125.036C68.4066 125.338 68.1706 125.565 67.8976 125.716C67.6246 125.867 67.2976 125.962 66.9176 126.001L66.1746 126.079ZM67.5886 124.204L66.0966 120.063H67.1126L68.2686 123.415H68.4326V124.204H67.5886Z" fill="#CFCDCD" fill-opacity="0.52"/>
<path d="M193.15 58.6924L197.027 50.7825H198.209L194.332 58.6924H193.15ZM190.738 56.5154V55.4164H200.699V56.5154H190.738ZM190.738 54.0684V52.9704H200.699V54.0684H190.738Z" fill="#CFCDCD" fill-opacity="0.52"/>
<path d="M216.298 59.2894V58.1954H221.279V59.2894H216.298ZM222.158 58.0684V56.9704H227.138V58.0684H222.158ZM222.158 60.5154V59.4164H227.138V60.5154H222.158Z" fill="#CFCDCD" fill-opacity="0.52"/>
<path d="M237.843 77.2495C237.313 77.2495 236.901 77.0895 236.608 76.7705C236.318 76.4555 236.173 76.0125 236.173 75.4425C236.173 75.1925 236.208 74.9445 236.276 74.7005C236.344 74.4565 236.379 74.2025 236.379 73.9385C236.379 73.7795 236.313 73.6525 236.183 73.5585C236.056 73.4605 235.887 73.3905 235.675 73.3485C235.467 73.3025 235.246 73.2795 235.011 73.2795V72.2345C235.184 72.2345 235.352 72.2185 235.514 72.1855C235.677 72.1535 235.824 72.1065 235.954 72.0445C236.084 71.9825 236.186 71.9045 236.261 71.8095C236.339 71.7155 236.379 71.6085 236.379 71.4875C236.379 71.2145 236.344 70.9585 236.276 70.7215C236.208 70.4805 236.173 70.2345 236.173 69.9835C236.173 69.4335 236.318 69.0105 236.608 68.7145C236.901 68.4145 237.313 68.2655 237.843 68.2655C238.048 68.2655 238.218 68.2745 238.351 68.2945C238.485 68.3105 238.608 68.3335 238.722 68.3625L238.605 69.4075C238.504 69.3915 238.407 69.3795 238.312 69.3735C238.221 69.3635 238.135 69.3585 238.053 69.3585C237.832 69.3585 237.663 69.4325 237.546 69.5785C237.432 69.7215 237.375 69.9265 237.375 70.1935C237.375 70.4375 237.412 70.6725 237.487 70.8965C237.562 71.1215 237.599 71.3575 237.599 71.6045C237.599 71.9365 237.487 72.1955 237.262 72.3815C237.038 72.5635 236.724 72.6575 236.32 72.6645V72.8505C236.724 72.8565 237.038 72.9465 237.262 73.1185C237.487 73.2915 237.599 73.5255 237.599 73.8215C237.599 74.0785 237.562 74.3195 237.487 74.5445C237.412 74.7685 237.375 74.9985 237.375 75.2325C237.375 75.5255 237.432 75.7535 237.546 75.9165C237.663 76.0755 237.832 76.1555 238.053 76.1555C238.135 76.1555 238.221 76.1505 238.312 76.1415C238.407 76.1315 238.504 76.1195 238.605 76.1065L238.722 77.1515C238.608 77.1815 238.485 77.2035 238.351 77.2205C238.218 77.2395 238.048 77.2495 237.843 77.2495ZM241.603 77.2495C241.405 77.2495 241.237 77.2395 241.1 77.2205C240.963 77.2035 240.838 77.1815 240.724 77.1515L240.841 76.1065C240.942 76.1195 241.038 76.1315 241.13 76.1415C241.224 76.1505 241.312 76.1555 241.393 76.1555C241.615 76.1555 241.782 76.0755 241.896 75.9165C242.013 75.7535 242.072 75.5255 242.072 75.2325C242.072 74.9985 242.034 74.7685 241.96 74.5445C241.885 74.3195 241.847 74.0785 241.847 73.8215C241.847 73.5255 241.96 73.2915 242.184 73.1185C242.409 72.9465 242.723 72.8565 243.127 72.8505V72.6645C242.723 72.6575 242.409 72.5635 242.184 72.3815C241.96 72.1955 241.847 71.9365 241.847 71.6045C241.847 71.3575 241.885 71.1215 241.96 70.8965C242.034 70.6725 242.072 70.4375 242.072 70.1935C242.072 69.9265 242.013 69.7215 241.896 69.5785C241.782 69.4325 241.615 69.3585 241.393 69.3585C241.312 69.3585 241.224 69.3635 241.13 69.3735C241.038 69.3795 240.942 69.3915 240.841 69.4075L240.724 68.3625C240.838 68.3335 240.963 68.3105 241.1 68.2945C241.237 68.2745 241.405 68.2655 241.603 68.2655C242.134 68.2655 242.544 68.4145 242.834 68.7145C243.127 69.0105 243.273 69.4335 243.273 69.9835C243.273 70.2345 243.239 70.4805 243.171 70.7215C243.102 70.9585 243.068 71.2145 243.068 71.4875C243.068 71.6085 243.105 71.7155 243.18 71.8095C243.258 71.9045 243.363 71.9825 243.493 72.0445C243.623 72.1065 243.769 72.1535 243.932 72.1855C244.095 72.2185 244.263 72.2345 244.435 72.2345V73.2795C244.201 73.2795 243.978 73.3025 243.766 73.3485C243.558 73.3905 243.389 73.4605 243.258 73.5585C243.131 73.6525 243.068 73.7795 243.068 73.9385C243.068 74.2025 243.102 74.4565 243.171 74.7005C243.239 74.9445 243.273 75.1925 243.273 75.4425C243.273 76.0125 243.127 76.4555 242.834 76.7705C242.544 77.0895 242.134 77.2495 241.603 77.2495Z" fill="#CFCDCD" fill-opacity="0.52"/>
<path d="M61.3293 92.8414V91.6205L66.7546 90.5654V90.4774L61.3293 89.4234V88.2025L68.3796 89.9064V91.1375L61.3293 92.8414ZM61.3293 94.5795V93.4855H68.3796V94.5795H61.3293Z" fill="#CFCDCD" fill-opacity="0.52"/>
<path d="M155.422 147.718V137.757H156.604V147.718H155.422ZM150.833 147.718V137.757H152.014V147.718H150.833Z" fill="#CFCDCD" fill-opacity="0.52"/>
<path d="M130.158 160.068V158.97H134.699V160.068H130.158ZM124.738 162.515V161.416H129.279V162.515H124.738ZM124.738 160.068V158.97H129.279V160.068H124.738ZM130.158 162.515V161.416H134.699V162.515H130.158Z" fill="#CFCDCD" fill-opacity="0.52"/>
<path d="M150.188 205.276V200.208H151.389V205.276H150.188ZM148.347 203.289V202.19H153.23V203.289H148.347ZM154.158 202.068V200.97H159.138V202.068H154.158ZM154.158 204.515V203.416H159.138V204.515H154.158Z" fill="#CFCDCD" fill-opacity="0.52"/>
<path d="M109.679 211.379V210.158L113.097 208.786V208.698L109.679 207.326V206.105L114.406 208.151V209.333L109.679 211.379ZM105.226 211.379V210.158L108.595 208.786V208.698L105.226 207.326V206.105L109.904 208.151V209.333L105.226 211.379Z" fill="#CFCDCD" fill-opacity="0.52"/>
<path d="M134.41 224.204L131.915 221.318C131.537 220.889 131.264 220.5 131.094 220.151C130.928 219.8 130.845 219.455 130.845 219.116C130.845 218.465 131.015 217.978 131.353 217.656C131.692 217.334 132.203 217.173 132.886 217.173L132.857 218.266C132.603 218.266 132.411 218.338 132.281 218.481C132.154 218.625 132.09 218.839 132.09 219.126C132.09 219.35 132.139 219.567 132.237 219.775C132.338 219.984 132.483 220.198 132.671 220.42L135.884 224.204H134.41ZM132.115 224.302C131.506 224.302 131.015 224.141 130.64 223.818C130.269 223.493 130.084 223.061 130.084 222.524C130.084 221.974 130.25 221.523 130.582 221.172C130.914 220.817 131.382 220.594 131.988 220.503L132.525 221.343C132.131 221.414 131.827 221.541 131.612 221.724C131.397 221.903 131.29 222.121 131.29 222.378C131.29 222.625 131.376 222.825 131.548 222.978C131.721 223.131 131.949 223.208 132.232 223.208C132.815 223.208 133.266 222.97 133.585 222.495C133.904 222.016 134.063 221.339 134.063 220.464H135.24C135.24 221.684 134.966 222.63 134.42 223.301C133.876 223.968 133.108 224.302 132.115 224.302ZM133.477 218.872C133.477 218.677 133.423 218.527 133.316 218.423C133.209 218.319 133.056 218.266 132.857 218.266L132.886 217.173C133.476 217.173 133.931 217.321 134.254 217.617C134.579 217.913 134.742 218.332 134.742 218.872H133.477ZM138.047 223.276V218.208H139.249V223.276H138.047ZM136.207 221.289V220.19H141.089V221.289H136.207Z" fill="#CFCDCD" fill-opacity="0.52"/>
<path d="M87.2926 65.2044L85.1096 61.7574C84.8886 61.4024 84.7176 61.0684 84.5966 60.7564C84.4766 60.4434 84.4166 60.1414 84.4166 59.8484C84.4166 59.3144 84.5676 58.9024 84.8706 58.6124C85.1766 58.3194 85.6056 58.1734 86.1596 58.1734L86.1696 59.2664C86.0036 59.2664 85.8766 59.3274 85.7886 59.4474C85.7036 59.5644 85.6616 59.7424 85.6616 59.9794C85.6616 60.2014 85.6986 60.4114 85.7736 60.6094C85.8516 60.8084 85.9556 61.0104 86.0866 61.2154L88.6206 65.2044H87.2926ZM80.5536 65.3024C79.9746 65.3024 79.5236 65.1524 79.2016 64.8524C78.8796 64.5504 78.7176 64.1234 78.7176 63.5734C78.7176 62.9944 78.8646 62.5284 79.1576 62.1774C79.4506 61.8254 79.8736 61.6004 80.4266 61.5034L80.9636 62.3434C80.6156 62.4214 80.3506 62.5564 80.1686 62.7484C79.9896 62.9404 79.8996 63.1834 79.8996 63.4754C79.8996 63.7264 79.9666 63.9204 80.0996 64.0574C80.2336 64.1904 80.4236 64.2574 80.6706 64.2574C81.1266 64.2574 81.4716 64.0214 81.7066 63.5494C81.9436 63.0734 82.0626 62.3784 82.0626 61.4644H83.1906C83.1906 62.2974 83.0796 63.0004 82.8586 63.5734C82.6406 64.1434 82.3326 64.5744 81.9356 64.8674C81.5416 65.1574 81.0816 65.3024 80.5536 65.3024ZM82.3116 65.2044L80.1296 61.7574C79.9016 61.4024 79.7286 61.0674 79.6116 60.7514C79.4946 60.4324 79.4356 60.1314 79.4356 59.8484C79.4356 59.3144 79.5876 58.9024 79.8896 58.6124C80.1956 58.3194 80.6256 58.1734 81.1786 58.1734L81.1836 59.2664C81.0206 59.2664 80.8956 59.3274 80.8076 59.4474C80.7236 59.5644 80.6806 59.7424 80.6806 59.9794C80.6806 60.2014 80.7166 60.4114 80.7886 60.6094C80.8636 60.8054 80.9686 61.0064 81.1056 61.2154L83.6396 65.2044H82.3116ZM85.5346 65.3024C84.9546 65.3024 84.5046 65.1524 84.1816 64.8524C83.8596 64.5504 83.6986 64.1234 83.6986 63.5734C83.6986 62.9944 83.8446 62.5284 84.1376 62.1774C84.4306 61.8254 84.8536 61.6004 85.4076 61.5034L85.9446 62.3434C85.5966 62.4214 85.3306 62.5564 85.1486 62.7484C84.9696 62.9404 84.8796 63.1834 84.8796 63.4754C84.8796 63.7264 84.9466 63.9204 85.0806 64.0574C85.2136 64.1904 85.4046 64.2574 85.6516 64.2574C86.1076 64.2574 86.4526 64.0194 86.6866 63.5444C86.9246 63.0694 87.0436 62.3754 87.0436 61.4644H88.1706C88.1706 62.2974 88.0616 63.0004 87.8436 63.5734C87.6296 64.1434 87.3246 64.5744 86.9306 64.8674C86.5366 65.1574 86.0716 65.3024 85.5346 65.3024ZM81.6716 59.8724C81.6716 59.6774 81.6296 59.5274 81.5456 59.4234C81.4606 59.3194 81.3396 59.2664 81.1836 59.2664L81.1786 58.1734C81.7356 58.1734 82.1666 58.3214 82.4726 58.6174C82.7826 58.9134 82.9366 59.3324 82.9366 59.8724H81.6716ZM86.6526 59.8724C86.6526 59.6774 86.6106 59.5274 86.5256 59.4234C86.4406 59.3194 86.3226 59.2664 86.1696 59.2664L86.1596 58.1734C86.7326 58.1734 87.1686 58.3194 87.4676 58.6124C87.7676 58.9024 87.9176 59.3224 87.9176 59.8724H86.6526Z" fill="#CFCDCD" fill-opacity="0.52"/>
<path d="M60.6262 159.249V150.225H61.8029V159.249H60.6262ZM61.7053 159.249V158.141H63.7806V159.249H61.7053ZM61.7053 151.334V150.225H63.7806V151.334H61.7053ZM67.6236 159.249V150.225H68.8096V159.249H67.6236ZM65.6556 159.249V158.141H67.7206V159.249H65.6556ZM65.6556 151.334V150.225H67.7206V151.334H65.6556Z" fill="#CFCDCD" fill-opacity="0.52"/>
<path d="M92.2026 188.282C92.0196 188.282 91.8656 188.218 91.7376 188.091C91.6096 187.961 91.5466 187.806 91.5466 187.626C91.5466 187.441 91.6096 187.285 91.7376 187.157C91.8656 187.03 92.0196 186.966 92.2026 186.966C92.3876 186.966 92.5426 187.03 92.6676 187.157C92.7946 187.285 92.8586 187.441 92.8586 187.626C92.8586 187.806 92.7946 187.961 92.6676 188.091C92.5426 188.218 92.3876 188.282 92.2026 188.282ZM97.3386 188.282C96.6046 188.282 96.0366 188.097 95.6356 187.727C95.2376 187.355 95.0386 186.821 95.0386 186.126C95.0386 185.449 95.2236 184.923 95.5926 184.548C95.9626 184.173 96.4917 183.985 97.1786 183.985C97.5986 183.985 97.9566 184.066 98.2536 184.227C98.5526 184.386 98.7646 184.612 98.8896 184.903L98.1746 185.462C98.0606 185.277 97.9136 185.135 97.7336 185.036C97.5566 184.934 97.3616 184.884 97.1476 184.884C96.7936 184.884 96.5176 184.988 96.3196 185.196C96.1216 185.405 96.0226 185.701 96.0226 186.087C96.0226 186.509 96.1436 186.83 96.3856 187.052C96.6306 187.273 96.9796 187.384 97.4326 187.384C97.6226 187.384 97.8116 187.375 97.9996 187.356C98.1896 187.338 98.3747 187.313 98.5536 187.282L98.6556 188.165C98.4446 188.212 98.2256 188.243 97.9996 188.259C97.7726 188.274 97.5526 188.282 97.3386 188.282ZM101.578 188.282C100.992 188.282 100.536 188.095 100.211 187.72C99.8876 187.345 99.7256 186.816 99.7256 186.134C99.7256 185.449 99.8876 184.92 100.211 184.548C100.536 184.173 100.992 183.985 101.578 183.985C102.166 183.985 102.622 184.173 102.945 184.548C103.268 184.92 103.429 185.449 103.429 186.134C103.429 186.816 103.268 187.345 102.945 187.72C102.622 188.095 102.166 188.282 101.578 188.282ZM101.578 187.384C101.854 187.384 102.066 187.276 102.214 187.059C102.363 186.841 102.437 186.532 102.437 186.134C102.437 185.733 102.362 185.424 102.211 185.208C102.062 184.992 101.851 184.884 101.578 184.884C101.304 184.884 101.092 184.992 100.941 185.208C100.793 185.424 100.718 185.733 100.718 186.134C100.718 186.532 100.793 186.841 100.941 187.059C101.092 187.276 101.304 187.384 101.578 187.384ZM107.257 188.204V185.255C107.257 184.968 107.165 184.825 106.98 184.825C106.759 184.825 106.648 184.993 106.648 185.329L106.367 184.579H106.707C106.725 184.405 106.793 184.263 106.91 184.153C107.03 184.041 107.194 183.985 107.402 183.985C107.683 183.985 107.888 184.062 108.015 184.216C108.145 184.369 108.211 184.618 108.211 184.962V188.204H107.257ZM104.32 188.204V184.063H105.183L105.277 184.938V188.204H104.32ZM105.894 188.204V185.177C105.894 184.942 105.8 184.825 105.613 184.825C105.389 184.825 105.277 184.993 105.277 185.329L105.035 184.579H105.32C105.367 184.183 105.587 183.985 105.98 183.985C106.188 183.985 106.351 184.059 106.468 184.208C106.588 184.356 106.648 184.582 106.648 184.884V188.204H105.894ZM109.226 190.001V184.063H110.113L110.191 184.938V190.001H109.226ZM111.324 188.282C111.024 188.282 110.783 188.212 110.601 188.071C110.419 187.931 110.31 187.725 110.273 187.454H109.91L110.191 186.192C110.191 186.604 110.26 186.908 110.398 187.106C110.539 187.304 110.764 187.403 111.074 187.403C111.373 187.403 111.6 187.298 111.754 187.087C111.907 186.876 111.984 186.565 111.984 186.153C111.984 185.737 111.906 185.418 111.75 185.196C111.593 184.975 111.368 184.864 111.074 184.864C110.782 184.864 110.562 184.964 110.414 185.165C110.265 185.363 110.191 185.668 110.191 186.079L109.933 184.813H110.246C110.29 184.543 110.401 184.337 110.578 184.196C110.755 184.056 111.002 183.985 111.32 183.985C111.849 183.985 112.254 184.171 112.535 184.544C112.819 184.916 112.961 185.453 112.961 186.153C112.961 186.843 112.819 187.371 112.535 187.735C112.254 188.1 111.85 188.282 111.324 188.282ZM116.437 188.243L116.363 187.016L116.308 186.556V185.642C116.308 185.399 116.213 185.222 116.023 185.11C115.833 184.996 115.549 184.933 115.171 184.923L114.14 184.895L114.218 184.024L115.093 184.036C115.817 184.046 116.355 184.195 116.707 184.481C117.058 184.765 117.234 185.181 117.234 185.727V187.337L117.859 187.423V188.204L116.437 188.243ZM115.011 188.282C114.574 188.282 114.234 188.175 113.992 187.962C113.752 187.748 113.632 187.446 113.632 187.056C113.632 186.602 113.794 186.255 114.117 186.013C114.44 185.77 114.897 185.649 115.488 185.649C115.722 185.649 115.928 185.662 116.105 185.688C116.282 185.714 116.451 185.755 116.613 185.809L116.441 186.528C116.272 186.489 116.114 186.467 115.968 186.462C115.823 186.454 115.67 186.45 115.511 186.45C114.897 186.45 114.589 186.631 114.589 186.993C114.589 187.152 114.643 187.273 114.75 187.356C114.859 187.44 115.017 187.481 115.222 187.481C115.462 187.481 115.662 187.438 115.824 187.352C115.985 187.264 116.106 187.153 116.187 187.02C116.268 186.885 116.308 186.746 116.308 186.602V186.266L116.496 187.329H116.164L116.3 187.204C116.295 187.444 116.239 187.644 116.132 187.806C116.028 187.964 115.881 188.084 115.691 188.165C115.501 188.243 115.274 188.282 115.011 188.282ZM120.777 188.282C120.043 188.282 119.475 188.097 119.074 187.727C118.675 187.355 118.476 186.821 118.476 186.126C118.476 185.449 118.661 184.923 119.031 184.548C119.401 184.173 119.929 183.985 120.617 183.985C121.036 183.985 121.394 184.066 121.691 184.227C121.991 184.386 122.203 184.612 122.328 184.903L121.613 185.462C121.498 185.277 121.351 185.135 121.171 185.036C120.994 184.934 120.799 184.884 120.586 184.884C120.231 184.884 119.955 184.988 119.757 185.196C119.56 185.405 119.461 185.701 119.461 186.087C119.461 186.509 119.582 186.83 119.824 187.052C120.069 187.273 120.418 187.384 120.871 187.384C121.061 187.384 121.25 187.375 121.437 187.356C121.627 187.338 121.812 187.313 121.992 187.282L122.093 188.165C121.882 188.212 121.664 188.243 121.437 188.259C121.211 188.274 120.991 188.282 120.777 188.282ZM125.843 188.282C125.164 188.282 124.673 188.144 124.371 187.868C124.069 187.592 123.918 187.151 123.918 186.544V185.938H124.879V186.466C124.879 186.786 124.959 187.019 125.121 187.165C125.285 187.311 125.552 187.384 125.921 187.384C126.044 187.384 126.175 187.377 126.316 187.364C126.457 187.349 126.617 187.329 126.797 187.306L126.89 188.188C126.716 188.22 126.544 188.243 126.375 188.259C126.208 188.274 126.031 188.282 125.843 188.282ZM123.918 186.212V182.813H124.879V186.212H123.918ZM122.906 184.938V184.063H126.734V184.938H122.906ZM129.57 186.134L129.687 185.099H129.734L130.218 182.657H130.785L130.824 183.642H130.586L130.062 186.134H129.57ZM127.82 188.204V182.657H128.707V188.204H127.82ZM129.343 186.134L128.82 183.642H128.582L128.621 182.657H129.187L129.671 185.099H129.703L129.8 186.134H129.343ZM130.699 188.204V182.657H131.586V188.204H130.699ZM135.187 188.243L135.113 187.016L135.058 186.556V185.642C135.058 185.399 134.963 185.222 134.773 185.11C134.583 184.996 134.299 184.933 133.921 184.923L132.89 184.895L132.968 184.024L133.843 184.036C134.567 184.046 135.105 184.195 135.457 184.481C135.808 184.765 135.984 185.181 135.984 185.727V187.337L136.609 187.423V188.204L135.187 188.243ZM133.761 188.282C133.324 188.282 132.984 188.175 132.742 187.962C132.502 187.748 132.382 187.446 132.382 187.056C132.382 186.602 132.544 186.255 132.867 186.013C133.19 185.77 133.647 185.649 134.238 185.649C134.472 185.649 134.678 185.662 134.855 185.688C135.032 185.714 135.201 185.755 135.363 185.809L135.191 186.528C135.022 186.489 134.864 186.467 134.718 186.462C134.573 186.454 134.42 186.45 134.261 186.45C133.647 186.45 133.339 186.631 133.339 186.993C133.339 187.152 133.393 187.273 133.5 187.356C133.609 187.44 133.767 187.481 133.972 187.481C134.212 187.481 134.412 187.438 134.574 187.352C134.735 187.264 134.856 187.153 134.937 187.02C135.018 186.885 135.058 186.746 135.058 186.602V186.266L135.246 187.329H134.914L135.05 187.204C135.045 187.444 134.989 187.644 134.882 187.806C134.778 187.964 134.631 188.084 134.441 188.165C134.251 188.243 134.024 188.282 133.761 188.282ZM137.351 190.001V184.063H138.238L138.316 184.938V190.001H137.351ZM139.449 188.282C139.149 188.282 138.908 188.212 138.726 188.071C138.544 187.931 138.435 187.725 138.398 187.454H138.035L138.316 186.192C138.316 186.604 138.385 186.908 138.523 187.106C138.664 187.304 138.889 187.403 139.199 187.403C139.498 187.403 139.725 187.298 139.879 187.087C140.032 186.876 140.109 186.565 140.109 186.153C140.109 185.737 140.031 185.418 139.875 185.196C139.718 184.975 139.493 184.864 139.199 184.864C138.907 184.864 138.687 184.964 138.539 185.165C138.39 185.363 138.316 185.668 138.316 186.079L138.058 184.813H138.371C138.415 184.543 138.526 184.337 138.703 184.196C138.88 184.056 139.127 183.985 139.445 183.985C139.974 183.985 140.379 184.171 140.66 184.544C140.944 184.916 141.086 185.453 141.086 186.153C141.086 186.843 140.944 187.371 140.66 187.735C140.379 188.1 139.975 188.282 139.449 188.282ZM149.297 189.04C148.872 189.04 148.543 188.912 148.308 188.657C148.076 188.405 147.961 188.05 147.961 187.595C147.961 187.394 147.988 187.196 148.043 187.001C148.097 186.806 148.125 186.602 148.125 186.392C148.125 186.264 148.073 186.162 147.968 186.087C147.867 186.009 147.731 185.953 147.562 185.919C147.395 185.882 147.218 185.864 147.031 185.864V185.028C147.169 185.028 147.303 185.015 147.433 184.989C147.563 184.963 147.681 184.925 147.785 184.876C147.889 184.826 147.971 184.764 148.031 184.688C148.093 184.613 148.125 184.527 148.125 184.431C148.125 184.212 148.097 184.007 148.043 183.817C147.988 183.625 147.961 183.428 147.961 183.227C147.961 182.787 148.076 182.449 148.308 182.212C148.543 181.972 148.872 181.852 149.297 181.852C149.461 181.852 149.596 181.86 149.703 181.876C149.81 181.889 149.908 181.907 150 181.931L149.906 182.766C149.825 182.753 149.747 182.744 149.671 182.739C149.599 182.731 149.53 182.727 149.464 182.727C149.287 182.727 149.152 182.786 149.058 182.903C148.967 183.018 148.921 183.182 148.921 183.395C148.921 183.591 148.951 183.778 149.011 183.958C149.071 184.138 149.101 184.326 149.101 184.524C149.101 184.79 149.011 184.997 148.832 185.145C148.652 185.291 148.401 185.367 148.078 185.372V185.52C148.401 185.526 148.652 185.597 148.832 185.735C149.011 185.873 149.101 186.061 149.101 186.298C149.101 186.503 149.071 186.696 149.011 186.876C148.951 187.056 148.921 187.239 148.921 187.427C148.921 187.661 148.967 187.843 149.058 187.974C149.152 188.101 149.287 188.165 149.464 188.165C149.53 188.165 149.599 188.161 149.671 188.153C149.747 188.145 149.825 188.136 149.906 188.126L150 188.962C149.908 188.985 149.81 189.003 149.703 189.016C149.596 189.032 149.461 189.04 149.297 189.04ZM157.476 189.454V181.407H158.285V189.454H157.476ZM157.636 188.282C157.321 188.282 157.019 188.256 156.73 188.204C156.444 188.152 156.183 188.076 155.949 187.977L156.074 187.028C156.36 187.151 156.642 187.244 156.918 187.309C157.194 187.372 157.454 187.403 157.699 187.403C158.011 187.403 158.247 187.349 158.406 187.239C158.567 187.127 158.648 186.964 158.648 186.751C158.648 186.472 158.489 186.26 158.171 186.114L157.308 185.704C156.92 185.522 156.621 185.296 156.41 185.028C156.201 184.76 156.097 184.451 156.097 184.102C156.097 183.618 156.251 183.243 156.558 182.977C156.868 182.712 157.306 182.579 157.871 182.579C158.225 182.579 158.55 182.638 158.847 182.755C159.147 182.869 159.42 183.044 159.668 183.278L159.023 183.989C158.823 183.812 158.627 183.679 158.437 183.591C158.25 183.5 158.062 183.454 157.875 183.454C157.63 183.454 157.44 183.51 157.304 183.622C157.169 183.731 157.101 183.892 157.101 184.102C157.101 184.248 157.147 184.377 157.238 184.489C157.332 184.599 157.466 184.697 157.64 184.786L158.418 185.173C158.816 185.371 159.121 185.6 159.332 185.86C159.545 186.118 159.652 186.416 159.652 186.755C159.652 187.252 159.48 187.631 159.136 187.892C158.795 188.152 158.295 188.282 157.636 188.282ZM162.515 188.282C161.229 188.282 160.586 187.345 160.586 185.47C160.586 183.543 161.229 182.579 162.515 182.579C163.802 182.579 164.445 183.543 164.445 185.47C164.445 187.345 163.802 188.282 162.515 188.282ZM162.511 186.134C162.347 186.134 162.214 186.074 162.113 185.954C162.014 185.832 161.964 185.67 161.964 185.47C161.964 185.269 162.014 185.109 162.113 184.989C162.214 184.867 162.347 184.806 162.511 184.806C162.675 184.806 162.807 184.867 162.906 184.989C163.007 185.109 163.058 185.269 163.058 185.47C163.058 185.67 163.007 185.832 162.906 185.954C162.807 186.074 162.675 186.134 162.511 186.134ZM162.515 187.403C163.153 187.403 163.472 186.759 163.472 185.47C163.472 184.128 163.153 183.458 162.515 183.458C161.872 183.458 161.55 184.128 161.55 185.47C161.55 186.759 161.872 187.403 162.515 187.403ZM171.054 189.04C170.895 189.04 170.761 189.032 170.652 189.016C170.543 189.003 170.442 188.985 170.351 188.962L170.445 188.126C170.526 188.136 170.602 188.145 170.675 188.153C170.751 188.161 170.821 188.165 170.886 188.165C171.063 188.165 171.198 188.101 171.289 187.974C171.382 187.843 171.429 187.661 171.429 187.427C171.429 187.239 171.399 187.056 171.339 186.876C171.28 186.696 171.25 186.503 171.25 186.298C171.25 186.061 171.339 185.873 171.519 185.735C171.699 185.597 171.95 185.526 172.273 185.52V185.372C171.95 185.367 171.699 185.291 171.519 185.145C171.339 184.997 171.25 184.79 171.25 184.524C171.25 184.326 171.28 184.138 171.339 183.958C171.399 183.778 171.429 183.591 171.429 183.395C171.429 183.182 171.382 183.018 171.289 182.903C171.198 182.786 171.063 182.727 170.886 182.727C170.821 182.727 170.751 182.731 170.675 182.739C170.602 182.744 170.526 182.753 170.445 182.766L170.351 181.931C170.442 181.907 170.543 181.889 170.652 181.876C170.761 181.86 170.895 181.852 171.054 181.852C171.479 181.852 171.807 181.972 172.039 182.212C172.273 182.449 172.39 182.787 172.39 183.227C172.39 183.428 172.363 183.625 172.308 183.817C172.254 184.007 172.226 184.212 172.226 184.431C172.226 184.527 172.256 184.613 172.316 184.688C172.379 184.764 172.462 184.826 172.566 184.876C172.67 184.925 172.787 184.963 172.918 184.989C173.048 185.015 173.182 185.028 173.32 185.028V185.864C173.132 185.864 172.954 185.882 172.785 185.919C172.618 185.953 172.483 186.009 172.379 186.087C172.277 186.162 172.226 186.264 172.226 186.392C172.226 186.602 172.254 186.806 172.308 187.001C172.363 187.196 172.39 187.394 172.39 187.595C172.39 188.05 172.273 188.405 172.039 188.657C171.807 188.912 171.479 189.04 171.054 189.04Z" fill="#CFCDCD" fill-opacity="0.52"/>
<path d="M199.996 184.204V180.298H200.957V184.204H199.996ZM198.445 184.204V183.329H200.074V184.204H198.445ZM200.879 184.204V183.329H202.203V184.204H200.879ZM198.679 180.938V180.063H200.957V180.938H198.679ZM200.437 179.466C200.252 179.466 200.1 179.406 199.98 179.286C199.86 179.166 199.8 179.014 199.8 178.829C199.8 178.644 199.86 178.492 199.98 178.372C200.1 178.252 200.252 178.192 200.437 178.192C200.622 178.192 200.774 178.252 200.894 178.372C201.014 178.492 201.074 178.644 201.074 178.829C201.074 179.014 201.014 179.166 200.894 179.286C200.774 179.406 200.622 179.466 200.437 179.466ZM205.652 184.204V181.665C205.652 181.415 205.595 181.222 205.48 181.087C205.366 180.951 205.204 180.884 204.996 180.884C204.418 180.884 204.129 181.266 204.129 182.032L203.886 180.813H204.222C204.254 180.535 204.35 180.328 204.511 180.192C204.675 180.054 204.919 179.985 205.242 179.985C205.679 179.985 206.018 180.118 206.257 180.384C206.497 180.649 206.617 181.024 206.617 181.509V184.204H205.652ZM203.164 184.204V180.063H204.031L204.129 180.938V184.204H203.164ZM209.578 184.282C208.992 184.282 208.536 184.095 208.211 183.72C207.888 183.345 207.726 182.816 207.726 182.134C207.726 181.449 207.888 180.92 208.211 180.548C208.536 180.173 208.992 179.985 209.578 179.985C210.166 179.985 210.622 180.173 210.945 180.548C211.268 180.92 211.429 181.449 211.429 182.134C211.429 182.816 211.268 183.345 210.945 183.72C210.622 184.095 210.166 184.282 209.578 184.282ZM209.578 183.384C209.854 183.384 210.066 183.276 210.214 183.059C210.363 182.841 210.437 182.532 210.437 182.134C210.437 181.733 210.362 181.424 210.211 181.208C210.062 180.992 209.851 180.884 209.578 180.884C209.304 180.884 209.092 180.992 208.941 181.208C208.793 181.424 208.718 181.733 208.718 182.134C208.718 182.532 208.793 182.841 208.941 183.059C209.092 183.276 209.304 183.384 209.578 183.384ZM213.742 184.282C213.33 184.282 213.013 184.153 212.789 183.895C212.565 183.635 212.453 183.269 212.453 182.798V180.063H213.418V182.642C213.418 182.878 213.477 183.062 213.597 183.192C213.717 183.32 213.882 183.384 214.093 183.384C214.364 183.384 214.567 183.289 214.703 183.099C214.841 182.906 214.91 182.584 214.91 182.134L215.121 183.407H214.82C214.755 183.688 214.627 183.905 214.437 184.056C214.25 184.207 214.018 184.282 213.742 184.282ZM214.98 184.243L214.91 183.251V182.524H215.875V183.337L216.445 183.423V184.204L214.98 184.243ZM214.91 183.032V180.063H215.875V182.798L214.91 183.032ZM219.781 184.282C219.101 184.282 218.61 184.144 218.308 183.868C218.006 183.592 217.855 183.151 217.855 182.544V181.938H218.816V182.466C218.816 182.786 218.897 183.019 219.058 183.165C219.222 183.311 219.489 183.384 219.859 183.384C219.981 183.384 220.113 183.377 220.254 183.364C220.394 183.349 220.554 183.329 220.734 183.306L220.828 184.188C220.653 184.22 220.481 184.243 220.312 184.259C220.145 184.274 219.968 184.282 219.781 184.282ZM217.855 182.212V178.813H218.816V182.212H217.855ZM216.843 180.938V180.063H220.671V180.938H216.843Z" fill="#CFCDCD" fill-opacity="0.52"/>
<path d="M179 41.2436L178.925 40.017L178.871 39.5561V38.642C178.871 38.3998 178.776 38.2226 178.586 38.1106C178.395 37.9961 178.112 37.9336 177.734 37.9231L176.703 37.8959L176.781 37.0247L177.656 37.0365C178.38 37.0469 178.918 37.1954 179.269 37.4818C179.621 37.7657 179.797 38.1811 179.797 38.7279V40.3372L180.421 40.4231V41.2045L179 41.2436ZM177.574 41.2826C177.136 41.2826 176.797 41.1757 176.554 40.9622C176.315 40.7487 176.195 40.4467 176.195 40.0561C176.195 39.6029 176.356 39.2553 176.679 39.0131C177.002 38.7709 177.459 38.6497 178.05 38.6497C178.285 38.6497 178.491 38.6628 178.668 38.6889C178.845 38.7149 179.014 38.7553 179.175 38.81L179.004 39.5287C178.834 39.4896 178.677 39.4674 178.531 39.4622C178.385 39.4544 178.233 39.4506 178.074 39.4506C177.459 39.4506 177.152 39.6316 177.152 39.9936C177.152 40.1524 177.205 40.2735 177.312 40.3568C177.421 40.4402 177.579 40.4818 177.785 40.4818C178.024 40.4818 178.225 40.4389 178.386 40.3529C178.548 40.2644 178.669 40.1537 178.75 40.0209C178.83 39.8855 178.871 39.7462 178.871 39.6029V39.267L179.058 40.3295H178.726L178.863 40.2045C178.858 40.4441 178.802 40.6446 178.695 40.8061C178.591 40.9649 178.444 41.0847 178.254 41.1654C178.063 41.2436 177.837 41.2826 177.574 41.2826ZM182.57 41.2826C182.255 41.2826 181.98 41.2722 181.746 41.2514C181.511 41.2331 181.302 41.2045 181.117 41.1654L181.23 40.2592C181.535 40.3008 181.797 40.3321 182.015 40.3529C182.234 40.3738 182.419 40.3842 182.57 40.3842C182.95 40.3842 183.225 40.3529 183.394 40.2904C183.566 40.2279 183.652 40.129 183.652 39.9936C183.652 39.9076 183.627 39.8412 183.578 39.7943C183.528 39.7475 183.45 39.7097 183.343 39.6811L182.152 39.349C181.824 39.2579 181.579 39.1329 181.418 38.974C181.259 38.8126 181.179 38.586 181.179 38.2943C181.179 37.8464 181.36 37.517 181.722 37.3061C182.087 37.0925 182.653 36.9856 183.421 36.9856C183.609 36.9856 183.794 36.9922 183.976 37.0052C184.161 37.0182 184.354 37.0378 184.554 37.0639L184.453 37.9389C184.226 37.918 184.027 37.9037 183.855 37.8959C183.686 37.8881 183.533 37.8842 183.398 37.8842C182.968 37.8842 182.656 37.9141 182.461 37.974C182.268 38.0339 182.171 38.1303 182.171 38.2631C182.171 38.3516 182.2 38.4167 182.257 38.4584C182.315 38.5001 182.403 38.5364 182.523 38.5677L183.523 38.8372C183.911 38.9362 184.198 39.0755 184.382 39.2552C184.57 39.4349 184.664 39.6798 184.664 39.9896C184.664 40.4324 184.493 40.7592 184.152 40.9701C183.813 41.1785 183.286 41.2826 182.57 41.2826ZM185.488 43.0795L185.449 42.2318L186.136 42.1537C186.392 42.1225 186.61 42.0535 186.793 41.9467C186.975 41.8399 187.131 41.6811 187.261 41.4701C187.392 41.2592 187.505 40.9831 187.601 40.642L188.613 37.0639H189.629L188.453 40.8372C188.297 41.3346 188.118 41.7344 187.918 42.0365C187.72 42.3386 187.484 42.5652 187.211 42.7162C186.937 42.8673 186.61 42.9623 186.23 43.0014L185.488 43.0795ZM186.902 41.2045L185.41 37.0639H186.425L187.582 40.4154H187.746V41.2045H186.902ZM193.027 41.2045V38.6654C193.027 38.4154 192.97 38.2226 192.855 38.0872C192.741 37.9518 192.579 37.8842 192.371 37.8842C191.793 37.8842 191.504 38.267 191.504 39.0326L191.261 37.8139H191.597C191.629 37.5352 191.725 37.3281 191.886 37.1927C192.05 37.0547 192.294 36.9856 192.617 36.9856C193.054 36.9856 193.393 37.1186 193.632 37.3842C193.872 37.6498 193.992 38.0248 193.992 38.5092V41.2045H193.027ZM190.539 41.2045V37.0639H191.406L191.504 37.9389V41.2045H190.539ZM197.402 41.2826C196.668 41.2826 196.1 41.0977 195.699 40.7279C195.3 40.3555 195.101 39.8217 195.101 39.1264C195.101 38.4493 195.286 37.9231 195.656 37.5481C196.026 37.1731 196.554 36.9856 197.242 36.9856C197.661 36.9856 198.019 37.0665 198.316 37.2279C198.616 37.3868 198.828 37.612 198.953 37.9037L198.238 38.4622C198.123 38.2773 197.976 38.1355 197.797 38.0365C197.619 37.935 197.424 37.8842 197.211 37.8842C196.856 37.8842 196.58 37.9883 196.382 38.1967C196.185 38.405 196.086 38.7018 196.086 39.0872C196.086 39.5091 196.207 39.8308 196.449 40.0521C196.694 40.2735 197.043 40.3842 197.496 40.3842C197.686 40.3842 197.875 40.3751 198.062 40.3568C198.252 40.3386 198.437 40.3139 198.617 40.2826L198.718 41.1654C198.507 41.2123 198.289 41.2436 198.062 41.2592C197.836 41.2748 197.616 41.2826 197.402 41.2826ZM207.125 41.2436L207.05 40.017L206.996 39.5561V38.642C206.996 38.3998 206.901 38.2226 206.711 38.1106C206.52 37.9961 206.237 37.9336 205.859 37.9231L204.828 37.8959L204.906 37.0247L205.781 37.0365C206.505 37.0469 207.043 37.1954 207.394 37.4818C207.746 37.7657 207.921 38.1811 207.921 38.7279V40.3372L208.547 40.4231V41.2045L207.125 41.2436ZM205.699 41.2826C205.261 41.2826 204.921 41.1757 204.679 40.9622C204.44 40.7487 204.32 40.4467 204.32 40.0561C204.32 39.6029 204.481 39.2553 204.804 39.0131C205.127 38.7709 205.584 38.6497 206.175 38.6497C206.41 38.6497 206.616 38.6628 206.793 38.6889C206.97 38.7149 207.139 38.7553 207.3 38.81L207.129 39.5287C206.959 39.4896 206.802 39.4674 206.656 39.4622C206.51 39.4544 206.358 39.4506 206.199 39.4506C205.584 39.4506 205.277 39.6316 205.277 39.9936C205.277 40.1524 205.33 40.2735 205.437 40.3568C205.547 40.4402 205.704 40.4818 205.91 40.4818C206.149 40.4818 206.35 40.4389 206.511 40.3529C206.673 40.2644 206.794 40.1537 206.875 40.0209C206.955 39.8855 206.996 39.7462 206.996 39.6029V39.267L207.183 40.3295H206.851L206.988 40.2045C206.983 40.4441 206.927 40.6446 206.82 40.8061C206.716 40.9649 206.569 41.0847 206.379 41.1654C206.188 41.2436 205.962 41.2826 205.699 41.2826ZM211.445 41.2045L211 38.017H210.937L210.597 37.0639H211.355L211.836 40.3646H211.906L212.199 37.0639H213.125L212.656 41.2045H211.445ZM209.257 41.2045L208.906 37.0639H209.836L210.047 40.3646H210.117L210.597 37.0639H211.355L211.007 38.017H210.953L210.507 41.2045H209.257ZM216.5 41.2436L216.425 40.017L216.371 39.5561V38.642C216.371 38.3998 216.276 38.2226 216.086 38.1106C215.895 37.9961 215.612 37.9336 215.234 37.9231L214.203 37.8959L214.281 37.0247L215.156 37.0365C215.88 37.0469 216.418 37.1954 216.769 37.4818C217.121 37.7657 217.297 38.1811 217.297 38.7279V40.3372L217.921 40.4231V41.2045L216.5 41.2436ZM215.074 41.2826C214.636 41.2826 214.297 41.1757 214.054 40.9622C213.815 40.7487 213.695 40.4467 213.695 40.0561C213.695 39.6029 213.856 39.2553 214.179 39.0131C214.502 38.7709 214.959 38.6497 215.55 38.6497C215.785 38.6497 215.991 38.6628 216.168 38.6889C216.345 38.7149 216.514 38.7553 216.675 38.81L216.504 39.5287C216.334 39.4896 216.177 39.4674 216.031 39.4622C215.885 39.4544 215.733 39.4506 215.574 39.4506C214.959 39.4506 214.652 39.6316 214.652 39.9936C214.652 40.1524 214.705 40.2735 214.812 40.3568C214.921 40.4402 215.079 40.4818 215.285 40.4818C215.524 40.4818 215.725 40.4389 215.886 40.3529C216.048 40.2644 216.169 40.1537 216.25 40.0209C216.33 39.8855 216.371 39.7462 216.371 39.6029V39.267L216.558 40.3295H216.226L216.363 40.2045C216.358 40.4441 216.302 40.6446 216.195 40.8061C216.091 40.9649 215.944 41.0847 215.754 41.1654C215.563 41.2436 215.337 41.2826 215.074 41.2826ZM220.183 41.2045V37.2981H221.144V41.2045H220.183ZM218.632 41.2045V40.3295H220.261V41.2045H218.632ZM221.066 41.2045V40.3295H222.39V41.2045H221.066ZM218.867 37.9389V37.0639H221.144V37.9389H218.867ZM220.625 36.4662C220.44 36.4662 220.287 36.4063 220.168 36.2865C220.048 36.1667 219.988 36.0144 219.988 35.8295C219.988 35.6446 220.048 35.4923 220.168 35.3725C220.287 35.2527 220.44 35.1927 220.625 35.1927C220.81 35.1927 220.962 35.2527 221.082 35.3725C221.201 35.4923 221.261 35.6446 221.261 35.8295C221.261 36.0144 221.201 36.1667 221.082 36.2865C220.962 36.4063 220.81 36.4662 220.625 36.4662ZM225.906 41.2826C225.226 41.2826 224.735 41.1446 224.433 40.8686C224.131 40.5925 223.98 40.1511 223.98 39.5443V38.9389H224.941V39.4662C224.941 39.7865 225.022 40.0196 225.183 40.1654C225.347 40.3113 225.614 40.3842 225.984 40.3842C226.106 40.3842 226.238 40.3777 226.379 40.3646C226.519 40.349 226.679 40.3295 226.859 40.3061L226.953 41.1889C226.778 41.2201 226.606 41.2436 226.437 41.2592C226.27 41.2748 226.093 41.2826 225.906 41.2826ZM223.98 39.2122V35.8139H224.941V39.2122H223.98ZM222.968 37.9389V37.0639H226.797V37.9389H222.968Z" fill="#CFCDCD" fill-opacity="0.52"/>
<path d="M251.011 180.163L247.274 179.539C245.861 179.302 245.266 178.518 245.489 177.185C245.54 176.879 245.615 176.588 245.714 176.312L246.562 176.548C246.513 176.714 246.474 176.861 246.445 176.988C246.416 177.115 246.391 177.238 246.371 177.356C246.257 178.042 246.598 178.451 247.394 178.584L251.17 179.215L251.011 180.163ZM248.389 181.02L247.564 180.882L248.208 177.029L249.033 177.167L248.389 181.02ZM251.888 174.916L248.035 174.272L248.194 173.324L252.047 173.968L251.888 174.916ZM251.633 176.445L250.77 176.301L251.038 174.694L251.901 174.839L251.633 176.445ZM252.034 174.045L251.171 173.901L251.389 172.595L252.252 172.739L252.034 174.045ZM248.45 175.676L247.587 175.531L247.963 173.285L248.826 173.43L248.45 175.676ZM247.288 173.699C247.257 173.882 247.173 174.022 247.035 174.12C246.897 174.219 246.737 174.253 246.555 174.222C246.372 174.192 246.232 174.108 246.133 173.97C246.035 173.832 246.001 173.672 246.032 173.489C246.062 173.307 246.146 173.167 246.284 173.068C246.422 172.97 246.582 172.936 246.764 172.966C246.947 172.997 247.087 173.081 247.186 173.219C247.284 173.357 247.318 173.517 247.288 173.699ZM252.874 169.492C252.791 169.991 252.594 170.327 252.285 170.503C251.976 170.676 251.523 170.712 250.924 170.612L246.783 169.92L246.941 168.972L251.044 169.658C251.232 169.689 251.389 169.696 251.516 169.677C251.641 169.658 251.74 169.6 251.815 169.501C251.89 169.4 251.945 169.242 251.981 169.026C252.018 168.805 252.016 168.517 251.975 168.162L252.922 168.209C252.943 168.432 252.949 168.645 252.942 168.85C252.934 169.052 252.912 169.266 252.874 169.492ZM247.449 171.239L246.586 171.095L246.794 169.85L247.657 169.995L247.449 171.239ZM253.601 165.142C253.484 165.844 253.211 166.355 252.782 166.677C252.351 166.998 251.792 167.102 251.106 166.987C250.439 166.875 249.947 166.627 249.631 166.241C249.316 165.853 249.207 165.364 249.306 164.773C249.401 164.203 249.645 163.791 250.036 163.537C250.427 163.28 250.945 163.205 251.59 163.313C251.777 163.345 251.952 163.382 252.114 163.425L251.622 166.368L250.936 166.253L251.28 164.196C250.969 164.144 250.717 164.181 250.525 164.307C250.332 164.434 250.213 164.634 250.167 164.909C250.116 165.21 250.183 165.461 250.365 165.663C250.548 165.865 250.833 165.999 251.221 166.064C251.64 166.133 251.98 166.067 252.24 165.866C252.499 165.663 252.664 165.342 252.738 164.903C252.768 164.723 252.788 164.546 252.799 164.371C252.808 164.193 252.81 164.011 252.807 163.826L253.702 163.872C253.706 164.132 253.697 164.368 253.675 164.581C253.653 164.793 253.628 164.981 253.601 165.142ZM255.728 162.841L249.872 161.862L250.018 160.987L250.894 161.054L255.887 161.889L255.728 162.841ZM254.379 160.488C254.329 160.784 254.22 161.01 254.052 161.166C253.883 161.323 253.662 161.397 253.389 161.388L253.329 161.746L252.131 161.261C252.537 161.329 252.849 161.311 253.066 161.208C253.285 161.101 253.42 160.896 253.471 160.59C253.52 160.295 253.453 160.054 253.271 159.867C253.088 159.681 252.794 159.554 252.388 159.486C251.977 159.417 251.649 159.442 251.405 159.56C251.161 159.677 251.015 159.881 250.966 160.171C250.918 160.459 250.981 160.693 251.154 160.872C251.325 161.051 251.613 161.175 252.019 161.242L250.728 161.288L250.78 160.98C250.52 160.891 250.335 160.748 250.226 160.551C250.116 160.353 250.088 160.097 250.14 159.784C250.227 159.262 250.478 158.894 250.891 158.678C251.305 158.459 251.858 158.407 252.549 158.523C253.229 158.637 253.726 158.864 254.039 159.204C254.352 159.541 254.466 159.969 254.379 160.488ZM253.221 156.136L251.825 156.148L251.882 155.809C251.19 155.649 250.901 155.232 251.013 154.559C251.08 154.159 251.264 153.88 251.565 153.725C251.865 153.569 252.285 153.536 252.825 153.626L252.666 154.574C252.402 154.53 252.204 154.543 252.073 154.614C251.943 154.682 251.862 154.813 251.829 155.009C251.78 155.301 251.877 155.542 252.12 155.731C252.364 155.919 252.73 156.054 253.221 156.136ZM254.672 158.26L253.847 158.122L254.316 155.317L255.141 155.455L254.672 158.26ZM254.819 157.378L250.735 156.695L250.868 155.901L252.065 155.943L254.978 156.43L254.819 157.378ZM251.438 157.561L250.614 157.423L250.859 155.955L251.697 156.016L251.438 157.561ZM255.752 151.799L251.899 151.155L252.058 150.207L255.91 150.851L255.752 151.799ZM255.496 153.328L254.633 153.184L254.902 151.578L255.765 151.722L255.496 153.328ZM255.897 150.928L255.034 150.784L255.253 149.478L256.116 149.622L255.897 150.928ZM252.314 152.559L251.451 152.415L251.826 150.168L252.689 150.313L252.314 152.559ZM251.151 150.582C251.121 150.765 251.037 150.905 250.899 151.004C250.761 151.102 250.601 151.136 250.418 151.105C250.236 151.075 250.095 150.991 249.997 150.853C249.899 150.715 249.865 150.555 249.895 150.372C249.926 150.19 250.01 150.05 250.148 149.951C250.286 149.853 250.446 149.819 250.628 149.849C250.811 149.88 250.951 149.964 251.049 150.102C251.148 150.24 251.182 150.4 251.151 150.582ZM256.455 147.592L252.133 148.331L252.298 147.344L255.725 146.867L255.736 146.798L252.651 145.233L252.816 144.247L256.662 146.351L256.455 147.592ZM257.501 141.568L256.279 141.439L255.816 141.417L254.914 141.267C254.675 141.227 254.485 141.291 254.343 141.46C254.199 141.629 254.09 141.899 254.018 142.269L253.821 143.282L252.975 143.061L253.13 142.2C253.26 141.488 253.495 140.982 253.836 140.682C254.174 140.382 254.612 140.278 255.152 140.368L256.739 140.633L256.927 140.031L257.697 140.16L257.501 141.568ZM257.305 142.981C257.233 143.413 257.071 143.73 256.821 143.934C256.571 144.135 256.253 144.203 255.868 144.139C255.421 144.064 255.105 143.848 254.919 143.489C254.733 143.131 254.689 142.66 254.787 142.077C254.825 141.846 254.872 141.645 254.927 141.475C254.982 141.304 255.05 141.144 255.13 140.994L255.811 141.282C255.744 141.442 255.696 141.594 255.667 141.737C255.635 141.88 255.607 142.029 255.58 142.186C255.479 142.792 255.607 143.125 255.964 143.185C256.121 143.211 256.249 143.178 256.349 143.087C256.449 142.992 256.516 142.844 256.55 142.641C256.589 142.405 256.58 142.2 256.522 142.026C256.461 141.853 256.372 141.715 256.254 141.613C256.134 141.511 256.003 141.449 255.862 141.425L255.531 141.37L256.609 141.36L256.555 141.687L256.454 141.532C256.689 141.577 256.878 141.665 257.02 141.797C257.159 141.926 257.253 142.091 257.301 142.291C257.347 142.492 257.348 142.722 257.305 142.981ZM258.318 136.921C258.206 137.591 257.989 138.052 257.667 138.305C257.345 138.557 256.884 138.634 256.286 138.533L255.689 138.434L255.847 137.486L256.367 137.573C256.683 137.626 256.926 137.584 257.097 137.449C257.268 137.311 257.384 137.06 257.445 136.695C257.465 136.575 257.48 136.444 257.49 136.303C257.498 136.162 257.505 136.001 257.512 135.82L258.398 135.873C258.4 136.05 258.395 136.223 258.382 136.393C258.37 136.56 258.349 136.736 258.318 136.921ZM255.958 138.479L252.606 137.919L252.765 136.971L256.117 137.531L255.958 138.479ZM254.536 139.267L253.673 139.122L254.304 135.347L255.167 135.491L254.536 139.267ZM259.01 132.779C258.893 133.48 258.62 133.992 258.191 134.313C257.76 134.635 257.201 134.738 256.516 134.623C255.848 134.512 255.356 134.263 255.04 133.878C254.725 133.49 254.617 133 254.715 132.41C254.811 131.839 255.054 131.427 255.445 131.173C255.836 130.916 256.354 130.842 256.999 130.95C257.186 130.981 257.361 131.018 257.523 131.061L257.031 134.005L256.345 133.89L256.689 131.832C256.378 131.781 256.126 131.818 255.934 131.944C255.741 132.07 255.622 132.271 255.576 132.545C255.526 132.846 255.592 133.097 255.774 133.299C255.957 133.502 256.242 133.635 256.63 133.7C257.049 133.77 257.389 133.704 257.65 133.502C257.908 133.3 258.074 132.979 258.147 132.54C258.177 132.36 258.198 132.182 258.208 132.007C258.217 131.829 258.22 131.647 258.216 131.462L259.111 131.509C259.116 131.768 259.107 132.004 259.084 132.217C259.062 132.43 259.037 132.617 259.01 132.779Z" fill="#CFCDCD" fill-opacity="0.52"/>
<path d="M222.298 155.289V154.195H227.816V155.289H222.298ZM227.621 155.289V154.195H232.543V155.289H227.621ZM230.248 158.194L229.491 157.467L232.084 154.786V154.698L229.491 152.017L230.248 151.29L233.265 154.444V155.04L230.248 158.194Z" fill="#CFCDCD" fill-opacity="0.52"/>
<path d="M250.255 114.132L254.093 105.343H255.314L251.471 114.132H250.255ZM254.562 114.132L258.4 105.343H259.621L255.778 114.132H254.562Z" fill="#CFCDCD" fill-opacity="0.52"/>
<path d="M3.08 314.2V285H7.96V288.96H8.04C8.44 287.573 9.14667 286.507 10.16 285.76C11.2 284.987 12.48 284.6 14 284.6C16.16 284.6 17.8933 285.36 19.2 286.88C20.5333 288.4 21.2 290.44 21.2 293V298.96C21.2 301.547 20.5333 303.6 19.2 305.12C17.8933 306.64 16.16 307.4 14 307.4C12.5067 307.4 11.24 307.027 10.2 306.28C9.16 305.507 8.44 304.427 8.04 303.04H7.96L8.08 308.04V314.2H3.08ZM12.16 303.08C13.44 303.08 14.4267 302.707 15.12 301.96C15.84 301.213 16.2 300.147 16.2 298.76V293.24C16.2 291.853 15.84 290.787 15.12 290.04C14.4267 289.293 13.44 288.92 12.16 288.92C10.88 288.92 9.88 289.307 9.16 290.08C8.44 290.853 8.08 291.947 8.08 293.36V298.64C8.08 300.053 8.44 301.147 9.16 301.92C9.88 302.693 10.88 303.08 12.16 303.08ZM35.9844 307.36C33.1577 307.36 30.9177 306.587 29.2644 305.04C27.611 303.467 26.7844 301.36 26.7844 298.72V293.28C26.7844 290.64 27.611 288.547 29.2644 287C30.9177 285.427 33.1577 284.64 35.9844 284.64C38.811 284.64 41.051 285.427 42.7044 287C44.3577 288.547 45.1844 290.627 45.1844 293.24V298.72C45.1844 301.36 44.3577 303.467 42.7044 305.04C41.051 306.587 38.811 307.36 35.9844 307.36ZM35.9844 303C37.3177 303 38.3444 302.64 39.0644 301.92C39.811 301.173 40.1844 300.107 40.1844 298.72V293.28C40.1844 291.893 39.811 290.84 39.0644 290.12C38.3444 289.373 37.3177 289 35.9844 289C34.651 289 33.611 289.373 32.8644 290.12C32.1444 290.84 31.7844 291.893 31.7844 293.28V298.72C31.7844 300.107 32.1444 301.173 32.8644 301.92C33.611 302.64 34.651 303 35.9844 303ZM63.5288 307C61.3421 307 59.5821 306.347 58.2487 305.04C56.9421 303.733 56.2888 302.013 56.2888 299.88V282.32H49.0488V277.8H61.2888V299.76C61.2888 300.587 61.5154 301.253 61.9688 301.76C62.4488 302.24 63.0888 302.48 63.8888 302.48H70.3288V307H63.5288ZM75.0331 314.2V285H79.9131V288.96H79.9931C80.3931 287.573 81.0998 286.507 82.1131 285.76C83.1531 284.987 84.4331 284.6 85.9531 284.6C88.1131 284.6 89.8465 285.36 91.1531 286.88C92.4865 288.4 93.1531 290.44 93.1531 293V298.96C93.1531 301.547 92.4865 303.6 91.1531 305.12C89.8465 306.64 88.1131 307.4 85.9531 307.4C84.4598 307.4 83.1931 307.027 82.1531 306.28C81.1131 305.507 80.3931 304.427 79.9931 303.04H79.9131L80.0331 308.04V314.2H75.0331ZM84.1131 303.08C85.3931 303.08 86.3798 302.707 87.0731 301.96C87.7931 301.213 88.1531 300.147 88.1531 298.76V293.24C88.1531 291.853 87.7931 290.787 87.0731 290.04C86.3798 289.293 85.3931 288.92 84.1131 288.92C82.8331 288.92 81.8331 289.307 81.1131 290.08C80.3931 290.853 80.0331 291.947 80.0331 293.36V298.64C80.0331 300.053 80.3931 301.147 81.1131 301.92C81.8331 302.693 82.8331 303.08 84.1131 303.08ZM98.9775 307V302.48H106.497V289.52H99.7775V285H111.498V302.48H118.258V307H98.9775ZM108.658 281.32C107.644 281.32 106.844 281.067 106.258 280.56C105.671 280.027 105.378 279.32 105.378 278.44C105.378 277.56 105.671 276.867 106.258 276.36C106.844 275.827 107.644 275.56 108.658 275.56C109.671 275.56 110.471 275.827 111.058 276.36C111.644 276.867 111.938 277.56 111.938 278.44C111.938 279.32 111.644 280.027 111.058 280.56C110.471 281.067 109.671 281.32 108.658 281.32ZM131.962 307.4C130.095 307.4 128.469 307.04 127.082 306.32C125.695 305.6 124.615 304.6 123.842 303.32C123.095 302.013 122.722 300.493 122.722 298.76V293.24C122.722 291.507 123.095 290 123.842 288.72C124.615 287.413 125.695 286.4 127.082 285.68C128.469 284.96 130.095 284.6 131.962 284.6C133.802 284.6 135.402 284.96 136.762 285.68C138.149 286.4 139.215 287.413 139.962 288.72C140.735 290 141.122 291.507 141.122 293.24V297.2H127.562V298.76C127.562 301.88 129.042 303.44 132.002 303.44C134.295 303.44 135.642 302.68 136.042 301.16H140.962C140.589 303.053 139.575 304.573 137.922 305.72C136.295 306.84 134.309 307.4 131.962 307.4ZM127.562 293.24V294.08L136.282 294.04V293.2C136.282 291.68 135.922 290.52 135.202 289.72C134.482 288.893 133.402 288.48 131.962 288.48C130.495 288.48 129.389 288.893 128.642 289.72C127.922 290.547 127.562 291.72 127.562 293.24ZM159.466 307C157.28 307 155.52 306.347 154.186 305.04C152.88 303.733 152.226 302.013 152.226 299.88V282.32H144.986V277.8H157.226V299.76C157.226 300.587 157.453 301.253 157.906 301.76C158.386 302.24 159.026 302.48 159.826 302.48H166.266V307H159.466ZM183.451 307C181.264 307 179.504 306.347 178.171 305.04C176.864 303.733 176.211 302.013 176.211 299.88V282.32H168.971V277.8H181.211V299.76C181.211 300.587 181.437 301.253 181.891 301.76C182.371 302.24 183.011 302.48 183.811 302.48H190.251V307H183.451ZM201.435 307.4C199.168 307.4 197.382 306.813 196.075 305.64C194.768 304.44 194.115 302.813 194.115 300.76C194.115 298.6 194.862 296.933 196.355 295.76C197.848 294.56 199.928 293.96 202.595 293.96H207.875V292.12C207.875 291.053 207.528 290.227 206.835 289.64C206.142 289.053 205.168 288.76 203.915 288.76C202.768 288.76 201.822 289 201.075 289.48C200.355 289.96 199.955 290.6 199.875 291.4H195.115C195.222 289.347 196.088 287.707 197.715 286.48C199.368 285.227 201.488 284.6 204.075 284.6C206.795 284.6 208.942 285.267 210.515 286.6C212.088 287.933 212.875 289.76 212.875 292.08V307H208.035V303.28H207.955C207.662 304.56 206.942 305.573 205.795 306.32C204.648 307.04 203.195 307.4 201.435 307.4ZM203.075 303.68C204.488 303.68 205.635 303.333 206.515 302.64C207.422 301.92 207.875 300.973 207.875 299.8V297.16H202.715C201.595 297.16 200.715 297.453 200.075 298.04C199.435 298.6 199.115 299.373 199.115 300.36C199.115 301.4 199.462 302.213 200.155 302.8C200.875 303.387 201.848 303.68 203.075 303.68ZM227.859 307.4C226.713 307.4 225.793 307.067 225.099 306.4C224.433 305.733 224.099 304.827 224.099 303.68C224.099 302.533 224.433 301.627 225.099 300.96C225.793 300.267 226.713 299.92 227.859 299.92C229.006 299.92 229.913 300.267 230.579 300.96C231.273 301.627 231.619 302.533 231.619 303.68C231.619 304.827 231.273 305.733 230.579 306.4C229.913 307.067 229.006 307.4 227.859 307.4Z" fill="white"/>
<path d="M249.844 307.4C247.71 307.4 245.977 306.64 244.644 305.12C243.31 303.6 242.644 301.56 242.644 299V293.04C242.644 290.453 243.297 288.4 244.604 286.88C245.937 285.36 247.684 284.6 249.844 284.6C251.364 284.6 252.644 284.987 253.684 285.76C254.724 286.507 255.444 287.573 255.844 288.96H255.924L255.764 283.96V277.8H260.764V307H255.884V303.04H255.844C255.444 304.427 254.724 305.507 253.684 306.28C252.67 307.027 251.39 307.4 249.844 307.4ZM251.724 303.08C253.004 303.08 253.99 302.693 254.684 301.92C255.404 301.147 255.764 300.053 255.764 298.64V293.36C255.764 291.947 255.404 290.853 254.684 290.08C253.99 289.307 253.004 288.92 251.724 288.92C250.444 288.92 249.444 289.293 248.724 290.04C248.004 290.787 247.644 291.853 247.644 293.24V298.76C247.644 300.147 248.004 301.213 248.724 301.96C249.444 302.707 250.444 303.08 251.724 303.08ZM275.868 307.4C274.001 307.4 272.375 307.04 270.988 306.32C269.601 305.6 268.521 304.6 267.748 303.32C267.001 302.013 266.628 300.493 266.628 298.76V293.24C266.628 291.507 267.001 290 267.748 288.72C268.521 287.413 269.601 286.4 270.988 285.68C272.375 284.96 274.001 284.6 275.868 284.6C277.708 284.6 279.308 284.96 280.668 285.68C282.055 286.4 283.121 287.413 283.868 288.72C284.641 290 285.028 291.507 285.028 293.24V297.2H271.468V298.76C271.468 301.88 272.948 303.44 275.908 303.44C278.201 303.44 279.548 302.68 279.948 301.16H284.868C284.495 303.053 283.481 304.573 281.828 305.72C280.201 306.84 278.215 307.4 275.868 307.4ZM271.468 293.24V294.08L280.188 294.04V293.2C280.188 291.68 279.828 290.52 279.108 289.72C278.388 288.893 277.308 288.48 275.868 288.48C274.401 288.48 273.295 288.893 272.548 289.72C271.828 290.547 271.468 291.72 271.468 293.24ZM296.653 307L289.093 285H294.293L298.733 298.36C298.999 299.16 299.226 299.987 299.413 300.84C299.626 301.693 299.786 302.373 299.893 302.88C300.026 302.373 300.186 301.693 300.373 300.84C300.559 299.987 300.773 299.173 301.013 298.4L305.373 285H310.533L303.013 307H296.653Z" fill="#1CD8D2"/>
<defs>
<linearGradient id="paint0_linear" x1="88.0756" y1="123.443" x2="229.486" y2="123.443" gradientUnits="userSpaceOnUse">
<stop stop-color="#1CD8D2"/>
<stop offset="1" stop-color="#93EDC7"/>
</linearGradient>
</defs>
</svg>
