<svg width="90" height="90" viewBox="0 0 90 90" fill="none" xmlns="http://www.w3.org/2000/svg">
<g clip-path="url(#clip0_3437_207)">
<rect width="90" height="90" transform="matrix(-1 0 0 1 90 0)" fill="white"/>
<path d="M51.5579 27.2839C51.5579 26.2905 51.2184 22.9466 51.1335 21.7617L54.7001 23.1814L58.3095 24.8984L60.5806 30.2136C58.6676 30.7519 57.8335 31.7925 57.4599 33.1997C57.0862 34.6068 57.3835 38.0972 57.6949 39.3676L54.9684 40.929C55.4082 38.3556 55.3456 34.4533 54.7001 32.51C53.8934 30.081 51.5579 29.2153 51.5579 27.2839Z" fill="#878787"/>
<path d="M49.3498 19.0375L51.0564 18.5804C50.5835 19.8351 50.8704 20.8025 51.0021 21.9513C51.0539 22.4035 51.3649 22.7955 51.8051 22.9113C53.7994 23.4355 56.8878 24.3975 57.5452 25.1931C58.2925 26.0977 59.6117 29.3382 60.1779 30.8453C60.7554 30.2075 62.117 30.2456 62.7257 30.3443C62.9521 28.9484 63.4475 25.8213 63.6174 24.4812C63.8297 22.806 63.3201 19.4124 62.7257 17.4872C62.2501 15.9471 60.6874 14.6678 59.9656 14.2206L60.8573 12.7967C57.8566 10.8002 49.8509 6.78203 41.8339 6.68152C31.8126 6.55588 24.2542 12.9216 22.7255 15.7709C21.1969 18.6202 21.0695 23.3497 21.7064 23.6428C22.216 23.8774 23.6172 23.5451 24.2542 23.3497C24.4665 23.1403 25.3327 22.5372 27.0992 21.8001C28.8656 21.063 31.0058 20.0412 31.855 19.6224L30.9209 22.0933C34.0631 20.5437 36.0165 17.4441 38.4369 16.6065C40.8572 15.7689 44.3392 14.9732 44.8487 15.7709C45.2563 16.4091 45.0185 18.4645 44.8487 19.4124C45.8338 19.0104 46.986 16.8172 47.4389 15.7709C49.0355 16.5415 49.3781 18.2697 49.3498 19.0375Z" fill="#454545"/>
<path d="M32.5987 37.3164C32.1166 38.9151 30.9986 42.2208 30.5647 43.8212C30.0224 45.8217 30.8811 47.7836 37.4348 45.6571" stroke="black" stroke-linecap="round" stroke-linejoin="round"/>
<path opacity="0.3" d="M54.3055 65.9357L57.3345 53.4219C56.1177 55.0828 53.0103 58.9942 50.3147 61.3528C47.6191 63.7115 44.1841 66.8751 42.8035 68.162L43.9267 72.5C42.7099 72.734 42 75.3163 43.9267 76.0944C46.8469 77.2737 47.3787 77.2483 47.3787 77.2483L50.2496 70.6849C50.2927 70.5864 50.3515 70.4954 50.4236 70.4155L54.0758 66.3706C54.1874 66.247 54.2663 66.0975 54.3055 65.9357Z" fill="black"/>
<path d="M59.5365 31.9967C60.3651 30.6295 62.384 28.8134 63.8303 32.4867C65.6382 37.0784 62.8811 44.3909 59.5365 43.3656" stroke="black" stroke-linecap="round" stroke-linejoin="round"/>
<path d="M60.3694 35.3203L60.159 38.504" stroke="black" stroke-linecap="round" stroke-linejoin="round"/>
<path d="M59.0394 36.9486L61.7964 36.6367" stroke="black" stroke-linecap="round" stroke-linejoin="round"/>
<path d="M24.4623 23.3438C24.2348 24.0534 23.8364 25.6276 23.9274 26.9747C24.0411 28.6586 24.4203 30.1543 24.3065 31.1638C24.2155 31.9714 23.8895 33.6939 23.7379 34.4542C24.2181 35.1521 25.2695 36.7799 25.6334 37.7071C26.0883 38.8662 25.2116 40.6804 25.2765 42.9839C25.3068 44.0607 26.8466 49.348 27.5669 51.5416" stroke="black" stroke-linecap="round" stroke-linejoin="round"/>
<path d="M29.7858 34.2511C29.2729 34.0488 28.0934 33.6357 27.478 33.6027C26.8626 33.5697 24.9003 34.2632 23.9961 34.6141" stroke="black" stroke-linecap="round" stroke-linejoin="round"/>
<path d="M35.8588 32.5884C37.1949 32.0482 40.2396 31.0324 41.7295 31.2916L44.6041 32.1432" stroke="black" stroke-linecap="round" stroke-linejoin="round"/>
<ellipse cx="28.2154" cy="37.3789" rx="1.34264" ry="1.71875" fill="black"/>
<ellipse cx="41.0974" cy="35.543" rx="1.40859" ry="1.83594" fill="black"/>
<path d="M35.1044 55.878C32.0349 54.9401 31.799 52.5471 32.0648 51.4679C32.4884 51.3275 33.774 50.9721 35.5279 50.6732C37.2819 50.3742 41.4576 50.0165 43.3262 49.875C41.7317 52.9893 38.9412 57.0504 35.1044 55.878Z" fill="#878787"/>
<path d="M32.0753 65.4766C30.56 66.7573 27.2373 69.5246 26.0683 70.3478C24.6072 71.3767 22.4425 73.5414 21.4143 74.5696C20.3861 75.5978 14.812 81.6589 14.3791 95.5128" stroke="black" stroke-linecap="round" stroke-linejoin="round"/>
<path d="M23.8296 27.0372L20.8241 24.0982L24.1693 23.4766L23.8296 27.0372Z" fill="black"/>
<path d="M37.6157 52.2842C35.434 52.7658 33.2501 52.7695 32.4308 52.7111L31.7238 51.1136C32.7675 51.0309 35.2791 50.7875 36.976 50.4756C38.6729 50.1637 40.803 49.9687 41.6559 49.9102C41.2182 50.5008 39.7974 51.8026 37.6157 52.2842Z" fill="white"/>
<path d="M33.8682 57.3184C32.045 56.4123 31.1519 53.0647 30.9332 51.5042L32.487 51.2571C32.8323 52.2021 33.5919 54.3333 33.8682 54.7302C34.2134 55.2264 36.8721 56.0061 39.2201 54.3049C41.0984 52.944 42.3507 50.8315 42.742 49.9453H43.2944C42.9261 50.9967 41.9478 53.4823 40.981 55.0133C39.7725 56.9271 36.147 58.451 33.8682 57.3184Z" fill="#CCCCCC"/>
<path d="M30.7539 51.0055C32.1433 50.9477 35.1484 50.9915 36.0971 50.7918C37.0457 50.5921 41.3181 49.924 43.2944 49.6641" stroke="#CCCCCC" stroke-linecap="round" stroke-linejoin="round"/>
<path d="M60.5497 43.6406C60.6218 45.2285 60.8979 48.172 61.4607 49.7307M61.4607 49.7307C62.0235 51.2894 63.9301 54.594 64.8501 56.1092M61.4607 49.7307C61.7204 49.746 62.1288 49.859 62.5792 50.1386M57.9431 89.2361C59.2059 85.3397 62.0127 76.4862 63.1384 72.2434C64.5454 66.94 65.4654 54.9261 64.383 52.3826C63.8838 51.2093 63.1926 50.5194 62.5792 50.1386M57.9431 89.2361C58.7188 88.1538 60.4217 85.9134 61.0278 85.6103C61.7854 85.2315 65.1407 83.9868 65.6277 82.7421C66.0174 81.7464 66.3313 80.1265 66.4395 79.441C69.3979 79.4229 76.1697 78.8998 79.5899 76.9516C78.4173 73.2175 75.9532 65.3381 75.477 63.693C74.8817 61.6365 73.3664 58.2813 72.4465 57.5778M57.9431 89.2361L56.721 94.104M72.4465 57.5778C71.5265 56.8743 70.39 56.5496 68.9289 54.7096C67.7599 53.2376 64.2087 51.0489 62.5792 50.1386M72.4465 57.5778C73.5829 57.8484 76.6026 58.7575 79.5899 60.2295C82.5771 61.7015 89.0603 64.7032 91.9285 66.02C93.3897 72.3336 96.1388 86.4437 95.4461 92.3749" stroke="black" stroke-linecap="round" stroke-linejoin="round"/>
<path d="M35.647 68.4534C33.2117 71.8619 28.1139 79.1771 27.2048 81.1697C28.1067 81.9999 30.5492 83.2924 33.1035 81.8204C32.8329 82.3615 32.3026 83.6062 32.3459 84.2556C32.3892 84.905 39.0383 93.4014 42.3575 97.5684C42.3575 94.3755 42.3575 86.929 42.3575 82.6862C42.3575 79.6471 42.6596 76.5192 42.9379 74.2494M43.3857 70.997C43.3395 71.3436 43.1453 72.5583 42.9379 74.2494M42.3575 67.75L44.6583 74.6797M42.9379 74.2494C42.8368 75.1061 42.5546 76.0223 46.0614 77.018C50.4448 78.2627 57.2937 77.3293 63.3007 71.5388" stroke="black" stroke-linecap="round" stroke-linejoin="round"/>
<path d="M56.972 38.5057C57.2642 38.3669 57.6048 38.5378 57.6556 38.8572C57.8432 40.041 58.1136 42.1694 58.2249 43.157C58.3948 44.6646 58.3094 51.7 57.5452 53.6688C56.7809 55.6371 48.6284 64.2643 46.2503 66.4842C43.8726 68.7036 39.9662 70.5466 37.6732 69.9607C35.3802 69.3744 32.7472 67.6567 31.1761 64.2645C29.9193 61.5509 29.1238 57.4949 28.8831 55.8055C28.1329 54.8981 26.5811 52.8649 26.3773 51.9949C26.1736 51.1248 26.2923 49.5086 26.3773 48.8094L27.9222 51.9949C28.0493 51.199 27.5089 49.2611 29.4114 48.8094C31.5269 48.307 32.2944 46.8843 32.5774 46.7166L36.3138 46.0877C40.2628 48.2236 42.4287 46.4646 42.8958 46.4646C43.363 46.4647 44.5089 46.7588 45.1458 47.5125C45.6553 48.1157 46.3212 50.0527 46.5901 50.9461C47.666 50.1224 50.1822 48.1821 51.6429 47.0096C53.0036 45.9172 54.4459 41.7039 55.1175 39.7215C55.204 39.466 55.3896 39.2573 55.6331 39.1414L56.972 38.5057ZM43.5101 49.448C41.7732 49.9094 38.1414 50.7274 36.9339 50.5857C35.7266 50.444 34.5387 49.7913 34.1673 49.448C33.7359 49.7873 32.6237 51.3586 30.5745 51.575C31.1016 52.7449 32.1979 55.3045 32.3704 56.1834C32.586 57.2824 32.8024 61.7473 34.5989 61.3221C34.6606 60.9976 34.4138 59.8871 34.1673 59.1326C33.8593 58.1899 33.8327 57.6891 35.469 58.117C37.0723 58.5363 39.2166 56.8973 40.1439 56.8973C41.5802 56.8973 39.9187 58.467 40.347 60.784C41.8203 60.3941 43.5101 58.274 43.5101 56.7146C43.5101 55.1555 45.0189 52.5689 44.7679 51.7889C44.5667 51.1652 43.8455 49.9685 43.5101 49.448Z" fill="black"/>
<path opacity="0.1" d="M49.6539 41.3114C49.0014 42.1842 47.4369 42.1176 46.1595 41.1627C44.882 40.2077 44.3061 38.5106 44.8783 37.5829C45.665 36.3071 47.1431 36.3491 48.4206 37.3041C49.698 38.259 50.3063 40.4386 49.6539 41.3114Z" fill="black"/>
<path d="M51.5092 18.7812C51.1652 20.4531 51.3617 22.4194 52.689 22.9109" stroke="black" stroke-linecap="round" stroke-linejoin="round"/>
<path d="M44.7423 15.5859C44.4191 16.0566 43.4643 17.1257 42.2303 17.6367" stroke="black" stroke-linecap="round" stroke-linejoin="round"/>
<path d="M21.3243 23.6416C21.7489 23.823 23.1077 23.9264 25.146 22.8879C27.6937 21.5898 28.0133 20.2496 31.2405 19.5377M40.1354 15.9766C39.2436 16.2278 37.0695 17.0654 35.5069 18.4056C33.5536 20.0808 32.8317 21.5517 30.7086 22.2198M47.3965 15.4328C47.2691 16.4663 46.4878 18.7341 44.3816 19.5377M49.0101 16.6473C49.2083 16.9684 49.5451 17.9456 49.3074 19.2857M21.3243 21.3323C21.1686 20.6754 21.7055 18.0684 22.3849 16.6473C23.6429 14.0161 26.6746 10.8679 30.2415 9.4021C33.8084 7.9363 39.2861 6.59575 42.4284 6.67951C45.5706 6.76327 46.7171 6.59831 51.0059 8.14786C54.4369 9.3875 57.163 10.898 58.0972 11.4982L60.8998 12.8803L59.7957 14.2623C60.192 14.5555 61.1885 15.3512 62.0038 16.1888C63.0229 17.2358 63.7023 21.3819 63.8297 23.2665C63.9316 24.7741 63.0229 28.669 62.5558 30.4279M42.3521 11.2613C39.8622 11.4466 36.6961 10.4914 35.4243 9.99063C34.1804 9.42798 30.8652 8.88 27.8824 10.6524" stroke="black" stroke-linecap="round" stroke-linejoin="round"/>
<path d="M45.8571 12.7148C42.7857 14.1429 37.3525 14.4421 31.4908 13.3365" stroke="black" stroke-linecap="round" stroke-linejoin="round"/>
</g>
<defs>
<clipPath id="clip0_3437_207">
<rect width="90" height="90" fill="white" transform="matrix(-1 0 0 1 90 0)"/>
</clipPath>
</defs>
</svg>
