<svg xmlns="http://www.w3.org/2000/svg" width="800" height="800" viewBox="0 0 64 64"><path fill="#1d1d1b" d="M24.19 4.27a2.87 2.87 0 0 1 3 .72c.4.31.43.62.84.5s2.06-2.31 3.75-2.16S35 6.18 35.44 6.24s2.94-1.78 4.44-1.91 3.06 0 3.37 1.78-.12 2.5.91 3 5-1.34 6.53.6-.19 4.59.19 5 4.59.34 5.37 1.59.09 2.56-.25 3.7-.91 1.91-.19 2.47 1.91.5 2.53.72 1.94.47 2 2.9-2.34 2.6-2.15 3.75S61 32 61.5 33.39a2.84 2.84 0 0 1-1.5 3.66c-1.56.88-2.34.88-2.34 1.41a17.32 17.32 0 0 0 .19 4.4c.4 1.69.34 2.22-.16 3.13s-1.59.65-2.31.59-1.6-.28-1.88.16.85 3.22.35 4.19a2.4 2.4 0 0 1-2.63 1.28c-1.19-.19-1.59-.66-2.12-.44s-.44 2.72-1.54 3.91a3 3 0 0 1-3.12 1.21c-1.38-.15-2-1.28-2.72-1.06s-.94 3-2.5 3.56a4.3 4.3 0 0 1-3.66-.28c-.93-.43-.84-1.09-1.78-.78s-1.9 1.91-3.56 2.25a2.66 2.66 0 0 1-3-1C26.75 59 26.94 58.11 26 58s-2.06 1.84-3.41 1.94A4.12 4.12 0 0 1 19 58c-.91-1.31-.22-2.75-1.25-3.06s-3 1.21-4.53 0a3.05 3.05 0 0 1-1.44-2.66c0-.53-.19-1.25-1-1.25s-3.06.41-3.87-.47a3 3 0 0 1-.35-3.47c.69-1.12 1.57-1.72 1.1-2.31s-3.1-1.66-3.6-3.56 1.13-3.28 1.32-4.13.59-1.75-.13-2-2.47-1.19-2.75-2-.41-1.79.59-2.09 3.44-1.44 3.13-2.16-2-2.12-2.34-3.12-.25-3.16.81-3.66 3.22-.16 3.37-.72-1.47-2.44-1.5-3.47.72-2.75 1.75-3 3.13.6 3.75.06-.4-3.43.57-4.06a3.66 3.66 0 0 1 3-.15c.5.25 1 .87 1.34.46s-.63-3 .44-3.9 3.18.75 4 .31 1.06-2.73 2.78-3.32z"/><path fill="#fab900" d="M24.66 5.74c.65-.07 1.5 1.84 2.93 1.78A4.26 4.26 0 0 0 30.28 6c.5-.41 1.47-1.07 1.69-1s1.62 2.87 3 3.28 2.34-1.16 3.41-1.69 1.75-1.12 2.47-.65.06 3.56 1.81 4.56 4.72-.66 6.12 0-.34 4.59.35 5.37 4.72.28 5.37 1.47-1.5 3.31-1.22 4.91 1.5 1.72 2.85 2.31 2.09.22 2.15 1.41-2.93 3-2.18 4.87 3.25 2.16 3.15 3.56-3.25 2.12-3.59 3.43.87 6.81.22 7.13-2.94-.19-3.82.59 0 4-.62 4.53-2.69-.44-4 .56-1 4.35-1.94 4.47-2.69-1.78-4.66-.87-1.65 3.12-2.78 3.31-2.06-1.62-4.28-1.16-2.78 2.47-4.06 2.32-1.63-2.66-3-2.78-3.72 2.37-5.06 1.84-.28-3.47-2.25-4.38-4.1.25-5 .07-.38-2.6-.88-3a4.07 4.07 0 0 0-2.84-1.19c-1.6 0-2.5-.12-2.13-1s2.35-2.78 1.6-3.59S6 42 6.16 40.55s1.9-3.44 1.47-4.84a3.74 3.74 0 0 0-1.82-2.28c-.53-.32-1.68-1-1.06-1.41S8.53 30.11 8.38 29 6.31 26.74 6 25.52s-.28-2.13.28-2.31 3.66-.35 4-1.44-1.43-3-1.53-3.84.19-1.54 1-1.44 3.35.75 4.07-.78.15-3.38.59-3.41 1.72 1.13 3.25.53 1.22-2.44 1.28-2.78-.25-1.22.44-1.25 3.31 1.2 4.12-.16.59-2.84 1.16-2.9z"/><path fill="#1d1d1b" d="M30.41 15.83c4.11-.62 7.87.16 12 5s4.18 6.13 4.06 10.88-2.13 9.59-4.56 11.75-8.78 4.31-14 2.31-8.72-5.13-10.63-10.16.19-11.06 2-14.09 5.72-4.88 11.13-5.69z"/><path fill="#ffe19b" d="M30.81 17.39a12.13 12.13 0 0 1 10.85 5.1c2.78 4 3.62 5.34 3 10.12s-1.75 7.16-4.38 9.39a12.84 12.84 0 0 1-11.78 2.08c-4.16-1.5-7.47-4-9-8.56s-.09-9.59 1.22-12.28 5.5-5.31 10.09-5.85z"/><g fill="#1d1d1b"><path d="M25.34 22.24c.34 0 1 .94.66 1.25s-2.12.87-3.12 2.62-.63 4.13-.82 4.41-1.15.47-1.34.22a10 10 0 0 1 .5-5.19 6.34 6.34 0 0 1 4.12-3.31zM21.34 12c.26-.17 2.72 3.5 2.54 3.72s0 .62-.44.28-2.88-3.25-2.78-3.5.59-.42.68-.5zM25.59 10.33c0-.14.41-.34.63-.19a14.69 14.69 0 0 1 1.66 3.44c-.13.22-.32.38-.47.28s-1.82-3.47-1.82-3.53zM30.47 8.52c.11-.26 1-.13 1.09.06a26.07 26.07 0 0 1 0 4.5c-.18.1-.31.19-.46 0a28.16 28.16 0 0 1-.63-4.56zM38.41 9.05c.15-.1.47-.22.4.16a47 47 0 0 1-1.53 5.34c-.19 0-.72 0-.72-.22a52.43 52.43 0 0 1 1.85-5.28zM42.34 16.77a17.89 17.89 0 0 1 3.41-3.38c.22.1.47.22.34.32s-2.9 3.84-3.09 3.78a2.07 2.07 0 0 1-.66-.72zM46.34 21.64a28.34 28.34 0 0 1 3.85-2.53c.22.1.34.35.22.44s-3.6 2.88-3.75 2.81-.32-.72-.32-.72zM48.94 26.93c.21-.32 3.22 0 3.37.15s.22.38.07.44-2.88.66-3.22.37a.8.8 0 0 1-.22-.96zM49 32.74c.27-.27 5 1.25 4.87 1.5s.25.56-.18.56a42.06 42.06 0 0 1-4.82-1.12 1.27 1.27 0 0 1 .13-.94zM48.72 37.14c.1-.07 4.09 1.19 4 1.54s0 .37-.16.4A23 23 0 0 1 48.34 38a1.9 1.9 0 0 1 .38-.86zM45.69 42.43a16.5 16.5 0 0 1 3.19 3c-.13.22.06.18-.13.22a20.88 20.88 0 0 1-3.53-2.6c.03-.16.44-.53.47-.62zM42.56 45.64c.19.07 2.75 3.25 2.63 3.5s-.31.44-.5.38A20.82 20.82 0 0 1 42 46.05c.16-.16.47-.44.56-.41zM37.88 48.08A16.61 16.61 0 0 1 40 52.3c-.16.16-.59.34-.69.28a39.52 39.52 0 0 1-2.22-4.34 2.39 2.39 0 0 1 .79-.16zM32.88 49.36c.11-.11.78-.06.78.07S33 54.77 33 54.77s-.44 0-.47-.13.22-5.15.35-5.28zM28.5 48.86c.09-.13.59-.18.59.07a23 23 0 0 1-.9 3.78c-.19.09-.44.28-.47.12s.72-3.83.78-3.97zM23 47.46c.14-.13.75.15.72.4a18.94 18.94 0 0 1-1.41 3.35c-.18 0-.59-.07-.59-.16A19.62 19.62 0 0 1 23 47.46zM18.66 44.27a.22.22 0 0 1 .34.28 44.28 44.28 0 0 1-2.72 3.88c-.12 0-.69-.13-.62-.29s2.78-3.68 3-3.87zM14.94 40.77c.15 0 .4.37.37.56a14.2 14.2 0 0 1-3 2c-.18-.06-.65-.43-.5-.53s2.78-1.94 3.13-2.03zM9.94 36.8a27 27 0 0 1 4.06-.47c.13.16.34.53.09.66a34 34 0 0 1-4 .87c-.18-.06-.15-1.06-.15-1.06zM9.59 30.64a19.35 19.35 0 0 1 3.57 0c.12.19.25.38.09.47a30.25 30.25 0 0 1-3.75.22c-.09-.06-.09-.62.09-.69zM10.53 24.43c.13-.09 4.31 1.34 4.25 1.65s0 .35-.19.38-4.12-1.16-4.34-1.25.03-.63.28-.78zM13.31 20.27c.19 0 3.28 1.47 3.22 1.72s0 .5-.28.37-3.25-1.31-3.37-1.47.21-.62.43-.62zM17.44 14.86c.22.15 3 2.75 2.81 2.88s-.56.34-.69.25-2.78-2.47-2.62-2.69.4-.5.5-.44z"/></g></svg>