<svg width="700" height="579" viewBox="0 0 700 579" fill="none" xmlns="http://www.w3.org/2000/svg">
<path d="M193.181 393.461V180.637H258.377C285.056 180.637 305.689 186.932 320.276 199.522C334.863 212.011 342.158 229.695 342.158 252.577C342.158 277.956 334.863 297.64 320.276 311.63C305.689 325.517 285.056 332.463 258.377 332.463H232.747V393.461H193.181ZM232.747 296.04H258.377C271.467 296.04 281.559 292.445 288.651 285.251C295.846 278.056 299.443 268.015 299.443 255.126C299.443 242.936 295.846 233.544 288.651 226.949C281.559 220.355 271.467 217.057 258.377 217.057H232.747V296.04ZM373.034 393.461V180.637H438.23C464.906 180.637 485.539 186.932 500.129 199.522C514.716 212.011 522.01 229.695 522.01 252.577C522.01 277.956 514.716 297.64 500.129 311.63C485.539 325.517 464.906 332.463 438.23 332.463H412.6V393.461H373.034ZM412.6 296.04H438.23C451.319 296.04 461.409 292.445 468.504 285.251C475.698 278.056 479.296 268.015 479.296 255.126C479.296 242.936 475.698 233.544 468.504 226.949C461.409 220.355 451.319 217.057 438.23 217.057H412.6V296.04Z" fill="url(#paint0_linear)"/>
<path d="M627.688 385.39C646.18 369.438 649.24 344.701 636.869 311.176L619.44 266.301C607.053 234.407 611.36 207.237 632.362 184.788C601.714 182.4 580.058 164.906 567.396 132.307L550.214 88.065C536.878 55.4032 517.924 39.2159 493.35 39.5031L491.969 0.818403C519.968 -1.93645 543.443 2.26362 562.392 13.4184C581.288 24.4322 595.847 42.8947 606.074 68.8062L623.749 114.318C635.223 142.181 653.235 151.345 677.791 141.809L694.808 185.625C669.689 195.383 662.857 215.006 674.312 244.501L692.152 290.436C710.206 340.267 697.11 381.814 652.861 415.078L627.688 385.39Z" fill="white"/>
<path d="M64.8686 213.169C48.8452 231.598 49.3487 256.518 66.3794 287.932L90.0381 329.86C106.852 359.658 106.468 387.164 88.887 412.383C119.563 410.369 143.493 424.593 160.679 455.049L184.003 496.384C201.866 526.807 222.936 540.122 247.22 536.329L254.11 574.421C226.789 581.146 202.957 580.339 182.607 572.005C162.335 563.801 145.288 547.607 131.466 523.421L107.473 480.9C92.14 454.96 73.003 448.463 50.0612 461.408L26.9606 420.468C50.4295 407.225 54.3896 386.827 38.8401 359.269L14.6236 316.355C-10.361 269.61 -3.33075 226.619 35.7146 187.379L64.8686 213.169Z" fill="white"/>
<path d="M469.203 493.192C470.975 492.44 472.243 492.192 473.51 492.44C475.535 492.943 476.549 494.443 477.31 495.191C478.07 496.694 480.856 498.193 482.123 498.442C483.135 498.693 484.909 495.942 486.176 493.443C487.441 491.192 488.202 488.19 487.948 487.439C487.695 486.69 484.149 485.188 483.388 485.188C482.881 485.188 481.87 485.688 480.095 485.439C478.324 485.188 476.549 483.188 475.535 481.686C473.764 479.186 471.229 477.686 468.95 476.435C466.418 475.184 463.63 474.433 460.844 473.933C456.791 472.933 452.738 472.182 448.684 472.682C446.406 472.933 443.618 473.184 441.592 473.933C441.339 473.933 440.832 474.684 441.339 474.684C441.846 474.684 443.618 474.933 443.618 474.933C443.618 474.933 441.339 475.435 441.339 475.935C441.339 476.435 441.592 476.435 441.846 476.435C442.099 476.435 447.673 476.186 449.952 476.435C452.484 476.935 455.272 478.186 457.044 481.188C460.083 486.69 458.818 491.941 458.058 493.692C454.258 501.944 424.115 552.714 422.594 556.216C421.073 559.718 420.566 561.969 424.873 564.22C429.179 566.471 431.458 565.468 432.726 563.969C434.246 561.969 460.337 497.442 469.203 493.192ZM455.016 526.954H461.097C465.15 526.954 465.911 528.956 465.911 529.704C466.164 531.707 465.15 534.206 461.097 534.206H457.298L460.337 539.208C462.111 542.21 461.351 543.71 460.337 544.71C458.818 546.212 455.523 546.212 453.751 542.961L450.205 536.957C447.673 542.459 445.138 548.463 442.099 555.465H457.805C465.404 555.465 471.736 549.212 471.736 541.71V497.942C471.482 497.442 470.975 497.693 470.724 497.942C469.203 499.693 464.897 505.695 455.016 526.954ZM416.513 557.967H415.248C406.128 557.967 398.782 550.714 398.782 541.71V499.693C398.782 490.692 406.128 483.439 415.248 483.439H451.977C451.219 482.688 448.178 481.437 445.138 481.688C443.871 481.688 441.339 482.188 439.818 481.188C438.299 479.937 438.553 479.186 436.272 479.186H413.727C403.342 479.186 394.983 487.439 394.983 497.693V543.21C394.983 553.465 403.342 561.718 412.462 561.466C414.995 561.466 415.755 559.467 416.513 557.967ZM474.524 499.444V541.71C474.524 550.714 467.178 557.967 458.058 557.967H441.085C441.085 557.967 439.564 561.966 444.378 561.966H459.576C469.964 561.966 478.324 553.714 478.324 543.461V506.697C478.577 503.195 475.535 500.944 474.524 499.444ZM401.568 499.693V541.71C401.568 549.212 407.902 555.465 415.502 555.465H417.78C417.78 555.216 420.82 549.963 427.407 538.959C428.166 537.459 429.179 535.957 430.193 534.206H411.702C409.421 534.206 408.156 532.706 407.902 531.455C407.395 529.456 408.66 526.954 411.448 526.954H420.82L432.726 506.446C432.726 506.446 429.94 501.444 429.179 500.193C428.165 498.442 428.672 496.694 429.686 495.691C431.207 494.192 433.739 493.443 436.272 497.442L437.286 498.945L438.299 497.442C440.578 494.191 442.099 494.443 443.364 494.691C445.392 495.191 446.657 497.442 444.885 500.944L429.179 526.954H434.5C436.272 523.954 438.046 520.952 439.818 517.701C439.567 516.45 439.313 514.95 439.567 513.699C439.818 511.699 440.832 509.948 442.099 508.446L443.62 510.948C448.431 502.695 451.977 495.691 452.991 492.94C453.498 491.441 454.258 488.439 453.498 485.939H415.502C407.649 485.939 401.568 492.192 401.568 499.693ZM412.46 541.459C412.46 541.21 415.502 535.957 415.502 535.957C420.313 534.706 422.594 537.708 422.847 537.959C422.847 537.959 419.555 543.71 418.541 544.71C417.527 545.712 416.262 545.961 414.995 545.712C412.967 545.212 411.702 543.21 412.46 541.459Z" fill="white"/>
<path d="M296.478 80.1114C296.697 79.6773 296.697 79.2432 296.913 78.8092C302.129 58.377 289.739 34.4723 268.439 21.8649C277.787 34.4723 281.479 49.4669 278.222 62.9424C278.003 64.0276 277.57 65.3338 277.136 66.4188C276.536 66.0872 275.954 65.7249 275.392 65.3338C275.392 65.3338 254.312 52.2922 231.714 29.4728C231.059 28.8217 243.883 47.7268 258.226 62.7254C251.492 58.8111 232.365 45.1224 220.408 34.0344C221.715 36.4256 223.671 38.8168 225.624 41.2082C235.623 54.0325 248.666 69.6783 264.316 81.6306C253.231 88.3742 237.797 88.8043 222.148 81.6306C218.234 79.8943 214.979 77.7201 211.281 75.1119C217.799 85.3279 228.017 94.6759 240.19 99.6715C254.749 105.977 269.527 105.543 280.177 99.6715H280.398C280.833 99.4545 281.268 99.2376 281.7 98.8034C286.918 96.1951 297.134 93.3697 302.784 104.237C304.303 107.279 307.128 93.1528 296.483 80.1114H296.478Z" fill="white"/>
<path d="M285.018 146.664L284.928 144.676L288.016 144.585C288.911 144.555 289.562 144.304 289.969 143.829C290.374 143.364 290.581 142.674 290.585 141.76V134.728L290.769 132.693H292.829V141.469C292.829 143.183 292.429 144.446 291.632 145.257C290.839 146.073 289.571 146.513 287.834 146.573L285.018 146.664ZM287.953 142.504C286.73 142.504 285.788 142.081 285.128 141.232C284.474 140.386 284.146 139.158 284.146 137.553C284.146 135.925 284.474 134.677 285.128 133.812C285.788 132.944 286.732 132.512 287.962 132.512C288.699 132.512 289.276 132.677 289.688 133.002C290.104 133.33 290.362 133.809 290.46 134.437H291.185L290.585 137.381C290.585 136.425 290.413 135.716 290.069 135.256C289.723 134.788 289.211 134.556 288.534 134.556C287.848 134.556 287.325 134.814 286.962 135.328C286.6 135.844 286.416 136.586 286.416 137.553C286.416 138.511 286.595 139.234 286.953 139.725C287.311 140.216 287.837 140.46 288.534 140.46C289.26 140.46 289.783 140.23 290.104 139.769C290.425 139.309 290.585 138.602 290.585 137.644L291.241 140.579H290.395C290.311 141.209 290.058 141.688 289.632 142.013C289.209 142.341 288.648 142.504 287.953 142.504ZM298.499 142.504C297.54 142.504 296.803 142.204 296.282 141.604C295.762 140.999 295.501 140.148 295.501 139.053V132.693H297.745V138.688C297.745 139.239 297.882 139.667 298.161 139.969C298.44 140.267 298.824 140.416 299.315 140.416C299.945 140.416 300.417 140.195 300.733 139.753C301.054 139.304 301.215 138.555 301.215 137.509L301.705 140.469H301.005C300.854 141.123 300.557 141.627 300.115 141.978C299.68 142.33 299.14 142.504 298.499 142.504ZM301.377 142.413L301.215 140.106V138.416H303.459V140.306L304.784 140.506V142.323L301.377 142.413ZM301.215 139.597V132.693H303.459V139.053L301.215 139.597ZM312.469 142.413L312.295 139.56L312.169 138.49V136.363C312.169 135.8 311.948 135.388 311.507 135.128C311.062 134.863 310.404 134.716 309.525 134.693L307.128 134.628L307.309 132.603L309.344 132.63C311.028 132.654 312.279 133 313.095 133.665C313.913 134.326 314.32 135.293 314.32 136.563V140.306L315.776 140.506V142.323L312.469 142.413ZM309.153 142.504C308.135 142.504 307.344 142.255 306.782 141.76C306.226 141.262 305.947 140.56 305.947 139.653C305.947 138.597 306.321 137.79 307.072 137.228C307.823 136.663 308.886 136.381 310.26 136.381C310.807 136.381 311.286 136.411 311.697 136.472C312.109 136.532 312.502 136.628 312.876 136.753L312.479 138.425C312.083 138.335 311.718 138.283 311.379 138.272C311.039 138.253 310.686 138.244 310.316 138.244C308.886 138.244 308.172 138.665 308.172 139.507C308.172 139.876 308.295 140.158 308.544 140.351C308.8 140.546 309.165 140.641 309.644 140.641C310.2 140.641 310.667 140.541 311.042 140.341C311.418 140.137 311.7 139.879 311.888 139.569C312.074 139.255 312.169 138.932 312.169 138.597V137.816L312.604 140.288H311.832L312.151 139.997C312.139 140.555 312.009 141.02 311.76 141.397C311.518 141.764 311.176 142.043 310.735 142.232C310.29 142.413 309.765 142.504 309.153 142.504ZM321.015 138.181L320.452 134.984H321.252C321.355 133.335 322.201 132.512 323.787 132.512C324.731 132.512 325.44 132.828 325.912 133.456C326.384 134.086 326.621 135.037 326.621 136.309H324.387C324.387 135.686 324.28 135.237 324.068 134.965C323.861 134.693 323.529 134.556 323.068 134.556C322.378 134.556 321.864 134.872 321.524 135.5C321.185 136.13 321.015 137.023 321.015 138.181ZM316.701 142.323V140.379H323.315V142.323H316.701ZM318.78 142.323V132.693H320.652L321.015 135.456V142.323H318.78ZM317.064 134.637V132.693H320.524L320.708 134.637H317.064ZM331.554 142.504C330.33 142.504 329.389 142.081 328.728 141.232C328.075 140.386 327.747 139.158 327.747 137.553C327.747 135.925 328.075 134.677 328.728 133.812C329.389 132.944 330.333 132.512 331.563 132.512C332.27 132.512 332.826 132.677 333.223 133.002C333.623 133.33 333.872 133.809 333.97 134.437H334.751L334.186 137.381C334.186 136.425 334.014 135.716 333.67 135.256C333.323 134.788 332.812 134.556 332.135 134.556C331.449 134.556 330.926 134.814 330.563 135.328C330.2 135.844 330.016 136.586 330.016 137.553C330.016 138.511 330.196 139.234 330.554 139.725C330.912 140.216 331.437 140.46 332.135 140.46C332.86 140.46 333.384 140.23 333.705 139.769C334.025 139.309 334.186 138.602 334.186 137.644L334.842 140.579H333.995C333.911 141.209 333.658 141.688 333.232 142.013C332.809 142.341 332.249 142.504 331.554 142.504ZM334.477 142.413L334.186 140.516V128.698H336.43V142.323L334.477 142.413ZM355.651 142.504C354.477 142.504 353.628 142.183 353.107 141.541C352.593 140.899 352.335 139.874 352.335 138.462V128.698H354.57V138.372C354.57 138.814 354.616 139.176 354.707 139.462C354.798 139.739 354.97 139.946 355.223 140.079C355.484 140.211 355.87 140.279 356.377 140.279C356.898 140.279 357.558 140.165 358.358 139.934L358.611 142.123C358.109 142.255 357.623 142.353 357.149 142.413C356.684 142.474 356.184 142.504 355.651 142.504ZM349.566 130.733V128.698H352.498V130.733H349.566ZM365.906 142.504C364.253 142.504 362.976 142.074 362.074 141.213C361.172 140.348 360.721 139.107 360.721 137.49C360.721 135.916 361.102 134.693 361.865 133.821C362.634 132.949 363.713 132.512 365.106 132.512C366.45 132.512 367.49 132.912 368.222 133.712C368.962 134.512 369.331 135.67 369.331 137.19C369.331 137.632 369.313 138.046 369.276 138.435H362.337V136.818H367.187C367.187 136.086 367.006 135.523 366.641 135.128C366.278 134.735 365.774 134.537 365.125 134.537C364.416 134.537 363.864 134.786 363.471 135.284C363.079 135.779 362.881 136.486 362.881 137.4C362.881 138.386 363.162 139.141 363.727 139.66C364.29 140.176 365.09 140.432 366.125 140.432C366.548 140.432 366.964 140.411 367.369 140.369C367.78 140.32 368.199 140.258 368.622 140.179L368.859 142.25C368.264 142.36 367.72 142.429 367.222 142.46C366.727 142.49 366.288 142.504 365.906 142.504ZM377.942 142.504C376.361 142.504 375.219 142.183 374.517 141.541C373.815 140.899 373.464 139.874 373.464 138.462V137.053H375.698V138.281C375.698 139.025 375.887 139.567 376.261 139.906C376.642 140.246 377.263 140.416 378.124 140.416C378.407 140.416 378.714 140.399 379.042 140.369C379.368 140.334 379.74 140.288 380.158 140.234L380.377 142.285C379.97 142.36 379.57 142.413 379.177 142.45C378.789 142.485 378.377 142.504 377.942 142.504ZM373.464 137.69V129.787H375.698V137.69H373.464ZM371.11 134.728V132.693H380.012V134.728H371.11Z" fill="#CFCDCD" fill-opacity="0.52"/>
<path d="M115.848 289.002C114.673 289.002 113.826 288.681 113.305 288.039C112.79 287.397 112.533 286.372 112.533 284.96V275.196H114.767V284.869C114.767 285.311 114.813 285.674 114.904 285.96C114.995 286.237 115.167 286.444 115.421 286.576C115.682 286.709 116.066 286.776 116.575 286.776C117.096 286.776 117.756 286.662 118.555 286.432L118.81 288.62C118.307 288.753 117.819 288.85 117.347 288.911C116.881 288.971 116.381 289.002 115.848 289.002ZM109.763 277.231V275.196H112.696V277.231H109.763ZM127.166 288.911L126.994 286.058L126.866 284.988V282.863C126.866 282.298 126.646 281.886 126.204 281.626C125.761 281.36 125.101 281.214 124.223 281.191L121.825 281.126L122.007 279.1L124.042 279.128C125.725 279.151 126.976 279.498 127.793 280.163C128.61 280.823 129.019 281.791 129.019 283.06V286.804L130.473 287.004V288.82L127.166 288.911ZM123.851 289.002C122.833 289.002 122.043 288.753 121.48 288.257C120.923 287.76 120.644 287.058 120.644 286.151C120.644 285.095 121.02 284.288 121.771 283.725C122.522 283.16 123.584 282.879 124.959 282.879C125.504 282.879 125.982 282.909 126.394 282.97C126.806 283.03 127.199 283.125 127.575 283.251L127.175 284.923C126.782 284.832 126.415 284.781 126.076 284.769C125.737 284.751 125.383 284.742 125.013 284.742C123.584 284.742 122.87 285.162 122.87 286.004C122.87 286.374 122.994 286.655 123.242 286.848C123.497 287.044 123.863 287.139 124.341 287.139C124.899 287.139 125.365 287.039 125.74 286.839C126.116 286.634 126.397 286.376 126.585 286.067C126.773 285.753 126.866 285.43 126.866 285.095V284.314L127.302 286.786H126.53L126.848 286.495C126.836 287.053 126.706 287.518 126.458 287.895C126.216 288.262 125.873 288.541 125.431 288.73C124.989 288.911 124.463 289.002 123.851 289.002ZM133.924 287.976L132.253 286.867L138.393 280.072L139.993 281.144L133.924 287.976ZM132.253 288.82V286.867H140.174V288.82H132.253ZM132.253 281.144V279.191H139.993V281.144H132.253ZM142.253 293.18L142.162 291.208L143.762 291.027C144.355 290.955 144.864 290.794 145.288 290.546C145.711 290.297 146.076 289.929 146.378 289.439C146.68 288.948 146.943 288.306 147.169 287.513L149.52 279.191H151.882L149.148 287.967C148.785 289.122 148.371 290.053 147.904 290.755C147.443 291.457 146.894 291.985 146.26 292.336C145.625 292.687 144.864 292.908 143.981 292.999L142.253 293.18ZM145.541 288.82L142.072 279.191H144.434L147.122 286.985H147.504V288.82H145.541Z" fill="#CFCDCD" fill-opacity="0.52"/>
<path d="M437.516 136.481L446.531 118.088H449.28L440.264 136.481H437.516ZM431.907 131.419V128.863H455.07V131.419H431.907ZM431.907 125.729V123.175H455.07V125.729H431.907Z" fill="#CFCDCD" fill-opacity="0.52"/>
<path d="M491.343 137.869V135.325H502.926V137.869H491.343ZM504.97 135.03V132.477H516.55V135.03H504.97ZM504.97 140.72V138.165H516.55V140.72H504.97Z" fill="#CFCDCD" fill-opacity="0.52"/>
<path d="M541.443 179.633C540.211 179.633 539.253 179.261 538.571 178.519C537.897 177.787 537.56 176.756 537.56 175.431C537.56 174.85 537.641 174.273 537.799 173.706C537.958 173.138 538.039 172.548 538.039 171.934C538.039 171.564 537.885 171.269 537.583 171.05C537.288 170.822 536.895 170.659 536.402 170.562C535.918 170.455 535.404 170.401 534.858 170.401V167.971C535.26 167.971 535.651 167.934 536.027 167.857C536.407 167.783 536.748 167.674 537.051 167.529C537.353 167.385 537.59 167.204 537.765 166.983C537.946 166.764 538.039 166.516 538.039 166.234C538.039 165.599 537.958 165.004 537.799 164.453C537.641 163.892 537.56 163.32 537.56 162.737C537.56 161.458 537.897 160.474 538.571 159.786C539.253 159.088 540.211 158.742 541.443 158.742C541.92 158.742 542.315 158.763 542.625 158.809C542.936 158.846 543.222 158.9 543.487 158.967L543.215 161.397C542.98 161.36 542.755 161.332 542.534 161.318C542.322 161.295 542.122 161.283 541.932 161.283C541.418 161.283 541.025 161.456 540.753 161.795C540.488 162.128 540.355 162.604 540.355 163.225C540.355 163.793 540.441 164.339 540.615 164.86C540.79 165.383 540.876 165.932 540.876 166.506C540.876 167.278 540.615 167.881 540.092 168.313C539.571 168.736 538.841 168.955 537.902 168.971V169.404C538.841 169.418 539.571 169.627 540.092 170.027C540.615 170.429 540.876 170.973 540.876 171.662C540.876 172.259 540.79 172.82 540.615 173.343C540.441 173.864 540.355 174.398 540.355 174.943C540.355 175.624 540.488 176.154 540.753 176.533C541.025 176.903 541.418 177.089 541.932 177.089C542.122 177.089 542.322 177.077 542.534 177.056C542.755 177.033 542.98 177.005 543.215 176.975L543.487 179.405C543.222 179.475 542.936 179.526 542.625 179.565C542.315 179.61 541.92 179.633 541.443 179.633ZM550.187 179.633C549.726 179.633 549.336 179.61 549.017 179.565C548.698 179.526 548.408 179.475 548.143 179.405L548.415 176.975C548.65 177.005 548.873 177.033 549.087 177.056C549.305 177.077 549.51 177.089 549.698 177.089C550.215 177.089 550.603 176.903 550.868 176.533C551.14 176.154 551.277 175.624 551.277 174.943C551.277 174.398 551.189 173.864 551.017 173.343C550.842 172.82 550.754 172.259 550.754 171.662C550.754 170.973 551.017 170.429 551.538 170.027C552.061 169.627 552.791 169.418 553.73 169.404V168.971C552.791 168.955 552.061 168.736 551.538 168.313C551.017 167.881 550.754 167.278 550.754 166.506C550.754 165.932 550.842 165.383 551.017 164.86C551.189 164.339 551.277 163.793 551.277 163.225C551.277 162.604 551.14 162.128 550.868 161.795C550.603 161.456 550.215 161.283 549.698 161.283C549.51 161.283 549.305 161.295 549.087 161.318C548.873 161.332 548.65 161.36 548.415 161.397L548.143 158.967C548.408 158.9 548.698 158.846 549.017 158.809C549.336 158.763 549.726 158.742 550.187 158.742C551.421 158.742 552.375 159.088 553.049 159.786C553.73 160.474 554.07 161.458 554.07 162.737C554.07 163.32 553.991 163.892 553.833 164.453C553.672 165.004 553.593 165.599 553.593 166.234C553.593 166.516 553.679 166.764 553.854 166.983C554.035 167.204 554.279 167.385 554.582 167.529C554.884 167.674 555.223 167.783 555.602 167.857C555.981 167.934 556.372 167.971 556.772 167.971V170.401C556.228 170.401 555.709 170.455 555.216 170.562C554.733 170.659 554.34 170.822 554.035 171.05C553.74 171.269 553.593 171.564 553.593 171.934C553.593 172.548 553.672 173.138 553.833 173.706C553.991 174.273 554.07 174.85 554.07 175.431C554.07 176.756 553.73 177.787 553.049 178.519C552.375 179.261 551.421 179.633 550.187 179.633Z" fill="#CFCDCD" fill-opacity="0.52"/>
<path d="M130.986 215.89V213.051L143.602 210.597V210.393L130.986 207.942V205.103L147.38 209.065V211.928L130.986 215.89ZM130.986 219.931V217.388H147.38V219.931H130.986Z" fill="#CFCDCD" fill-opacity="0.52"/>
<path d="M349.785 343.499V320.336H352.533V343.499H349.785ZM339.113 343.499V320.336H341.86V343.499H339.113Z" fill="#CFCDCD" fill-opacity="0.52"/>
<path d="M291.037 372.217V369.664H301.596V372.217H291.037ZM278.433 377.907V375.352H288.993V377.907H278.433ZM278.433 372.217V369.664H288.993V372.217H278.433ZM291.037 377.907V375.352H301.596V377.907H291.037Z" fill="#CFCDCD" fill-opacity="0.52"/>
<path d="M337.614 477.342V465.557H340.406V477.342H337.614ZM333.333 472.721V470.166H344.687V472.721H333.333ZM346.845 469.882V467.329H358.426V469.882H346.845ZM346.845 475.572V473.017H358.426V475.572H346.845Z" fill="#CFCDCD" fill-opacity="0.52"/>
<path d="M243.415 491.534V488.694L251.364 485.504V485.299L243.415 482.109V479.27L254.407 484.027V486.776L243.415 491.534ZM233.061 491.534V488.694L240.895 485.504V485.299L233.061 482.109V479.27L243.939 484.027V486.776L233.061 491.534Z" fill="#CFCDCD" fill-opacity="0.52"/>
<path d="M300.924 521.356L295.122 514.645C294.243 513.648 293.608 512.743 293.213 511.932C292.827 511.115 292.634 510.313 292.634 509.525C292.634 508.011 293.029 506.879 293.815 506.13C294.604 505.381 295.792 505.007 297.38 505.007L297.313 507.548C296.722 507.548 296.276 507.716 295.973 508.048C295.678 508.383 295.529 508.881 295.529 509.548C295.529 510.069 295.643 510.574 295.871 511.057C296.106 511.543 296.443 512.041 296.88 512.557L304.352 521.356H300.924ZM295.587 521.584C294.171 521.584 293.029 521.21 292.157 520.459C291.295 519.703 290.865 518.699 290.865 517.45C290.865 516.171 291.251 515.122 292.023 514.306C292.795 513.48 293.883 512.962 295.292 512.75L296.541 514.704C295.625 514.869 294.918 515.164 294.418 515.589C293.918 516.006 293.669 516.513 293.669 517.11C293.669 517.685 293.869 518.15 294.269 518.505C294.671 518.861 295.201 519.04 295.859 519.04C297.215 519.04 298.264 518.487 299.006 517.382C299.747 516.268 300.117 514.694 300.117 512.66H302.854C302.854 515.497 302.217 517.696 300.947 519.257C299.682 520.808 297.896 521.584 295.587 521.584ZM298.754 508.958C298.754 508.504 298.629 508.155 298.38 507.913C298.131 507.672 297.775 507.548 297.313 507.548L297.38 505.007C298.752 505.007 299.81 505.351 300.561 506.039C301.317 506.728 301.696 507.702 301.696 508.958H298.754ZM309.381 519.198V507.414H312.176V519.198H309.381ZM305.103 514.578V512.022H316.455V514.578H305.103Z" fill="#CFCDCD" fill-opacity="0.52"/>
<path d="M191.36 151.624L186.284 143.609C185.77 142.783 185.372 142.006 185.091 141.281C184.812 140.553 184.672 139.851 184.672 139.169C184.672 137.928 185.023 136.97 185.728 136.295C186.44 135.614 187.437 135.274 188.725 135.274L188.749 137.816C188.363 137.816 188.067 137.958 187.863 138.237C187.665 138.509 187.567 138.923 187.567 139.474C187.567 139.99 187.653 140.479 187.828 140.939C188.009 141.402 188.251 141.871 188.556 142.348L194.448 151.624H191.36ZM175.689 151.852C174.343 151.852 173.294 151.503 172.546 150.806C171.797 150.103 171.42 149.11 171.42 147.831C171.42 146.485 171.762 145.401 172.443 144.585C173.125 143.767 174.108 143.243 175.394 143.018L176.643 144.971C175.834 145.153 175.217 145.466 174.794 145.913C174.378 146.359 174.169 146.924 174.169 147.603C174.169 148.187 174.324 148.638 174.634 148.957C174.945 149.266 175.387 149.422 175.962 149.422C177.022 149.422 177.824 148.873 178.371 147.776C178.922 146.669 179.198 145.053 179.198 142.927H181.821C181.821 144.864 181.563 146.499 181.049 147.831C180.542 149.157 179.826 150.159 178.903 150.84C177.987 151.515 176.917 151.852 175.689 151.852ZM179.777 151.624L174.704 143.609C174.173 142.783 173.771 142.004 173.499 141.269C173.227 140.527 173.09 139.827 173.09 139.169C173.09 137.928 173.443 136.97 174.145 136.295C174.857 135.614 175.857 135.274 177.143 135.274L177.154 137.816C176.775 137.816 176.485 137.958 176.28 138.237C176.085 138.509 175.985 138.923 175.985 139.474C175.985 139.99 176.069 140.479 176.236 140.939C176.41 141.395 176.654 141.862 176.973 142.348L182.866 151.624H179.777ZM187.272 151.852C185.923 151.852 184.877 151.503 184.126 150.806C183.377 150.103 183.003 149.11 183.003 147.831C183.003 146.485 183.342 145.401 184.024 144.585C184.705 143.767 185.689 143.243 186.977 143.018L188.225 144.971C187.416 145.153 186.798 145.466 186.375 145.913C185.958 146.359 185.749 146.924 185.749 147.603C185.749 148.187 185.905 148.638 186.216 148.957C186.526 149.266 186.97 149.422 187.544 149.422C188.605 149.422 189.407 148.868 189.951 147.764C190.504 146.659 190.781 145.046 190.781 142.927H193.402C193.402 144.864 193.148 146.499 192.641 147.831C192.144 149.157 191.434 150.159 190.518 150.84C189.602 151.515 188.521 151.852 187.272 151.852ZM178.289 139.225C178.289 138.772 178.192 138.423 177.996 138.181C177.799 137.939 177.517 137.816 177.154 137.816L177.143 135.274C178.438 135.274 179.44 135.619 180.152 136.307C180.873 136.995 181.231 137.97 181.231 139.225H178.289ZM189.872 139.225C189.872 138.772 189.774 138.423 189.577 138.181C189.379 137.939 189.104 137.816 188.749 137.816L188.725 135.274C190.058 135.274 191.072 135.614 191.767 136.295C192.465 136.97 192.813 137.946 192.813 139.225H189.872Z" fill="#CFCDCD" fill-opacity="0.52"/>
<path d="M129.351 370.313V349.328H132.087V370.313H129.351ZM131.86 370.313V367.736H136.686V370.313H131.86ZM131.86 351.907V349.328H136.686V351.907H131.86ZM145.622 370.313V349.328H148.38V370.313H145.622ZM141.046 370.313V367.736H145.848V370.313H141.046ZM141.046 351.907V349.328H145.848V351.907H141.046Z" fill="#CFCDCD" fill-opacity="0.52"/>
<path d="M202.778 437.825C202.352 437.825 201.994 437.676 201.696 437.381C201.399 437.078 201.252 436.718 201.252 436.299C201.252 435.869 201.399 435.506 201.696 435.209C201.994 434.913 202.352 434.765 202.778 434.765C203.208 434.765 203.568 434.913 203.859 435.209C204.154 435.506 204.303 435.869 204.303 436.299C204.303 436.718 204.154 437.078 203.859 437.381C203.568 437.676 203.208 437.825 202.778 437.825ZM214.721 437.825C213.014 437.825 211.693 437.395 210.761 436.534C209.835 435.669 209.372 434.427 209.372 432.811C209.372 431.237 209.802 430.014 210.661 429.142C211.521 428.27 212.751 427.833 214.349 427.833C215.325 427.833 216.158 428.021 216.848 428.395C217.544 428.765 218.037 429.291 218.327 429.967L216.665 431.267C216.4 430.837 216.058 430.507 215.639 430.277C215.228 430.039 214.774 429.923 214.276 429.923C213.453 429.923 212.811 430.165 212.351 430.649C211.891 431.135 211.66 431.823 211.66 432.721C211.66 433.702 211.942 434.448 212.505 434.965C213.074 435.479 213.886 435.737 214.939 435.737C215.381 435.737 215.821 435.716 216.258 435.672C216.7 435.63 217.13 435.572 217.546 435.499L217.783 437.553C217.292 437.662 216.783 437.734 216.258 437.771C215.73 437.806 215.218 437.825 214.721 437.825ZM224.578 437.825C223.215 437.825 222.155 437.39 221.399 436.518C220.648 435.646 220.271 434.416 220.271 432.83C220.271 431.237 220.648 430.007 221.399 429.142C222.155 428.27 223.215 427.833 224.578 427.833C225.945 427.833 227.006 428.27 227.757 429.142C228.508 430.007 228.882 431.237 228.882 432.83C228.882 434.416 228.508 435.646 227.757 436.518C227.006 437.39 225.945 437.825 224.578 437.825ZM224.578 435.737C225.22 435.737 225.713 435.485 226.057 434.981C226.403 434.474 226.575 433.755 226.575 432.83C226.575 431.897 226.401 431.179 226.05 430.677C225.703 430.174 225.213 429.923 224.578 429.923C223.941 429.923 223.448 430.174 223.097 430.677C222.752 431.179 222.578 431.897 222.578 432.83C222.578 433.755 222.752 434.474 223.097 434.981C223.448 435.485 223.941 435.737 224.578 435.737ZM237.784 437.643V430.786C237.784 430.119 237.57 429.786 237.139 429.786C236.626 429.786 236.367 430.177 236.367 430.958L235.714 429.214H236.505C236.546 428.809 236.705 428.479 236.977 428.223C237.256 427.963 237.637 427.833 238.121 427.833C238.774 427.833 239.251 428.012 239.546 428.37C239.848 428.726 240.002 429.305 240.002 430.105V437.643H237.784ZM230.954 437.643V428.014H232.961L233.179 430.049V437.643H230.954ZM234.614 437.643V430.605C234.614 430.058 234.396 429.786 233.961 429.786C233.44 429.786 233.179 430.177 233.179 430.958L232.617 429.214H233.279C233.389 428.293 233.9 427.833 234.814 427.833C235.298 427.833 235.677 428.005 235.949 428.351C236.228 428.695 236.367 429.221 236.367 429.923V437.643H234.614ZM242.362 441.822V428.014H244.425L244.606 430.049V441.822H242.362ZM247.241 437.825C246.543 437.825 245.983 437.662 245.56 437.334C245.136 437.009 244.883 436.53 244.797 435.899H243.953L244.606 432.965C244.606 433.923 244.767 434.63 245.088 435.09C245.415 435.551 245.939 435.781 246.659 435.781C247.355 435.781 247.883 435.537 248.241 435.046C248.596 434.555 248.776 433.832 248.776 432.874C248.776 431.907 248.594 431.165 248.231 430.649C247.866 430.135 247.343 429.877 246.659 429.877C245.98 429.877 245.469 430.109 245.125 430.577C244.778 431.037 244.606 431.746 244.606 432.702L244.006 429.758H244.734C244.836 429.13 245.094 428.651 245.506 428.323C245.918 427.998 246.492 427.833 247.231 427.833C248.462 427.833 249.403 428.265 250.057 429.133C250.717 429.998 251.047 431.246 251.047 432.874C251.047 434.479 250.717 435.706 250.057 436.553C249.403 437.402 248.464 437.825 247.241 437.825ZM259.13 437.734L258.958 434.881L258.83 433.811V431.686C258.83 431.121 258.609 430.709 258.168 430.449C257.726 430.184 257.065 430.037 256.186 430.014L253.789 429.949L253.97 427.923L256.005 427.951C257.689 427.975 258.94 428.321 259.758 428.986C260.574 429.646 260.984 430.614 260.984 431.883V435.627L262.437 435.827V437.643L259.13 437.734ZM255.814 437.825C254.798 437.825 254.008 437.576 253.445 437.081C252.887 436.583 252.608 435.881 252.608 434.974C252.608 433.918 252.984 433.111 253.736 432.549C254.487 431.984 255.549 431.702 256.924 431.702C257.468 431.702 257.947 431.732 258.358 431.793C258.77 431.853 259.163 431.949 259.54 432.074L259.14 433.746C258.747 433.655 258.379 433.604 258.04 433.593C257.703 433.574 257.347 433.565 256.977 433.565C255.549 433.565 254.833 433.986 254.833 434.827C254.833 435.197 254.959 435.478 255.208 435.672C255.461 435.867 255.828 435.962 256.305 435.962C256.863 435.962 257.328 435.862 257.705 435.662C258.079 435.458 258.361 435.199 258.549 434.89C258.737 434.576 258.83 434.253 258.83 433.918V433.137L259.268 435.609H258.496L258.812 435.318C258.8 435.876 258.67 436.341 258.421 436.718C258.179 437.085 257.837 437.364 257.396 437.553C256.954 437.734 256.426 437.825 255.814 437.825ZM269.222 437.825C267.516 437.825 266.195 437.395 265.262 436.534C264.335 435.669 263.872 434.427 263.872 432.811C263.872 431.237 264.302 430.014 265.162 429.142C266.023 428.27 267.251 427.833 268.85 427.833C269.825 427.833 270.657 428.021 271.348 428.395C272.045 428.765 272.538 429.291 272.829 429.967L271.166 431.267C270.899 430.837 270.557 430.507 270.139 430.277C269.727 430.039 269.274 429.923 268.778 429.923C267.953 429.923 267.311 430.165 266.851 430.649C266.392 431.135 266.162 431.823 266.162 432.721C266.162 433.702 266.444 434.448 267.006 434.965C267.576 435.479 268.388 435.737 269.441 435.737C269.883 435.737 270.322 435.716 270.757 435.672C271.199 435.63 271.629 435.572 272.048 435.499L272.283 437.553C271.792 437.662 271.285 437.734 270.757 437.771C270.232 437.806 269.72 437.825 269.222 437.825ZM281.003 437.825C279.424 437.825 278.282 437.504 277.58 436.862C276.878 436.22 276.526 435.195 276.526 433.783V432.374H278.761V433.602C278.761 434.346 278.947 434.888 279.324 435.227C279.705 435.567 280.326 435.737 281.184 435.737C281.47 435.737 281.775 435.72 282.103 435.69C282.43 435.655 282.803 435.609 283.221 435.555L283.437 437.606C283.033 437.681 282.633 437.734 282.24 437.771C281.851 437.806 281.44 437.825 281.003 437.825ZM276.526 433.011V425.107H278.761V433.011H276.526ZM274.173 430.049V428.014H283.075V430.049H274.173ZM289.669 432.83L289.941 430.423H290.051L291.176 424.745H292.495L292.585 427.035H292.032L290.813 432.83H289.669ZM285.6 437.643V424.745H287.663V437.643H285.6ZM289.141 432.83L287.925 427.035H287.372L287.463 424.745H288.779L289.904 430.423H289.979L290.204 432.83H289.141ZM292.295 437.643V424.745H294.357V437.643H292.295ZM302.731 437.734L302.559 434.881L302.431 433.811V431.686C302.431 431.121 302.21 430.709 301.768 430.449C301.326 430.184 300.666 430.037 299.787 430.014L297.39 429.949L297.571 427.923L299.606 427.951C301.289 427.975 302.54 428.321 303.359 428.986C304.175 429.646 304.584 430.614 304.584 431.883V435.627L306.038 435.827V437.643L302.731 437.734ZM299.415 437.825C298.399 437.825 297.608 437.576 297.045 437.081C296.487 436.583 296.208 435.881 296.208 434.974C296.208 433.918 296.585 433.111 297.336 432.549C298.087 431.984 299.15 431.702 300.524 431.702C301.068 431.702 301.547 431.732 301.959 431.793C302.37 431.853 302.763 431.949 303.14 432.074L302.74 433.746C302.347 433.655 301.98 433.604 301.64 433.593C301.303 433.574 300.947 433.565 300.578 433.565C299.15 433.565 298.434 433.986 298.434 434.827C298.434 435.197 298.559 435.478 298.808 435.672C299.061 435.867 299.429 435.962 299.906 435.962C300.464 435.962 300.929 435.862 301.305 435.662C301.68 435.458 301.961 435.199 302.15 434.89C302.338 434.576 302.431 434.253 302.431 433.918V433.137L302.868 435.609H302.096L302.412 435.318C302.401 435.876 302.27 436.341 302.022 436.718C301.78 437.085 301.438 437.364 300.996 437.553C300.554 437.734 300.026 437.825 299.415 437.825ZM307.763 441.822V428.014H309.826L310.007 430.049V441.822H307.763ZM312.642 437.825C311.944 437.825 311.384 437.662 310.96 437.334C310.537 437.009 310.284 436.53 310.198 435.899H309.354L310.007 432.965C310.007 433.923 310.167 434.63 310.488 435.09C310.816 435.551 311.339 435.781 312.06 435.781C312.756 435.781 313.283 435.537 313.642 435.046C313.997 434.555 314.176 433.832 314.176 432.874C314.176 431.907 313.995 431.165 313.632 430.649C313.267 430.135 312.744 429.877 312.06 429.877C311.381 429.877 310.87 430.109 310.525 430.577C310.179 431.037 310.007 431.746 310.007 432.702L309.407 429.758H310.135C310.237 429.13 310.495 428.651 310.907 428.323C311.318 427.998 311.893 427.833 312.632 427.833C313.862 427.833 314.804 428.265 315.458 429.133C316.118 429.998 316.448 431.246 316.448 432.874C316.448 434.479 316.118 435.706 315.458 436.553C314.804 437.402 313.865 437.825 312.642 437.825ZM335.542 439.587C334.553 439.587 333.788 439.29 333.242 438.697C332.702 438.111 332.435 437.285 332.435 436.227C332.435 435.76 332.498 435.299 332.626 434.846C332.751 434.393 332.816 433.918 332.816 433.43C332.816 433.132 332.695 432.895 332.451 432.721C332.216 432.539 331.9 432.409 331.507 432.33C331.119 432.244 330.707 432.202 330.272 432.202V430.258C330.593 430.258 330.905 430.228 331.207 430.167C331.51 430.107 331.784 430.019 332.026 429.905C332.268 429.788 332.458 429.644 332.598 429.467C332.742 429.293 332.816 429.093 332.816 428.87C332.816 428.361 332.751 427.884 332.626 427.442C332.498 426.996 332.435 426.537 332.435 426.07C332.435 425.047 332.702 424.261 333.242 423.71C333.788 423.152 334.553 422.873 335.542 422.873C335.923 422.873 336.237 422.891 336.486 422.929C336.735 422.959 336.963 423.001 337.176 423.056L336.958 424.998C336.77 424.968 336.588 424.947 336.411 424.935C336.244 424.917 336.084 424.907 335.93 424.907C335.518 424.907 335.205 425.045 334.986 425.317C334.774 425.584 334.667 425.965 334.667 426.461C334.667 426.917 334.737 427.351 334.877 427.77C335.016 428.189 335.086 428.626 335.086 429.086C335.086 429.705 334.877 430.186 334.46 430.53C334.042 430.87 333.458 431.046 332.707 431.058V431.402C333.458 431.416 334.042 431.581 334.46 431.902C334.877 432.223 335.086 432.66 335.086 433.211C335.086 433.688 335.016 434.137 334.877 434.555C334.737 434.974 334.667 435.399 334.667 435.837C334.667 436.381 334.774 436.804 334.986 437.109C335.205 437.404 335.518 437.553 335.93 437.553C336.084 437.553 336.244 437.543 336.411 437.525C336.588 437.506 336.77 437.485 336.958 437.462L337.176 439.406C336.963 439.46 336.735 439.501 336.486 439.532C336.237 439.569 335.923 439.587 335.542 439.587ZM354.561 440.55V421.838H356.442V440.55H354.561ZM354.933 437.825C354.2 437.825 353.498 437.764 352.826 437.643C352.161 437.523 351.554 437.346 351.01 437.116L351.301 434.909C351.966 435.195 352.622 435.411 353.263 435.562C353.905 435.709 354.51 435.781 355.079 435.781C355.805 435.781 356.354 435.655 356.723 435.399C357.098 435.139 357.286 434.76 357.286 434.265C357.286 433.616 356.916 433.123 356.177 432.783L354.17 431.83C353.268 431.407 352.573 430.881 352.082 430.258C351.596 429.635 351.354 428.916 351.354 428.105C351.354 426.979 351.712 426.107 352.426 425.489C353.147 424.873 354.166 424.563 355.479 424.563C356.303 424.563 357.058 424.7 357.749 424.973C358.447 425.238 359.081 425.645 359.658 426.189L358.158 427.842C357.693 427.43 357.237 427.121 356.796 426.917C356.361 426.705 355.924 426.598 355.489 426.598C354.919 426.598 354.477 426.728 354.161 426.989C353.847 427.242 353.689 427.616 353.689 428.105C353.689 428.444 353.796 428.744 354.007 429.005C354.226 429.261 354.538 429.488 354.942 429.695L356.751 430.595C357.677 431.056 358.386 431.588 358.877 432.193C359.372 432.793 359.621 433.486 359.621 434.274C359.621 435.43 359.221 436.311 358.421 436.918C357.628 437.523 356.465 437.825 354.933 437.825ZM366.278 437.825C363.288 437.825 361.793 435.646 361.793 431.286C361.793 426.805 363.288 424.563 366.278 424.563C369.271 424.563 370.766 426.805 370.766 431.286C370.766 435.646 369.271 437.825 366.278 437.825ZM366.269 432.83C365.888 432.83 365.578 432.69 365.344 432.411C365.113 432.128 364.997 431.751 364.997 431.286C364.997 430.819 365.113 430.446 365.344 430.167C365.578 429.884 365.888 429.742 366.269 429.742C366.65 429.742 366.957 429.884 367.188 430.167C367.422 430.446 367.541 430.819 367.541 431.286C367.541 431.751 367.422 432.128 367.188 432.411C366.957 432.69 366.65 432.83 366.269 432.83ZM366.278 435.781C367.762 435.781 368.504 434.283 368.504 431.286C368.504 428.165 367.762 426.607 366.278 426.607C364.783 426.607 364.034 428.165 364.034 431.286C364.034 434.283 364.783 435.781 366.278 435.781ZM386.135 439.587C385.765 439.587 385.453 439.569 385.2 439.532C384.946 439.501 384.712 439.46 384.5 439.406L384.718 437.462C384.907 437.485 385.084 437.506 385.253 437.525C385.43 437.543 385.593 437.553 385.744 437.553C386.156 437.553 386.469 437.404 386.681 437.109C386.897 436.804 387.007 436.381 387.007 435.837C387.007 435.399 386.937 434.974 386.797 434.555C386.66 434.137 386.59 433.688 386.59 433.211C386.59 432.66 386.797 432.223 387.216 431.902C387.635 431.581 388.218 431.416 388.969 431.402V431.058C388.218 431.046 387.635 430.87 387.216 430.53C386.797 430.186 386.59 429.705 386.59 429.086C386.59 428.626 386.66 428.189 386.797 427.77C386.937 427.351 387.007 426.917 387.007 426.461C387.007 425.965 386.897 425.584 386.681 425.317C386.469 425.045 386.156 424.907 385.744 424.907C385.593 424.907 385.43 424.917 385.253 424.935C385.084 424.947 384.907 424.968 384.718 424.998L384.5 423.056C384.712 423.001 384.946 422.959 385.2 422.929C385.453 422.891 385.765 422.873 386.135 422.873C387.123 422.873 387.886 423.152 388.425 423.71C388.969 424.261 389.241 425.047 389.241 426.07C389.241 426.537 389.179 426.996 389.051 427.442C388.925 427.884 388.86 428.361 388.86 428.87C388.86 429.093 388.93 429.293 389.069 429.467C389.216 429.644 389.409 429.788 389.651 429.905C389.892 430.019 390.165 430.107 390.469 430.167C390.771 430.228 391.083 430.258 391.404 430.258V432.202C390.967 432.202 390.553 432.244 390.16 432.33C389.771 432.409 389.458 432.539 389.216 432.721C388.979 432.895 388.86 433.132 388.86 433.43C388.86 433.918 388.925 434.393 389.051 434.846C389.179 435.299 389.241 435.76 389.241 436.227C389.241 437.285 388.969 438.111 388.425 438.697C387.886 439.29 387.123 439.587 386.135 439.587Z" fill="#CFCDCD" fill-opacity="0.52"/>
<path d="M453.435 428.342V419.259H455.67V428.342H453.435ZM449.829 428.342V426.307H453.617V428.342H449.829ZM455.489 428.342V426.307H458.567V428.342H455.489ZM450.373 420.747V418.713H455.67V420.747H450.373ZM454.461 417.324C454.031 417.324 453.677 417.185 453.398 416.906C453.119 416.627 452.979 416.273 452.979 415.843C452.979 415.413 453.119 415.059 453.398 414.78C453.677 414.501 454.031 414.362 454.461 414.362C454.891 414.362 455.244 414.501 455.523 414.78C455.802 415.059 455.942 415.413 455.942 415.843C455.942 416.273 455.802 416.627 455.523 416.906C455.244 417.185 454.891 417.324 454.461 417.324ZM466.587 428.342V422.438C466.587 421.856 466.455 421.408 466.188 421.094C465.922 420.778 465.546 420.622 465.062 420.622C463.718 420.622 463.046 421.51 463.046 423.291L462.481 420.457H463.262C463.337 419.81 463.56 419.329 463.934 419.013C464.316 418.692 464.883 418.531 465.634 418.531C466.65 418.531 467.439 418.84 467.994 419.459C468.552 420.075 468.831 420.947 468.831 422.075V428.342H466.587ZM460.802 428.342V418.713H462.818L463.046 420.747V428.342H460.802ZM475.717 428.523C474.354 428.523 473.294 428.088 472.538 427.216C471.787 426.344 471.41 425.114 471.41 423.528C471.41 421.936 471.787 420.705 472.538 419.84C473.294 418.968 474.354 418.531 475.717 418.531C477.084 418.531 478.145 418.968 478.896 419.84C479.647 420.705 480.021 421.936 480.021 423.528C480.021 425.114 479.647 426.344 478.896 427.216C478.145 428.088 477.084 428.523 475.717 428.523ZM475.717 426.435C476.359 426.435 476.852 426.184 477.196 425.679C477.542 425.172 477.714 424.454 477.714 423.528C477.714 422.596 477.54 421.877 477.189 421.375C476.842 420.873 476.352 420.622 475.717 420.622C475.08 420.622 474.587 420.873 474.236 421.375C473.891 421.877 473.717 422.596 473.717 423.528C473.717 424.454 473.891 425.172 474.236 425.679C474.587 426.184 475.08 426.435 475.717 426.435ZM485.4 428.523C484.442 428.523 483.704 428.223 483.184 427.623C482.663 427.019 482.402 426.168 482.402 425.072V418.713H484.646V424.71C484.646 425.259 484.783 425.686 485.063 425.989C485.342 426.286 485.725 426.435 486.216 426.435C486.846 426.435 487.318 426.214 487.634 425.772C487.955 425.324 488.116 424.575 488.116 423.528L488.606 426.489H487.906C487.755 427.142 487.458 427.647 487.016 427.998C486.581 428.349 486.041 428.523 485.4 428.523ZM488.278 428.433L488.116 426.126V424.435H490.36V426.326L491.685 426.526V428.342L488.278 428.433ZM488.116 425.617V418.713H490.36V425.072L488.116 425.617ZM499.443 428.523C497.861 428.523 496.72 428.202 496.017 427.561C495.315 426.919 494.964 425.893 494.964 424.482V423.073H497.199V424.3C497.199 425.045 497.387 425.586 497.761 425.926C498.143 426.265 498.764 426.435 499.624 426.435C499.908 426.435 500.215 426.419 500.542 426.389C500.868 426.354 501.24 426.307 501.659 426.254L501.877 428.305C501.47 428.379 501.07 428.433 500.677 428.47C500.289 428.505 499.877 428.523 499.443 428.523ZM494.964 423.71V415.806H497.199V423.71H494.964ZM492.611 420.747V418.713H501.512V420.747H492.611Z" fill="#CFCDCD" fill-opacity="0.52"/>
<path d="M404.612 95.9062L404.438 93.054L404.312 91.9822V89.8566C404.312 89.2934 404.091 88.8815 403.649 88.6211C403.205 88.3549 402.547 88.2095 401.668 88.1851L399.271 88.1216L399.452 86.096L401.487 86.1232C403.17 86.1474 404.421 86.4927 405.238 87.1587C406.056 87.8189 406.465 88.7848 406.465 90.0563V93.7988L407.916 93.9985V95.8153L404.612 95.9062ZM401.296 95.9969C400.278 95.9969 399.489 95.7486 398.924 95.2521C398.369 94.7556 398.089 94.0532 398.089 93.1449C398.089 92.091 398.464 91.2827 399.215 90.7195C399.966 90.1563 401.029 89.8747 402.403 89.8747C402.949 89.8747 403.428 89.9049 403.84 89.9656C404.252 90.0261 404.645 90.12 405.019 90.2472L404.621 91.9185C404.226 91.8276 403.861 91.7762 403.521 91.7641C403.182 91.7459 402.829 91.7369 402.459 91.7369C401.029 91.7369 400.315 92.1578 400.315 92.9995C400.315 93.3688 400.438 93.6504 400.687 93.8441C400.94 94.038 401.308 94.1348 401.787 94.1348C402.343 94.1348 402.81 94.035 403.184 93.835C403.561 93.6292 403.842 93.3718 404.031 93.063C404.217 92.7482 404.312 92.4242 404.312 92.091V91.3099L404.747 93.7806H403.975L404.294 93.49C404.282 94.0471 404.152 94.5134 403.903 94.8889C403.661 95.2582 403.319 95.5367 402.877 95.7244C402.433 95.9062 401.908 95.9969 401.296 95.9969ZM412.914 95.9969C412.181 95.9969 411.542 95.9727 410.998 95.9244C410.451 95.8818 409.965 95.8153 409.535 95.7244L409.798 93.6172C410.507 93.7139 411.116 93.7867 411.623 93.835C412.132 93.8836 412.562 93.9078 412.914 93.9078C413.797 93.9078 414.437 93.835 414.83 93.6897C415.23 93.5444 415.43 93.3144 415.43 92.9995C415.43 92.7996 415.372 92.6451 415.258 92.5361C415.141 92.4273 414.96 92.3394 414.711 92.2729L411.942 91.5006C411.179 91.2888 410.609 90.9981 410.235 90.6286C409.865 90.2533 409.679 89.7264 409.679 89.048C409.679 88.0065 410.1 87.2406 410.942 86.7501C411.79 86.2534 413.107 86.0051 414.893 86.0051C415.33 86.0051 415.76 86.0204 416.183 86.0507C416.613 86.0809 417.062 86.1262 417.527 86.1869L417.292 88.2216C416.764 88.173 416.302 88.1398 415.902 88.1216C415.509 88.1035 415.153 88.0944 414.839 88.0944C413.839 88.0944 413.114 88.164 412.66 88.3032C412.211 88.4425 411.986 88.6667 411.986 88.9755C411.986 89.1813 412.053 89.3327 412.186 89.4296C412.321 89.5266 412.525 89.6112 412.804 89.684L415.13 90.3107C416.032 90.5409 416.699 90.8648 417.127 91.2827C417.564 91.7006 417.783 92.2698 417.783 92.9902C417.783 94.0199 417.385 94.7798 416.592 95.2703C415.804 95.7549 414.579 95.9969 412.914 95.9969ZM419.699 100.175L419.608 98.2042L421.206 98.0226C421.801 97.95 422.308 97.7896 422.734 97.5412C423.157 97.2929 423.52 96.9236 423.822 96.4329C424.127 95.9425 424.389 95.3005 424.613 94.5073L426.966 86.1869H429.328L426.594 94.9614C426.231 96.1181 425.815 97.0475 425.35 97.75C424.889 98.4525 424.34 98.9794 423.706 99.3306C423.068 99.6819 422.308 99.9028 421.424 99.9938L419.699 100.175ZM422.987 95.8153L419.518 86.1869H421.878L424.568 93.9804H424.95V95.8153H422.987ZM437.23 95.8153V89.911C437.23 89.3297 437.097 88.8816 436.83 88.5667C436.565 88.2518 436.188 88.0944 435.704 88.0944C434.36 88.0944 433.688 88.9846 433.688 90.7649L433.123 87.9309H433.905C433.979 87.2829 434.202 86.8015 434.577 86.4867C434.958 86.1658 435.525 86.0051 436.277 86.0051C437.293 86.0051 438.081 86.3141 438.637 86.9317C439.195 87.5494 439.474 88.4214 439.474 89.5478V95.8153H437.23ZM431.444 95.8153V86.1869H433.461L433.688 88.2216V95.8153H431.444ZM447.403 95.9969C445.697 95.9969 444.376 95.567 443.443 94.707C442.515 93.8411 442.053 92.5998 442.053 90.983C442.053 89.4085 442.483 88.1851 443.343 87.3131C444.204 86.4411 445.431 86.0051 447.031 86.0051C448.006 86.0051 448.838 86.193 449.529 86.5683C450.226 86.9378 450.719 87.4615 451.01 88.1398L449.347 89.4387C449.08 89.0087 448.738 88.6788 448.322 88.4486C447.908 88.2126 447.455 88.0944 446.959 88.0944C446.134 88.0944 445.492 88.3365 445.032 88.8211C444.573 89.3055 444.343 89.9959 444.343 90.8921C444.343 91.8731 444.625 92.621 445.187 93.1356C445.757 93.6504 446.569 93.9078 447.622 93.9078C448.064 93.9078 448.503 93.8867 448.938 93.8441C449.38 93.8018 449.81 93.7444 450.229 93.6716L450.464 95.7244C449.973 95.8335 449.466 95.9062 448.938 95.9425C448.413 95.9788 447.901 95.9969 447.403 95.9969ZM470.013 95.9062L469.838 93.054L469.713 91.9822V89.8566C469.713 89.2934 469.492 88.8815 469.05 88.6211C468.606 88.3549 467.948 88.2095 467.069 88.1851L464.672 88.1216L464.853 86.096L466.888 86.1232C468.571 86.1474 469.822 86.4927 470.638 87.1587C471.457 87.8189 471.864 88.7848 471.864 90.0563V93.7988L473.32 93.9985V95.8153L470.013 95.9062ZM466.697 95.9969C465.678 95.9969 464.888 95.7486 464.325 95.2521C463.769 94.7556 463.49 94.0532 463.49 93.1449C463.49 92.091 463.865 91.2827 464.616 90.7195C465.367 90.1563 466.429 89.8747 467.804 89.8747C468.35 89.8747 468.829 89.9049 469.241 89.9656C469.652 90.0261 470.045 90.12 470.42 90.2472L470.022 91.9185C469.627 91.8276 469.262 91.7762 468.922 91.7641C468.583 91.7459 468.229 91.7369 467.86 91.7369C466.429 91.7369 465.716 92.1578 465.716 92.9995C465.716 93.3688 465.839 93.6504 466.088 93.8441C466.343 94.038 466.709 94.1348 467.188 94.1348C467.743 94.1348 468.211 94.035 468.585 93.835C468.962 93.6292 469.243 93.3718 469.432 93.063C469.618 92.7482 469.713 92.4242 469.713 92.091V91.3099L470.148 93.7806H469.376L469.694 93.49C469.683 94.0471 469.552 94.5134 469.304 94.8889C469.062 95.2582 468.72 95.5367 468.278 95.7244C467.834 95.9062 467.308 95.9969 466.697 95.9969ZM480.058 95.8153L479.024 88.4032H478.877L478.087 86.1869H479.849L480.968 93.8623H481.13L481.812 86.1869H483.965L482.874 95.8153H480.058ZM474.971 95.8153L474.154 86.1869H476.317L476.808 93.8623H476.97L478.087 86.1869H479.849L479.04 88.4032H478.914L477.877 95.8153H474.971ZM491.813 95.9062L491.639 93.054L491.513 91.9822V89.8566C491.513 89.2934 491.292 88.8815 490.85 88.6211C490.406 88.3549 489.748 88.2095 488.869 88.1851L486.472 88.1216L486.653 86.096L488.688 86.1232C490.371 86.1474 491.622 86.4927 492.439 87.1587C493.257 87.8189 493.666 88.7848 493.666 90.0563V93.7988L495.117 93.9985V95.8153L491.813 95.9062ZM488.497 95.9969C487.479 95.9969 486.69 95.7486 486.125 95.2521C485.57 94.7556 485.29 94.0532 485.29 93.1449C485.29 92.091 485.665 91.2827 486.416 90.7195C487.167 90.1563 488.23 89.8747 489.604 89.8747C490.15 89.8747 490.63 89.9049 491.041 89.9656C491.453 90.0261 491.846 90.12 492.22 90.2472L491.822 91.9185C491.427 91.8276 491.062 91.7762 490.723 91.7641C490.383 91.7459 490.03 91.7369 489.66 91.7369C488.23 91.7369 487.516 92.1578 487.516 92.9995C487.516 93.3688 487.639 93.6504 487.888 93.8441C488.141 94.038 488.509 94.1348 488.988 94.1348C489.544 94.1348 490.011 94.035 490.385 93.835C490.762 93.6292 491.043 93.3718 491.232 93.063C491.418 92.7482 491.513 92.4242 491.513 92.091V91.3099L491.948 93.7806H491.176L491.495 93.49C491.483 94.0471 491.353 94.5134 491.104 94.8889C490.862 95.2582 490.52 95.5367 490.078 95.7244C489.634 95.9062 489.109 95.9969 488.497 95.9969ZM500.377 95.8153V86.7318H502.612V95.8153H500.377ZM496.771 95.8153V93.7806H500.559V95.8153H496.771ZM502.431 95.8153V93.7806H505.51V95.8153H502.431ZM497.317 88.2216V86.1869H502.612V88.2216H497.317ZM501.405 84.7971C500.975 84.7971 500.619 84.6578 500.343 84.3792C500.063 84.1006 499.924 83.7465 499.924 83.3165C499.924 82.8865 500.063 82.5324 500.343 82.2538C500.619 81.9752 500.975 81.8359 501.405 81.8359C501.835 81.8359 502.189 81.9752 502.468 82.2538C502.745 82.5324 502.884 82.8865 502.884 83.3165C502.884 83.7465 502.745 84.1006 502.468 84.3792C502.189 84.6578 501.835 84.7971 501.405 84.7971ZM513.685 95.9969C512.104 95.9969 510.962 95.676 510.26 95.0342C509.558 94.3922 509.207 93.3658 509.207 91.9547V90.547H511.442V91.7732C511.442 92.518 511.63 93.06 512.004 93.399C512.386 93.7383 513.006 93.9078 513.867 93.9078C514.151 93.9078 514.457 93.8927 514.785 93.8623C515.111 93.826 515.483 93.7806 515.902 93.7262L516.12 95.779C515.713 95.8516 515.313 95.9062 514.92 95.9425C514.532 95.9788 514.12 95.9969 513.685 95.9969ZM509.207 91.1827V83.2802H511.442V91.1827H509.207ZM506.854 88.2216V86.1869H515.757V88.2216H506.854Z" fill="#CFCDCD" fill-opacity="0.52"/>
<path d="M572.064 418.945L563.374 417.494C560.088 416.943 558.705 415.12 559.223 412.02C559.342 411.309 559.516 410.632 559.746 409.99L561.718 410.539C561.604 410.925 561.514 411.267 561.446 411.562C561.379 411.857 561.321 412.143 561.274 412.418C561.009 414.013 561.802 414.964 563.653 415.273L572.434 416.741L572.064 418.945ZM565.967 420.938L564.048 420.617L565.546 411.657L567.464 411.978L565.967 420.938ZM574.103 406.744L565.143 405.246L565.513 403.042L574.473 404.539L574.103 406.744ZM573.51 410.299L571.503 409.965L572.127 406.228L574.133 406.565L573.51 410.299ZM574.443 404.719L572.436 404.384L572.943 401.347L574.95 401.682L574.443 404.719ZM566.109 408.511L564.102 408.174L564.976 402.951L566.983 403.288L566.109 408.511ZM563.406 403.914C563.334 404.339 563.139 404.665 562.818 404.893C562.497 405.123 562.125 405.202 561.702 405.13C561.276 405.06 560.951 404.865 560.721 404.544C560.493 404.223 560.414 403.851 560.486 403.426C560.556 403.002 560.751 402.677 561.072 402.447C561.393 402.219 561.765 402.14 562.188 402.209C562.614 402.282 562.939 402.477 563.169 402.798C563.397 403.119 563.476 403.491 563.406 403.914ZM576.396 394.131C576.203 395.292 575.745 396.073 575.026 396.482C574.308 396.884 573.254 396.968 571.861 396.736L562.232 395.126L562.6 392.922L572.141 394.517C572.578 394.589 572.943 394.606 573.238 394.561C573.529 394.517 573.759 394.382 573.933 394.152C574.108 393.917 574.236 393.55 574.319 393.048C574.405 392.534 574.401 391.864 574.305 391.038L576.508 391.148C576.556 391.666 576.57 392.162 576.554 392.638C576.535 393.108 576.484 393.606 576.396 394.131ZM563.781 398.194L561.774 397.859L562.258 394.964L564.265 395.301L563.781 398.194ZM578.086 384.016C577.814 385.648 577.18 386.837 576.182 387.585C575.18 388.332 573.88 388.574 572.285 388.306C570.734 388.046 569.59 387.469 568.855 386.571C568.122 385.669 567.869 384.532 568.099 383.158C568.32 381.832 568.887 380.874 569.797 380.284C570.706 379.686 571.91 379.512 573.41 379.763C573.845 379.837 574.252 379.923 574.629 380.023L573.485 386.867L571.889 386.599L572.689 381.816C571.966 381.695 571.38 381.781 570.934 382.074C570.485 382.369 570.208 382.835 570.101 383.474C569.983 384.174 570.138 384.758 570.562 385.227C570.987 385.697 571.65 386.009 572.552 386.16C573.526 386.32 574.317 386.167 574.922 385.699C575.524 385.227 575.908 384.481 576.08 383.46C576.149 383.042 576.196 382.63 576.222 382.223C576.242 381.809 576.247 381.386 576.24 380.956L578.321 381.063C578.331 381.667 578.31 382.216 578.259 382.711C578.207 383.204 578.149 383.641 578.086 384.016ZM583.032 378.665L569.415 376.389L569.755 374.354L571.792 374.51L583.402 376.451L583.032 378.665ZM579.896 373.194C579.779 373.882 579.526 374.407 579.135 374.77C578.742 375.135 578.228 375.307 577.593 375.286L577.454 376.119L574.668 374.991C575.612 375.149 576.338 375.107 576.842 374.868C577.352 374.619 577.666 374.142 577.784 373.431C577.898 372.745 577.742 372.184 577.319 371.75C576.894 371.317 576.21 371.022 575.266 370.864C574.31 370.703 573.547 370.761 572.98 371.036C572.413 371.308 572.073 371.782 571.959 372.456C571.848 373.126 571.994 373.67 572.396 374.087C572.794 374.503 573.464 374.791 574.408 374.947L571.406 375.054L571.527 374.338C570.922 374.131 570.492 373.798 570.238 373.34C569.983 372.88 569.917 372.284 570.038 371.557C570.241 370.343 570.824 369.487 571.785 368.985C572.747 368.475 574.033 368.355 575.64 368.624C577.221 368.889 578.377 369.417 579.105 370.208C579.833 370.991 580.098 371.987 579.896 373.194ZM577.203 363.074L573.957 363.102L574.089 362.313C572.48 361.941 571.808 360.972 572.068 359.407C572.224 358.476 572.652 357.828 573.352 357.467C574.05 357.104 575.026 357.028 576.282 357.237L575.912 359.441C575.298 359.339 574.838 359.369 574.533 359.534C574.231 359.693 574.043 359.997 573.966 360.453C573.852 361.132 574.078 361.692 574.643 362.132C575.21 362.569 576.061 362.883 577.203 363.074ZM580.577 368.013L578.659 367.692L579.749 361.169L581.668 361.49L580.577 368.013ZM580.919 365.962L571.422 364.374L571.731 362.527L574.515 362.625L581.288 363.757L580.919 365.962ZM573.057 366.387L571.141 366.066L571.71 362.653L573.659 362.795L573.057 366.387ZM583.088 352.989L574.129 351.491L574.498 349.287L583.456 350.784L583.088 352.989ZM582.493 356.544L580.486 356.209L581.112 352.475L583.119 352.81L582.493 356.544ZM583.425 350.963L581.419 350.628L581.928 347.591L583.935 347.926L583.425 350.963ZM575.094 354.756L573.087 354.421L573.959 349.196L575.966 349.533L575.094 354.756ZM572.389 350.159C572.32 350.584 572.124 350.91 571.803 351.14C571.482 351.368 571.11 351.447 570.685 351.375C570.262 351.305 569.934 351.11 569.706 350.789C569.478 350.468 569.399 350.096 569.469 349.67C569.541 349.247 569.736 348.921 570.057 348.691C570.378 348.463 570.75 348.384 571.173 348.454C571.599 348.526 571.924 348.721 572.152 349.042C572.382 349.363 572.461 349.735 572.389 350.159ZM584.723 343.206L574.673 344.924L575.057 342.629L583.026 341.52L583.051 341.359L575.877 337.72L576.261 335.427L585.204 340.32L584.723 343.206ZM587.155 329.198L584.314 328.898L583.237 328.847L581.14 328.498C580.584 328.405 580.142 328.554 579.812 328.947C579.477 329.34 579.224 329.967 579.056 330.828L578.598 333.183L576.631 332.67L576.991 330.667C577.294 329.012 577.84 327.835 578.633 327.138C579.419 326.44 580.437 326.198 581.693 326.407L585.383 327.024L585.821 325.624L587.611 325.924L587.155 329.198ZM586.7 332.483C586.532 333.488 586.155 334.225 585.574 334.7C584.993 335.167 584.253 335.325 583.358 335.176C582.319 335.002 581.584 334.5 581.151 333.665C580.719 332.832 580.616 331.737 580.844 330.381C580.933 329.844 581.042 329.377 581.17 328.982C581.298 328.584 581.456 328.212 581.642 327.863L583.226 328.533C583.07 328.905 582.958 329.258 582.891 329.591C582.816 329.923 582.751 330.27 582.688 330.635C582.454 332.044 582.751 332.818 583.581 332.958C583.946 333.018 584.244 332.942 584.477 332.73C584.709 332.509 584.865 332.165 584.944 331.693C585.035 331.144 585.014 330.667 584.879 330.263C584.737 329.861 584.53 329.54 584.256 329.302C583.977 329.065 583.672 328.921 583.344 328.865L582.574 328.737L585.081 328.714L584.956 329.474L584.721 329.114C585.267 329.219 585.707 329.423 586.037 329.73C586.36 330.03 586.579 330.414 586.69 330.879C586.797 331.346 586.8 331.881 586.7 332.483ZM589.055 318.392C588.795 319.95 588.29 321.022 587.541 321.61C586.793 322.196 585.721 322.375 584.33 322.14L582.942 321.91L583.309 319.706L584.518 319.908C585.253 320.031 585.818 319.934 586.216 319.62C586.614 319.299 586.883 318.715 587.025 317.866C587.072 317.587 587.107 317.283 587.13 316.955C587.148 316.627 587.165 316.252 587.181 315.832L589.241 315.955C589.246 316.366 589.234 316.769 589.204 317.164C589.176 317.552 589.127 317.962 589.055 318.392ZM583.567 322.015L575.773 320.713L576.142 318.508L583.937 319.81L583.567 322.015ZM580.261 323.847L578.254 323.51L579.721 314.732L581.728 315.067L580.261 323.847ZM590.664 308.76C590.392 310.39 589.757 311.581 588.76 312.327C587.758 313.076 586.458 313.316 584.865 313.048C583.312 312.79 582.167 312.211 581.433 311.316C580.7 310.414 580.449 309.274 580.677 307.902C580.9 306.574 581.465 305.616 582.374 305.026C583.284 304.428 584.488 304.256 585.988 304.507C586.423 304.579 586.83 304.665 587.207 304.765L586.062 311.611L584.467 311.344L585.267 306.558C584.544 306.439 583.958 306.526 583.512 306.819C583.063 307.112 582.786 307.579 582.679 308.216C582.563 308.916 582.716 309.5 583.14 309.969C583.565 310.441 584.228 310.751 585.13 310.902C586.104 311.065 586.895 310.911 587.502 310.441C588.102 309.972 588.488 309.225 588.658 308.204C588.727 307.786 588.776 307.372 588.799 306.965C588.82 306.551 588.827 306.128 588.818 305.698L590.899 305.807C590.911 306.409 590.89 306.958 590.836 307.453C590.785 307.949 590.727 308.383 590.664 308.76Z" fill="#CFCDCD" fill-opacity="0.52"/>
<path d="M505.295 361.104V358.56H518.127V361.104H505.295ZM517.673 361.104V358.56H529.119V361.104H517.673ZM523.782 367.859L522.022 366.169L528.051 359.935V359.73L522.022 353.496L523.782 351.805L530.798 359.139V360.525L523.782 367.859Z" fill="#CFCDCD" fill-opacity="0.52"/>
<path d="M570.306 265.399L579.23 244.962H582.07L573.133 265.399H570.306ZM580.321 265.399L589.246 244.962H592.085L583.149 265.399H580.321Z" fill="#CFCDCD" fill-opacity="0.52"/>
<defs>
<linearGradient id="paint0_linear" x1="193.181" y1="287.049" x2="522.01" y2="287.049" gradientUnits="userSpaceOnUse">
<stop stop-color="#1CD8D2"/>
<stop offset="1" stop-color="#93EDC7"/>
</linearGradient>
</defs>
</svg>
