<svg width="1000" height="1000" viewBox="0 0 1000 1000" fill="none" xmlns="http://www.w3.org/2000/svg">
<rect width="1000" height="1000" rx="150" fill="#282C35"/>
<path d="M343.181 604.461V391.637H408.377C435.056 391.637 455.689 397.932 470.276 410.522C484.863 423.011 492.158 440.695 492.158 463.577C492.158 488.956 484.863 508.64 470.276 522.63C455.689 536.517 435.056 543.463 408.377 543.463H382.747V604.461H343.181ZM382.747 507.04H408.377C421.467 507.04 431.559 503.445 438.651 496.251C445.846 489.056 449.443 479.015 449.443 466.126C449.443 453.936 445.846 444.544 438.651 437.949C431.559 431.355 421.467 428.057 408.377 428.057H382.747V507.04ZM523.034 604.461V391.637H588.23C614.906 391.637 635.539 397.932 650.129 410.522C664.716 423.011 672.01 440.695 672.01 463.577C672.01 488.956 664.716 508.64 650.129 522.63C635.539 536.517 614.906 543.463 588.23 543.463H562.6V604.461H523.034ZM562.6 507.04H588.23C601.319 507.04 611.409 503.445 618.504 496.251C625.698 489.056 629.296 479.015 629.296 466.126C629.296 453.936 625.698 444.544 618.504 437.949C611.409 431.355 601.319 428.057 588.23 428.057H562.6V507.04Z" fill="url(#paint0_linear)"/>
<path d="M777.688 596.39C796.18 580.438 799.24 555.701 786.869 522.176L769.44 477.301C757.053 445.407 761.36 418.237 782.362 395.788C751.714 393.4 730.058 375.906 717.396 343.307L700.214 299.065C686.878 266.403 667.924 250.216 643.35 250.503L641.969 211.818C669.968 209.064 693.443 213.264 712.392 224.418C731.288 235.432 745.847 253.895 756.074 279.806L773.749 325.318C785.223 353.181 803.235 362.345 827.791 352.809L844.808 396.625C819.689 406.383 812.857 426.006 824.312 455.501L842.152 501.436C860.206 551.267 847.11 592.814 802.861 626.078L777.688 596.39Z" fill="white"/>
<path d="M214.869 424.169C198.845 442.598 199.349 467.518 216.379 498.932L240.038 540.86C256.852 570.658 256.468 598.164 238.887 623.383C269.563 621.369 293.493 635.593 310.679 666.049L334.003 707.384C351.866 737.807 372.936 751.122 397.22 747.329L404.11 785.421C376.789 792.146 352.957 791.339 332.607 783.005C312.335 774.801 295.288 758.607 281.466 734.421L257.473 691.9C242.14 665.96 223.003 659.463 200.061 672.408L176.961 631.468C200.43 618.225 204.39 597.827 188.84 570.269L164.624 527.355C139.639 480.61 146.669 437.619 185.715 398.379L214.869 424.169Z" fill="white"/>
<path d="M619.203 704.192C620.975 703.44 622.243 703.192 623.51 703.44C625.535 703.943 626.549 705.443 627.31 706.191C628.07 707.694 630.856 709.193 632.123 709.442C633.135 709.693 634.909 706.942 636.176 704.443C637.441 702.192 638.202 699.19 637.948 698.439C637.695 697.69 634.149 696.188 633.388 696.188C632.881 696.188 631.87 696.688 630.095 696.439C628.324 696.188 626.549 694.188 625.535 692.686C623.764 690.186 621.229 688.686 618.95 687.435C616.418 686.184 613.63 685.433 610.844 684.933C606.791 683.933 602.738 683.182 598.684 683.682C596.406 683.933 593.618 684.184 591.592 684.933C591.339 684.933 590.832 685.684 591.339 685.684C591.846 685.684 593.618 685.933 593.618 685.933C593.618 685.933 591.339 686.435 591.339 686.935C591.339 687.435 591.592 687.435 591.846 687.435C592.099 687.435 597.673 687.186 599.952 687.435C602.484 687.935 605.272 689.186 607.044 692.188C610.083 697.69 608.818 702.941 608.058 704.692C604.258 712.944 574.115 763.714 572.594 767.216C571.073 770.718 570.566 772.969 574.873 775.22C579.179 777.471 581.458 776.468 582.726 774.969C584.246 772.969 610.337 708.442 619.203 704.192ZM605.016 737.954H611.097C615.15 737.954 615.911 739.956 615.911 740.704C616.164 742.707 615.15 745.206 611.097 745.206H607.298L610.337 750.208C612.111 753.21 611.351 754.71 610.337 755.71C608.818 757.212 605.523 757.212 603.751 753.961L600.205 747.957C597.673 753.459 595.138 759.463 592.099 766.465H607.805C615.404 766.465 621.736 760.212 621.736 752.71V708.942C621.482 708.442 620.975 708.693 620.724 708.942C619.203 710.693 614.897 716.695 605.016 737.954ZM566.513 768.967H565.248C556.128 768.967 548.782 761.714 548.782 752.71V710.693C548.782 701.692 556.128 694.439 565.248 694.439H601.977C601.219 693.688 598.178 692.437 595.138 692.688C593.871 692.688 591.339 693.188 589.818 692.188C588.299 690.937 588.553 690.186 586.272 690.186H563.727C553.342 690.186 544.983 698.439 544.983 708.693V754.21C544.983 764.465 553.342 772.718 562.462 772.466C564.995 772.466 565.755 770.467 566.513 768.967ZM624.524 710.444V752.71C624.524 761.714 617.178 768.967 608.058 768.967H591.085C591.085 768.967 589.564 772.966 594.378 772.966H609.576C619.964 772.966 628.324 764.714 628.324 754.461V717.697C628.577 714.195 625.535 711.944 624.524 710.444ZM551.568 710.693V752.71C551.568 760.212 557.902 766.465 565.502 766.465H567.78C567.78 766.216 570.82 760.963 577.407 749.959C578.166 748.459 579.179 746.957 580.193 745.206H561.702C559.421 745.206 558.156 743.706 557.902 742.455C557.395 740.456 558.66 737.954 561.448 737.954H570.82L582.726 717.446C582.726 717.446 579.94 712.444 579.179 711.193C578.165 709.442 578.672 707.694 579.686 706.691C581.207 705.192 583.739 704.443 586.272 708.442L587.286 709.945L588.299 708.442C590.578 705.191 592.099 705.443 593.364 705.691C595.392 706.191 596.657 708.442 594.885 711.944L579.179 737.954H584.5C586.272 734.954 588.046 731.952 589.818 728.701C589.567 727.45 589.313 725.95 589.567 724.699C589.818 722.699 590.832 720.948 592.099 719.446L593.62 721.948C598.431 713.695 601.977 706.691 602.991 703.94C603.498 702.441 604.258 699.439 603.498 696.939H565.502C557.649 696.939 551.568 703.192 551.568 710.693ZM562.46 752.459C562.46 752.21 565.502 746.957 565.502 746.957C570.313 745.706 572.594 748.708 572.847 748.959C572.847 748.959 569.555 754.71 568.541 755.71C567.527 756.712 566.262 756.961 564.995 756.712C562.967 756.212 561.702 754.21 562.46 752.459Z" fill="white"/>
<path d="M446.478 291.111C446.697 290.677 446.697 290.243 446.913 289.809C452.129 269.377 439.739 245.472 418.439 232.865C427.787 245.472 431.479 260.467 428.222 273.942C428.003 275.028 427.57 276.334 427.136 277.419C426.536 277.087 425.954 276.725 425.392 276.334C425.392 276.334 404.312 263.292 381.714 240.473C381.059 239.822 393.883 258.727 408.226 273.725C401.492 269.811 382.365 256.122 370.408 245.034C371.715 247.426 373.671 249.817 375.624 252.208C385.623 265.033 398.666 280.678 414.316 292.631C403.231 299.374 387.797 299.804 372.148 292.631C368.234 290.894 364.979 288.72 361.281 286.112C367.799 296.328 378.017 305.676 390.19 310.671C404.749 316.977 419.527 316.543 430.177 310.671H430.398C430.833 310.455 431.268 310.238 431.7 309.803C436.918 307.195 447.134 304.37 452.784 315.237C454.303 318.279 457.128 304.153 446.483 291.111H446.478Z" fill="white"/>
<path d="M435.018 357.664L434.928 355.676L438.016 355.585C438.911 355.555 439.562 355.304 439.969 354.829C440.374 354.364 440.581 353.674 440.585 352.76V345.728L440.769 343.693H442.829V352.469C442.829 354.183 442.429 355.446 441.632 356.257C440.839 357.073 439.571 357.513 437.834 357.573L435.018 357.664ZM437.953 353.504C436.73 353.504 435.788 353.081 435.128 352.232C434.474 351.386 434.146 350.158 434.146 348.553C434.146 346.925 434.474 345.677 435.128 344.812C435.788 343.944 436.732 343.512 437.962 343.512C438.699 343.512 439.276 343.677 439.688 344.002C440.104 344.33 440.362 344.809 440.46 345.437H441.185L440.585 348.381C440.585 347.425 440.413 346.716 440.069 346.256C439.723 345.788 439.211 345.556 438.534 345.556C437.848 345.556 437.325 345.814 436.962 346.328C436.6 346.844 436.416 347.586 436.416 348.553C436.416 349.511 436.595 350.234 436.953 350.725C437.311 351.216 437.837 351.46 438.534 351.46C439.26 351.46 439.783 351.23 440.104 350.769C440.425 350.309 440.585 349.602 440.585 348.644L441.241 351.579H440.395C440.311 352.209 440.058 352.688 439.632 353.013C439.209 353.341 438.648 353.504 437.953 353.504ZM448.499 353.504C447.54 353.504 446.803 353.204 446.282 352.604C445.762 351.999 445.501 351.148 445.501 350.053V343.693H447.745V349.688C447.745 350.239 447.882 350.667 448.161 350.969C448.44 351.267 448.824 351.416 449.315 351.416C449.945 351.416 450.417 351.195 450.733 350.753C451.054 350.304 451.215 349.555 451.215 348.509L451.705 351.469H451.005C450.854 352.123 450.557 352.627 450.115 352.978C449.68 353.33 449.14 353.504 448.499 353.504ZM451.377 353.413L451.215 351.106V349.416H453.459V351.306L454.784 351.506V353.323L451.377 353.413ZM451.215 350.597V343.693H453.459V350.053L451.215 350.597ZM462.469 353.413L462.295 350.56L462.169 349.49V347.363C462.169 346.8 461.948 346.388 461.507 346.128C461.062 345.863 460.404 345.716 459.525 345.693L457.128 345.628L457.309 343.603L459.344 343.63C461.028 343.654 462.279 344 463.095 344.665C463.913 345.326 464.32 346.293 464.32 347.563V351.306L465.776 351.506V353.323L462.469 353.413ZM459.153 353.504C458.135 353.504 457.344 353.255 456.782 352.76C456.226 352.262 455.947 351.56 455.947 350.653C455.947 349.597 456.321 348.79 457.072 348.228C457.823 347.663 458.886 347.381 460.26 347.381C460.807 347.381 461.286 347.411 461.697 347.472C462.109 347.532 462.502 347.628 462.876 347.753L462.479 349.425C462.083 349.335 461.718 349.283 461.379 349.272C461.039 349.253 460.686 349.244 460.316 349.244C458.886 349.244 458.172 349.665 458.172 350.507C458.172 350.876 458.295 351.158 458.544 351.351C458.8 351.546 459.165 351.641 459.644 351.641C460.2 351.641 460.667 351.541 461.042 351.341C461.418 351.137 461.7 350.879 461.888 350.569C462.074 350.255 462.169 349.932 462.169 349.597V348.816L462.604 351.288H461.832L462.151 350.997C462.139 351.555 462.009 352.02 461.76 352.397C461.518 352.764 461.176 353.043 460.735 353.232C460.29 353.413 459.765 353.504 459.153 353.504ZM471.015 349.181L470.452 345.984H471.252C471.355 344.335 472.201 343.512 473.787 343.512C474.731 343.512 475.44 343.828 475.912 344.456C476.384 345.086 476.621 346.037 476.621 347.309H474.387C474.387 346.686 474.28 346.237 474.068 345.965C473.861 345.693 473.529 345.556 473.068 345.556C472.378 345.556 471.864 345.872 471.524 346.5C471.185 347.13 471.015 348.023 471.015 349.181ZM466.701 353.323V351.379H473.315V353.323H466.701ZM468.78 353.323V343.693H470.652L471.015 346.456V353.323H468.78ZM467.064 345.637V343.693H470.524L470.708 345.637H467.064ZM481.554 353.504C480.33 353.504 479.389 353.081 478.728 352.232C478.075 351.386 477.747 350.158 477.747 348.553C477.747 346.925 478.075 345.677 478.728 344.812C479.389 343.944 480.333 343.512 481.563 343.512C482.27 343.512 482.826 343.677 483.223 344.002C483.623 344.33 483.872 344.809 483.97 345.437H484.751L484.186 348.381C484.186 347.425 484.014 346.716 483.67 346.256C483.323 345.788 482.812 345.556 482.135 345.556C481.449 345.556 480.926 345.814 480.563 346.328C480.2 346.844 480.016 347.586 480.016 348.553C480.016 349.511 480.196 350.234 480.554 350.725C480.912 351.216 481.437 351.46 482.135 351.46C482.86 351.46 483.384 351.23 483.705 350.769C484.025 350.309 484.186 349.602 484.186 348.644L484.842 351.579H483.995C483.911 352.209 483.658 352.688 483.232 353.013C482.809 353.341 482.249 353.504 481.554 353.504ZM484.477 353.413L484.186 351.516V339.698H486.43V353.323L484.477 353.413ZM505.651 353.504C504.477 353.504 503.628 353.183 503.107 352.541C502.593 351.899 502.335 350.874 502.335 349.462V339.698H504.57V349.372C504.57 349.814 504.616 350.176 504.707 350.462C504.798 350.739 504.97 350.946 505.223 351.079C505.484 351.211 505.87 351.279 506.377 351.279C506.898 351.279 507.558 351.165 508.358 350.934L508.611 353.123C508.109 353.255 507.623 353.353 507.149 353.413C506.684 353.474 506.184 353.504 505.651 353.504ZM499.566 341.733V339.698H502.498V341.733H499.566ZM515.906 353.504C514.253 353.504 512.976 353.074 512.074 352.213C511.172 351.348 510.721 350.107 510.721 348.49C510.721 346.916 511.102 345.693 511.865 344.821C512.634 343.949 513.713 343.512 515.106 343.512C516.45 343.512 517.49 343.912 518.222 344.712C518.962 345.512 519.331 346.67 519.331 348.19C519.331 348.632 519.313 349.046 519.276 349.435H512.337V347.818H517.187C517.187 347.086 517.006 346.523 516.641 346.128C516.278 345.735 515.774 345.537 515.125 345.537C514.416 345.537 513.864 345.786 513.471 346.284C513.079 346.779 512.881 347.486 512.881 348.4C512.881 349.386 513.162 350.141 513.727 350.66C514.29 351.176 515.09 351.432 516.125 351.432C516.548 351.432 516.964 351.411 517.369 351.369C517.78 351.32 518.199 351.258 518.622 351.179L518.859 353.25C518.264 353.36 517.72 353.429 517.222 353.46C516.727 353.49 516.288 353.504 515.906 353.504ZM527.942 353.504C526.361 353.504 525.219 353.183 524.517 352.541C523.815 351.899 523.464 350.874 523.464 349.462V348.053H525.698V349.281C525.698 350.025 525.887 350.567 526.261 350.906C526.642 351.246 527.263 351.416 528.124 351.416C528.407 351.416 528.714 351.399 529.042 351.369C529.368 351.334 529.74 351.288 530.158 351.234L530.377 353.285C529.97 353.36 529.57 353.413 529.177 353.45C528.789 353.485 528.377 353.504 527.942 353.504ZM523.464 348.69V340.787H525.698V348.69H523.464ZM521.11 345.728V343.693H530.012V345.728H521.11Z" fill="#CFCDCD" fill-opacity="0.52"/>
<path d="M265.848 500.002C264.673 500.002 263.826 499.681 263.305 499.039C262.79 498.397 262.533 497.372 262.533 495.96V486.196H264.767V495.869C264.767 496.311 264.813 496.674 264.904 496.96C264.995 497.237 265.167 497.444 265.421 497.576C265.682 497.709 266.066 497.776 266.575 497.776C267.096 497.776 267.756 497.662 268.555 497.432L268.81 499.62C268.307 499.753 267.819 499.85 267.347 499.911C266.881 499.971 266.381 500.002 265.848 500.002ZM259.763 488.231V486.196H262.696V488.231H259.763ZM277.166 499.911L276.994 497.058L276.866 495.988V493.863C276.866 493.298 276.646 492.886 276.204 492.626C275.761 492.36 275.101 492.214 274.223 492.191L271.825 492.126L272.007 490.1L274.042 490.128C275.725 490.151 276.976 490.498 277.793 491.163C278.61 491.823 279.019 492.791 279.019 494.06V497.804L280.473 498.004V499.82L277.166 499.911ZM273.851 500.002C272.833 500.002 272.043 499.753 271.48 499.257C270.923 498.76 270.644 498.058 270.644 497.151C270.644 496.095 271.02 495.288 271.771 494.725C272.522 494.16 273.584 493.879 274.959 493.879C275.504 493.879 275.982 493.909 276.394 493.97C276.806 494.03 277.199 494.125 277.575 494.251L277.175 495.923C276.782 495.832 276.415 495.781 276.076 495.769C275.737 495.751 275.383 495.742 275.013 495.742C273.584 495.742 272.87 496.162 272.87 497.004C272.87 497.374 272.994 497.655 273.242 497.848C273.497 498.044 273.863 498.139 274.341 498.139C274.899 498.139 275.365 498.039 275.74 497.839C276.116 497.634 276.397 497.376 276.585 497.067C276.773 496.753 276.866 496.43 276.866 496.095V495.314L277.302 497.786H276.53L276.848 497.495C276.836 498.053 276.706 498.518 276.458 498.895C276.216 499.262 275.873 499.541 275.431 499.73C274.989 499.911 274.463 500.002 273.851 500.002ZM283.924 498.976L282.253 497.867L288.393 491.072L289.993 492.144L283.924 498.976ZM282.253 499.82V497.867H290.174V499.82H282.253ZM282.253 492.144V490.191H289.993V492.144H282.253ZM292.253 504.18L292.162 502.208L293.762 502.027C294.355 501.955 294.864 501.794 295.288 501.546C295.711 501.297 296.076 500.929 296.378 500.439C296.68 499.948 296.943 499.306 297.169 498.513L299.52 490.191H301.882L299.148 498.967C298.785 500.122 298.371 501.053 297.904 501.755C297.443 502.457 296.894 502.985 296.26 503.336C295.625 503.687 294.864 503.908 293.981 503.999L292.253 504.18ZM295.541 499.82L292.072 490.191H294.434L297.122 497.985H297.504V499.82H295.541Z" fill="#CFCDCD" fill-opacity="0.52"/>
<path d="M587.516 347.481L596.531 329.088H599.28L590.264 347.481H587.516ZM581.907 342.419V339.863H605.07V342.419H581.907ZM581.907 336.729V334.175H605.07V336.729H581.907Z" fill="#CFCDCD" fill-opacity="0.52"/>
<path d="M641.343 348.869V346.325H652.926V348.869H641.343ZM654.97 346.03V343.477H666.55V346.03H654.97ZM654.97 351.72V349.165H666.55V351.72H654.97Z" fill="#CFCDCD" fill-opacity="0.52"/>
<path d="M691.443 390.633C690.211 390.633 689.253 390.261 688.571 389.519C687.897 388.787 687.56 387.756 687.56 386.431C687.56 385.85 687.641 385.273 687.799 384.706C687.958 384.138 688.039 383.548 688.039 382.934C688.039 382.564 687.885 382.269 687.583 382.05C687.288 381.822 686.895 381.659 686.402 381.562C685.918 381.455 685.404 381.401 684.858 381.401V378.971C685.26 378.971 685.651 378.934 686.027 378.857C686.407 378.783 686.748 378.674 687.051 378.529C687.353 378.385 687.59 378.204 687.765 377.983C687.946 377.764 688.039 377.516 688.039 377.234C688.039 376.599 687.958 376.004 687.799 375.453C687.641 374.892 687.56 374.32 687.56 373.737C687.56 372.458 687.897 371.474 688.571 370.786C689.253 370.088 690.211 369.742 691.443 369.742C691.92 369.742 692.315 369.763 692.625 369.809C692.936 369.846 693.222 369.9 693.487 369.967L693.215 372.397C692.98 372.36 692.755 372.332 692.534 372.318C692.322 372.295 692.122 372.283 691.932 372.283C691.418 372.283 691.025 372.456 690.753 372.795C690.488 373.128 690.355 373.604 690.355 374.225C690.355 374.793 690.441 375.339 690.615 375.86C690.79 376.383 690.876 376.932 690.876 377.506C690.876 378.278 690.615 378.881 690.092 379.313C689.571 379.736 688.841 379.955 687.902 379.971V380.404C688.841 380.418 689.571 380.627 690.092 381.027C690.615 381.429 690.876 381.973 690.876 382.662C690.876 383.259 690.79 383.82 690.615 384.343C690.441 384.864 690.355 385.398 690.355 385.943C690.355 386.624 690.488 387.154 690.753 387.533C691.025 387.903 691.418 388.089 691.932 388.089C692.122 388.089 692.322 388.077 692.534 388.056C692.755 388.033 692.98 388.005 693.215 387.975L693.487 390.405C693.222 390.475 692.936 390.526 692.625 390.565C692.315 390.61 691.92 390.633 691.443 390.633ZM700.187 390.633C699.726 390.633 699.336 390.61 699.017 390.565C698.698 390.526 698.408 390.475 698.143 390.405L698.415 387.975C698.65 388.005 698.873 388.033 699.087 388.056C699.305 388.077 699.51 388.089 699.698 388.089C700.215 388.089 700.603 387.903 700.868 387.533C701.14 387.154 701.277 386.624 701.277 385.943C701.277 385.398 701.189 384.864 701.017 384.343C700.842 383.82 700.754 383.259 700.754 382.662C700.754 381.973 701.017 381.429 701.538 381.027C702.061 380.627 702.791 380.418 703.73 380.404V379.971C702.791 379.955 702.061 379.736 701.538 379.313C701.017 378.881 700.754 378.278 700.754 377.506C700.754 376.932 700.842 376.383 701.017 375.86C701.189 375.339 701.277 374.793 701.277 374.225C701.277 373.604 701.14 373.128 700.868 372.795C700.603 372.456 700.215 372.283 699.698 372.283C699.51 372.283 699.305 372.295 699.087 372.318C698.873 372.332 698.65 372.36 698.415 372.397L698.143 369.967C698.408 369.9 698.698 369.846 699.017 369.809C699.336 369.763 699.726 369.742 700.187 369.742C701.421 369.742 702.375 370.088 703.049 370.786C703.73 371.474 704.07 372.458 704.07 373.737C704.07 374.32 703.991 374.892 703.833 375.453C703.672 376.004 703.593 376.599 703.593 377.234C703.593 377.516 703.679 377.764 703.854 377.983C704.035 378.204 704.279 378.385 704.582 378.529C704.884 378.674 705.223 378.783 705.602 378.857C705.981 378.934 706.372 378.971 706.772 378.971V381.401C706.228 381.401 705.709 381.455 705.216 381.562C704.733 381.659 704.34 381.822 704.035 382.05C703.74 382.269 703.593 382.564 703.593 382.934C703.593 383.548 703.672 384.138 703.833 384.706C703.991 385.273 704.07 385.85 704.07 386.431C704.07 387.756 703.73 388.787 703.049 389.519C702.375 390.261 701.421 390.633 700.187 390.633Z" fill="#CFCDCD" fill-opacity="0.52"/>
<path d="M280.986 426.89V424.051L293.602 421.597V421.393L280.986 418.942V416.103L297.38 420.065V422.928L280.986 426.89ZM280.986 430.931V428.388H297.38V430.931H280.986Z" fill="#CFCDCD" fill-opacity="0.52"/>
<path d="M499.785 554.499V531.336H502.533V554.499H499.785ZM489.113 554.499V531.336H491.86V554.499H489.113Z" fill="#CFCDCD" fill-opacity="0.52"/>
<path d="M441.037 583.217V580.664H451.596V583.217H441.037ZM428.433 588.907V586.352H438.993V588.907H428.433ZM428.433 583.217V580.664H438.993V583.217H428.433ZM441.037 588.907V586.352H451.596V588.907H441.037Z" fill="#CFCDCD" fill-opacity="0.52"/>
<path d="M487.614 688.342V676.557H490.406V688.342H487.614ZM483.333 683.721V681.166H494.687V683.721H483.333ZM496.845 680.882V678.329H508.426V680.882H496.845ZM496.845 686.572V684.017H508.426V686.572H496.845Z" fill="#CFCDCD" fill-opacity="0.52"/>
<path d="M393.415 702.534V699.694L401.364 696.504V696.299L393.415 693.109V690.27L404.407 695.027V697.776L393.415 702.534ZM383.061 702.534V699.694L390.895 696.504V696.299L383.061 693.109V690.27L393.939 695.027V697.776L383.061 702.534Z" fill="#CFCDCD" fill-opacity="0.52"/>
<path d="M450.924 732.356L445.122 725.645C444.243 724.648 443.608 723.743 443.213 722.932C442.827 722.115 442.634 721.313 442.634 720.525C442.634 719.011 443.029 717.879 443.815 717.13C444.604 716.381 445.792 716.007 447.38 716.007L447.313 718.548C446.722 718.548 446.276 718.716 445.973 719.048C445.678 719.383 445.529 719.881 445.529 720.548C445.529 721.069 445.643 721.574 445.871 722.057C446.106 722.543 446.443 723.041 446.88 723.557L454.352 732.356H450.924ZM445.587 732.584C444.171 732.584 443.029 732.21 442.157 731.459C441.295 730.703 440.865 729.699 440.865 728.45C440.865 727.171 441.251 726.122 442.023 725.306C442.795 724.48 443.883 723.962 445.292 723.75L446.541 725.704C445.625 725.869 444.918 726.164 444.418 726.589C443.918 727.006 443.669 727.513 443.669 728.11C443.669 728.685 443.869 729.15 444.269 729.505C444.671 729.861 445.201 730.04 445.859 730.04C447.215 730.04 448.264 729.487 449.006 728.382C449.747 727.268 450.117 725.694 450.117 723.66H452.854C452.854 726.497 452.217 728.696 450.947 730.257C449.682 731.808 447.896 732.584 445.587 732.584ZM448.754 719.958C448.754 719.504 448.629 719.155 448.38 718.913C448.131 718.672 447.775 718.548 447.313 718.548L447.38 716.007C448.752 716.007 449.81 716.351 450.561 717.039C451.317 717.728 451.696 718.702 451.696 719.958H448.754ZM459.381 730.198V718.414H462.176V730.198H459.381ZM455.103 725.578V723.022H466.455V725.578H455.103Z" fill="#CFCDCD" fill-opacity="0.52"/>
<path d="M341.36 362.624L336.284 354.609C335.77 353.783 335.372 353.006 335.091 352.281C334.812 351.553 334.672 350.851 334.672 350.169C334.672 348.928 335.023 347.97 335.728 347.295C336.44 346.614 337.437 346.274 338.725 346.274L338.749 348.816C338.363 348.816 338.067 348.958 337.863 349.237C337.665 349.509 337.567 349.923 337.567 350.474C337.567 350.99 337.653 351.479 337.828 351.939C338.009 352.402 338.251 352.871 338.556 353.348L344.448 362.624H341.36ZM325.689 362.852C324.343 362.852 323.294 362.503 322.546 361.806C321.797 361.103 321.42 360.11 321.42 358.831C321.42 357.485 321.762 356.401 322.443 355.585C323.125 354.767 324.108 354.243 325.394 354.018L326.643 355.971C325.834 356.153 325.217 356.466 324.794 356.913C324.378 357.359 324.169 357.924 324.169 358.603C324.169 359.187 324.324 359.638 324.634 359.957C324.945 360.266 325.387 360.422 325.962 360.422C327.022 360.422 327.824 359.873 328.371 358.776C328.922 357.669 329.198 356.053 329.198 353.927H331.821C331.821 355.864 331.563 357.499 331.049 358.831C330.542 360.157 329.826 361.159 328.903 361.84C327.987 362.515 326.917 362.852 325.689 362.852ZM329.777 362.624L324.704 354.609C324.173 353.783 323.771 353.004 323.499 352.269C323.227 351.527 323.09 350.827 323.09 350.169C323.09 348.928 323.443 347.97 324.145 347.295C324.857 346.614 325.857 346.274 327.143 346.274L327.154 348.816C326.775 348.816 326.485 348.958 326.28 349.237C326.085 349.509 325.985 349.923 325.985 350.474C325.985 350.99 326.069 351.479 326.236 351.939C326.41 352.395 326.654 352.862 326.973 353.348L332.866 362.624H329.777ZM337.272 362.852C335.923 362.852 334.877 362.503 334.126 361.806C333.377 361.103 333.003 360.11 333.003 358.831C333.003 357.485 333.342 356.401 334.024 355.585C334.705 354.767 335.689 354.243 336.977 354.018L338.225 355.971C337.416 356.153 336.798 356.466 336.375 356.913C335.958 357.359 335.749 357.924 335.749 358.603C335.749 359.187 335.905 359.638 336.216 359.957C336.526 360.266 336.97 360.422 337.544 360.422C338.605 360.422 339.407 359.868 339.951 358.764C340.504 357.659 340.781 356.046 340.781 353.927H343.402C343.402 355.864 343.148 357.499 342.641 358.831C342.144 360.157 341.434 361.159 340.518 361.84C339.602 362.515 338.521 362.852 337.272 362.852ZM328.289 350.225C328.289 349.772 328.192 349.423 327.996 349.181C327.799 348.939 327.517 348.816 327.154 348.816L327.143 346.274C328.438 346.274 329.44 346.619 330.152 347.307C330.873 347.995 331.231 348.97 331.231 350.225H328.289ZM339.872 350.225C339.872 349.772 339.774 349.423 339.577 349.181C339.379 348.939 339.104 348.816 338.749 348.816L338.725 346.274C340.058 346.274 341.072 346.614 341.767 347.295C342.465 347.97 342.813 348.946 342.813 350.225H339.872Z" fill="#CFCDCD" fill-opacity="0.52"/>
<path d="M279.351 581.313V560.328H282.087V581.313H279.351ZM281.86 581.313V578.736H286.686V581.313H281.86ZM281.86 562.907V560.328H286.686V562.907H281.86ZM295.622 581.313V560.328H298.38V581.313H295.622ZM291.046 581.313V578.736H295.848V581.313H291.046ZM291.046 562.907V560.328H295.848V562.907H291.046Z" fill="#CFCDCD" fill-opacity="0.52"/>
<path d="M352.778 648.825C352.352 648.825 351.994 648.676 351.696 648.381C351.399 648.078 351.252 647.718 351.252 647.299C351.252 646.869 351.399 646.506 351.696 646.209C351.994 645.913 352.352 645.765 352.778 645.765C353.208 645.765 353.568 645.913 353.859 646.209C354.154 646.506 354.303 646.869 354.303 647.299C354.303 647.718 354.154 648.078 353.859 648.381C353.568 648.676 353.208 648.825 352.778 648.825ZM364.721 648.825C363.014 648.825 361.693 648.395 360.761 647.534C359.835 646.669 359.372 645.427 359.372 643.811C359.372 642.237 359.802 641.014 360.661 640.142C361.521 639.27 362.751 638.833 364.349 638.833C365.325 638.833 366.158 639.021 366.848 639.395C367.544 639.765 368.037 640.291 368.327 640.967L366.665 642.267C366.4 641.837 366.058 641.507 365.639 641.277C365.228 641.039 364.774 640.923 364.276 640.923C363.453 640.923 362.811 641.165 362.351 641.649C361.891 642.135 361.66 642.823 361.66 643.721C361.66 644.702 361.942 645.448 362.505 645.965C363.074 646.479 363.886 646.737 364.939 646.737C365.381 646.737 365.821 646.716 366.258 646.672C366.7 646.63 367.13 646.572 367.546 646.499L367.783 648.553C367.292 648.662 366.783 648.734 366.258 648.771C365.73 648.806 365.218 648.825 364.721 648.825ZM374.578 648.825C373.215 648.825 372.155 648.39 371.399 647.518C370.648 646.646 370.271 645.416 370.271 643.83C370.271 642.237 370.648 641.007 371.399 640.142C372.155 639.27 373.215 638.833 374.578 638.833C375.945 638.833 377.006 639.27 377.757 640.142C378.508 641.007 378.882 642.237 378.882 643.83C378.882 645.416 378.508 646.646 377.757 647.518C377.006 648.39 375.945 648.825 374.578 648.825ZM374.578 646.737C375.22 646.737 375.713 646.485 376.057 645.981C376.403 645.474 376.575 644.755 376.575 643.83C376.575 642.897 376.401 642.179 376.05 641.677C375.703 641.174 375.213 640.923 374.578 640.923C373.941 640.923 373.448 641.174 373.097 641.677C372.752 642.179 372.578 642.897 372.578 643.83C372.578 644.755 372.752 645.474 373.097 645.981C373.448 646.485 373.941 646.737 374.578 646.737ZM387.784 648.643V641.786C387.784 641.119 387.57 640.786 387.139 640.786C386.626 640.786 386.367 641.177 386.367 641.958L385.714 640.214H386.505C386.546 639.809 386.705 639.479 386.977 639.223C387.256 638.963 387.637 638.833 388.121 638.833C388.774 638.833 389.251 639.012 389.546 639.37C389.848 639.726 390.002 640.305 390.002 641.105V648.643H387.784ZM380.954 648.643V639.014H382.961L383.179 641.049V648.643H380.954ZM384.614 648.643V641.605C384.614 641.058 384.396 640.786 383.961 640.786C383.44 640.786 383.179 641.177 383.179 641.958L382.617 640.214H383.279C383.389 639.293 383.9 638.833 384.814 638.833C385.298 638.833 385.677 639.005 385.949 639.351C386.228 639.695 386.367 640.221 386.367 640.923V648.643H384.614ZM392.362 652.822V639.014H394.425L394.606 641.049V652.822H392.362ZM397.241 648.825C396.543 648.825 395.983 648.662 395.56 648.334C395.136 648.009 394.883 647.53 394.797 646.899H393.953L394.606 643.965C394.606 644.923 394.767 645.63 395.088 646.09C395.415 646.551 395.939 646.781 396.659 646.781C397.355 646.781 397.883 646.537 398.241 646.046C398.596 645.555 398.776 644.832 398.776 643.874C398.776 642.907 398.594 642.165 398.231 641.649C397.866 641.135 397.343 640.877 396.659 640.877C395.98 640.877 395.469 641.109 395.125 641.577C394.778 642.037 394.606 642.746 394.606 643.702L394.006 640.758H394.734C394.836 640.13 395.094 639.651 395.506 639.323C395.918 638.998 396.492 638.833 397.231 638.833C398.462 638.833 399.403 639.265 400.057 640.133C400.717 640.998 401.047 642.246 401.047 643.874C401.047 645.479 400.717 646.706 400.057 647.553C399.403 648.402 398.464 648.825 397.241 648.825ZM409.13 648.734L408.958 645.881L408.83 644.811V642.686C408.83 642.121 408.609 641.709 408.168 641.449C407.726 641.184 407.065 641.037 406.186 641.014L403.789 640.949L403.97 638.923L406.005 638.951C407.689 638.975 408.94 639.321 409.758 639.986C410.574 640.646 410.984 641.614 410.984 642.883V646.627L412.437 646.827V648.643L409.13 648.734ZM405.814 648.825C404.798 648.825 404.008 648.576 403.445 648.081C402.887 647.583 402.608 646.881 402.608 645.974C402.608 644.918 402.984 644.111 403.736 643.549C404.487 642.984 405.549 642.702 406.924 642.702C407.468 642.702 407.947 642.732 408.358 642.793C408.77 642.853 409.163 642.949 409.54 643.074L409.14 644.746C408.747 644.655 408.379 644.604 408.04 644.593C407.703 644.574 407.347 644.565 406.977 644.565C405.549 644.565 404.833 644.986 404.833 645.827C404.833 646.197 404.959 646.478 405.208 646.672C405.461 646.867 405.828 646.962 406.305 646.962C406.863 646.962 407.328 646.862 407.705 646.662C408.079 646.458 408.361 646.199 408.549 645.89C408.737 645.576 408.83 645.253 408.83 644.918V644.137L409.268 646.609H408.496L408.812 646.318C408.8 646.876 408.67 647.341 408.421 647.718C408.179 648.085 407.837 648.364 407.396 648.553C406.954 648.734 406.426 648.825 405.814 648.825ZM419.222 648.825C417.516 648.825 416.195 648.395 415.262 647.534C414.335 646.669 413.872 645.427 413.872 643.811C413.872 642.237 414.302 641.014 415.162 640.142C416.023 639.27 417.251 638.833 418.85 638.833C419.825 638.833 420.657 639.021 421.348 639.395C422.045 639.765 422.538 640.291 422.829 640.967L421.166 642.267C420.899 641.837 420.557 641.507 420.139 641.277C419.727 641.039 419.274 640.923 418.778 640.923C417.953 640.923 417.311 641.165 416.851 641.649C416.392 642.135 416.162 642.823 416.162 643.721C416.162 644.702 416.444 645.448 417.006 645.965C417.576 646.479 418.388 646.737 419.441 646.737C419.883 646.737 420.322 646.716 420.757 646.672C421.199 646.63 421.629 646.572 422.048 646.499L422.283 648.553C421.792 648.662 421.285 648.734 420.757 648.771C420.232 648.806 419.72 648.825 419.222 648.825ZM431.003 648.825C429.424 648.825 428.282 648.504 427.58 647.862C426.878 647.22 426.526 646.195 426.526 644.783V643.374H428.761V644.602C428.761 645.346 428.947 645.888 429.324 646.227C429.705 646.567 430.326 646.737 431.184 646.737C431.47 646.737 431.775 646.72 432.103 646.69C432.43 646.655 432.803 646.609 433.221 646.555L433.437 648.606C433.033 648.681 432.633 648.734 432.24 648.771C431.851 648.806 431.44 648.825 431.003 648.825ZM426.526 644.011V636.107H428.761V644.011H426.526ZM424.173 641.049V639.014H433.075V641.049H424.173ZM439.669 643.83L439.941 641.423H440.051L441.176 635.745H442.495L442.585 638.035H442.032L440.813 643.83H439.669ZM435.6 648.643V635.745H437.663V648.643H435.6ZM439.141 643.83L437.925 638.035H437.372L437.463 635.745H438.779L439.904 641.423H439.979L440.204 643.83H439.141ZM442.295 648.643V635.745H444.357V648.643H442.295ZM452.731 648.734L452.559 645.881L452.431 644.811V642.686C452.431 642.121 452.21 641.709 451.768 641.449C451.326 641.184 450.666 641.037 449.787 641.014L447.39 640.949L447.571 638.923L449.606 638.951C451.289 638.975 452.54 639.321 453.359 639.986C454.175 640.646 454.584 641.614 454.584 642.883V646.627L456.038 646.827V648.643L452.731 648.734ZM449.415 648.825C448.399 648.825 447.608 648.576 447.045 648.081C446.487 647.583 446.208 646.881 446.208 645.974C446.208 644.918 446.585 644.111 447.336 643.549C448.087 642.984 449.15 642.702 450.524 642.702C451.068 642.702 451.547 642.732 451.959 642.793C452.37 642.853 452.763 642.949 453.14 643.074L452.74 644.746C452.347 644.655 451.98 644.604 451.64 644.593C451.303 644.574 450.947 644.565 450.578 644.565C449.15 644.565 448.434 644.986 448.434 645.827C448.434 646.197 448.559 646.478 448.808 646.672C449.061 646.867 449.429 646.962 449.906 646.962C450.464 646.962 450.929 646.862 451.305 646.662C451.68 646.458 451.961 646.199 452.15 645.89C452.338 645.576 452.431 645.253 452.431 644.918V644.137L452.868 646.609H452.096L452.412 646.318C452.401 646.876 452.27 647.341 452.022 647.718C451.78 648.085 451.438 648.364 450.996 648.553C450.554 648.734 450.026 648.825 449.415 648.825ZM457.763 652.822V639.014H459.826L460.007 641.049V652.822H457.763ZM462.642 648.825C461.944 648.825 461.384 648.662 460.96 648.334C460.537 648.009 460.284 647.53 460.198 646.899H459.354L460.007 643.965C460.007 644.923 460.167 645.63 460.488 646.09C460.816 646.551 461.339 646.781 462.06 646.781C462.756 646.781 463.283 646.537 463.642 646.046C463.997 645.555 464.176 644.832 464.176 643.874C464.176 642.907 463.995 642.165 463.632 641.649C463.267 641.135 462.744 640.877 462.06 640.877C461.381 640.877 460.87 641.109 460.525 641.577C460.179 642.037 460.007 642.746 460.007 643.702L459.407 640.758H460.135C460.237 640.13 460.495 639.651 460.907 639.323C461.318 638.998 461.893 638.833 462.632 638.833C463.862 638.833 464.804 639.265 465.458 640.133C466.118 640.998 466.448 642.246 466.448 643.874C466.448 645.479 466.118 646.706 465.458 647.553C464.804 648.402 463.865 648.825 462.642 648.825ZM485.542 650.587C484.553 650.587 483.788 650.29 483.242 649.697C482.702 649.111 482.435 648.285 482.435 647.227C482.435 646.76 482.498 646.299 482.626 645.846C482.751 645.393 482.816 644.918 482.816 644.43C482.816 644.132 482.695 643.895 482.451 643.721C482.216 643.539 481.9 643.409 481.507 643.33C481.119 643.244 480.707 643.202 480.272 643.202V641.258C480.593 641.258 480.905 641.228 481.207 641.167C481.51 641.107 481.784 641.019 482.026 640.905C482.268 640.788 482.458 640.644 482.598 640.467C482.742 640.293 482.816 640.093 482.816 639.87C482.816 639.361 482.751 638.884 482.626 638.442C482.498 637.996 482.435 637.537 482.435 637.07C482.435 636.047 482.702 635.261 483.242 634.71C483.788 634.152 484.553 633.873 485.542 633.873C485.923 633.873 486.237 633.891 486.486 633.929C486.735 633.959 486.963 634.001 487.176 634.056L486.958 635.998C486.77 635.968 486.588 635.947 486.411 635.935C486.244 635.917 486.084 635.907 485.93 635.907C485.518 635.907 485.205 636.045 484.986 636.317C484.774 636.584 484.667 636.965 484.667 637.461C484.667 637.917 484.737 638.351 484.877 638.77C485.016 639.189 485.086 639.626 485.086 640.086C485.086 640.705 484.877 641.186 484.46 641.53C484.042 641.87 483.458 642.046 482.707 642.058V642.402C483.458 642.416 484.042 642.581 484.46 642.902C484.877 643.223 485.086 643.66 485.086 644.211C485.086 644.688 485.016 645.137 484.877 645.555C484.737 645.974 484.667 646.399 484.667 646.837C484.667 647.381 484.774 647.804 484.986 648.109C485.205 648.404 485.518 648.553 485.93 648.553C486.084 648.553 486.244 648.543 486.411 648.525C486.588 648.506 486.77 648.485 486.958 648.462L487.176 650.406C486.963 650.46 486.735 650.501 486.486 650.532C486.237 650.569 485.923 650.587 485.542 650.587ZM504.561 651.55V632.838H506.442V651.55H504.561ZM504.933 648.825C504.2 648.825 503.498 648.764 502.826 648.643C502.161 648.523 501.554 648.346 501.01 648.116L501.301 645.909C501.966 646.195 502.622 646.411 503.263 646.562C503.905 646.709 504.51 646.781 505.079 646.781C505.805 646.781 506.354 646.655 506.723 646.399C507.098 646.139 507.286 645.76 507.286 645.265C507.286 644.616 506.916 644.123 506.177 643.783L504.17 642.83C503.268 642.407 502.573 641.881 502.082 641.258C501.596 640.635 501.354 639.916 501.354 639.105C501.354 637.979 501.712 637.107 502.426 636.489C503.147 635.873 504.166 635.563 505.479 635.563C506.303 635.563 507.058 635.7 507.749 635.973C508.447 636.238 509.081 636.645 509.658 637.189L508.158 638.842C507.693 638.43 507.237 638.121 506.796 637.917C506.361 637.705 505.924 637.598 505.489 637.598C504.919 637.598 504.477 637.728 504.161 637.989C503.847 638.242 503.689 638.616 503.689 639.105C503.689 639.444 503.796 639.744 504.007 640.005C504.226 640.261 504.538 640.488 504.942 640.695L506.751 641.595C507.677 642.056 508.386 642.588 508.877 643.193C509.372 643.793 509.621 644.486 509.621 645.274C509.621 646.43 509.221 647.311 508.421 647.918C507.628 648.523 506.465 648.825 504.933 648.825ZM516.278 648.825C513.288 648.825 511.793 646.646 511.793 642.286C511.793 637.805 513.288 635.563 516.278 635.563C519.271 635.563 520.766 637.805 520.766 642.286C520.766 646.646 519.271 648.825 516.278 648.825ZM516.269 643.83C515.888 643.83 515.578 643.69 515.344 643.411C515.113 643.128 514.997 642.751 514.997 642.286C514.997 641.819 515.113 641.446 515.344 641.167C515.578 640.884 515.888 640.742 516.269 640.742C516.65 640.742 516.957 640.884 517.188 641.167C517.422 641.446 517.541 641.819 517.541 642.286C517.541 642.751 517.422 643.128 517.188 643.411C516.957 643.69 516.65 643.83 516.269 643.83ZM516.278 646.781C517.762 646.781 518.504 645.283 518.504 642.286C518.504 639.165 517.762 637.607 516.278 637.607C514.783 637.607 514.034 639.165 514.034 642.286C514.034 645.283 514.783 646.781 516.278 646.781ZM536.135 650.587C535.765 650.587 535.453 650.569 535.2 650.532C534.946 650.501 534.712 650.46 534.5 650.406L534.718 648.462C534.907 648.485 535.084 648.506 535.253 648.525C535.43 648.543 535.593 648.553 535.744 648.553C536.156 648.553 536.469 648.404 536.681 648.109C536.897 647.804 537.007 647.381 537.007 646.837C537.007 646.399 536.937 645.974 536.797 645.555C536.66 645.137 536.59 644.688 536.59 644.211C536.59 643.66 536.797 643.223 537.216 642.902C537.635 642.581 538.218 642.416 538.969 642.402V642.058C538.218 642.046 537.635 641.87 537.216 641.53C536.797 641.186 536.59 640.705 536.59 640.086C536.59 639.626 536.66 639.189 536.797 638.77C536.937 638.351 537.007 637.917 537.007 637.461C537.007 636.965 536.897 636.584 536.681 636.317C536.469 636.045 536.156 635.907 535.744 635.907C535.593 635.907 535.43 635.917 535.253 635.935C535.084 635.947 534.907 635.968 534.718 635.998L534.5 634.056C534.712 634.001 534.946 633.959 535.2 633.929C535.453 633.891 535.765 633.873 536.135 633.873C537.123 633.873 537.886 634.152 538.425 634.71C538.969 635.261 539.241 636.047 539.241 637.07C539.241 637.537 539.179 637.996 539.051 638.442C538.925 638.884 538.86 639.361 538.86 639.87C538.86 640.093 538.93 640.293 539.069 640.467C539.216 640.644 539.409 640.788 539.651 640.905C539.892 641.019 540.165 641.107 540.469 641.167C540.771 641.228 541.083 641.258 541.404 641.258V643.202C540.967 643.202 540.553 643.244 540.16 643.33C539.771 643.409 539.458 643.539 539.216 643.721C538.979 643.895 538.86 644.132 538.86 644.43C538.86 644.918 538.925 645.393 539.051 645.846C539.179 646.299 539.241 646.76 539.241 647.227C539.241 648.285 538.969 649.111 538.425 649.697C537.886 650.29 537.123 650.587 536.135 650.587Z" fill="#CFCDCD" fill-opacity="0.52"/>
<path d="M603.435 639.342V630.259H605.67V639.342H603.435ZM599.829 639.342V637.307H603.617V639.342H599.829ZM605.489 639.342V637.307H608.567V639.342H605.489ZM600.373 631.747V629.713H605.67V631.747H600.373ZM604.461 628.324C604.031 628.324 603.677 628.185 603.398 627.906C603.119 627.627 602.979 627.273 602.979 626.843C602.979 626.413 603.119 626.059 603.398 625.78C603.677 625.501 604.031 625.362 604.461 625.362C604.891 625.362 605.244 625.501 605.523 625.78C605.802 626.059 605.942 626.413 605.942 626.843C605.942 627.273 605.802 627.627 605.523 627.906C605.244 628.185 604.891 628.324 604.461 628.324ZM616.587 639.342V633.438C616.587 632.856 616.455 632.408 616.188 632.094C615.922 631.778 615.546 631.622 615.062 631.622C613.718 631.622 613.046 632.51 613.046 634.291L612.481 631.457H613.262C613.337 630.81 613.56 630.329 613.934 630.013C614.316 629.692 614.883 629.531 615.634 629.531C616.65 629.531 617.439 629.84 617.994 630.459C618.552 631.075 618.831 631.947 618.831 633.075V639.342H616.587ZM610.802 639.342V629.713H612.818L613.046 631.747V639.342H610.802ZM625.717 639.523C624.354 639.523 623.294 639.088 622.538 638.216C621.787 637.344 621.41 636.114 621.41 634.528C621.41 632.936 621.787 631.705 622.538 630.84C623.294 629.968 624.354 629.531 625.717 629.531C627.084 629.531 628.145 629.968 628.896 630.84C629.647 631.705 630.021 632.936 630.021 634.528C630.021 636.114 629.647 637.344 628.896 638.216C628.145 639.088 627.084 639.523 625.717 639.523ZM625.717 637.435C626.359 637.435 626.852 637.184 627.196 636.679C627.542 636.172 627.714 635.454 627.714 634.528C627.714 633.596 627.54 632.877 627.189 632.375C626.842 631.873 626.352 631.622 625.717 631.622C625.08 631.622 624.587 631.873 624.236 632.375C623.891 632.877 623.717 633.596 623.717 634.528C623.717 635.454 623.891 636.172 624.236 636.679C624.587 637.184 625.08 637.435 625.717 637.435ZM635.4 639.523C634.442 639.523 633.704 639.223 633.184 638.623C632.663 638.019 632.402 637.168 632.402 636.072V629.713H634.646V635.71C634.646 636.259 634.783 636.686 635.063 636.989C635.342 637.286 635.725 637.435 636.216 637.435C636.846 637.435 637.318 637.214 637.634 636.772C637.955 636.324 638.116 635.575 638.116 634.528L638.606 637.489H637.906C637.755 638.142 637.458 638.647 637.016 638.998C636.581 639.349 636.041 639.523 635.4 639.523ZM638.278 639.433L638.116 637.126V635.435H640.36V637.326L641.685 637.526V639.342L638.278 639.433ZM638.116 636.617V629.713H640.36V636.072L638.116 636.617ZM649.443 639.523C647.861 639.523 646.72 639.202 646.017 638.561C645.315 637.919 644.964 636.893 644.964 635.482V634.073H647.199V635.3C647.199 636.045 647.387 636.586 647.761 636.926C648.143 637.265 648.764 637.435 649.624 637.435C649.908 637.435 650.215 637.419 650.542 637.389C650.868 637.354 651.24 637.307 651.659 637.254L651.877 639.305C651.47 639.379 651.07 639.433 650.677 639.47C650.289 639.505 649.877 639.523 649.443 639.523ZM644.964 634.71V626.806H647.199V634.71H644.964ZM642.611 631.747V629.713H651.512V631.747H642.611Z" fill="#CFCDCD" fill-opacity="0.52"/>
<path d="M554.612 306.906L554.438 304.054L554.312 302.982V300.857C554.312 300.293 554.091 299.882 553.649 299.621C553.205 299.355 552.547 299.21 551.668 299.185L549.271 299.122L549.452 297.096L551.487 297.123C553.17 297.147 554.421 297.493 555.238 298.159C556.056 298.819 556.465 299.785 556.465 301.056V304.799L557.916 304.999V306.815L554.612 306.906ZM551.296 306.997C550.278 306.997 549.489 306.749 548.924 306.252C548.369 305.756 548.089 305.053 548.089 304.145C548.089 303.091 548.464 302.283 549.215 301.72C549.966 301.156 551.029 300.875 552.403 300.875C552.949 300.875 553.428 300.905 553.84 300.966C554.252 301.026 554.645 301.12 555.019 301.247L554.621 302.918C554.226 302.828 553.861 302.776 553.521 302.764C553.182 302.746 552.829 302.737 552.459 302.737C551.029 302.737 550.315 303.158 550.315 304C550.315 304.369 550.438 304.65 550.687 304.844C550.94 305.038 551.308 305.135 551.787 305.135C552.343 305.135 552.81 305.035 553.184 304.835C553.561 304.629 553.842 304.372 554.031 304.063C554.217 303.748 554.312 303.424 554.312 303.091V302.31L554.747 304.781H553.975L554.294 304.49C554.282 305.047 554.152 305.513 553.903 305.889C553.661 306.258 553.319 306.537 552.877 306.724C552.433 306.906 551.908 306.997 551.296 306.997ZM562.914 306.997C562.181 306.997 561.542 306.973 560.998 306.924C560.451 306.882 559.965 306.815 559.535 306.724L559.798 304.617C560.507 304.714 561.116 304.787 561.623 304.835C562.132 304.884 562.562 304.908 562.914 304.908C563.797 304.908 564.437 304.835 564.83 304.69C565.23 304.544 565.43 304.314 565.43 304C565.43 303.8 565.372 303.645 565.258 303.536C565.141 303.427 564.96 303.339 564.711 303.273L561.942 302.501C561.179 302.289 560.609 301.998 560.235 301.629C559.865 301.253 559.679 300.726 559.679 300.048C559.679 299.007 560.1 298.241 560.942 297.75C561.79 297.253 563.107 297.005 564.893 297.005C565.33 297.005 565.76 297.02 566.183 297.051C566.613 297.081 567.062 297.126 567.527 297.187L567.292 299.222C566.764 299.173 566.302 299.14 565.902 299.122C565.509 299.103 565.153 299.094 564.839 299.094C563.839 299.094 563.114 299.164 562.66 299.303C562.211 299.443 561.986 299.667 561.986 299.976C561.986 300.181 562.053 300.333 562.186 300.43C562.321 300.527 562.525 300.611 562.804 300.684L565.13 301.311C566.032 301.541 566.699 301.865 567.127 302.283C567.564 302.701 567.783 303.27 567.783 303.99C567.783 305.02 567.385 305.78 566.592 306.27C565.804 306.755 564.579 306.997 562.914 306.997ZM569.699 311.175L569.608 309.204L571.206 309.023C571.801 308.95 572.308 308.79 572.734 308.541C573.157 308.293 573.52 307.924 573.822 307.433C574.127 306.943 574.389 306.3 574.613 305.507L576.966 297.187H579.328L576.594 305.961C576.231 307.118 575.815 308.048 575.35 308.75C574.889 309.453 574.34 309.979 573.706 310.331C573.068 310.682 572.308 310.903 571.424 310.994L569.699 311.175ZM572.987 306.815L569.518 297.187H571.878L574.568 304.98H574.95V306.815H572.987ZM587.23 306.815V300.911C587.23 300.33 587.097 299.882 586.83 299.567C586.565 299.252 586.188 299.094 585.704 299.094C584.36 299.094 583.688 299.985 583.688 301.765L583.123 298.931H583.905C583.979 298.283 584.202 297.802 584.577 297.487C584.958 297.166 585.525 297.005 586.277 297.005C587.293 297.005 588.081 297.314 588.637 297.932C589.195 298.549 589.474 299.421 589.474 300.548V306.815H587.23ZM581.444 306.815V297.187H583.461L583.688 299.222V306.815H581.444ZM597.403 306.997C595.697 306.997 594.376 306.567 593.443 305.707C592.515 304.841 592.053 303.6 592.053 301.983C592.053 300.408 592.483 299.185 593.343 298.313C594.204 297.441 595.431 297.005 597.031 297.005C598.006 297.005 598.838 297.193 599.529 297.568C600.226 297.938 600.719 298.461 601.01 299.14L599.347 300.439C599.08 300.009 598.738 299.679 598.322 299.449C597.908 299.213 597.455 299.094 596.959 299.094C596.134 299.094 595.492 299.336 595.032 299.821C594.573 300.305 594.343 300.996 594.343 301.892C594.343 302.873 594.625 303.621 595.187 304.136C595.757 304.65 596.569 304.908 597.622 304.908C598.064 304.908 598.503 304.887 598.938 304.844C599.38 304.802 599.81 304.744 600.229 304.672L600.464 306.724C599.973 306.833 599.466 306.906 598.938 306.943C598.413 306.979 597.901 306.997 597.403 306.997ZM620.013 306.906L619.838 304.054L619.713 302.982V300.857C619.713 300.293 619.492 299.882 619.05 299.621C618.606 299.355 617.948 299.21 617.069 299.185L614.672 299.122L614.853 297.096L616.888 297.123C618.571 297.147 619.822 297.493 620.638 298.159C621.457 298.819 621.864 299.785 621.864 301.056V304.799L623.32 304.999V306.815L620.013 306.906ZM616.697 306.997C615.678 306.997 614.888 306.749 614.325 306.252C613.769 305.756 613.49 305.053 613.49 304.145C613.49 303.091 613.865 302.283 614.616 301.72C615.367 301.156 616.429 300.875 617.804 300.875C618.35 300.875 618.829 300.905 619.241 300.966C619.652 301.026 620.045 301.12 620.42 301.247L620.022 302.918C619.627 302.828 619.262 302.776 618.922 302.764C618.583 302.746 618.229 302.737 617.86 302.737C616.429 302.737 615.716 303.158 615.716 304C615.716 304.369 615.839 304.65 616.088 304.844C616.343 305.038 616.709 305.135 617.188 305.135C617.743 305.135 618.211 305.035 618.585 304.835C618.962 304.629 619.243 304.372 619.432 304.063C619.618 303.748 619.713 303.424 619.713 303.091V302.31L620.148 304.781H619.376L619.694 304.49C619.683 305.047 619.552 305.513 619.304 305.889C619.062 306.258 618.72 306.537 618.278 306.724C617.834 306.906 617.308 306.997 616.697 306.997ZM630.058 306.815L629.024 299.403H628.877L628.087 297.187H629.849L630.968 304.862H631.13L631.812 297.187H633.965L632.874 306.815H630.058ZM624.971 306.815L624.154 297.187H626.317L626.808 304.862H626.97L628.087 297.187H629.849L629.04 299.403H628.914L627.877 306.815H624.971ZM641.813 306.906L641.639 304.054L641.513 302.982V300.857C641.513 300.293 641.292 299.882 640.85 299.621C640.406 299.355 639.748 299.21 638.869 299.185L636.472 299.122L636.653 297.096L638.688 297.123C640.371 297.147 641.622 297.493 642.439 298.159C643.257 298.819 643.666 299.785 643.666 301.056V304.799L645.117 304.999V306.815L641.813 306.906ZM638.497 306.997C637.479 306.997 636.69 306.749 636.125 306.252C635.57 305.756 635.29 305.053 635.29 304.145C635.29 303.091 635.665 302.283 636.416 301.72C637.167 301.156 638.23 300.875 639.604 300.875C640.15 300.875 640.63 300.905 641.041 300.966C641.453 301.026 641.846 301.12 642.22 301.247L641.822 302.918C641.427 302.828 641.062 302.776 640.723 302.764C640.383 302.746 640.03 302.737 639.66 302.737C638.23 302.737 637.516 303.158 637.516 304C637.516 304.369 637.639 304.65 637.888 304.844C638.141 305.038 638.509 305.135 638.988 305.135C639.544 305.135 640.011 305.035 640.385 304.835C640.762 304.629 641.043 304.372 641.232 304.063C641.418 303.748 641.513 303.424 641.513 303.091V302.31L641.948 304.781H641.176L641.495 304.49C641.483 305.047 641.353 305.513 641.104 305.889C640.862 306.258 640.52 306.537 640.078 306.724C639.634 306.906 639.109 306.997 638.497 306.997ZM650.377 306.815V297.732H652.612V306.815H650.377ZM646.771 306.815V304.781H650.559V306.815H646.771ZM652.431 306.815V304.781H655.51V306.815H652.431ZM647.317 299.222V297.187H652.612V299.222H647.317ZM651.405 295.797C650.975 295.797 650.619 295.658 650.343 295.379C650.063 295.101 649.924 294.746 649.924 294.317C649.924 293.887 650.063 293.532 650.343 293.254C650.619 292.975 650.975 292.836 651.405 292.836C651.835 292.836 652.189 292.975 652.468 293.254C652.745 293.532 652.884 293.887 652.884 294.317C652.884 294.746 652.745 295.101 652.468 295.379C652.189 295.658 651.835 295.797 651.405 295.797ZM663.685 306.997C662.104 306.997 660.962 306.676 660.26 306.034C659.558 305.392 659.207 304.366 659.207 302.955V301.547H661.442V302.773C661.442 303.518 661.63 304.06 662.004 304.399C662.386 304.738 663.006 304.908 663.867 304.908C664.151 304.908 664.457 304.893 664.785 304.862C665.111 304.826 665.483 304.781 665.902 304.726L666.12 306.779C665.713 306.852 665.313 306.906 664.92 306.943C664.532 306.979 664.12 306.997 663.685 306.997ZM659.207 302.183V294.28H661.442V302.183H659.207ZM656.854 299.222V297.187H665.757V299.222H656.854Z" fill="#CFCDCD" fill-opacity="0.52"/>
<path d="M722.064 629.945L713.374 628.494C710.088 627.943 708.705 626.12 709.223 623.02C709.342 622.309 709.516 621.632 709.746 620.99L711.718 621.539C711.604 621.925 711.514 622.267 711.446 622.562C711.379 622.857 711.321 623.143 711.274 623.418C711.009 625.013 711.802 625.964 713.653 626.273L722.434 627.741L722.064 629.945ZM715.967 631.938L714.048 631.617L715.546 622.657L717.464 622.978L715.967 631.938ZM724.103 617.744L715.143 616.246L715.513 614.042L724.473 615.539L724.103 617.744ZM723.51 621.299L721.503 620.965L722.127 617.228L724.133 617.565L723.51 621.299ZM724.443 615.719L722.436 615.384L722.943 612.347L724.95 612.682L724.443 615.719ZM716.109 619.511L714.102 619.174L714.976 613.951L716.983 614.288L716.109 619.511ZM713.406 614.914C713.334 615.339 713.139 615.665 712.818 615.893C712.497 616.123 712.125 616.202 711.702 616.13C711.276 616.06 710.951 615.865 710.721 615.544C710.493 615.223 710.414 614.851 710.486 614.426C710.556 614.002 710.751 613.677 711.072 613.447C711.393 613.219 711.765 613.14 712.188 613.209C712.614 613.282 712.939 613.477 713.169 613.798C713.397 614.119 713.476 614.491 713.406 614.914ZM726.396 605.131C726.203 606.292 725.745 607.073 725.026 607.482C724.308 607.884 723.254 607.968 721.861 607.736L712.232 606.126L712.6 603.922L722.141 605.517C722.578 605.589 722.943 605.606 723.238 605.561C723.529 605.517 723.759 605.382 723.933 605.152C724.108 604.917 724.236 604.55 724.319 604.048C724.405 603.534 724.401 602.864 724.305 602.038L726.508 602.148C726.556 602.666 726.57 603.162 726.554 603.638C726.535 604.108 726.484 604.606 726.396 605.131ZM713.781 609.194L711.774 608.859L712.258 605.964L714.265 606.301L713.781 609.194ZM728.086 595.016C727.814 596.648 727.18 597.837 726.182 598.585C725.18 599.332 723.88 599.574 722.285 599.306C720.734 599.046 719.59 598.469 718.855 597.571C718.122 596.669 717.869 595.532 718.099 594.158C718.32 592.832 718.887 591.874 719.797 591.284C720.706 590.686 721.91 590.512 723.41 590.763C723.845 590.837 724.252 590.923 724.629 591.023L723.485 597.867L721.889 597.599L722.689 592.816C721.966 592.695 721.38 592.781 720.934 593.074C720.485 593.369 720.208 593.835 720.101 594.474C719.983 595.174 720.138 595.758 720.562 596.227C720.987 596.697 721.65 597.009 722.552 597.16C723.526 597.32 724.317 597.167 724.922 596.699C725.524 596.227 725.908 595.481 726.08 594.46C726.149 594.042 726.196 593.63 726.222 593.223C726.242 592.809 726.247 592.386 726.24 591.956L728.321 592.063C728.331 592.667 728.31 593.216 728.259 593.711C728.207 594.204 728.149 594.641 728.086 595.016ZM733.032 589.665L719.415 587.389L719.755 585.354L721.792 585.51L733.402 587.451L733.032 589.665ZM729.896 584.194C729.779 584.882 729.526 585.407 729.135 585.77C728.742 586.135 728.228 586.307 727.593 586.286L727.454 587.119L724.668 585.991C725.612 586.149 726.338 586.107 726.842 585.868C727.352 585.619 727.666 585.142 727.784 584.431C727.898 583.745 727.742 583.184 727.319 582.75C726.894 582.317 726.21 582.022 725.266 581.864C724.31 581.703 723.547 581.761 722.98 582.036C722.413 582.308 722.073 582.782 721.959 583.456C721.848 584.126 721.994 584.67 722.396 585.087C722.794 585.503 723.464 585.791 724.408 585.947L721.406 586.054L721.527 585.338C720.922 585.131 720.492 584.798 720.238 584.34C719.983 583.88 719.917 583.284 720.038 582.557C720.241 581.343 720.824 580.487 721.785 579.985C722.747 579.475 724.033 579.355 725.64 579.624C727.221 579.889 728.377 580.417 729.105 581.208C729.833 581.991 730.098 582.987 729.896 584.194ZM727.203 574.074L723.957 574.102L724.089 573.313C722.48 572.941 721.808 571.972 722.068 570.407C722.224 569.476 722.652 568.828 723.352 568.467C724.05 568.104 725.026 568.028 726.282 568.237L725.912 570.441C725.298 570.339 724.838 570.369 724.533 570.534C724.231 570.693 724.043 570.997 723.966 571.453C723.852 572.132 724.078 572.692 724.643 573.132C725.21 573.569 726.061 573.883 727.203 574.074ZM730.577 579.013L728.659 578.692L729.749 572.169L731.668 572.49L730.577 579.013ZM730.919 576.962L721.422 575.374L721.731 573.527L724.515 573.625L731.288 574.757L730.919 576.962ZM723.057 577.387L721.141 577.066L721.71 573.653L723.659 573.795L723.057 577.387ZM733.088 563.989L724.129 562.491L724.498 560.287L733.456 561.784L733.088 563.989ZM732.493 567.544L730.486 567.209L731.112 563.475L733.119 563.81L732.493 567.544ZM733.425 561.963L731.419 561.628L731.928 558.591L733.935 558.926L733.425 561.963ZM725.094 565.756L723.087 565.421L723.959 560.196L725.966 560.533L725.094 565.756ZM722.389 561.159C722.32 561.584 722.124 561.91 721.803 562.14C721.482 562.368 721.11 562.447 720.685 562.375C720.262 562.305 719.934 562.11 719.706 561.789C719.478 561.468 719.399 561.096 719.469 560.67C719.541 560.247 719.736 559.921 720.057 559.691C720.378 559.463 720.75 559.384 721.173 559.454C721.599 559.526 721.924 559.721 722.152 560.042C722.382 560.363 722.461 560.735 722.389 561.159ZM734.723 554.206L724.673 555.924L725.057 553.629L733.026 552.52L733.051 552.359L725.877 548.72L726.261 546.427L735.204 551.32L734.723 554.206ZM737.155 540.198L734.314 539.898L733.237 539.847L731.14 539.498C730.584 539.405 730.142 539.554 729.812 539.947C729.477 540.34 729.224 540.967 729.056 541.828L728.598 544.183L726.631 543.67L726.991 541.667C727.294 540.012 727.84 538.835 728.633 538.138C729.419 537.44 730.437 537.198 731.693 537.407L735.383 538.024L735.821 536.624L737.611 536.924L737.155 540.198ZM736.7 543.483C736.532 544.488 736.155 545.225 735.574 545.7C734.993 546.167 734.253 546.325 733.358 546.176C732.319 546.002 731.584 545.5 731.151 544.665C730.719 543.832 730.616 542.737 730.844 541.381C730.933 540.844 731.042 540.377 731.17 539.982C731.298 539.584 731.456 539.212 731.642 538.863L733.226 539.533C733.07 539.905 732.958 540.258 732.891 540.591C732.816 540.923 732.751 541.27 732.688 541.635C732.454 543.044 732.751 543.818 733.581 543.958C733.946 544.018 734.244 543.942 734.477 543.73C734.709 543.509 734.865 543.165 734.944 542.693C735.035 542.144 735.014 541.667 734.879 541.263C734.737 540.861 734.53 540.54 734.256 540.302C733.977 540.065 733.672 539.921 733.344 539.865L732.574 539.737L735.081 539.714L734.956 540.474L734.721 540.114C735.267 540.219 735.707 540.423 736.037 540.73C736.36 541.03 736.579 541.414 736.69 541.879C736.797 542.346 736.8 542.881 736.7 543.483ZM739.055 529.392C738.795 530.95 738.29 532.022 737.541 532.61C736.793 533.196 735.721 533.375 734.33 533.14L732.942 532.91L733.309 530.706L734.518 530.908C735.253 531.031 735.818 530.934 736.216 530.62C736.614 530.299 736.883 529.715 737.025 528.866C737.072 528.587 737.107 528.283 737.13 527.955C737.148 527.627 737.165 527.252 737.181 526.832L739.241 526.955C739.246 527.366 739.234 527.769 739.204 528.164C739.176 528.552 739.127 528.962 739.055 529.392ZM733.567 533.015L725.773 531.713L726.142 529.508L733.937 530.81L733.567 533.015ZM730.261 534.847L728.254 534.51L729.721 525.732L731.728 526.067L730.261 534.847ZM740.664 519.76C740.392 521.39 739.757 522.581 738.76 523.327C737.758 524.076 736.458 524.316 734.865 524.048C733.312 523.79 732.167 523.211 731.433 522.316C730.7 521.414 730.449 520.274 730.677 518.902C730.9 517.574 731.465 516.616 732.374 516.026C733.284 515.428 734.488 515.256 735.988 515.507C736.423 515.579 736.83 515.665 737.207 515.765L736.062 522.611L734.467 522.344L735.267 517.558C734.544 517.439 733.958 517.526 733.512 517.819C733.063 518.112 732.786 518.579 732.679 519.216C732.563 519.916 732.716 520.5 733.14 520.969C733.565 521.441 734.228 521.751 735.13 521.902C736.104 522.065 736.895 521.911 737.502 521.441C738.102 520.972 738.488 520.225 738.658 519.204C738.727 518.786 738.776 518.372 738.799 517.965C738.82 517.551 738.827 517.128 738.818 516.698L740.899 516.807C740.911 517.409 740.89 517.958 740.836 518.453C740.785 518.949 740.727 519.383 740.664 519.76Z" fill="#CFCDCD" fill-opacity="0.52"/>
<path d="M655.295 572.104V569.56H668.127V572.104H655.295ZM667.673 572.104V569.56H679.119V572.104H667.673ZM673.782 578.859L672.022 577.169L678.051 570.935V570.73L672.022 564.496L673.782 562.805L680.798 570.139V571.525L673.782 578.859Z" fill="#CFCDCD" fill-opacity="0.52"/>
<path d="M720.306 476.399L729.23 455.962H732.07L723.133 476.399H720.306ZM730.321 476.399L739.246 455.962H742.085L733.149 476.399H730.321Z" fill="#CFCDCD" fill-opacity="0.52"/>
<defs>
<linearGradient id="paint0_linear" x1="343.181" y1="498.049" x2="672.01" y2="498.049" gradientUnits="userSpaceOnUse">
<stop stop-color="#1CD8D2"/>
<stop offset="1" stop-color="#93EDC7"/>
</linearGradient>
</defs>
</svg>
