<svg viewBox="-50 -50 900 1100" xmlns="http://www.w3.org/2000/svg"><g transform="matrix(5.5512 0 0 5.5512 -24.15 -26.94)"><path d="m152.4310303 32.1852074c0-1.1612282-.0148468-2.3521557-.0407562-3.5133858-.0704956-2.5529976-.2195129-5.113636-.6737823-7.6220226-.4611359-2.5529995-1.2130127-4.9272823-2.4039459-7.2721958-1.1574097-2.2774506-2.6722565-4.3616982-4.4919739-6.1631856-1.7900391-1.8159418-3.8818512-3.3270316-6.1520691-4.5030775-2.3109741-1.1684729-4.7042542-1.9279852-7.2572174-2.3594007-2.5232391-.4691474-5.0762024-.6177706-7.6291733-.7073264-1.1836853-.0148821-2.3300323-.0148821-3.5133209-.0148821-1.3845292-.0297309-2.7614518-.0297309-4.1684342-.0297309h-79.7584534c-1.3956223 0-2.7800827 0-4.1607933.0297312-1.1686039 0-2.3409309 0-3.5095024.0148821-2.5530663.0895558-5.1061325.238179-7.6294022.7073264-2.5530682.4314154-4.9349251 1.1909277-7.253499 2.3594007-2.2813702 1.1760457-4.3729277 2.6871355-6.1779394 4.5030775-1.8049788 1.8014874-3.3234119 3.885735-4.4920168 6.1631856-1.179767 2.3449135-1.942704 4.7191963-2.389298 7.2721958-.4540351 2.5083866-.6103299 5.069025-.6736116 7.6220226-.0186026 1.1612301-.0409257 2.3521576-.0483668 3.5133858-.0074742 1.3696782-.0074742 2.7614476-.0074742 4.1311261v11.3688812 91.325943 11.5986938c0 1.3696747 0 2.7614441.0076386 4.1311188 0 1.1612244.0148492 2.3521576.0407611 3.513382.0705252 2.553009.2195436 5.1136169.6738091 7.6220245.461114 2.553009 1.213021 4.9272919 2.4039495 7.2722015 1.1573782 2.2774506 2.672255 4.3616943 4.4919844 6.1631927 1.7899976 1.8159332 3.8818517 3.3269958 6.1520267 4.503067 2.3109694 1.1684723 4.7042837 1.9279938 7.2572203 2.3594055 2.5232697.4691467 5.0762367.6177673 7.6292038.7073212 1.1836853.0148468 2.3299999.0148468 3.5133247.0148468 1.3845253.0297699 2.7614136.0297699 4.1684303.0297699h79.7584534c1.3956223 0 2.7800522 0 4.160759-.0297699 1.1686096 0 2.3409348 0 3.5095367-.0148468 2.5530396-.0895538 5.1061325-.2381744 7.6294022-.7073212 2.5530396-.4314117 4.9348907-1.1909332 7.2534943-2.3594055 2.2813416-1.1760712 4.3729401-2.6871338 6.1779175-4.503067 1.8049774-1.8014984 3.3234406-3.8857422 4.4920197-6.1631927 1.1797638-2.3449097 1.9427032-4.7191925 2.3892975-7.2722015.4540253-2.5084076.6103516-5.0690155.6735992-7.6220245.0186462-1.1612244.0409698-2.3521576.0484009-3.513382.0074463-1.3696747.0074463-2.7614441.0074463-4.1311188v-11.3688812-91.3259735-11.5986633c-.0000003-1.3696785-.0000003-2.7614479-.0076449-4.1311264z"/><g fill="#fff"><path d="m57.3476753 167.5298157h-5.2077217l-1.2497902 3.6929321h-2.2062607l4.9332199-13.6633759h2.2913704l4.9330368 13.6633759h-2.2440681zm-4.6680298-1.7042847h4.1283379l-2.035862-5.9936066h-.0568008z"/><path d="m71.4081955 166.2421265c0 3.1531525-1.6568832 5.1508331-4.1566391 5.1508331-1.4296875 0-2.5660553-.700592-3.1340637-1.8084717h-.0473022v4.9333954h-2.0453529v-13.2562714h1.9790611v1.7138672h.0378036c.586998-1.1456757 1.7326813-1.8747711 3.1720428-1.8747711 2.5280686 0 4.1944504 1.9883728 4.1944504 5.1414185zm-2.1019669 0c0-2.0829773-1.013092-3.418045-2.6321716-3.418045-1.5624619 0-2.6133575 1.3633881-2.6133575 3.418045 0 2.073761 1.0415802 3.418335 2.6133575 3.418335 1.6190796-.0000001 2.6321716-1.3255769 2.6321716-3.418335z"/><path d="m82.2482758 166.2421265c0 3.1531525-1.6568832 5.1508331-4.1566467 5.1508331-1.4296799 0-2.5660553-.700592-3.1340561-1.8084717h-.0473022v4.9333954h-2.0453568v-13.2562714h1.9790573v1.7138672h.0378113c.586998-1.1456757 1.7326813-1.8747711 3.1720428-1.8747711 2.5280685 0 4.1944504 1.9883728 4.1944504 5.1414185zm-2.1019745 0c0-2.0829773-1.0130844-3.418045-2.6321716-3.418045-1.5624619 0-2.6133575 1.3633881-2.6133575 3.418045 0 2.073761 1.0413971 3.418335 2.6133575 3.418335 1.6190872-.0000001 2.6321716-1.3255769 2.6321716-3.418335z"/><path d="m85.5269852 164.3863525c0-4.3272247 2.442955-7.054184 6.2588043-7.054184 3.0962448 0 5.4349213 1.9032593 5.7947159 4.7533264h-2.1019745c-.3787918-1.7516785-1.8369675-2.8973694-3.6927414-2.8973694-2.4807663 0-4.0903549 2.035675-4.0903549 5.1982269 0 3.1909485 1.5905914 5.2076263 4.0998459 5.2076263 1.9032669 0 3.2571564-.9752808 3.6832504-2.622757h2.1114731c-.5206985 2.8218384-2.6606598 4.4787292-5.8042145 4.4787292-3.8348389.0000003-6.2588043-2.7081601-6.2588043-7.0635984z"/><path d="m99.3533707 157.5593719h2.0451736v13.6633759h-2.0451736z"/><path d="m103.4451752 158.6294403c0-.6532898.5301971-1.1741638 1.1834869-1.1741638.6534805 0 1.1836777.520874 1.1836777 1.1741638 0 .6437988-.5301971 1.173996-1.1836777 1.173996-.6532898 0-1.1834869-.5301972-1.1834869-1.173996zm.1609039 2.6321716h2.0451736v9.9611359h-2.0451736z"/><path d="m117.1278229 166.2421265c0 3.1531525-1.6568909 5.1508331-4.1566467 5.1508331-1.4296875 0-2.5660553-.700592-3.1340561-1.8084717h-.0473022v4.9333954h-2.0453568v-13.2562714h1.9790573v1.7138672h.0378036c.586998-1.1456757 1.7326813-1.8747711 3.1720505-1.8747711 2.5280685 0 4.1944504 1.9883728 4.1944504 5.1414185zm-2.1019745 0c0-2.0829773-1.013092-3.418045-2.6321716-3.418045-1.5624619 0-2.6133575 1.3633881-2.6133575 3.418045 0 2.073761 1.0415802 3.418335 2.6133575 3.418335 1.6190795-.0000001 2.6321716-1.3255769 2.6321716-3.418335z"/><path d="m43.5211601 158.8928223c.5111351-.6393127.8579903-1.4977417.76651-2.374939-.74823.0372162-1.6613007.4936371-2.1899261 1.1334534-.4746475.5479126-.8947487 1.4422607-.7852325 2.2826996.8399276.0728607 1.6790771-.4198304 2.2086486-1.041214"/><path d="m44.2781258 160.0981293c-1.2197762-.0726624-2.2568817.692276-2.8393898.692276-.5828285 0-1.4748344-.6556549-2.4396133-.6379852-1.2557182.0184326-2.4208794.7284241-3.0581055 1.8576508-1.3106613 2.2590027-.3458824 5.6098938.9286652 7.4497223.6189499.9102173 1.3648911 1.9124451 2.3477821 1.8764343.9286652-.036438 1.2926636-.6013184 2.4214973-.6013184 1.1280022 0 1.4558868.6013184 2.4389381.5831146 1.0194473-.0182343 1.6567841-.910675 2.2757263-1.8217926.7100525-1.0376129 1.0007172-2.039505 1.019001-2.0944977-.0182838-.018219-1.9657822-.7653198-1.9838371-3.0055542-.0183868-1.8757629 1.5290031-2.7679901 1.6018295-2.8233185-.8738212-1.2923889-2.2391548-1.4381103-2.7124938-1.4747314"/></g></g><circle cx="399.01" cy="396.2" r="400"/><g fill="none" stroke-linecap="round" stroke-miterlimit="10" stroke-width="23.5"><g name="ring-1" transform="matrix(.20791169 -.9781476 .9781476 .20791169 -75.413717 704.294364)"><path d="m572.177279 441.897395a177.2016 177.2016 0 0 0 3.508337-18.767945" stroke="#fff"/><path d="m545.415446 501.265764a177.2016 177.2016 0 0 0 10.051191-16.23323" stroke="#fff"/><path d="m439.241007 572.802055a177.2016 177.2016 0 0 0 75.01002-37.350551" stroke="#888"/><path d="m374.167847 575.308605a177.2016 177.2016 0 0 0 19.011593 1.761683" stroke="#fff"/><path d="m231.555791 455.017774a177.2016 177.2016 0 0 0 98.11906 107.631482" stroke="#888"/><path d="m223.05574 390.45348a177.2016 177.2016 0 0 0 0 19.09304" stroke="#888"/><path d="m275.668063 273.73846a177.2016 177.2016 0 0 0 -44.112272 71.243766" stroke="#fff"/><g stroke="#888"><path d="m329.674851 237.350744a177.2016 177.2016 0 0 0 -17.091389 8.5105"/><path d="m555.466637 314.967466a177.2016 177.2016 0 0 0 -181.29879-90.276071"/><path d="m575.685616 376.87055a177.2016 177.2016 0 0 0 -3.508337-18.767945"/></g></g><g name="ring-2" transform="matrix(.08715574 -.9961947 .9961947 .08715574 -34.330176 759.815582)"><path d="m601.925067 497.198844a224.1012 224.1012 0 0 0 21.106588-75.330399" stroke="#888"/><g stroke="#fff"><path d="m522.025736 587.965602a224.1012 224.1012 0 0 0 57.174345-53.39711"/><path d="m345.917027 617.477309a224.1012 224.1012 0 0 0 137.275371-9.389893"/><path d="m240.792739 557.716188a224.1012 224.1012 0 0 0 63.912726 45.114528"/><path d="m204.145258 508.914039a224.1012 224.1012 0 0 0 9.045657 14.87495"/><path d="m176.067921 391.295288a224.1012 224.1012 0 0 0 10.652513 77.502781"/><path d="m186.720434 331.201931a224.1012 224.1012 0 0 0 -4.697007 16.763835"/><path d="m253.516172 230.400955a224.1012 224.1012 0 0 0 -49.370914 60.685006"/><path d="m362.962317 178.980639a224.1012 224.1012 0 0 0 -73.714422 26.198112"/><path d="m579.200081 265.431508a224.1012 224.1012 0 0 0 -172.602835-89.43558"/></g><path d="m608.861 318.769276a224.1012 224.1012 0 0 0 -6.935933-15.96812" stroke="#888"/><path d="m623.031655 378.131555a224.1012 224.1012 0 0 0 -2.370583-17.247272" stroke="#fff"/></g><g name="ring-3" transform="matrix(.34202014 -.93969262 .93969262 .34202014 -113.675106 635.268991)"><g stroke="#fff"><path d="m667.777198 441.675002a271.0008 271.0008 0 0 0 2.192362-18.055726"/><path d="m390.90583 670.848167a271.0008 271.0008 0 0 0 265.566443-183.30728"/><path d="m326.351881 660.801434a271.0008 271.0008 0 0 0 17.65982 4.352755"/><path d="m266.078093 635.59787a271.0008 271.0008 0 0 0 16.104975 8.452543"/><path d="m143.527727 487.540887a271.0008 271.0008 0 0 0 83.6738 121.222427"/></g><path d="m130.03044 423.619276a271.0008 271.0008 0 0 0 2.192362 18.055726" stroke="#888"/><path d="m132.222802 358.324998a271.0008 271.0008 0 0 0 -2.192362 18.055726" stroke="#fff"/><path d="m149.977401 295.45272a271.0008 271.0008 0 0 0 -6.449674 17.006393" stroke="#888"/><path d="m282.183068 155.949587a271.0008 271.0008 0 0 0 -110.252817 97.675472" stroke="#888"/><path d="m344.011701 134.845811a271.0008 271.0008 0 0 0 -17.65982 4.352755" stroke="#888"/><path d="m409.09417 129.151833a271.0008 271.0008 0 0 0 -18.18834 0" stroke="#fff"/><path d="m473.648119 139.198566a271.0008 271.0008 0 0 0 -17.65982-4.352755" stroke="#888"/><path d="m533.921907 164.40213a271.0008 271.0008 0 0 0 -16.104975-8.452543" stroke="#888"/><path d="m628.069749 253.625059a271.0008 271.0008 0 0 0 -55.271276-62.388373" stroke="#fff"/><path d="m656.472273 312.459113a271.0008 271.0008 0 0 0 -6.449674-17.006393" stroke="#fff"/><path d="m669.96956 376.380724a271.0008 271.0008 0 0 0 -2.192362-18.055726" stroke="#888"/></g><g name="ring-4" transform="matrix(.4539905 -.89100652 .89100652 .4539905 -138.98881 571.00641)"><path d="m666.488596 573.333472a317.9004 317.9004 0 0 0 38.140661-82.439688" stroke="#fff"/><path d="m507.252776 699.261602a317.9004 317.9004 0 0 0 131.055941-88.858133" stroke="#fff"/><path d="m440.412867 715.321208a317.9004 317.9004 0 0 0 21.972296-3.602175" stroke="#888"/><path d="m371.683298 716.636746a317.9004 317.9004 0 0 0 22.232956 1.205436" stroke="#fff"/><path d="m185.836876 634.93578a317.9004 317.9004 0 0 0 139.894939 74.167602" stroke="#fff"/><path d="m140.339643 583.40437a317.9004 317.9004 0 0 0 13.474573 17.725499" stroke="#fff"/><g stroke="#888"><path d="m87.329146 457.424744a317.9004 317.9004 0 0 0 29.003781 86.080154"/><path d="m92.115594 320.830202a317.9004 317.9004 0 0 0 -9.821 90.302603"/><path d="m116.332927 256.495102a317.9004 317.9004 0 0 0 -9.349088 20.207721"/><path d="m261.020074 114.088747a317.9004 317.9004 0 0 0 -120.680431 102.506883"/><path d="m325.731815 90.896618a317.9004 317.9004 0 0 0 -21.454029 5.956681"/></g><path d="m462.385163 88.280967a317.9004 317.9004 0 0 0 -90.701865-4.917713" stroke="#fff"/><path d="m527.93701 108.97975a317.9004 317.9004 0 0 0 -20.684234-8.241352" stroke="#fff"/><path d="m587.506665 143.286317a317.9004 317.9004 0 0 0 -18.429001-12.495173" stroke="#888"/><path d="m638.308717 189.596531a317.9004 317.9004 0 0 0 -15.312049-16.164733" stroke="#fff"/><path d="m704.629257 309.106216a317.9004 317.9004 0 0 0 -38.140661-82.439688" stroke="#888"/><path d="m714.639335 445.417541a317.9004 317.9004 0 0 0 0-90.835082" stroke="#fff"/></g><g name="ring-5" transform="matrix(.34202014 -.93969262 .93969262 .34202014 -113.675106 635.268991)"><path d="m746.314048 514.65435a364.8 364.8 0 0 0 17.805526-92.383843" stroke="#888"/><path d="m678.89414 635.153352a364.8 364.8 0 0 0 50.865685-79.148552" stroke="#888"/><path d="m571.518704 721.963312a364.8 364.8 0 0 0 76.638616-54.574112" stroke="#fff"/><path d="m507.48718 748.605144a364.8 364.8 0 0 0 23.515592-8.138826" stroke="#fff"/><path d="m370.224207 763.582786a364.8 364.8 0 0 0 93.9775-4.4767" stroke="#fff"/><path d="m237.227038 726.472055a364.8 364.8 0 0 0 88.909518 30.771884" stroke="#888"/><path d="m178.383315 689.767294a364.8 364.8 0 0 0 20.270073 14.434254" stroke="#fff"/><path d="m127.549396 642.589588a364.8 364.8 0 0 0 17.172066 18.009545" stroke="#fff"/><path d="m86.562552 586.644062a364.8 364.8 0 0 0 13.453415 20.933924" stroke="#888"/><path d="m56.904154 523.952734a364.8 364.8 0 0 0 9.248524 23.101696" stroke="#fff"/><path d="m35.412241 387.557899a364.8 364.8 0 0 0 8.943259 93.658045" stroke="#fff"/><path d="m66.152678 252.94557a364.8 364.8 0 0 0 -26.506545 90.272999" stroke="#fff"/><path d="m100.015967 192.422014a364.8 364.8 0 0 0 -13.453415 20.933924" stroke="#888"/><path d="m144.721462 139.400867a364.8 364.8 0 0 0 -17.172066 18.009545" stroke="#888"/><path d="m326.136556 42.756061a364.8 364.8 0 0 0 -147.753241 67.476645" stroke="#fff"/><path d="m464.201707 40.893914a364.8 364.8 0 0 0 -93.9775-4.4767" stroke="#888"/><path d="m531.002772 59.533682a364.8 364.8 0 0 0 -23.515592-8.138826" stroke="#888"/><g stroke="#fff"><path d="m593.069055 90.478789a364.8 364.8 0 0 0 -21.550351-12.442101"/><path d="m648.15732 132.6108a364.8 364.8 0 0 0 -18.806225-16.295687"/><path d="m694.276533 184.406953a364.8 364.8 0 0 0 -15.382393-19.560305"/><path d="m729.759825 243.9952a364.8 364.8 0 0 0 -11.402601-22.117962"/></g><path d="m753.324738 309.221867a364.8 364.8 0 0 0 -7.01069-23.876217" stroke="#888"/><path d="m764.119574 377.729493a364.8 364.8 0 0 0 -2.365393-24.771525" stroke="#fff"/></g></g><g fill="#fff" transform="matrix(1.874 0 0 1.874 292.285699 289.475699)"><path d="m56.9500008 40.9528084c-8.9051094 0-16.0505219 7.1454086-16.0505219 16.1038475 0 8.9051132 7.1454124 16.0505219 16.0505219 16.0505219s16.050518-7.1454086 16.050518-16.0505219c0-9.0117645-7.1454086-16.1038475-16.050518-16.1038475zm0 26.7686424c-5.8656387 0-10.6647949-4.7458305-10.6647949-10.6647949 0-5.9722939 4.7458305-10.7181244 10.6647949-10.7181244s10.6647987 4.7458305 10.6647987 10.7181244c0 5.9189491-4.7458344 10.6647949-10.6647987 10.6647949z"/><path d="m78.919487 42.1259422c-2.1862869 0-3.9992981 1.8663368-3.9992981 3.9459686 0 2.2396164 1.8130112 3.9459724 3.9992981 3.9459724 2.1329575-.0533257 3.9459686-1.7596855 3.9459686-3.9459724 0-2.1329574-1.8130111-3.9459686-3.9459686-3.9459686z"/><path d="m57.0033264 0c-31.514471 0-57.0033264 25.4888554-57.0033264 56.9500008s25.4888554 56.9500008 56.9500008 56.9500008 56.9500008-25.4888535 56.9500008-56.9500008c-.0000001-31.4078198-25.4888535-56.8966898-56.8966752-56.9500008zm36.7402191 72.733902c0 6.3455505-3.412735 9.7049713-9.8116074 9.7049713h-54.0172004c-6.4522038 0-9.8116074-3.3594055-9.8116074-9.7049713v-31.2478562c0-6.3455467 3.3594036-9.7049694 9.8116074-9.7049694h7.785305c2.3462524 0 3.0927849-.4265842 4.5325356-1.9196663l2.3462524-2.5062332c1.5463943-1.6530457 3.1461105-2.4529057 6.185585-2.4529057h12.2111893c3.0394707 0 4.6391945.79986 6.1855812 2.4529057l2.3462524 2.5062332c1.4397583 1.4930649 2.1862869 1.9196663 4.5325394 1.9196663h7.8919449c6.4522018 0 9.8116074 3.3594036 9.8116074 9.7049694v31.2478562z"/></g></svg>