<svg width="230" height="43" viewBox="0 0 230 43" fill="none" xmlns="http://www.w3.org/2000/svg">
<path d="M8.48365 14.4731C9.66833 13.8141 11.0203 13.4777 12.5088 13.4777C13.7925 13.4777 14.9772 13.7523 16.0321 14.2981C16.6637 14.6242 17.2441 15.0566 17.7528 15.5818C18.4527 16.2992 19.5827 16.4193 20.4396 15.8632C20.9859 15.5097 21.3409 14.9365 21.4126 14.2912C21.4877 13.6356 21.2658 12.9835 20.8084 12.5029C20.0982 11.765 19.2584 11.1437 18.3093 10.6529C16.6261 9.7845 14.6904 9.34515 12.5498 9.34515C10.1463 9.34515 7.96813 9.86688 6.08017 10.9C4.18879 11.9332 2.68661 13.3919 1.6146 15.2317C0.54259 17.0749 -0.000244141 19.1892 -0.000244141 21.5198C-0.000244141 23.8504 0.54259 25.9647 1.6146 27.8079C2.68661 29.6511 4.18879 31.1133 6.08017 32.1602C7.96813 33.2071 10.1429 33.7357 12.5498 33.7357C14.6904 33.7357 16.6296 33.2894 18.3093 32.4039C19.2618 31.9028 20.1051 31.2712 20.8186 30.5264C21.2727 30.0493 21.4877 29.404 21.4092 28.7518C21.3307 28.1066 20.9722 27.5368 20.4226 27.1901C19.5691 26.6478 18.4527 26.7714 17.7699 27.4819C17.2543 28.0173 16.6705 28.4532 16.0287 28.7862C14.9772 29.3285 13.7925 29.6065 12.5054 29.6065C11.0169 29.6065 9.66491 29.2736 8.48024 28.6111C7.29898 27.9521 6.36353 27.0048 5.69438 25.7863C5.02523 24.5678 4.68382 23.133 4.68382 21.5198C4.68382 19.9375 5.02523 18.5165 5.69438 17.298C6.36695 16.0795 7.30581 15.1287 8.48365 14.4731Z" fill="black"/>
<path d="M75.0258 0.166748C73.7456 0.166748 72.7043 1.21363 72.7043 2.50077V12.7361C71.7961 11.6618 70.7515 10.8655 69.5258 10.3163C68.0339 9.64355 66.6375 9.34494 65.0022 9.34494C62.7455 9.34494 60.7551 9.84606 58.9115 10.8792C57.1294 11.878 55.7467 13.2784 54.685 15.1697C53.5344 17.2188 52.9506 19.3538 52.9506 21.5196C52.9506 23.6854 53.5344 25.8307 54.685 27.8935C55.7467 29.7985 57.1294 31.2092 58.9115 32.2046C60.7517 33.2377 62.7455 33.7389 65.0022 33.7389C66.7024 33.7389 68.1397 33.4197 69.6624 32.6989C70.9119 32.1085 71.9703 31.271 72.8818 30.1452V31.2264C72.8818 32.4655 73.8821 33.4711 75.1146 33.4711C76.3471 33.4711 77.3474 32.4655 77.3474 31.2264V2.50077C77.3474 1.21363 76.3061 0.166748 75.0258 0.166748ZM69.0786 28.5869C67.8461 29.2974 66.7331 29.6029 65.3573 29.6029C63.9234 29.6029 62.7045 29.2802 61.5199 28.5903C60.4137 27.945 59.5363 27.0148 58.8364 25.7414C58.1673 24.5229 57.8259 23.1019 57.8259 21.5196C57.8259 19.9373 58.1673 18.5163 58.8364 17.2978C59.5329 16.0312 60.4103 15.1079 61.5165 14.4729C62.7045 13.7967 63.9234 13.481 65.3573 13.481C66.7331 13.481 67.8461 13.7796 69.082 14.4729C70.2018 15.1045 71.0792 16.0278 71.762 17.2943C72.4175 18.5163 72.7521 19.9373 72.7521 21.5196C72.7521 23.1019 72.4175 24.5229 71.762 25.7449C71.0758 27.0114 70.1984 27.9416 69.0786 28.5869Z" fill="black"/>
<path d="M98.1294 10.8997C96.3575 9.86659 94.3125 9.34143 92.0524 9.34143C89.7923 9.34143 87.7336 9.86658 85.9344 10.8963C84.1318 11.9294 82.6979 13.3951 81.6669 15.252C80.6392 17.1055 80.1203 19.213 80.1203 21.5127C80.1203 23.8432 80.6563 25.9645 81.7112 27.8214C82.7696 29.6783 84.2854 31.1439 86.2246 32.1771C88.157 33.2068 90.3966 33.7319 92.8888 33.7319C94.8485 33.7319 96.6477 33.399 98.2352 32.74C99.2014 32.3418 100.086 31.8235 100.864 31.1988C101.301 30.8487 101.567 30.351 101.622 29.795C101.677 29.2355 101.506 28.6932 101.141 28.2676C100.451 27.4541 99.2355 27.3202 98.3786 27.9587C96.9174 29.0467 95.1148 29.5959 93.022 29.5959C90.7858 29.5959 88.8944 28.9781 87.3956 27.7562C85.9812 26.607 85.1094 25.0817 84.8035 23.2242C84.7997 23.2011 84.8064 23.1775 84.8218 23.1598C84.8367 23.1426 84.8584 23.1327 84.8812 23.1327H102.329C103.145 23.1327 103.807 22.4703 103.807 21.6431C103.807 19.2576 103.302 17.1055 102.305 15.252C101.308 13.4019 99.9047 11.9363 98.1294 10.8997ZM99.325 19.6121C99.3469 19.6091 99.3543 19.6403 99.3334 19.6474L99.2635 19.6715C99.2608 19.6724 99.258 19.6729 99.2552 19.6729H84.8782C84.8551 19.6729 84.8332 19.6629 84.8181 19.6456C84.8029 19.6281 84.7961 19.6047 84.7995 19.5817C85.0708 17.7788 85.8438 16.2878 87.0952 15.1525C88.4164 13.9511 90.0859 13.3436 92.0524 13.3436C94.0189 13.3436 95.6849 13.958 97.0062 15.173C98.2584 16.3259 99.0324 17.8129 99.3045 19.5967C99.306 19.6066 99.3152 19.6135 99.325 19.6121Z" fill="black"/>
<path d="M135.966 9.34515C133.975 9.34515 132.156 9.73988 130.565 10.519C129.073 11.2467 127.871 12.2524 126.987 13.5086C126.215 12.2009 125.146 11.1815 123.801 10.4778C122.367 9.72615 120.701 9.34515 118.858 9.34515C117.072 9.34515 115.457 9.67123 114.054 10.3165C112.835 10.876 111.808 11.6654 110.992 12.6677V11.813C110.992 10.5739 109.992 9.56826 108.759 9.56826C107.527 9.56826 106.526 10.5739 106.526 11.813V31.23C106.526 32.4691 107.527 33.4748 108.759 33.4748H108.937C110.169 33.4748 111.169 32.4691 111.169 31.23V21.1663C111.169 18.719 111.787 16.8209 113.01 15.5234C114.228 14.2294 115.898 13.5704 117.977 13.5704C119.848 13.5704 121.302 14.1299 122.303 15.2317C123.306 16.3403 123.815 18.0222 123.815 20.2361V31.23C123.815 32.4691 124.815 33.4748 126.048 33.4748H126.225C127.458 33.4748 128.458 32.4691 128.458 31.23V21.1663C128.458 18.719 129.076 16.8209 130.298 15.5234C131.517 14.2294 133.187 13.5704 135.266 13.5704C137.137 13.5704 138.591 14.1299 139.591 15.2317C140.595 16.3403 141.104 18.0222 141.104 20.2361V31.23C141.104 32.4691 142.104 33.4748 143.337 33.4748H143.514C144.747 33.4748 145.747 32.4691 145.747 31.23V19.7453C145.747 16.3369 144.859 13.7214 143.108 11.9744C141.346 10.2307 138.946 9.34515 135.966 9.34515Z" fill="black"/>
<path d="M158.888 9.34515C156.996 9.34515 155.18 9.60944 153.494 10.1312C152.449 10.4538 151.479 10.8726 150.612 11.3703C149.663 11.9194 149.322 13.1517 149.858 14.1162C150.394 15.0875 151.626 15.4445 152.599 14.9056C153.149 14.6036 153.757 14.3358 154.412 14.1093C155.709 13.6597 157.051 13.4331 158.403 13.4331C160.397 13.4331 161.923 13.9068 162.94 14.8404C163.951 15.7706 164.463 17.1367 164.463 18.9009V19.4913C164.463 19.5187 164.442 19.5393 164.415 19.5393H157.963C154.665 19.5393 152.22 20.188 150.691 21.4718C149.151 22.7623 148.369 24.4923 148.369 26.6169C148.369 28.7415 149.189 30.4818 150.803 31.7861C152.405 33.0801 154.562 33.7357 157.215 33.7357C159.028 33.7357 160.622 33.4405 161.947 32.8535C162.918 32.4262 163.736 31.8502 164.387 31.1386C164.488 31.0282 164.681 31.0974 164.681 31.2472C164.681 32.4725 165.672 33.4679 166.89 33.4679C168.109 33.4679 169.099 32.4725 169.099 31.2472V19.0794C169.099 15.8735 168.208 13.4194 166.453 11.7924C164.705 10.1689 162.162 9.34515 158.888 9.34515ZM164.463 23.0575V24.6821C164.463 25.5836 164.33 26.5043 163.825 27.2511C163.348 27.9559 162.739 28.5391 162.001 28.9921C160.865 29.6923 159.492 30.0493 157.918 30.0493C156.351 30.0493 155.119 29.7198 154.248 29.0711C153.384 28.4258 152.964 27.5677 152.964 26.4418C152.964 24.1319 154.658 23.0129 158.14 23.0129H164.341C164.39 23.0129 164.463 23.0084 164.463 23.0575Z" fill="black"/>
<path d="M194.076 9.56454C192.857 9.56454 191.867 10.5599 191.867 11.7853C191.867 12.1408 191.412 12.3136 191.155 12.0681C190.38 11.3282 189.519 10.7635 188.518 10.3334C186.9 9.63662 185.469 9.34143 183.742 9.34143C181.543 9.34143 179.71 9.78764 177.805 10.783C176.036 11.7063 174.65 13.045 173.564 14.871C172.523 16.6249 171.994 18.65 171.994 20.8948C171.994 23.1396 172.523 25.1647 173.564 26.9187C174.654 28.7447 176.04 30.0902 177.805 31.0272C179.71 32.0398 181.543 32.4928 183.742 32.4928C185.411 32.4928 186.784 32.2148 188.34 31.5695C189.214 31.2075 189.989 30.7347 190.707 30.1205C191.058 29.8199 191.645 30.0534 191.645 30.5158C191.645 33.1038 191.007 35.0534 189.744 36.3097C188.48 37.5659 186.49 38.2009 183.824 38.2009C182.1 38.2009 180.454 37.9297 178.931 37.3909C178.368 37.1918 177.747 36.9618 176.897 36.5225C175.842 35.9767 174.599 36.2891 174.008 37.2501C173.701 37.7478 173.605 38.3348 173.742 38.9011C173.875 39.4571 174.213 39.924 174.695 40.2191C175.654 40.8026 176.538 41.0841 177.59 41.417C179.508 42.0246 181.649 42.3335 183.957 42.3335C188.02 42.3335 191.123 41.3209 193.182 39.3267C195.24 37.3291 196.285 34.2159 196.285 30.0696V11.7853C196.285 10.5634 195.295 9.56454 194.076 9.56454ZM191.734 20.8983C191.734 22.3296 191.396 23.6304 190.727 24.7597C190.01 25.9713 189.153 26.8123 188.033 27.4095C186.784 28.0754 185.643 28.3603 184.227 28.3603C182.776 28.3603 181.625 28.0754 180.375 27.4095C179.256 26.8123 178.399 25.9713 177.682 24.7597C177.013 23.6304 176.675 22.3296 176.675 20.8983C176.675 18.602 177.357 16.8446 178.764 15.53C180.28 14.1124 181.963 13.4809 184.227 13.4809C186.422 13.4809 188.016 14.0953 189.549 15.53C191 16.8858 191.734 18.6912 191.734 20.8983Z" fill="black"/>
<path d="M202.764 9.56476C201.483 9.56476 200.442 10.6116 200.442 11.8988V31.1373C200.442 32.4244 201.483 33.4713 202.764 33.4713C204.044 33.4713 205.085 32.4244 205.085 31.1373V11.8988C205.085 10.6116 204.044 9.56476 202.764 9.56476Z" fill="black"/>
<path d="M228.999 27.1901C228.146 26.6478 227.029 26.7714 226.346 27.4819C225.831 28.0173 225.247 28.4532 224.605 28.7862C223.554 29.3285 222.369 29.6065 221.082 29.6065C219.593 29.6065 218.241 29.2736 217.057 28.6111C215.876 27.9521 214.94 27.0048 214.271 25.7863C213.602 24.5678 213.26 23.133 213.26 21.5198C213.26 19.9375 213.602 18.5165 214.271 17.298C214.94 16.0829 215.876 15.1321 217.057 14.4731C218.241 13.8141 219.593 13.4777 221.082 13.4777C222.366 13.4777 223.55 13.7523 224.605 14.2981C225.237 14.6242 225.817 15.0566 226.326 15.5818C227.026 16.2992 228.156 16.4193 229.013 15.8632C229.559 15.5097 229.914 14.9365 229.986 14.2912C230.061 13.6356 229.842 12.9835 229.381 12.5029C228.671 11.765 227.831 11.1437 226.882 10.6529C225.199 9.7845 223.264 9.34515 221.123 9.34515C218.719 9.34515 216.541 9.86688 214.653 10.9C212.762 11.9332 211.26 13.3919 210.188 15.2317C209.116 17.0714 208.573 19.1892 208.573 21.5198C208.573 23.8504 209.116 25.9647 210.188 27.8079C211.26 29.6511 212.762 31.1133 214.653 32.1602C216.541 33.2071 218.716 33.7357 221.123 33.7357C223.264 33.7357 225.199 33.2894 226.882 32.4039C227.835 31.9028 228.682 31.2712 229.392 30.5264C229.846 30.0493 230.061 29.404 229.982 28.7518C229.904 28.1066 229.545 27.5368 228.999 27.1901Z" fill="black"/>
<path d="M49.6296 19.3401L42.8629 16.0039C42.7844 15.9661 42.7195 15.9009 42.6786 15.8185L39.3533 9.02241C38.9129 8.12312 38.0525 7.67005 37.1956 7.67348C36.3387 7.67691 35.4783 8.12656 35.0379 9.02584L31.7195 15.8288C31.6819 15.9078 31.6171 15.973 31.5351 16.0142L24.7753 19.3607C22.9829 20.2463 22.9864 22.8172 24.7787 23.6993L31.5454 27.0355C31.6239 27.0733 31.6888 27.1385 31.7297 27.2209L35.0584 34.017C35.4988 34.9163 36.3592 35.3694 37.2161 35.3659C38.0764 35.3659 38.9334 34.9129 39.3738 34.0136L42.6922 27.2106C42.7298 27.1317 42.7946 27.0664 42.8766 27.0253L49.6364 23.6787C51.4219 22.7931 51.4219 20.2257 49.6296 19.3401ZM44.5904 19.8207L41.4597 22.5735C40.835 23.1226 40.4014 23.8778 40.2409 24.6981L39.4352 28.7998C39.384 29.0572 39.0631 29.143 38.8924 28.9474L36.1543 25.7999C35.6081 25.1718 34.857 24.7359 34.041 24.5711L29.9612 23.7611C29.7052 23.7096 29.6198 23.3869 29.8144 23.2153L32.9485 20.4625C33.5733 19.9134 34.0069 19.1582 34.1673 18.3413L34.9731 14.2396C35.0243 13.9822 35.3452 13.8964 35.5159 14.092L38.2574 17.243C38.8036 17.8711 39.5547 18.307 40.3673 18.4683L44.447 19.2784C44.6997 19.3264 44.7884 19.6491 44.5904 19.8207Z" fill="black"/>
</svg>
