<svg xmlns="http://www.w3.org/2000/svg" width="138" height="40" fill="none"><path d="M0 10.773c1.331-.3 3.39-.474 5.249-.474 5.021 0 8.037 1.645 8.037 5.831 0 2.567-1.106 4.262-2.838 5.184l4.191 6.729c-.327.224-1.03.349-2.01.349-1.106 0-1.833-.125-2.36-.35l-3.49-5.83h-.396c-.85 0-1.984-.076-2.586-.176v6.031c-.352.2-.98.325-1.884.325-.879 0-1.532-.125-1.908-.325L0 10.773Zm3.767 2.89v5.209c.714.117 1.437.175 2.16.175 2.185 0 3.52-.77 3.52-2.713 0-1.994-1.406-2.816-3.915-2.816a10.04 10.04 0 0 0-1.765.146ZM19.49 23.26c.15 1.744 1.406 2.592 3.893 2.592 1.607 0 3.013-.35 3.915-.748.075.947-.327 2.168-.904 2.816-.83.474-2.235.872-3.968.872-4.395 0-6.73-2.516-6.73-6.554 0-4.162 2.511-6.854 6.454-6.854 3.667 0 5.35 2.243 5.35 5.533a7.634 7.634 0 0 1-.377 2.343H19.49Zm4.596-2.618c.2-1.296-.277-2.567-2.085-2.567-1.557 0-2.511.997-2.612 2.567h4.697ZM35.285 25.6c.175-1.086.418-2.16.729-3.215l1.908-6.43c.277-.1.703-.225 1.507-.225 1.03 0 1.733.2 2.185.499l-3.968 11.813c-1.33.374-3.19.499-4.973.499L28.555 16.23c.452-.3 1.155-.499 2.213-.499.753 0 1.276.124 1.507.225l2.034 6.43c.33 1.053.59 2.127.779 3.215l.197-.001ZM46.29 23.26c.151 1.744 1.406 2.592 3.893 2.592 1.608 0 3.014-.35 3.916-.748.074.947-.327 2.168-.904 2.816-.83.474-2.235.872-3.968.872-4.395 0-6.73-2.516-6.73-6.554 0-4.162 2.51-6.854 6.454-6.854 3.667 0 5.35 2.243 5.35 5.533a7.64 7.64 0 0 1-.375 2.343H46.29Zm4.596-2.618c.201-1.296-.276-2.567-2.084-2.567-1.557 0-2.512.997-2.612 2.567h4.696ZM60.755 28.093c-.327.175-.93.299-1.808.299-.88 0-1.482-.124-1.834-.3V16.207c.681-.374 1.759-.574 2.964-.574l.2 2.044h.202c.602-1.295 1.883-2.293 4.17-2.293 1.91 0 4.17.676 4.17 4.786v7.925c-.326.175-.929.299-1.808.299-.88 0-1.482-.124-1.833-.3v-7.277c0-1.295-.452-2.118-1.934-2.118-1.306 0-2.034.648-2.486 1.42l-.003 7.975ZM80.192 26.798c-.552 1.121-1.733 1.994-3.943 1.994-1.958 0-4.17-.676-4.17-4.814v-7.601c.85-.474 2.059-.748 3.641-.748v7.726c0 1.346.426 2.094 1.884 2.094 1.18 0 1.957-.498 2.41-1.072v-8.296c.352-.175.955-.299 1.834-.299.88 0 1.482.125 1.809.3v11.887c-.653.374-1.683.573-2.838.573l-.425-1.744h-.202ZM90.189 23.26c.15 1.744 1.406 2.592 3.893 2.592 1.608 0 3.014-.35 3.915-.748.075.947-.327 2.168-.904 2.816-.829.474-2.235.872-3.968.872-4.395 0-6.73-2.516-6.73-6.554 0-4.162 2.511-6.854 6.454-6.854 3.667 0 5.35 2.243 5.35 5.533a7.635 7.635 0 0 1-.377 2.343h-7.633Zm4.596-2.618c.2-1.296-.277-2.567-2.085-2.567-1.557 0-2.511.997-2.612 2.567h4.697ZM110.361 13.315c-3.542 0-5.978 1.795-5.978 6.13 0 4.336 2.412 6.057 5.802 6.057a11.51 11.51 0 0 0 4.219-.845c.05.922-.402 2.517-1.005 3.315-1.08.524-2.638.897-4.395.897-5.375 0-8.539-3.44-8.539-9.171.001-6.184 3.692-9.698 9.117-9.698 1.432 0 2.888.253 3.817.797.578.823.829 2.293.703 3.39-1.205-.573-2.31-.872-3.741-.872ZM123.311 26.996c-.553 1.098-1.733 1.795-3.466 1.795-2.213 0-4.118-1.098-4.118-3.988 0-3.04 2.212-4.211 5.123-4.211.774-.01 1.545.1 2.285.324v-.349c0-1.52-.753-2.068-2.411-2.068a8.232 8.232 0 0 0-4.019 1.044c-.301-.972-.176-2.517.402-3.34.905-.498 2.461-.822 4.32-.822 3.617 0 5.35 1.267 5.35 4.959v4.311c0 .773.351.947.851.947.381.007.757-.097 1.08-.299.1.997-.201 2.218-.653 2.916-.528.348-1.231.573-2.084.573-1.457 0-2.213-.623-2.462-1.795l-.198.003Zm-.101-3.688a4.456 4.456 0 0 0-1.658-.3c-1.456 0-2.184.599-2.184 1.546 0 .972.728 1.321 1.732 1.321.804 0 1.608-.253 2.11-.872v-1.695Z" fill="#000000"/><path d="M134.42 18.952h3.352c.152-.3.228-.929.228-1.555 0-.625-.076-1.253-.228-1.554h-3.352V12.13c-1.412.025-2.748.351-3.656 1.002v2.708h-1.436c-.328.802-.504 2.027-.504 3.109h1.941l-.049 8.808c0 .97-.17 2.211-.73 2.6-2.661 1.87-8.074.965-13.041.453-7.136-.737-13.299-1.705-14.323 2.213-.541 2.07.162 3.393.845 4.138 1.375 1.498 3.8 1.839 5.726 1.839a17.725 17.725 0 0 0 2.703-.21 1.742 1.742 0 0 0 1.132-.695c.27-.37.38-.833.306-1.285-.153-.94-1.051-1.605-1.994-1.43-1.979.366-4.772 1.182-5.844.014-.362-.395-.299-1.363 0-1.663.797-1.183 5.925-.73 11.088-.039 5.702.591 11.606 1.42 14.959-.244 1.312-.651 2.877-2.167 2.877-5.69v-8.806Z" fill="#000000"/></svg>