<svg
    class="dark:fill-white fill-black"
    width="126"
    height="20"
    viewBox="0 0 126 20"
    xmlns="http://www.w3.org/2000/svg"
>
    <path
    d="M2.92944 2.95866H7.75845C8.70441 3.14214 9.40626 3.60849 9.86398 4.35771C10.3522 5.29042 10.2607 6.28428 9.58935 7.33931C9.14688 7.87447 8.49844 8.21085 7.64401 8.34846H2.92944V2.95866ZM0 0V19.7244H3.02099V11.3989H7.78133L11.077 19.7473H14.3497L10.665 10.4126C11.0159 10.168 11.2829 9.96922 11.466 9.81632C11.6644 9.66342 11.878 9.43407 12.1068 9.12826C12.351 8.82246 12.534 8.49372 12.6561 8.14204C13.2969 6.85767 13.4114 5.4739 12.9994 3.99075C12.6485 2.92043 12.084 2.04124 11.3058 1.35318C10.4361 0.573384 9.34523 0.122322 8.03308 0H0Z"
    ></path>
    <path
    d="M21.6962 0.229354V15.0456C22.0318 16.3911 22.8863 17.6067 24.2594 18.6923C25.6631 19.5791 27.0668 20.0149 28.4705 19.9996C30.3472 19.9079 31.8424 19.3192 32.9562 18.2336C34.0853 17.3009 34.7566 16.1618 34.9702 14.8162V0.206418H31.9721V14.3805C31.6365 15.359 30.927 16.1312 29.8437 16.6969C28.5926 17.0945 27.4406 16.9951 26.3879 16.3988C25.5945 16.0777 25.0605 15.3667 24.7858 14.2658V0.229354H21.6962Z"
    ></path>
    <path
    d="M43.667 19.9767H46.6422V6.51364L53.6683 19.9767H56.8266V0.275225H53.8743V13.83L46.8482 0.275225H43.6441L43.667 19.9767Z"
    ></path>
    <path
    d="M65.5692 0.206418L68.3613 19.9537H71.4509L74.2202 7.31637L77.0123 19.9308H80.1248L82.8254 0.229354H79.8273L78.271 11.3301L75.7536 0.25229H72.6868L70.238 11.2842L68.6817 0.206418H65.5692Z"
    ></path>
    <path
    d="M98.6627 11.0548H94.6347L96.6487 5.18338L98.6627 11.0548ZM104.934 19.9767L98.2965 0.160549H95.1382L88.3639 19.9767H91.6595L93.6277 14.1052H99.6011L101.638 19.9767H104.934Z"
    ></path>
    <path
    d="M115.965 11.2383L115.919 19.8391L118.917 19.8161V11.1466L125.714 0.0458717H122.075L117.407 7.72921L112.646 0.0458717H109.122L115.965 11.2383Z"
    ></path>
</svg>