<svg width="947" height="249" viewBox="0 0 947 249" fill="none" xmlns="http://www.w3.org/2000/svg">
<path d="M83.0757 169.204V77.6814H111.113C122.586 77.6814 131.459 80.3885 137.732 85.8025C144.005 91.1735 147.142 98.7784 147.142 108.618C147.142 119.532 144.005 127.997 137.732 134.013C131.459 139.985 122.586 142.972 111.113 142.972H100.091V169.204H83.0757ZM100.091 127.309H111.113C116.742 127.309 121.082 125.763 124.132 122.669C127.226 119.575 128.773 115.257 128.773 109.714C128.773 104.472 127.226 100.433 124.132 97.5975C121.082 94.7614 116.742 93.3435 111.113 93.3435H100.091V127.309ZM160.42 169.204V77.6814H188.457C199.929 77.6814 208.802 80.3885 215.076 85.8025C221.349 91.1735 224.486 98.7784 224.486 108.618C224.486 119.532 221.349 127.997 215.076 134.013C208.802 139.985 199.929 142.972 188.457 142.972H177.435V169.204H160.42ZM177.435 127.309H188.457C194.086 127.309 198.425 125.763 201.476 122.669C204.57 119.575 206.117 115.257 206.117 109.714C206.117 104.472 204.57 100.433 201.476 97.5975C198.425 94.7614 194.086 93.3435 188.457 93.3435H177.435V127.309Z" fill="url(#paint0_linear_202:3)"/>
<path d="M269.932 165.733C277.884 158.873 279.2 148.235 273.88 133.818L266.385 114.52C261.058 100.804 262.91 89.1204 271.942 79.4664C258.762 78.4394 249.449 70.9165 244.004 56.8974L236.615 37.8715C230.88 23.8256 222.729 16.8644 212.161 16.9879L211.567 0.351947C223.608 -0.832753 233.703 0.973449 241.852 5.77045C249.978 10.5068 256.239 18.4464 260.637 29.5894L268.238 49.1613C273.172 61.1435 280.918 65.0844 291.478 60.9834L298.796 79.8264C287.994 84.0224 285.056 92.4614 289.982 105.145L297.654 124.899C305.418 146.328 299.786 164.195 280.757 178.5L269.932 165.733Z" fill="#111111"/>
<path d="M27.8961 91.6714C21.0054 99.5964 21.2219 110.313 28.5458 123.822L38.72 141.853C45.9507 154.667 45.7857 166.496 38.225 177.341C51.4167 176.475 61.7076 182.592 69.0986 195.689L79.1286 213.465C86.8106 226.548 95.8716 232.274 106.315 230.643L109.278 247.024C97.5286 249.916 87.2796 249.569 78.5286 245.985C69.8106 242.457 62.4796 235.493 56.5357 225.092L46.2176 206.806C39.6239 195.651 31.3942 192.857 21.5283 198.424L11.5941 180.818C21.6867 175.123 23.3897 166.351 16.7028 154.5L6.28874 136.045C-4.45566 115.943 -1.43236 97.4555 15.3587 80.5805L27.8961 91.6714Z" fill="#111111"/>
<path d="M201.777 212.092C202.539 211.769 203.084 211.662 203.629 211.769C204.5 211.985 204.936 212.63 205.263 212.952C205.59 213.598 206.788 214.243 207.333 214.35C207.768 214.458 208.531 213.275 209.076 212.2C209.62 211.232 209.947 209.941 209.838 209.618C209.729 209.296 208.204 208.65 207.877 208.65C207.659 208.65 207.224 208.865 206.461 208.758C205.699 208.65 204.936 207.79 204.5 207.144C203.738 206.069 202.648 205.424 201.668 204.886C200.579 204.348 199.38 204.025 198.182 203.81C196.439 203.38 194.696 203.057 192.953 203.272C191.973 203.38 190.774 203.488 189.903 203.81C189.794 203.81 189.576 204.133 189.794 204.133C190.012 204.133 190.774 204.24 190.774 204.24C190.774 204.24 189.794 204.456 189.794 204.671C189.794 204.886 189.903 204.886 190.012 204.886C190.121 204.886 192.518 204.779 193.498 204.886C194.587 205.101 195.786 205.639 196.548 206.93C197.855 209.296 197.311 211.554 196.984 212.307C195.35 215.856 182.387 237.689 181.733 239.195C181.079 240.701 180.861 241.669 182.713 242.637C184.565 243.605 185.545 243.174 186.09 242.529C186.744 241.669 197.964 213.92 201.777 212.092ZM195.676 226.611H198.291C200.034 226.611 200.361 227.472 200.361 227.794C200.47 228.655 200.034 229.73 198.291 229.73H196.657L197.964 231.881C198.727 233.172 198.4 233.817 197.964 234.247C197.311 234.893 195.894 234.893 195.132 233.495L193.607 230.913C192.518 233.279 191.428 235.861 190.121 238.872H196.875C200.143 238.872 202.866 236.183 202.866 232.957V214.135C202.757 213.92 202.539 214.028 202.431 214.135C201.777 214.888 199.925 217.469 195.676 226.611ZM179.118 239.948H178.574C174.652 239.948 171.493 236.829 171.493 232.957V214.888C171.493 211.017 174.652 207.898 178.574 207.898H194.369C194.043 207.575 192.735 207.037 191.428 207.145C190.883 207.145 189.794 207.36 189.14 206.93C188.487 206.392 188.596 206.069 187.615 206.069H177.92C173.454 206.069 169.859 209.618 169.859 214.028V233.602C169.859 238.012 173.454 241.561 177.376 241.453C178.465 241.453 178.792 240.593 179.118 239.948ZM204.065 214.781V232.957C204.065 236.829 200.906 239.948 196.984 239.948H189.685C189.685 239.948 189.031 241.668 191.101 241.668H197.637C202.104 241.668 205.699 238.119 205.699 233.71V217.9C205.808 216.394 204.5 215.426 204.065 214.781ZM172.691 214.888V232.957C172.691 236.183 175.415 238.872 178.683 238.872H179.663C179.663 238.765 180.97 236.506 183.803 231.774C184.129 231.129 184.565 230.483 185.001 229.73H177.049C176.068 229.73 175.524 229.085 175.415 228.547C175.197 227.687 175.741 226.611 176.94 226.611H180.97L186.09 217.792C186.09 217.792 184.892 215.641 184.565 215.103C184.129 214.35 184.347 213.598 184.783 213.167C185.437 212.522 186.526 212.2 187.615 213.92L188.051 214.566L188.487 213.92C189.467 212.522 190.121 212.63 190.665 212.737C191.537 212.952 192.081 213.92 191.319 215.426L184.565 226.611H186.853C187.615 225.321 188.378 224.03 189.14 222.632C189.032 222.094 188.923 221.449 189.032 220.911C189.14 220.051 189.576 219.298 190.121 218.652L190.775 219.728C192.844 216.179 194.369 213.167 194.805 211.984C195.023 211.339 195.35 210.048 195.023 208.973H178.683C175.306 208.973 172.691 211.662 172.691 214.888ZM177.375 232.849C177.375 232.742 178.683 230.483 178.683 230.483C180.752 229.945 181.733 231.236 181.842 231.344C181.842 231.344 180.426 233.817 179.99 234.247C179.554 234.678 179.01 234.785 178.465 234.678C177.593 234.463 177.049 233.602 177.375 232.849Z" fill="#08C8C2"/>
<path d="M127.498 34.4512C127.592 34.2645 127.592 34.0778 127.685 33.8912C129.928 25.1045 124.6 14.8245 115.44 9.40276C119.46 14.8245 121.048 21.2728 119.647 27.0678C119.553 27.5345 119.367 28.0962 119.18 28.5628C118.922 28.4202 118.672 28.2644 118.43 28.0962C118.43 28.0962 109.365 22.4878 99.6466 12.6745C99.3646 12.3945 104.88 20.5245 111.048 26.9745C108.152 25.2912 99.9266 19.4045 94.7846 14.6362C95.3466 15.6645 96.1876 16.6928 97.0276 17.7212C101.328 23.2362 106.937 29.9645 113.667 35.1045C108.9 38.0045 102.263 38.1895 95.5326 35.1045C93.8496 34.3578 92.4496 33.4228 90.8596 32.3012C93.6626 36.6945 98.0566 40.7145 103.292 42.8628C109.553 45.5745 115.908 45.3878 120.488 42.8628H120.583C120.77 42.7695 120.957 42.6762 121.143 42.4895C123.387 41.3678 127.78 40.1528 130.21 44.8262C130.863 46.1345 132.078 40.0595 127.5 34.4512H127.498Z" fill="#1CD8D2"/>
<path d="M122.57 63.0714L122.531 62.2164L123.859 62.1774C124.244 62.1644 124.524 62.0564 124.699 61.8524C124.873 61.6524 124.962 61.3554 124.964 60.9624V57.9384L125.043 57.0634H125.929V60.8374C125.929 61.5744 125.757 62.1174 125.414 62.4664C125.073 62.8174 124.528 63.0064 123.781 63.0324L122.57 63.0714ZM123.832 61.2824C123.306 61.2824 122.901 61.1004 122.617 60.7354C122.336 60.3714 122.195 59.8434 122.195 59.1534C122.195 58.4534 122.336 57.9164 122.617 57.5444C122.901 57.1714 123.307 56.9854 123.836 56.9854C124.153 56.9854 124.401 57.0564 124.578 57.1964C124.757 57.3374 124.868 57.5434 124.91 57.8134H125.222L124.964 59.0794C124.964 58.6684 124.89 58.3634 124.742 58.1654C124.593 57.9644 124.373 57.8644 124.082 57.8644C123.787 57.8644 123.562 57.9754 123.406 58.1964C123.25 58.4184 123.171 58.7374 123.171 59.1534C123.171 59.5654 123.248 59.8764 123.402 60.0874C123.556 60.2984 123.782 60.4034 124.082 60.4034C124.394 60.4034 124.619 60.3044 124.757 60.1064C124.895 59.9084 124.964 59.6044 124.964 59.1924L125.246 60.4544H124.882C124.846 60.7254 124.737 60.9314 124.554 61.0714C124.372 61.2124 124.131 61.2824 123.832 61.2824ZM128.367 61.2824C127.955 61.2824 127.638 61.1534 127.414 60.8954C127.19 60.6354 127.078 60.2694 127.078 59.7984V57.0634H128.043V59.6414C128.043 59.8784 128.102 60.0624 128.222 60.1924C128.342 60.3204 128.507 60.3844 128.718 60.3844C128.989 60.3844 129.192 60.2894 129.328 60.0994C129.466 59.9064 129.535 59.5844 129.535 59.1344L129.746 60.4074H129.445C129.38 60.6884 129.252 60.9054 129.062 61.0564C128.875 61.2074 128.643 61.2824 128.367 61.2824ZM129.605 61.2434L129.535 60.2514V59.5244H130.5V60.3374L131.07 60.4234V61.2044L129.605 61.2434ZM129.535 60.0324V57.0634H130.5V59.7984L129.535 60.0324ZM134.375 61.2434L134.3 60.0164L134.246 59.5564V58.6414C134.246 58.3994 134.151 58.2224 133.961 58.1104C133.77 57.9964 133.487 57.9334 133.109 57.9234L132.078 57.8954L132.156 57.0244L133.031 57.0364C133.755 57.0464 134.293 57.1954 134.644 57.4814C134.996 57.7654 135.171 58.1814 135.171 58.7274V60.3374L135.797 60.4234V61.2044L134.375 61.2434ZM132.949 61.2824C132.511 61.2824 132.171 61.1754 131.929 60.9624C131.69 60.7484 131.57 60.4464 131.57 60.0564C131.57 59.6024 131.731 59.2554 132.054 59.0134C132.377 58.7704 132.834 58.6494 133.425 58.6494C133.66 58.6494 133.866 58.6624 134.043 58.6884C134.22 58.7144 134.389 58.7554 134.55 58.8094L134.379 59.5284C134.209 59.4894 134.052 59.4674 133.906 59.4624C133.76 59.4544 133.608 59.4504 133.449 59.4504C132.834 59.4504 132.527 59.6314 132.527 59.9934C132.527 60.1524 132.58 60.2734 132.687 60.3564C132.797 60.4404 132.954 60.4814 133.16 60.4814C133.399 60.4814 133.6 60.4384 133.761 60.3524C133.923 60.2644 134.044 60.1534 134.125 60.0204C134.205 59.8854 134.246 59.7464 134.246 59.6024V59.2664L134.433 60.3294H134.101L134.238 60.2044C134.233 60.4444 134.177 60.6444 134.07 60.8064C133.966 60.9644 133.819 61.0844 133.629 61.1654C133.438 61.2434 133.212 61.2824 132.949 61.2824ZM138.05 59.4234L137.808 58.0484H138.152C138.196 57.3394 138.56 56.9854 139.242 56.9854C139.648 56.9854 139.953 57.1214 140.156 57.3914C140.359 57.6624 140.461 58.0714 140.461 58.6184H139.5C139.5 58.3504 139.454 58.1574 139.363 58.0404C139.274 57.9234 139.131 57.8644 138.933 57.8644C138.636 57.8644 138.415 58.0004 138.269 58.2704C138.123 58.5414 138.05 58.9254 138.05 59.4234ZM136.195 61.2044V60.3684H139.039V61.2044H136.195ZM137.089 61.2044V57.0634H137.894L138.05 58.2514V61.2044H137.089ZM136.351 57.8994V57.0634H137.839L137.918 57.8994H136.351ZM142.582 61.2824C142.056 61.2824 141.651 61.1004 141.367 60.7354C141.086 60.3714 140.945 59.8434 140.945 59.1534C140.945 58.4534 141.086 57.9164 141.367 57.5444C141.651 57.1714 142.057 56.9854 142.586 56.9854C142.89 56.9854 143.129 57.0564 143.3 57.1964C143.472 57.3374 143.579 57.5434 143.621 57.8134H143.957L143.714 59.0794C143.714 58.6684 143.64 58.3634 143.492 58.1654C143.343 57.9644 143.123 57.8644 142.832 57.8644C142.537 57.8644 142.312 57.9754 142.156 58.1964C142 58.4184 141.921 58.7374 141.921 59.1534C141.921 59.5654 141.998 59.8764 142.152 60.0874C142.306 60.2984 142.532 60.4034 142.832 60.4034C143.144 60.4034 143.369 60.3044 143.507 60.1064C143.645 59.9084 143.714 59.6044 143.714 59.1924L143.996 60.4544H143.632C143.596 60.7254 143.487 60.9314 143.304 61.0714C143.122 61.2124 142.881 61.2824 142.582 61.2824ZM143.839 61.2434L143.714 60.4274V55.3454H144.679V61.2044L143.839 61.2434ZM152.945 61.2824C152.44 61.2824 152.075 61.1444 151.851 60.8684C151.63 60.5924 151.519 60.1514 151.519 59.5444V55.3454H152.48V59.5054C152.48 59.6954 152.5 59.8514 152.539 59.9744C152.578 60.0934 152.652 60.1824 152.761 60.2394C152.873 60.2964 153.039 60.3254 153.257 60.3254C153.481 60.3254 153.765 60.2764 154.109 60.1774L154.218 61.1184C154.002 61.1754 153.793 61.2174 153.589 61.2434C153.389 61.2694 153.174 61.2824 152.945 61.2824ZM150.328 56.2204V55.3454H151.589V56.2204H150.328ZM157.355 61.2824C156.644 61.2824 156.095 61.0974 155.707 60.7274C155.319 60.3554 155.125 59.8214 155.125 59.1264C155.125 58.4494 155.289 57.9234 155.617 57.5484C155.948 57.1734 156.412 56.9854 157.011 56.9854C157.589 56.9854 158.036 57.1574 158.351 57.5014C158.669 57.8454 158.828 58.3434 158.828 58.9974C158.828 59.1874 158.82 59.3654 158.804 59.5324H155.82V58.8374H157.906C157.906 58.5224 157.828 58.2804 157.671 58.1104C157.515 57.9414 157.298 57.8564 157.019 57.8564C156.714 57.8564 156.477 57.9634 156.308 58.1774C156.139 58.3904 156.054 58.6944 156.054 59.0874C156.054 59.5114 156.175 59.8364 156.418 60.0594C156.66 60.2814 157.004 60.3914 157.449 60.3914C157.631 60.3914 157.81 60.3824 157.984 60.3644C158.161 60.3434 158.341 60.3164 158.523 60.2824L158.625 61.1734C158.369 61.2204 158.135 61.2504 157.921 61.2634C157.708 61.2764 157.519 61.2824 157.355 61.2824ZM162.531 61.2824C161.851 61.2824 161.36 61.1444 161.058 60.8684C160.756 60.5924 160.605 60.1514 160.605 59.5444V58.9384H161.566V59.4664C161.566 59.7864 161.647 60.0194 161.808 60.1654C161.972 60.3114 162.239 60.3844 162.609 60.3844C162.731 60.3844 162.863 60.3774 163.004 60.3644C163.144 60.3494 163.304 60.3294 163.484 60.3064L163.578 61.1884C163.403 61.2204 163.231 61.2434 163.062 61.2594C162.895 61.2744 162.718 61.2824 162.531 61.2824ZM160.605 59.2124V55.8134H161.566V59.2124H160.605ZM159.593 57.9384V57.0634H163.421V57.9384H159.593Z" fill="#7D7474" fill-opacity="0.52"/>
<path d="M49.8195 124.282C49.3143 124.282 48.9497 124.144 48.7258 123.868C48.5044 123.592 48.3938 123.151 48.3938 122.544V118.345H49.3547V122.505C49.3547 122.695 49.3742 122.851 49.4133 122.974C49.4524 123.093 49.5266 123.182 49.6359 123.239C49.7479 123.296 49.9133 123.325 50.132 123.325C50.356 123.325 50.6398 123.276 50.9836 123.177L51.093 124.118C50.8768 124.175 50.6672 124.217 50.4641 124.243C50.2635 124.269 50.0487 124.282 49.8195 124.282ZM47.2024 119.22V118.345H48.4641V119.22H47.2024ZM54.6867 124.243L54.6125 123.016L54.5578 122.556V121.642C54.5578 121.399 54.4628 121.222 54.2727 121.11C54.0826 120.996 53.7987 120.933 53.4211 120.923L52.3898 120.895L52.468 120.024L53.343 120.036C54.0669 120.046 54.6047 120.195 54.9563 120.481C55.3078 120.765 55.4836 121.181 55.4836 121.727V123.337L56.1086 123.423V124.204L54.6867 124.243ZM53.2609 124.282C52.8234 124.282 52.4836 124.175 52.2414 123.962C52.0018 123.748 51.882 123.446 51.882 123.056C51.882 122.602 52.0435 122.255 52.3664 122.013C52.6893 121.77 53.1464 121.649 53.7375 121.649C53.9719 121.649 54.1776 121.662 54.3547 121.688C54.5318 121.714 54.701 121.755 54.8625 121.809L54.6906 122.528C54.5214 122.489 54.3638 122.467 54.218 122.462C54.0721 122.454 53.9198 122.45 53.7609 122.45C53.1464 122.45 52.8391 122.631 52.8391 122.993C52.8391 123.152 52.8925 123.273 52.9992 123.356C53.1086 123.44 53.2662 123.481 53.4719 123.481C53.7115 123.481 53.912 123.438 54.0734 123.352C54.2349 123.264 54.356 123.153 54.4367 123.02C54.5175 122.885 54.5578 122.746 54.5578 122.602V122.266L54.7453 123.329H54.4133L54.55 123.204C54.5448 123.444 54.4888 123.644 54.382 123.806C54.2779 123.964 54.1307 124.084 53.9406 124.165C53.7505 124.243 53.524 124.282 53.2609 124.282ZM57.593 123.841L56.8742 123.364L59.5146 120.442L60.2026 120.903L57.593 123.841ZM56.8742 124.204V123.364H60.2806V124.204H56.8742ZM56.8742 120.903V120.063H60.2026V120.903H56.8742ZM61.1746 126.079L61.1356 125.231L61.8236 125.153C62.0786 125.122 62.2976 125.053 62.4796 124.946C62.6616 124.839 62.8186 124.681 62.9486 124.47C63.0786 124.259 63.1916 123.983 63.2886 123.642L64.2996 120.063H65.3156L64.1396 123.837C63.9836 124.334 63.8056 124.734 63.6046 125.036C63.4066 125.338 63.1706 125.565 62.8976 125.716C62.6246 125.867 62.2976 125.962 61.9176 126.001L61.1746 126.079ZM62.5886 124.204L61.0966 120.063H62.1126L63.2686 123.415H63.4326V124.204H62.5886Z" fill="#7D7474" fill-opacity="0.52"/>
<path d="M188.15 58.6924L192.027 50.7825H193.209L189.332 58.6924H188.15ZM185.738 56.5154V55.4164H195.699V56.5154H185.738ZM185.738 54.0684V52.9704H195.699V54.0684H185.738Z" fill="#7D7474" fill-opacity="0.52"/>
<path d="M211.298 59.2894V58.1954H216.279V59.2894H211.298ZM217.158 58.0684V56.9704H222.138V58.0684H217.158ZM217.158 60.5154V59.4164H222.138V60.5154H217.158Z" fill="#7D7474" fill-opacity="0.52"/>
<path d="M232.843 77.2495C232.313 77.2495 231.901 77.0895 231.608 76.7705C231.318 76.4555 231.173 76.0125 231.173 75.4425C231.173 75.1925 231.208 74.9445 231.276 74.7005C231.344 74.4565 231.379 74.2025 231.379 73.9385C231.379 73.7795 231.313 73.6525 231.183 73.5585C231.056 73.4605 230.887 73.3905 230.675 73.3485C230.467 73.3025 230.246 73.2795 230.011 73.2795V72.2345C230.184 72.2345 230.352 72.2185 230.514 72.1855C230.677 72.1535 230.824 72.1065 230.954 72.0445C231.084 71.9825 231.186 71.9045 231.261 71.8095C231.339 71.7155 231.379 71.6085 231.379 71.4875C231.379 71.2145 231.344 70.9585 231.276 70.7215C231.208 70.4805 231.173 70.2345 231.173 69.9835C231.173 69.4335 231.318 69.0105 231.608 68.7145C231.901 68.4145 232.313 68.2655 232.843 68.2655C233.048 68.2655 233.218 68.2745 233.351 68.2945C233.485 68.3105 233.608 68.3335 233.722 68.3625L233.605 69.4075C233.504 69.3915 233.407 69.3795 233.312 69.3735C233.221 69.3635 233.135 69.3585 233.053 69.3585C232.832 69.3585 232.663 69.4325 232.546 69.5785C232.432 69.7215 232.375 69.9265 232.375 70.1935C232.375 70.4375 232.412 70.6725 232.487 70.8965C232.562 71.1215 232.599 71.3575 232.599 71.6045C232.599 71.9365 232.487 72.1955 232.262 72.3815C232.038 72.5635 231.724 72.6575 231.32 72.6645V72.8505C231.724 72.8565 232.038 72.9465 232.262 73.1185C232.487 73.2915 232.599 73.5255 232.599 73.8215C232.599 74.0785 232.562 74.3195 232.487 74.5445C232.412 74.7685 232.375 74.9985 232.375 75.2325C232.375 75.5255 232.432 75.7535 232.546 75.9165C232.663 76.0755 232.832 76.1555 233.053 76.1555C233.135 76.1555 233.221 76.1505 233.312 76.1415C233.407 76.1315 233.504 76.1195 233.605 76.1065L233.722 77.1515C233.608 77.1815 233.485 77.2035 233.351 77.2205C233.218 77.2395 233.048 77.2495 232.843 77.2495ZM236.603 77.2495C236.405 77.2495 236.237 77.2395 236.1 77.2205C235.963 77.2035 235.838 77.1815 235.724 77.1515L235.841 76.1065C235.942 76.1195 236.038 76.1315 236.13 76.1415C236.224 76.1505 236.312 76.1555 236.393 76.1555C236.615 76.1555 236.782 76.0755 236.896 75.9165C237.013 75.7535 237.072 75.5255 237.072 75.2325C237.072 74.9985 237.034 74.7685 236.96 74.5445C236.885 74.3195 236.847 74.0785 236.847 73.8215C236.847 73.5255 236.96 73.2915 237.184 73.1185C237.409 72.9465 237.723 72.8565 238.127 72.8505V72.6645C237.723 72.6575 237.409 72.5635 237.184 72.3815C236.96 72.1955 236.847 71.9365 236.847 71.6045C236.847 71.3575 236.885 71.1215 236.96 70.8965C237.034 70.6725 237.072 70.4375 237.072 70.1935C237.072 69.9265 237.013 69.7215 236.896 69.5785C236.782 69.4325 236.615 69.3585 236.393 69.3585C236.312 69.3585 236.224 69.3635 236.13 69.3735C236.038 69.3795 235.942 69.3915 235.841 69.4075L235.724 68.3625C235.838 68.3335 235.963 68.3105 236.1 68.2945C236.237 68.2745 236.405 68.2655 236.603 68.2655C237.134 68.2655 237.544 68.4145 237.834 68.7145C238.127 69.0105 238.273 69.4335 238.273 69.9835C238.273 70.2345 238.239 70.4805 238.171 70.7215C238.102 70.9585 238.068 71.2145 238.068 71.4875C238.068 71.6085 238.105 71.7155 238.18 71.8095C238.258 71.9045 238.363 71.9825 238.493 72.0445C238.623 72.1065 238.769 72.1535 238.932 72.1855C239.095 72.2185 239.263 72.2345 239.435 72.2345V73.2795C239.201 73.2795 238.978 73.3025 238.766 73.3485C238.558 73.3905 238.389 73.4605 238.258 73.5585C238.131 73.6525 238.068 73.7795 238.068 73.9385C238.068 74.2025 238.102 74.4565 238.171 74.7005C238.239 74.9445 238.273 75.1925 238.273 75.4425C238.273 76.0125 238.127 76.4555 237.834 76.7705C237.544 77.0895 237.134 77.2495 236.603 77.2495Z" fill="#7D7474" fill-opacity="0.52"/>
<path d="M56.3293 92.8414V91.6205L61.7546 90.5654V90.4774L56.3293 89.4234V88.2025L63.3796 89.9064V91.1375L56.3293 92.8414ZM56.3293 94.5795V93.4855H63.3796V94.5795H56.3293Z" fill="#7D7474" fill-opacity="0.52"/>
<path d="M150.422 147.718V137.757H151.604V147.718H150.422ZM145.833 147.718V137.757H147.014V147.718H145.833Z" fill="#7D7474" fill-opacity="0.52"/>
<path d="M125.158 160.068V158.97H129.699V160.068H125.158ZM119.738 162.515V161.416H124.279V162.515H119.738ZM119.738 160.068V158.97H124.279V160.068H119.738ZM125.158 162.515V161.416H129.699V162.515H125.158Z" fill="#7D7474" fill-opacity="0.52"/>
<path d="M145.188 205.276V200.208H146.389V205.276H145.188ZM143.347 203.289V202.19H148.23V203.289H143.347ZM149.158 202.068V200.97H154.138V202.068H149.158ZM149.158 204.515V203.416H154.138V204.515H149.158Z" fill="#7D7474" fill-opacity="0.52"/>
<path d="M104.679 211.379V210.158L108.097 208.786V208.698L104.679 207.326V206.105L109.406 208.151V209.333L104.679 211.379ZM100.226 211.379V210.158L103.595 208.786V208.698L100.226 207.326V206.105L104.904 208.151V209.333L100.226 211.379Z" fill="#7D7474" fill-opacity="0.52"/>
<path d="M129.41 224.204L126.915 221.318C126.537 220.889 126.264 220.5 126.094 220.151C125.928 219.8 125.845 219.455 125.845 219.116C125.845 218.465 126.015 217.978 126.353 217.656C126.692 217.334 127.203 217.173 127.886 217.173L127.857 218.266C127.603 218.266 127.411 218.338 127.281 218.481C127.154 218.625 127.09 218.839 127.09 219.126C127.09 219.35 127.139 219.567 127.237 219.775C127.338 219.984 127.483 220.198 127.671 220.42L130.884 224.204H129.41ZM127.115 224.302C126.506 224.302 126.015 224.141 125.64 223.818C125.269 223.493 125.084 223.061 125.084 222.524C125.084 221.974 125.25 221.523 125.582 221.172C125.914 220.817 126.382 220.594 126.988 220.503L127.525 221.343C127.131 221.414 126.827 221.541 126.612 221.724C126.397 221.903 126.29 222.121 126.29 222.378C126.29 222.625 126.376 222.825 126.548 222.978C126.721 223.131 126.949 223.208 127.232 223.208C127.815 223.208 128.266 222.97 128.585 222.495C128.904 222.016 129.063 221.339 129.063 220.464H130.24C130.24 221.684 129.966 222.63 129.42 223.301C128.876 223.968 128.108 224.302 127.115 224.302ZM128.477 218.872C128.477 218.677 128.423 218.527 128.316 218.423C128.209 218.319 128.056 218.266 127.857 218.266L127.886 217.173C128.476 217.173 128.931 217.321 129.254 217.617C129.579 217.913 129.742 218.332 129.742 218.872H128.477ZM133.047 223.276V218.208H134.249V223.276H133.047ZM131.207 221.289V220.19H136.089V221.289H131.207Z" fill="#7D7474" fill-opacity="0.52"/>
<path d="M82.2925 65.2044L80.1095 61.7574C79.8885 61.4024 79.7175 61.0684 79.5965 60.7564C79.4765 60.4434 79.4165 60.1414 79.4165 59.8484C79.4165 59.3144 79.5675 58.9024 79.8705 58.6124C80.1765 58.3194 80.6055 58.1734 81.1595 58.1734L81.1695 59.2664C81.0035 59.2664 80.8765 59.3274 80.7885 59.4474C80.7035 59.5644 80.6615 59.7424 80.6615 59.9794C80.6615 60.2014 80.6985 60.4114 80.7735 60.6094C80.8515 60.8084 80.9555 61.0104 81.0865 61.2154L83.6205 65.2044H82.2925ZM75.5535 65.3024C74.9745 65.3024 74.5235 65.1524 74.2015 64.8524C73.8795 64.5504 73.7175 64.1234 73.7175 63.5734C73.7175 62.9944 73.8645 62.5284 74.1575 62.1774C74.4505 61.8254 74.8735 61.6004 75.4265 61.5034L75.9635 62.3434C75.6155 62.4214 75.3505 62.5564 75.1685 62.7484C74.9895 62.9404 74.8995 63.1834 74.8995 63.4754C74.8995 63.7264 74.9665 63.9204 75.0995 64.0574C75.2335 64.1904 75.4235 64.2574 75.6705 64.2574C76.1265 64.2574 76.4715 64.0214 76.7065 63.5494C76.9435 63.0734 77.0625 62.3784 77.0625 61.4644H78.1905C78.1905 62.2974 78.0795 63.0004 77.8585 63.5734C77.6405 64.1434 77.3325 64.5744 76.9355 64.8674C76.5415 65.1574 76.0815 65.3024 75.5535 65.3024ZM77.3115 65.2044L75.1295 61.7574C74.9015 61.4024 74.7285 61.0674 74.6115 60.7514C74.4945 60.4324 74.4355 60.1314 74.4355 59.8484C74.4355 59.3144 74.5875 58.9024 74.8895 58.6124C75.1955 58.3194 75.6255 58.1734 76.1785 58.1734L76.1835 59.2664C76.0205 59.2664 75.8955 59.3274 75.8075 59.4474C75.7235 59.5644 75.6805 59.7424 75.6805 59.9794C75.6805 60.2014 75.7165 60.4114 75.7885 60.6094C75.8635 60.8054 75.9685 61.0064 76.1055 61.2154L78.6395 65.2044H77.3115ZM80.5345 65.3024C79.9545 65.3024 79.5045 65.1524 79.1815 64.8524C78.8595 64.5504 78.6985 64.1234 78.6985 63.5734C78.6985 62.9944 78.8445 62.5284 79.1375 62.1774C79.4305 61.8254 79.8535 61.6004 80.4075 61.5034L80.9445 62.3434C80.5965 62.4214 80.3305 62.5564 80.1485 62.7484C79.9695 62.9404 79.8795 63.1834 79.8795 63.4754C79.8795 63.7264 79.9465 63.9204 80.0805 64.0574C80.2135 64.1904 80.4045 64.2574 80.6515 64.2574C81.1075 64.2574 81.4525 64.0194 81.6865 63.5444C81.9245 63.0694 82.0435 62.3754 82.0435 61.4644H83.1705C83.1705 62.2974 83.0615 63.0004 82.8435 63.5734C82.6295 64.1434 82.3245 64.5744 81.9305 64.8674C81.5365 65.1574 81.0715 65.3024 80.5345 65.3024ZM76.6715 59.8724C76.6715 59.6774 76.6295 59.5274 76.5455 59.4234C76.4605 59.3194 76.3395 59.2664 76.1835 59.2664L76.1785 58.1734C76.7355 58.1734 77.1665 58.3214 77.4725 58.6174C77.7825 58.9134 77.9365 59.3324 77.9365 59.8724H76.6715ZM81.6525 59.8724C81.6525 59.6774 81.6105 59.5274 81.5255 59.4234C81.4405 59.3194 81.3225 59.2664 81.1695 59.2664L81.1595 58.1734C81.7325 58.1734 82.1685 58.3194 82.4675 58.6124C82.7675 58.9024 82.9175 59.3224 82.9175 59.8724H81.6525Z" fill="#7D7474" fill-opacity="0.52"/>
<path d="M55.6262 159.249V150.225H56.8029V159.249H55.6262ZM56.7053 159.249V158.141H58.7806V159.249H56.7053ZM56.7053 151.334V150.225H58.7806V151.334H56.7053ZM62.6236 159.249V150.225H63.8096V159.249H62.6236ZM60.6556 159.249V158.141H62.7206V159.249H60.6556ZM60.6556 151.334V150.225H62.7206V151.334H60.6556Z" fill="#7D7474" fill-opacity="0.52"/>
<path d="M87.2026 188.282C87.0196 188.282 86.8656 188.218 86.7376 188.091C86.6096 187.961 86.5466 187.806 86.5466 187.626C86.5466 187.441 86.6096 187.285 86.7376 187.157C86.8656 187.03 87.0196 186.966 87.2026 186.966C87.3876 186.966 87.5426 187.03 87.6676 187.157C87.7946 187.285 87.8586 187.441 87.8586 187.626C87.8586 187.806 87.7946 187.961 87.6676 188.091C87.5426 188.218 87.3876 188.282 87.2026 188.282ZM92.3386 188.282C91.6046 188.282 91.0366 188.097 90.6356 187.727C90.2376 187.355 90.0386 186.821 90.0386 186.126C90.0386 185.449 90.2236 184.923 90.5926 184.548C90.9626 184.173 91.4916 183.985 92.1786 183.985C92.5986 183.985 92.9566 184.066 93.2536 184.227C93.5526 184.386 93.7646 184.612 93.8896 184.903L93.1746 185.462C93.0606 185.277 92.9136 185.135 92.7336 185.036C92.5566 184.934 92.3616 184.884 92.1476 184.884C91.7936 184.884 91.5176 184.988 91.3196 185.196C91.1216 185.405 91.0226 185.701 91.0226 186.087C91.0226 186.509 91.1436 186.83 91.3856 187.052C91.6306 187.273 91.9796 187.384 92.4326 187.384C92.6226 187.384 92.8116 187.375 92.9996 187.356C93.1896 187.338 93.3746 187.313 93.5536 187.282L93.6556 188.165C93.4446 188.212 93.2256 188.243 92.9996 188.259C92.7726 188.274 92.5526 188.282 92.3386 188.282ZM96.5776 188.282C95.9916 188.282 95.5356 188.095 95.2106 187.72C94.8876 187.345 94.7256 186.816 94.7256 186.134C94.7256 185.449 94.8876 184.92 95.2106 184.548C95.5356 184.173 95.9916 183.985 96.5776 183.985C97.1656 183.985 97.6216 184.173 97.9446 184.548C98.2676 184.92 98.4286 185.449 98.4286 186.134C98.4286 186.816 98.2676 187.345 97.9446 187.72C97.6216 188.095 97.1656 188.282 96.5776 188.282ZM96.5776 187.384C96.8536 187.384 97.0656 187.276 97.2136 187.059C97.3626 186.841 97.4366 186.532 97.4366 186.134C97.4366 185.733 97.3616 185.424 97.2106 185.208C97.0616 184.992 96.8506 184.884 96.5776 184.884C96.3036 184.884 96.0916 184.992 95.9406 185.208C95.7926 185.424 95.7176 185.733 95.7176 186.134C95.7176 186.532 95.7926 186.841 95.9406 187.059C96.0916 187.276 96.3036 187.384 96.5776 187.384ZM102.257 188.204V185.255C102.257 184.968 102.165 184.825 101.98 184.825C101.759 184.825 101.648 184.993 101.648 185.329L101.367 184.579H101.707C101.725 184.405 101.793 184.263 101.91 184.153C102.03 184.041 102.194 183.985 102.402 183.985C102.683 183.985 102.888 184.062 103.015 184.216C103.145 184.369 103.211 184.618 103.211 184.962V188.204H102.257ZM99.3196 188.204V184.063H100.183L100.277 184.938V188.204H99.3196ZM100.894 188.204V185.177C100.894 184.942 100.8 184.825 100.613 184.825C100.389 184.825 100.277 184.993 100.277 185.329L100.035 184.579H100.32C100.367 184.183 100.587 183.985 100.98 183.985C101.188 183.985 101.351 184.059 101.468 184.208C101.588 184.356 101.648 184.582 101.648 184.884V188.204H100.894ZM104.226 190.001V184.063H105.113L105.191 184.938V190.001H104.226ZM106.324 188.282C106.024 188.282 105.783 188.212 105.601 188.071C105.419 187.931 105.31 187.725 105.273 187.454H104.91L105.191 186.192C105.191 186.604 105.26 186.908 105.398 187.106C105.539 187.304 105.764 187.403 106.074 187.403C106.373 187.403 106.6 187.298 106.754 187.087C106.907 186.876 106.984 186.565 106.984 186.153C106.984 185.737 106.906 185.418 106.75 185.196C106.593 184.975 106.368 184.864 106.074 184.864C105.782 184.864 105.562 184.964 105.414 185.165C105.265 185.363 105.191 185.668 105.191 186.079L104.933 184.813H105.246C105.29 184.543 105.401 184.337 105.578 184.196C105.755 184.056 106.002 183.985 106.32 183.985C106.849 183.985 107.254 184.171 107.535 184.544C107.819 184.916 107.961 185.453 107.961 186.153C107.961 186.843 107.819 187.371 107.535 187.735C107.254 188.1 106.85 188.282 106.324 188.282ZM111.437 188.243L111.363 187.016L111.308 186.556V185.642C111.308 185.399 111.213 185.222 111.023 185.11C110.833 184.996 110.549 184.933 110.171 184.923L109.14 184.895L109.218 184.024L110.093 184.036C110.817 184.046 111.355 184.195 111.707 184.481C112.058 184.765 112.234 185.181 112.234 185.727V187.337L112.859 187.423V188.204L111.437 188.243ZM110.011 188.282C109.574 188.282 109.234 188.175 108.992 187.962C108.752 187.748 108.632 187.446 108.632 187.056C108.632 186.602 108.794 186.255 109.117 186.013C109.44 185.77 109.897 185.649 110.488 185.649C110.722 185.649 110.928 185.662 111.105 185.688C111.282 185.714 111.451 185.755 111.613 185.809L111.441 186.528C111.272 186.489 111.114 186.467 110.968 186.462C110.823 186.454 110.67 186.45 110.511 186.45C109.897 186.45 109.589 186.631 109.589 186.993C109.589 187.152 109.643 187.273 109.75 187.356C109.859 187.44 110.017 187.481 110.222 187.481C110.462 187.481 110.662 187.438 110.824 187.352C110.985 187.264 111.106 187.153 111.187 187.02C111.268 186.885 111.308 186.746 111.308 186.602V186.266L111.496 187.329H111.164L111.3 187.204C111.295 187.444 111.239 187.644 111.132 187.806C111.028 187.964 110.881 188.084 110.691 188.165C110.501 188.243 110.274 188.282 110.011 188.282ZM115.777 188.282C115.043 188.282 114.475 188.097 114.074 187.727C113.675 187.355 113.476 186.821 113.476 186.126C113.476 185.449 113.661 184.923 114.031 184.548C114.401 184.173 114.929 183.985 115.617 183.985C116.036 183.985 116.394 184.066 116.691 184.227C116.991 184.386 117.203 184.612 117.328 184.903L116.613 185.462C116.498 185.277 116.351 185.135 116.171 185.036C115.994 184.934 115.799 184.884 115.586 184.884C115.231 184.884 114.955 184.988 114.757 185.196C114.56 185.405 114.461 185.701 114.461 186.087C114.461 186.509 114.582 186.83 114.824 187.052C115.069 187.273 115.418 187.384 115.871 187.384C116.061 187.384 116.25 187.375 116.437 187.356C116.627 187.338 116.812 187.313 116.992 187.282L117.093 188.165C116.882 188.212 116.664 188.243 116.437 188.259C116.211 188.274 115.991 188.282 115.777 188.282ZM120.843 188.282C120.164 188.282 119.673 188.144 119.371 187.868C119.069 187.592 118.918 187.151 118.918 186.544V185.938H119.879V186.466C119.879 186.786 119.959 187.019 120.121 187.165C120.285 187.311 120.552 187.384 120.921 187.384C121.044 187.384 121.175 187.377 121.316 187.364C121.457 187.349 121.617 187.329 121.797 187.306L121.89 188.188C121.716 188.22 121.544 188.243 121.375 188.259C121.208 188.274 121.031 188.282 120.843 188.282ZM118.918 186.212V182.813H119.879V186.212H118.918ZM117.906 184.938V184.063H121.734V184.938H117.906ZM124.57 186.134L124.687 185.099H124.734L125.218 182.657H125.785L125.824 183.642H125.586L125.062 186.134H124.57ZM122.82 188.204V182.657H123.707V188.204H122.82ZM124.343 186.134L123.82 183.642H123.582L123.621 182.657H124.187L124.671 185.099H124.703L124.8 186.134H124.343ZM125.699 188.204V182.657H126.586V188.204H125.699ZM130.187 188.243L130.113 187.016L130.058 186.556V185.642C130.058 185.399 129.963 185.222 129.773 185.11C129.583 184.996 129.299 184.933 128.921 184.923L127.89 184.895L127.968 184.024L128.843 184.036C129.567 184.046 130.105 184.195 130.457 184.481C130.808 184.765 130.984 185.181 130.984 185.727V187.337L131.609 187.423V188.204L130.187 188.243ZM128.761 188.282C128.324 188.282 127.984 188.175 127.742 187.962C127.502 187.748 127.382 187.446 127.382 187.056C127.382 186.602 127.544 186.255 127.867 186.013C128.19 185.77 128.647 185.649 129.238 185.649C129.472 185.649 129.678 185.662 129.855 185.688C130.032 185.714 130.201 185.755 130.363 185.809L130.191 186.528C130.022 186.489 129.864 186.467 129.718 186.462C129.573 186.454 129.42 186.45 129.261 186.45C128.647 186.45 128.339 186.631 128.339 186.993C128.339 187.152 128.393 187.273 128.5 187.356C128.609 187.44 128.767 187.481 128.972 187.481C129.212 187.481 129.412 187.438 129.574 187.352C129.735 187.264 129.856 187.153 129.937 187.02C130.018 186.885 130.058 186.746 130.058 186.602V186.266L130.246 187.329H129.914L130.05 187.204C130.045 187.444 129.989 187.644 129.882 187.806C129.778 187.964 129.631 188.084 129.441 188.165C129.251 188.243 129.024 188.282 128.761 188.282ZM132.351 190.001V184.063H133.238L133.316 184.938V190.001H132.351ZM134.449 188.282C134.149 188.282 133.908 188.212 133.726 188.071C133.544 187.931 133.435 187.725 133.398 187.454H133.035L133.316 186.192C133.316 186.604 133.385 186.908 133.523 187.106C133.664 187.304 133.889 187.403 134.199 187.403C134.498 187.403 134.725 187.298 134.879 187.087C135.032 186.876 135.109 186.565 135.109 186.153C135.109 185.737 135.031 185.418 134.875 185.196C134.718 184.975 134.493 184.864 134.199 184.864C133.907 184.864 133.687 184.964 133.539 185.165C133.39 185.363 133.316 185.668 133.316 186.079L133.058 184.813H133.371C133.415 184.543 133.526 184.337 133.703 184.196C133.88 184.056 134.127 183.985 134.445 183.985C134.974 183.985 135.379 184.171 135.66 184.544C135.944 184.916 136.086 185.453 136.086 186.153C136.086 186.843 135.944 187.371 135.66 187.735C135.379 188.1 134.975 188.282 134.449 188.282ZM144.297 189.04C143.872 189.04 143.543 188.912 143.308 188.657C143.076 188.405 142.961 188.05 142.961 187.595C142.961 187.394 142.988 187.196 143.043 187.001C143.097 186.806 143.125 186.602 143.125 186.392C143.125 186.264 143.073 186.162 142.968 186.087C142.867 186.009 142.731 185.953 142.562 185.919C142.395 185.882 142.218 185.864 142.031 185.864V185.028C142.169 185.028 142.303 185.015 142.433 184.989C142.563 184.963 142.681 184.925 142.785 184.876C142.889 184.826 142.971 184.764 143.031 184.688C143.093 184.613 143.125 184.527 143.125 184.431C143.125 184.212 143.097 184.007 143.043 183.817C142.988 183.625 142.961 183.428 142.961 183.227C142.961 182.787 143.076 182.449 143.308 182.212C143.543 181.972 143.872 181.852 144.297 181.852C144.461 181.852 144.596 181.86 144.703 181.876C144.81 181.889 144.908 181.907 145 181.931L144.906 182.766C144.825 182.753 144.747 182.744 144.671 182.739C144.599 182.731 144.53 182.727 144.464 182.727C144.287 182.727 144.152 182.786 144.058 182.903C143.967 183.018 143.921 183.182 143.921 183.395C143.921 183.591 143.951 183.778 144.011 183.958C144.071 184.138 144.101 184.326 144.101 184.524C144.101 184.79 144.011 184.997 143.832 185.145C143.652 185.291 143.401 185.367 143.078 185.372V185.52C143.401 185.526 143.652 185.597 143.832 185.735C144.011 185.873 144.101 186.061 144.101 186.298C144.101 186.503 144.071 186.696 144.011 186.876C143.951 187.056 143.921 187.239 143.921 187.427C143.921 187.661 143.967 187.843 144.058 187.974C144.152 188.101 144.287 188.165 144.464 188.165C144.53 188.165 144.599 188.161 144.671 188.153C144.747 188.145 144.825 188.136 144.906 188.126L145 188.962C144.908 188.985 144.81 189.003 144.703 189.016C144.596 189.032 144.461 189.04 144.297 189.04ZM152.476 189.454V181.407H153.285V189.454H152.476ZM152.636 188.282C152.321 188.282 152.019 188.256 151.73 188.204C151.444 188.152 151.183 188.076 150.949 187.977L151.074 187.028C151.36 187.151 151.642 187.244 151.918 187.309C152.194 187.372 152.454 187.403 152.699 187.403C153.011 187.403 153.247 187.349 153.406 187.239C153.567 187.127 153.648 186.964 153.648 186.751C153.648 186.472 153.489 186.26 153.171 186.114L152.308 185.704C151.92 185.522 151.621 185.296 151.41 185.028C151.201 184.76 151.097 184.451 151.097 184.102C151.097 183.618 151.251 183.243 151.558 182.977C151.868 182.712 152.306 182.579 152.871 182.579C153.225 182.579 153.55 182.638 153.847 182.755C154.147 182.869 154.42 183.044 154.668 183.278L154.023 183.989C153.823 183.812 153.627 183.679 153.437 183.591C153.25 183.5 153.062 183.454 152.875 183.454C152.63 183.454 152.44 183.51 152.304 183.622C152.169 183.731 152.101 183.892 152.101 184.102C152.101 184.248 152.147 184.377 152.238 184.489C152.332 184.599 152.466 184.697 152.64 184.786L153.418 185.173C153.816 185.371 154.121 185.6 154.332 185.86C154.545 186.118 154.652 186.416 154.652 186.755C154.652 187.252 154.48 187.631 154.136 187.892C153.795 188.152 153.295 188.282 152.636 188.282ZM157.515 188.282C156.229 188.282 155.586 187.345 155.586 185.47C155.586 183.543 156.229 182.579 157.515 182.579C158.802 182.579 159.445 183.543 159.445 185.47C159.445 187.345 158.802 188.282 157.515 188.282ZM157.511 186.134C157.347 186.134 157.214 186.074 157.113 185.954C157.014 185.832 156.964 185.67 156.964 185.47C156.964 185.269 157.014 185.109 157.113 184.989C157.214 184.867 157.347 184.806 157.511 184.806C157.675 184.806 157.807 184.867 157.906 184.989C158.007 185.109 158.058 185.269 158.058 185.47C158.058 185.67 158.007 185.832 157.906 185.954C157.807 186.074 157.675 186.134 157.511 186.134ZM157.515 187.403C158.153 187.403 158.472 186.759 158.472 185.47C158.472 184.128 158.153 183.458 157.515 183.458C156.872 183.458 156.55 184.128 156.55 185.47C156.55 186.759 156.872 187.403 157.515 187.403ZM166.054 189.04C165.895 189.04 165.761 189.032 165.652 189.016C165.543 189.003 165.442 188.985 165.351 188.962L165.445 188.126C165.526 188.136 165.602 188.145 165.675 188.153C165.751 188.161 165.821 188.165 165.886 188.165C166.063 188.165 166.198 188.101 166.289 187.974C166.382 187.843 166.429 187.661 166.429 187.427C166.429 187.239 166.399 187.056 166.339 186.876C166.28 186.696 166.25 186.503 166.25 186.298C166.25 186.061 166.339 185.873 166.519 185.735C166.699 185.597 166.95 185.526 167.273 185.52V185.372C166.95 185.367 166.699 185.291 166.519 185.145C166.339 184.997 166.25 184.79 166.25 184.524C166.25 184.326 166.28 184.138 166.339 183.958C166.399 183.778 166.429 183.591 166.429 183.395C166.429 183.182 166.382 183.018 166.289 182.903C166.198 182.786 166.063 182.727 165.886 182.727C165.821 182.727 165.751 182.731 165.675 182.739C165.602 182.744 165.526 182.753 165.445 182.766L165.351 181.931C165.442 181.907 165.543 181.889 165.652 181.876C165.761 181.86 165.895 181.852 166.054 181.852C166.479 181.852 166.807 181.972 167.039 182.212C167.273 182.449 167.39 182.787 167.39 183.227C167.39 183.428 167.363 183.625 167.308 183.817C167.254 184.007 167.226 184.212 167.226 184.431C167.226 184.527 167.256 184.613 167.316 184.688C167.379 184.764 167.462 184.826 167.566 184.876C167.67 184.925 167.787 184.963 167.918 184.989C168.048 185.015 168.182 185.028 168.32 185.028V185.864C168.132 185.864 167.954 185.882 167.785 185.919C167.618 185.953 167.483 186.009 167.379 186.087C167.277 186.162 167.226 186.264 167.226 186.392C167.226 186.602 167.254 186.806 167.308 187.001C167.363 187.196 167.39 187.394 167.39 187.595C167.39 188.05 167.273 188.405 167.039 188.657C166.807 188.912 166.479 189.04 166.054 189.04Z" fill="#7D7474" fill-opacity="0.52"/>
<path d="M194.996 184.204V180.298H195.957V184.204H194.996ZM193.445 184.204V183.329H195.074V184.204H193.445ZM195.879 184.204V183.329H197.203V184.204H195.879ZM193.679 180.938V180.063H195.957V180.938H193.679ZM195.437 179.466C195.252 179.466 195.1 179.406 194.98 179.286C194.86 179.166 194.8 179.014 194.8 178.829C194.8 178.644 194.86 178.492 194.98 178.372C195.1 178.252 195.252 178.192 195.437 178.192C195.622 178.192 195.774 178.252 195.894 178.372C196.014 178.492 196.074 178.644 196.074 178.829C196.074 179.014 196.014 179.166 195.894 179.286C195.774 179.406 195.622 179.466 195.437 179.466ZM200.652 184.204V181.665C200.652 181.415 200.595 181.222 200.48 181.087C200.366 180.951 200.204 180.884 199.996 180.884C199.418 180.884 199.129 181.266 199.129 182.032L198.886 180.813H199.222C199.254 180.535 199.35 180.328 199.511 180.192C199.675 180.054 199.919 179.985 200.242 179.985C200.679 179.985 201.018 180.118 201.257 180.384C201.497 180.649 201.617 181.024 201.617 181.509V184.204H200.652ZM198.164 184.204V180.063H199.031L199.129 180.938V184.204H198.164ZM204.578 184.282C203.992 184.282 203.536 184.095 203.211 183.72C202.888 183.345 202.726 182.816 202.726 182.134C202.726 181.449 202.888 180.92 203.211 180.548C203.536 180.173 203.992 179.985 204.578 179.985C205.166 179.985 205.622 180.173 205.945 180.548C206.268 180.92 206.429 181.449 206.429 182.134C206.429 182.816 206.268 183.345 205.945 183.72C205.622 184.095 205.166 184.282 204.578 184.282ZM204.578 183.384C204.854 183.384 205.066 183.276 205.214 183.059C205.363 182.841 205.437 182.532 205.437 182.134C205.437 181.733 205.362 181.424 205.211 181.208C205.062 180.992 204.851 180.884 204.578 180.884C204.304 180.884 204.092 180.992 203.941 181.208C203.793 181.424 203.718 181.733 203.718 182.134C203.718 182.532 203.793 182.841 203.941 183.059C204.092 183.276 204.304 183.384 204.578 183.384ZM208.742 184.282C208.33 184.282 208.013 184.153 207.789 183.895C207.565 183.635 207.453 183.269 207.453 182.798V180.063H208.418V182.642C208.418 182.878 208.477 183.062 208.597 183.192C208.717 183.32 208.882 183.384 209.093 183.384C209.364 183.384 209.567 183.289 209.703 183.099C209.841 182.906 209.91 182.584 209.91 182.134L210.121 183.407H209.82C209.755 183.688 209.627 183.905 209.437 184.056C209.25 184.207 209.018 184.282 208.742 184.282ZM209.98 184.243L209.91 183.251V182.524H210.875V183.337L211.445 183.423V184.204L209.98 184.243ZM209.91 183.032V180.063H210.875V182.798L209.91 183.032ZM214.781 184.282C214.101 184.282 213.61 184.144 213.308 183.868C213.006 183.592 212.855 183.151 212.855 182.544V181.938H213.816V182.466C213.816 182.786 213.897 183.019 214.058 183.165C214.222 183.311 214.489 183.384 214.859 183.384C214.981 183.384 215.113 183.377 215.254 183.364C215.394 183.349 215.554 183.329 215.734 183.306L215.828 184.188C215.653 184.22 215.481 184.243 215.312 184.259C215.145 184.274 214.968 184.282 214.781 184.282ZM212.855 182.212V178.813H213.816V182.212H212.855ZM211.843 180.938V180.063H215.671V180.938H211.843Z" fill="#7D7474" fill-opacity="0.52"/>
<path d="M174 41.2436L173.925 40.017L173.871 39.5561V38.642C173.871 38.3998 173.776 38.2226 173.586 38.1106C173.395 37.9961 173.112 37.9336 172.734 37.9231L171.703 37.8959L171.781 37.0247L172.656 37.0365C173.38 37.0469 173.918 37.1954 174.269 37.4818C174.621 37.7657 174.797 38.1811 174.797 38.7279V40.3372L175.421 40.4231V41.2045L174 41.2436ZM172.574 41.2826C172.136 41.2826 171.797 41.1757 171.554 40.9622C171.315 40.7487 171.195 40.4467 171.195 40.0561C171.195 39.6029 171.356 39.2553 171.679 39.0131C172.002 38.7709 172.459 38.6497 173.05 38.6497C173.285 38.6497 173.491 38.6628 173.668 38.6889C173.845 38.7149 174.014 38.7553 174.175 38.81L174.004 39.5287C173.834 39.4896 173.677 39.4674 173.531 39.4622C173.385 39.4544 173.233 39.4506 173.074 39.4506C172.459 39.4506 172.152 39.6316 172.152 39.9936C172.152 40.1524 172.205 40.2735 172.312 40.3568C172.421 40.4402 172.579 40.4818 172.785 40.4818C173.024 40.4818 173.225 40.4389 173.386 40.3529C173.548 40.2644 173.669 40.1537 173.75 40.0209C173.83 39.8855 173.871 39.7462 173.871 39.6029V39.267L174.058 40.3295H173.726L173.863 40.2045C173.858 40.4441 173.802 40.6446 173.695 40.8061C173.591 40.9649 173.444 41.0847 173.254 41.1654C173.063 41.2436 172.837 41.2826 172.574 41.2826ZM177.57 41.2826C177.255 41.2826 176.98 41.2722 176.746 41.2514C176.511 41.2331 176.302 41.2045 176.117 41.1654L176.23 40.2592C176.535 40.3008 176.797 40.3321 177.015 40.3529C177.234 40.3738 177.419 40.3842 177.57 40.3842C177.95 40.3842 178.225 40.3529 178.394 40.2904C178.566 40.2279 178.652 40.129 178.652 39.9936C178.652 39.9076 178.627 39.8412 178.578 39.7943C178.528 39.7475 178.45 39.7097 178.343 39.6811L177.152 39.349C176.824 39.2579 176.579 39.1329 176.418 38.974C176.259 38.8126 176.179 38.586 176.179 38.2943C176.179 37.8464 176.36 37.517 176.722 37.3061C177.087 37.0925 177.653 36.9856 178.421 36.9856C178.609 36.9856 178.794 36.9922 178.976 37.0052C179.161 37.0182 179.354 37.0378 179.554 37.0639L179.453 37.9389C179.226 37.918 179.027 37.9037 178.855 37.8959C178.686 37.8881 178.533 37.8842 178.398 37.8842C177.968 37.8842 177.656 37.9141 177.461 37.974C177.268 38.0339 177.171 38.1303 177.171 38.2631C177.171 38.3516 177.2 38.4167 177.257 38.4584C177.315 38.5001 177.403 38.5364 177.523 38.5677L178.523 38.8372C178.911 38.9362 179.198 39.0755 179.382 39.2552C179.57 39.4349 179.664 39.6798 179.664 39.9896C179.664 40.4324 179.493 40.7592 179.152 40.9701C178.813 41.1785 178.286 41.2826 177.57 41.2826ZM180.488 43.0795L180.449 42.2318L181.136 42.1537C181.392 42.1225 181.61 42.0535 181.793 41.9467C181.975 41.8399 182.131 41.6811 182.261 41.4701C182.392 41.2592 182.505 40.9831 182.601 40.642L183.613 37.0639H184.629L183.453 40.8372C183.297 41.3346 183.118 41.7344 182.918 42.0365C182.72 42.3386 182.484 42.5652 182.211 42.7162C181.937 42.8673 181.61 42.9623 181.23 43.0014L180.488 43.0795ZM181.902 41.2045L180.41 37.0639H181.425L182.582 40.4154H182.746V41.2045H181.902ZM188.027 41.2045V38.6654C188.027 38.4154 187.97 38.2226 187.855 38.0872C187.741 37.9518 187.579 37.8842 187.371 37.8842C186.793 37.8842 186.504 38.267 186.504 39.0326L186.261 37.8139H186.597C186.629 37.5352 186.725 37.3281 186.886 37.1927C187.05 37.0547 187.294 36.9856 187.617 36.9856C188.054 36.9856 188.393 37.1186 188.632 37.3842C188.872 37.6498 188.992 38.0248 188.992 38.5092V41.2045H188.027ZM185.539 41.2045V37.0639H186.406L186.504 37.9389V41.2045H185.539ZM192.402 41.2826C191.668 41.2826 191.1 41.0977 190.699 40.7279C190.3 40.3555 190.101 39.8217 190.101 39.1264C190.101 38.4493 190.286 37.9231 190.656 37.5481C191.026 37.1731 191.554 36.9856 192.242 36.9856C192.661 36.9856 193.019 37.0665 193.316 37.2279C193.616 37.3868 193.828 37.612 193.953 37.9037L193.238 38.4622C193.123 38.2773 192.976 38.1355 192.797 38.0365C192.619 37.935 192.424 37.8842 192.211 37.8842C191.856 37.8842 191.58 37.9883 191.382 38.1967C191.185 38.405 191.086 38.7018 191.086 39.0872C191.086 39.5091 191.207 39.8308 191.449 40.0521C191.694 40.2735 192.043 40.3842 192.496 40.3842C192.686 40.3842 192.875 40.3751 193.062 40.3568C193.252 40.3386 193.437 40.3139 193.617 40.2826L193.718 41.1654C193.507 41.2123 193.289 41.2436 193.062 41.2592C192.836 41.2748 192.616 41.2826 192.402 41.2826ZM202.125 41.2436L202.05 40.017L201.996 39.5561V38.642C201.996 38.3998 201.901 38.2226 201.711 38.1106C201.52 37.9961 201.237 37.9336 200.859 37.9231L199.828 37.8959L199.906 37.0247L200.781 37.0365C201.505 37.0469 202.043 37.1954 202.394 37.4818C202.746 37.7657 202.921 38.1811 202.921 38.7279V40.3372L203.547 40.4231V41.2045L202.125 41.2436ZM200.699 41.2826C200.261 41.2826 199.921 41.1757 199.679 40.9622C199.44 40.7487 199.32 40.4467 199.32 40.0561C199.32 39.6029 199.481 39.2553 199.804 39.0131C200.127 38.7709 200.584 38.6497 201.175 38.6497C201.41 38.6497 201.616 38.6628 201.793 38.6889C201.97 38.7149 202.139 38.7553 202.3 38.81L202.129 39.5287C201.959 39.4896 201.802 39.4674 201.656 39.4622C201.51 39.4544 201.358 39.4506 201.199 39.4506C200.584 39.4506 200.277 39.6316 200.277 39.9936C200.277 40.1524 200.33 40.2735 200.437 40.3568C200.547 40.4402 200.704 40.4818 200.91 40.4818C201.149 40.4818 201.35 40.4389 201.511 40.3529C201.673 40.2644 201.794 40.1537 201.875 40.0209C201.955 39.8855 201.996 39.7462 201.996 39.6029V39.267L202.183 40.3295H201.851L201.988 40.2045C201.983 40.4441 201.927 40.6446 201.82 40.8061C201.716 40.9649 201.569 41.0847 201.379 41.1654C201.188 41.2436 200.962 41.2826 200.699 41.2826ZM206.445 41.2045L206 38.017H205.937L205.597 37.0639H206.355L206.836 40.3646H206.906L207.199 37.0639H208.125L207.656 41.2045H206.445ZM204.257 41.2045L203.906 37.0639H204.836L205.047 40.3646H205.117L205.597 37.0639H206.355L206.007 38.017H205.953L205.507 41.2045H204.257ZM211.5 41.2436L211.425 40.017L211.371 39.5561V38.642C211.371 38.3998 211.276 38.2226 211.086 38.1106C210.895 37.9961 210.612 37.9336 210.234 37.9231L209.203 37.8959L209.281 37.0247L210.156 37.0365C210.88 37.0469 211.418 37.1954 211.769 37.4818C212.121 37.7657 212.297 38.1811 212.297 38.7279V40.3372L212.921 40.4231V41.2045L211.5 41.2436ZM210.074 41.2826C209.636 41.2826 209.297 41.1757 209.054 40.9622C208.815 40.7487 208.695 40.4467 208.695 40.0561C208.695 39.6029 208.856 39.2553 209.179 39.0131C209.502 38.7709 209.959 38.6497 210.55 38.6497C210.785 38.6497 210.991 38.6628 211.168 38.6889C211.345 38.7149 211.514 38.7553 211.675 38.81L211.504 39.5287C211.334 39.4896 211.177 39.4674 211.031 39.4622C210.885 39.4544 210.733 39.4506 210.574 39.4506C209.959 39.4506 209.652 39.6316 209.652 39.9936C209.652 40.1524 209.705 40.2735 209.812 40.3568C209.921 40.4402 210.079 40.4818 210.285 40.4818C210.524 40.4818 210.725 40.4389 210.886 40.3529C211.048 40.2644 211.169 40.1537 211.25 40.0209C211.33 39.8855 211.371 39.7462 211.371 39.6029V39.267L211.558 40.3295H211.226L211.363 40.2045C211.358 40.4441 211.302 40.6446 211.195 40.8061C211.091 40.9649 210.944 41.0847 210.754 41.1654C210.563 41.2436 210.337 41.2826 210.074 41.2826ZM215.183 41.2045V37.2981H216.144V41.2045H215.183ZM213.632 41.2045V40.3295H215.261V41.2045H213.632ZM216.066 41.2045V40.3295H217.39V41.2045H216.066ZM213.867 37.9389V37.0639H216.144V37.9389H213.867ZM215.625 36.4662C215.44 36.4662 215.287 36.4063 215.168 36.2865C215.048 36.1667 214.988 36.0144 214.988 35.8295C214.988 35.6446 215.048 35.4923 215.168 35.3725C215.287 35.2527 215.44 35.1927 215.625 35.1927C215.81 35.1927 215.962 35.2527 216.082 35.3725C216.201 35.4923 216.261 35.6446 216.261 35.8295C216.261 36.0144 216.201 36.1667 216.082 36.2865C215.962 36.4063 215.81 36.4662 215.625 36.4662ZM220.906 41.2826C220.226 41.2826 219.735 41.1446 219.433 40.8686C219.131 40.5925 218.98 40.1511 218.98 39.5443V38.9389H219.941V39.4662C219.941 39.7865 220.022 40.0196 220.183 40.1654C220.347 40.3113 220.614 40.3842 220.984 40.3842C221.106 40.3842 221.238 40.3777 221.379 40.3646C221.519 40.349 221.679 40.3295 221.859 40.3061L221.953 41.1889C221.778 41.2201 221.606 41.2436 221.437 41.2592C221.27 41.2748 221.093 41.2826 220.906 41.2826ZM218.98 39.2122V35.8139H219.941V39.2122H218.98ZM217.968 37.9389V37.0639H221.797V37.9389H217.968Z" fill="#7D7474" fill-opacity="0.52"/>
<path d="M246.011 180.163L242.274 179.539C240.861 179.302 240.266 178.518 240.489 177.185C240.54 176.879 240.615 176.588 240.714 176.312L241.562 176.548C241.513 176.714 241.474 176.861 241.445 176.988C241.416 177.115 241.391 177.238 241.371 177.356C241.257 178.042 241.598 178.451 242.394 178.584L246.17 179.215L246.011 180.163ZM243.389 181.02L242.564 180.882L243.208 177.029L244.033 177.167L243.389 181.02ZM246.888 174.916L243.035 174.272L243.194 173.324L247.047 173.968L246.888 174.916ZM246.633 176.445L245.77 176.301L246.038 174.694L246.901 174.839L246.633 176.445ZM247.034 174.045L246.171 173.901L246.389 172.595L247.252 172.739L247.034 174.045ZM243.45 175.676L242.587 175.531L242.963 173.285L243.826 173.43L243.45 175.676ZM242.288 173.699C242.257 173.882 242.173 174.022 242.035 174.12C241.897 174.219 241.737 174.253 241.555 174.222C241.372 174.192 241.232 174.108 241.133 173.97C241.035 173.832 241.001 173.672 241.032 173.489C241.062 173.307 241.146 173.167 241.284 173.068C241.422 172.97 241.582 172.936 241.764 172.966C241.947 172.997 242.087 173.081 242.186 173.219C242.284 173.357 242.318 173.517 242.288 173.699ZM247.874 169.492C247.791 169.991 247.594 170.327 247.285 170.503C246.976 170.676 246.523 170.712 245.924 170.612L241.783 169.92L241.941 168.972L246.044 169.658C246.232 169.689 246.389 169.696 246.516 169.677C246.641 169.658 246.74 169.6 246.815 169.501C246.89 169.4 246.945 169.242 246.981 169.026C247.018 168.805 247.016 168.517 246.975 168.162L247.922 168.209C247.943 168.432 247.949 168.645 247.942 168.85C247.934 169.052 247.912 169.266 247.874 169.492ZM242.449 171.239L241.586 171.095L241.794 169.85L242.657 169.995L242.449 171.239ZM248.601 165.142C248.484 165.844 248.211 166.355 247.782 166.677C247.351 166.998 246.792 167.102 246.106 166.987C245.439 166.875 244.947 166.627 244.631 166.241C244.316 165.853 244.207 165.364 244.306 164.773C244.401 164.203 244.645 163.791 245.036 163.537C245.427 163.28 245.945 163.205 246.59 163.313C246.777 163.345 246.952 163.382 247.114 163.425L246.622 166.368L245.936 166.253L246.28 164.196C245.969 164.144 245.717 164.181 245.525 164.307C245.332 164.434 245.213 164.634 245.167 164.909C245.116 165.21 245.183 165.461 245.365 165.663C245.548 165.865 245.833 165.999 246.221 166.064C246.64 166.133 246.98 166.067 247.24 165.866C247.499 165.663 247.664 165.342 247.738 164.903C247.768 164.723 247.788 164.546 247.799 164.371C247.808 164.193 247.81 164.011 247.807 163.826L248.702 163.872C248.706 164.132 248.697 164.368 248.675 164.581C248.653 164.793 248.628 164.981 248.601 165.142ZM250.728 162.841L244.872 161.862L245.018 160.987L245.894 161.054L250.887 161.889L250.728 162.841ZM249.379 160.488C249.329 160.784 249.22 161.01 249.052 161.166C248.883 161.323 248.662 161.397 248.389 161.388L248.329 161.746L247.131 161.261C247.537 161.329 247.849 161.311 248.066 161.208C248.285 161.101 248.42 160.896 248.471 160.59C248.52 160.295 248.453 160.054 248.271 159.867C248.088 159.681 247.794 159.554 247.388 159.486C246.977 159.417 246.649 159.442 246.405 159.56C246.161 159.677 246.015 159.881 245.966 160.171C245.918 160.459 245.981 160.693 246.154 160.872C246.325 161.051 246.613 161.175 247.019 161.242L245.728 161.288L245.78 160.98C245.52 160.891 245.335 160.748 245.226 160.551C245.116 160.353 245.088 160.097 245.14 159.784C245.227 159.262 245.478 158.894 245.891 158.678C246.305 158.459 246.858 158.407 247.549 158.523C248.229 158.637 248.726 158.864 249.039 159.204C249.352 159.541 249.466 159.969 249.379 160.488ZM248.221 156.136L246.825 156.148L246.882 155.809C246.19 155.649 245.901 155.232 246.013 154.559C246.08 154.159 246.264 153.88 246.565 153.725C246.865 153.569 247.285 153.536 247.825 153.626L247.666 154.574C247.402 154.53 247.204 154.543 247.073 154.614C246.943 154.682 246.862 154.813 246.829 155.009C246.78 155.301 246.877 155.542 247.12 155.731C247.364 155.919 247.73 156.054 248.221 156.136ZM249.672 158.26L248.847 158.122L249.316 155.317L250.141 155.455L249.672 158.26ZM249.819 157.378L245.735 156.695L245.868 155.901L247.065 155.943L249.978 156.43L249.819 157.378ZM246.438 157.561L245.614 157.423L245.859 155.955L246.697 156.016L246.438 157.561ZM250.752 151.799L246.899 151.155L247.058 150.207L250.91 150.851L250.752 151.799ZM250.496 153.328L249.633 153.184L249.902 151.578L250.765 151.722L250.496 153.328ZM250.897 150.928L250.034 150.784L250.253 149.478L251.116 149.622L250.897 150.928ZM247.314 152.559L246.451 152.415L246.826 150.168L247.689 150.313L247.314 152.559ZM246.151 150.582C246.121 150.765 246.037 150.905 245.899 151.004C245.761 151.102 245.601 151.136 245.418 151.105C245.236 151.075 245.095 150.991 244.997 150.853C244.899 150.715 244.865 150.555 244.895 150.372C244.926 150.19 245.01 150.05 245.148 149.951C245.286 149.853 245.446 149.819 245.628 149.849C245.811 149.88 245.951 149.964 246.049 150.102C246.148 150.24 246.182 150.4 246.151 150.582ZM251.455 147.592L247.133 148.331L247.298 147.344L250.725 146.867L250.736 146.798L247.651 145.233L247.816 144.247L251.662 146.351L251.455 147.592ZM252.501 141.568L251.279 141.439L250.816 141.417L249.914 141.267C249.675 141.227 249.485 141.291 249.343 141.46C249.199 141.629 249.09 141.899 249.018 142.269L248.821 143.282L247.975 143.061L248.13 142.2C248.26 141.488 248.495 140.982 248.836 140.682C249.174 140.382 249.612 140.278 250.152 140.368L251.739 140.633L251.927 140.031L252.697 140.16L252.501 141.568ZM252.305 142.981C252.233 143.413 252.071 143.73 251.821 143.934C251.571 144.135 251.253 144.203 250.868 144.139C250.421 144.064 250.105 143.848 249.919 143.489C249.733 143.131 249.689 142.66 249.787 142.077C249.825 141.846 249.872 141.645 249.927 141.475C249.982 141.304 250.05 141.144 250.13 140.994L250.811 141.282C250.744 141.442 250.696 141.594 250.667 141.737C250.635 141.88 250.607 142.029 250.58 142.186C250.479 142.792 250.607 143.125 250.964 143.185C251.121 143.211 251.249 143.178 251.349 143.087C251.449 142.992 251.516 142.844 251.55 142.641C251.589 142.405 251.58 142.2 251.522 142.026C251.461 141.853 251.372 141.715 251.254 141.613C251.134 141.511 251.003 141.449 250.862 141.425L250.531 141.37L251.609 141.36L251.555 141.687L251.454 141.532C251.689 141.577 251.878 141.665 252.02 141.797C252.159 141.926 252.253 142.091 252.301 142.291C252.347 142.492 252.348 142.722 252.305 142.981ZM253.318 136.921C253.206 137.591 252.989 138.052 252.667 138.305C252.345 138.557 251.884 138.634 251.286 138.533L250.689 138.434L250.847 137.486L251.367 137.573C251.683 137.626 251.926 137.584 252.097 137.449C252.268 137.311 252.384 137.06 252.445 136.695C252.465 136.575 252.48 136.444 252.49 136.303C252.498 136.162 252.505 136.001 252.512 135.82L253.398 135.873C253.4 136.05 253.395 136.223 253.382 136.393C253.37 136.56 253.349 136.736 253.318 136.921ZM250.958 138.479L247.606 137.919L247.765 136.971L251.117 137.531L250.958 138.479ZM249.536 139.267L248.673 139.122L249.304 135.347L250.167 135.491L249.536 139.267ZM254.01 132.779C253.893 133.48 253.62 133.992 253.191 134.313C252.76 134.635 252.201 134.738 251.516 134.623C250.848 134.512 250.356 134.263 250.04 133.878C249.725 133.49 249.617 133 249.715 132.41C249.811 131.839 250.054 131.427 250.445 131.173C250.836 130.916 251.354 130.842 251.999 130.95C252.186 130.981 252.361 131.018 252.523 131.061L252.031 134.005L251.345 133.89L251.689 131.832C251.378 131.781 251.126 131.818 250.934 131.944C250.741 132.07 250.622 132.271 250.576 132.545C250.526 132.846 250.592 133.097 250.774 133.299C250.957 133.502 251.242 133.635 251.63 133.7C252.049 133.77 252.389 133.704 252.65 133.502C252.908 133.3 253.074 132.979 253.147 132.54C253.177 132.36 253.198 132.182 253.208 132.007C253.217 131.829 253.22 131.647 253.216 131.462L254.111 131.509C254.116 131.768 254.107 132.004 254.084 132.217C254.062 132.43 254.037 132.617 254.01 132.779Z" fill="#7D7474" fill-opacity="0.52"/>
<path d="M217.298 155.289V154.195H222.816V155.289H217.298ZM222.621 155.289V154.195H227.543V155.289H222.621ZM225.248 158.194L224.491 157.467L227.084 154.786V154.698L224.491 152.017L225.248 151.29L228.265 154.444V155.04L225.248 158.194Z" fill="#7D7474" fill-opacity="0.52"/>
<path d="M245.255 114.132L249.093 105.343H250.314L246.471 114.132H245.255ZM249.562 114.132L253.4 105.343H254.621L250.778 114.132H249.562Z" fill="#7D7474" fill-opacity="0.52"/>
<path d="M366.804 164.5V109.75H375.954V117.175H376.104C376.854 114.575 378.179 112.575 380.079 111.175C382.029 109.725 384.429 109 387.279 109C391.329 109 394.579 110.425 397.029 113.275C399.529 116.125 400.779 119.95 400.779 124.75V135.925C400.779 140.775 399.529 144.625 397.029 147.475C394.579 150.325 391.329 151.75 387.279 151.75C384.479 151.75 382.104 151.05 380.154 149.65C378.204 148.2 376.854 146.175 376.104 143.575H375.954L376.179 152.95V164.5H366.804ZM383.829 143.65C386.229 143.65 388.079 142.95 389.379 141.55C390.729 140.15 391.404 138.15 391.404 135.55V125.2C391.404 122.6 390.729 120.6 389.379 119.2C388.079 117.8 386.229 117.1 383.829 117.1C381.429 117.1 379.554 117.825 378.204 119.275C376.854 120.725 376.179 122.775 376.179 125.425V135.325C376.179 137.975 376.854 140.025 378.204 141.475C379.554 142.925 381.429 143.65 383.829 143.65ZM428.499 151.675C423.199 151.675 418.999 150.225 415.899 147.325C412.799 144.375 411.249 140.425 411.249 135.475V125.275C411.249 120.325 412.799 116.4 415.899 113.5C418.999 110.55 423.199 109.075 428.499 109.075C433.799 109.075 437.999 110.55 441.099 113.5C444.199 116.4 445.749 120.3 445.749 125.2V135.475C445.749 140.425 444.199 144.375 441.099 147.325C437.999 150.225 433.799 151.675 428.499 151.675ZM428.499 143.5C430.999 143.5 432.924 142.825 434.274 141.475C435.674 140.075 436.374 138.075 436.374 135.475V125.275C436.374 122.675 435.674 120.7 434.274 119.35C432.924 117.95 430.999 117.25 428.499 117.25C425.999 117.25 424.049 117.95 422.649 119.35C421.299 120.7 420.624 122.675 420.624 125.275V135.475C420.624 138.075 421.299 140.075 422.649 141.475C424.049 142.825 425.999 143.5 428.499 143.5ZM480.145 151C476.045 151 472.745 149.775 470.245 147.325C467.795 144.875 466.57 141.65 466.57 137.65V104.725H452.995V96.25H475.945V137.425C475.945 138.975 476.37 140.225 477.22 141.175C478.12 142.075 479.32 142.525 480.82 142.525H492.895V151H480.145ZM501.716 164.5V109.75H510.866V117.175H511.016C511.766 114.575 513.091 112.575 514.991 111.175C516.941 109.725 519.341 109 522.191 109C526.241 109 529.491 110.425 531.941 113.275C534.441 116.125 535.691 119.95 535.691 124.75V135.925C535.691 140.775 534.441 144.625 531.941 147.475C529.491 150.325 526.241 151.75 522.191 151.75C519.391 151.75 517.016 151.05 515.066 149.65C513.116 148.2 511.766 146.175 511.016 143.575H510.866L511.091 152.95V164.5H501.716ZM518.741 143.65C521.141 143.65 522.991 142.95 524.291 141.55C525.641 140.15 526.316 138.15 526.316 135.55V125.2C526.316 122.6 525.641 120.6 524.291 119.2C522.991 117.8 521.141 117.1 518.741 117.1C516.341 117.1 514.466 117.825 513.116 119.275C511.766 120.725 511.091 122.775 511.091 125.425V135.325C511.091 137.975 511.766 140.025 513.116 141.475C514.466 142.925 516.341 143.65 518.741 143.65ZM546.611 151V142.525H560.711V118.225H548.111V109.75H570.086V142.525H582.761V151H546.611ZM564.761 102.85C562.861 102.85 561.361 102.375 560.261 101.425C559.161 100.425 558.611 99.1 558.611 97.45C558.611 95.8 559.161 94.5 560.261 93.55C561.361 92.55 562.861 92.05 564.761 92.05C566.661 92.05 568.161 92.55 569.261 93.55C570.361 94.5 570.911 95.8 570.911 97.45C570.911 99.1 570.361 100.425 569.261 101.425C568.161 102.375 566.661 102.85 564.761 102.85ZM608.457 151.75C604.957 151.75 601.907 151.075 599.307 149.725C596.707 148.375 594.682 146.5 593.232 144.1C591.832 141.65 591.132 138.8 591.132 135.55V125.2C591.132 121.95 591.832 119.125 593.232 116.725C594.682 114.275 596.707 112.375 599.307 111.025C601.907 109.675 604.957 109 608.457 109C611.907 109 614.907 109.675 617.457 111.025C620.057 112.375 622.057 114.275 623.457 116.725C624.907 119.125 625.632 121.95 625.632 125.2V132.625H600.207V135.55C600.207 141.4 602.982 144.325 608.532 144.325C612.832 144.325 615.357 142.9 616.107 140.05H625.332C624.632 143.6 622.732 146.45 619.632 148.6C616.582 150.7 612.857 151.75 608.457 151.75ZM600.207 125.2V126.775L616.557 126.7V125.125C616.557 122.275 615.882 120.1 614.532 118.6C613.182 117.05 611.157 116.275 608.457 116.275C605.707 116.275 603.632 117.05 602.232 118.6C600.882 120.15 600.207 122.35 600.207 125.2ZM660.028 151C655.928 151 652.628 149.775 650.128 147.325C647.678 144.875 646.453 141.65 646.453 137.65V104.725H632.878V96.25H655.828V137.425C655.828 138.975 656.253 140.225 657.103 141.175C658.003 142.075 659.203 142.525 660.703 142.525H672.778V151H660.028ZM704.998 151C700.898 151 697.598 149.775 695.098 147.325C692.648 144.875 691.423 141.65 691.423 137.65V104.725H677.848V96.25H700.798V137.425C700.798 138.975 701.223 140.225 702.073 141.175C702.973 142.075 704.173 142.525 705.673 142.525H717.748V151H704.998ZM738.719 151.75C734.469 151.75 731.119 150.65 728.669 148.45C726.219 146.2 724.994 143.15 724.994 139.3C724.994 135.25 726.394 132.125 729.194 129.925C731.994 127.675 735.894 126.55 740.894 126.55H750.794V123.1C750.794 121.1 750.144 119.55 748.844 118.45C747.544 117.35 745.719 116.8 743.369 116.8C741.219 116.8 739.444 117.25 738.044 118.15C736.694 119.05 735.944 120.25 735.794 121.75H726.869C727.069 117.9 728.694 114.825 731.744 112.525C734.844 110.175 738.819 109 743.669 109C748.769 109 752.794 110.25 755.744 112.75C758.694 115.25 760.169 118.675 760.169 123.025V151H751.094V144.025H750.944C750.394 146.425 749.044 148.325 746.894 149.725C744.744 151.075 742.019 151.75 738.719 151.75ZM741.794 144.775C744.444 144.775 746.594 144.125 748.244 142.825C749.944 141.475 750.794 139.7 750.794 137.5V132.55H741.119C739.019 132.55 737.369 133.1 736.169 134.2C734.969 135.25 734.369 136.7 734.369 138.55C734.369 140.5 735.019 142.025 736.319 143.125C737.669 144.225 739.494 144.775 741.794 144.775ZM788.265 151.75C786.115 151.75 784.39 151.125 783.09 149.875C781.84 148.625 781.215 146.925 781.215 144.775C781.215 142.625 781.84 140.925 783.09 139.675C784.39 138.375 786.115 137.725 788.265 137.725C790.415 137.725 792.115 138.375 793.365 139.675C794.665 140.925 795.315 142.625 795.315 144.775C795.315 146.925 794.665 148.625 793.365 149.875C792.115 151.125 790.415 151.75 788.265 151.75Z" fill="#111111"/>
<path d="M829.486 151.75C825.486 151.75 822.236 150.325 819.736 147.475C817.236 144.625 815.986 140.8 815.986 136V124.825C815.986 119.975 817.211 116.125 819.661 113.275C822.161 110.425 825.436 109 829.486 109C832.336 109 834.736 109.725 836.686 111.175C838.636 112.575 839.986 114.575 840.736 117.175H840.886L840.586 107.8V96.25H849.961V151H840.811V143.575H840.736C839.986 146.175 838.636 148.2 836.686 149.65C834.786 151.05 832.386 151.75 829.486 151.75ZM833.011 143.65C835.411 143.65 837.261 142.925 838.561 141.475C839.911 140.025 840.586 137.975 840.586 135.325V125.425C840.586 122.775 839.911 120.725 838.561 119.275C837.261 117.825 835.411 117.1 833.011 117.1C830.611 117.1 828.736 117.8 827.386 119.2C826.036 120.6 825.361 122.6 825.361 125.2V135.55C825.361 138.15 826.036 140.15 827.386 141.55C828.736 142.95 830.611 143.65 833.011 143.65ZM878.281 151.75C874.781 151.75 871.731 151.075 869.131 149.725C866.531 148.375 864.506 146.5 863.056 144.1C861.656 141.65 860.956 138.8 860.956 135.55V125.2C860.956 121.95 861.656 119.125 863.056 116.725C864.506 114.275 866.531 112.375 869.131 111.025C871.731 109.675 874.781 109 878.281 109C881.731 109 884.731 109.675 887.281 111.025C889.881 112.375 891.881 114.275 893.281 116.725C894.731 119.125 895.456 121.95 895.456 125.2V132.625H870.031V135.55C870.031 141.4 872.806 144.325 878.356 144.325C882.656 144.325 885.181 142.9 885.931 140.05H895.156C894.456 143.6 892.556 146.45 889.456 148.6C886.406 150.7 882.681 151.75 878.281 151.75ZM870.031 125.2V126.775L886.381 126.7V125.125C886.381 122.275 885.706 120.1 884.356 118.6C883.006 117.05 880.981 116.275 878.281 116.275C875.531 116.275 873.456 117.05 872.056 118.6C870.706 120.15 870.031 122.35 870.031 125.2ZM917.252 151L903.077 109.75H912.827L921.152 134.8C921.652 136.3 922.077 137.85 922.427 139.45C922.827 141.05 923.127 142.325 923.327 143.275C923.577 142.325 923.877 141.05 924.227 139.45C924.577 137.85 924.977 136.325 925.427 134.875L933.602 109.75H943.277L929.177 151H917.252Z" fill="#08C8C2"/>
<defs>
<linearGradient id="paint0_linear_202:3" x1="83.0757" y1="123.443" x2="224.486" y2="123.443" gradientUnits="userSpaceOnUse">
<stop stop-color="#111111"/>
<stop offset="1" stop-color="#2D2E2D"/>
</linearGradient>
</defs>
</svg>
