<svg xmlns="http://www.w3.org/2000/svg" xmlns:xlink="http://www.w3.org/1999/xlink" viewBox="0 0 162.99 162.99"><defs><style>.cls-1{fill:url(#linear-gradient);}</style><linearGradient id="linear-gradient" y1="81.5" x2="162.99" y2="81.5" gradientUnits="userSpaceOnUse"><stop offset="0" stop-color="#ec0c43"/><stop offset="1" stop-color="#ff9100"/></linearGradient></defs><g id="brand_style_guide" data-name="brand style guide"><path class="cls-1" d="M155,68.68,115,49A2.33,2.33,0,0,1,113.92,48L94.22,8A14.23,14.23,0,0,0,68.68,8L49,48A2.45,2.45,0,0,1,48,49.08L8,68.77A14.23,14.23,0,0,0,8,94.31L48,114A2.35,2.35,0,0,1,49.07,115l19.7,40a14.23,14.23,0,0,0,25.54,0L114,115a2.42,2.42,0,0,1,1.09-1.08l40-19.69A14.23,14.23,0,0,0,155,68.68Zm-29.81,2.83-18.53,16.2a22.52,22.52,0,0,0-7.22,12.5L94.7,124.36a1.86,1.86,0,0,1-3.22.86l-16.2-18.53a22.49,22.49,0,0,0-12.5-7.22L38.63,94.7a1.86,1.86,0,0,1-.86-3.22L56.31,75.27a22.42,22.42,0,0,0,7.21-12.49L68.3,38.63a1.85,1.85,0,0,1,3.21-.86L87.72,56.31a22.49,22.49,0,0,0,12.49,7.21l24.15,4.78A1.85,1.85,0,0,1,125.22,71.51Z"/></g></svg>