<svg xmlns="http://www.w3.org/2000/svg" width="434" height="347" fill="none"><g stroke="#595959" opacity=".5"><rect width="407.96" height="322.55" x="25.5" y="23.5" fill="#D9D9D9" rx="9.13"/><path d="M72.643 345.997V22.447M215.333 345.997V22.447"/></g><rect width="408.96" height="323.55" x="1" y="1" fill="#fff" rx="9.63"/><path fill="#F5F5F5" d="M48.854.896h142.685V324.45H48.854z"/><circle cx="160.379" cy="34.475" r="6.529" fill="#F4AD22" stroke="#5F5F5F"/><rect width="39.188" height="10" x="88.525" y="28.98" fill="#C4C4C4" fill-opacity=".5" rx="5"/><circle cx="160.379" cy="69.974" r="6.529" fill="#95DE64" stroke="#5F5F5F"/><rect width="49.236" height="10" x="78.477" y="65.149" fill="#C4C4C4" fill-opacity=".5" rx="5"/><circle cx="160.379" cy="126.974" r="6.529" fill="#95DE64" stroke="#5F5F5F"/><rect width="51.246" height="10" x="76.468" y="121.252" fill="#C4C4C4" fill-opacity=".5" rx="5"/><circle cx="160.379" cy="162.474" r="6.529" fill="#95DE64" stroke="#5F5F5F"/><rect width="39.188" height="10" x="88.525" y="157.422" fill="#C4C4C4" fill-opacity=".5" rx="5"/><circle cx="160.379" cy="197.974" r="6.529" fill="#F4AD22" stroke="#5F5F5F"/><rect width="43.208" height="10" x="84.506" y="192.587" fill="#C4C4C4" fill-opacity=".5" rx="5"/><circle cx="160.379" cy="254.974" r="6.529" fill="#F4AD22" stroke="#5F5F5F"/><rect width="28.135" height="10" x="99.578" y="249.695" fill="#C4C4C4" fill-opacity=".5" rx="5"/><circle cx="160.379" cy="290.474" r="6.529" fill="#8C8C8C" stroke="#5F5F5F"/><rect width="39.188" height="10" x="88.525" y="284.86" fill="#C4C4C4" fill-opacity=".5" rx="5"/><path stroke="#595959" d="M160.608 41.425v22.106M160.608 134.096v22.106M160.608 169.6v22.106M160.608 262.271v22.106" opacity=".33"/><path fill="#595959" d="M.623 10.527a9.63 9.63 0 0 1 9.63-9.63h39.37V324.45h-39.37c-5.319 0-9.63-4.312-9.63-9.63V10.526Z"/><path fill="#8C8C8C" d="M11.25 20.628c0-3.37 0-5.055.657-6.342a6.017 6.017 0 0 1 2.63-2.63C15.823 11 17.508 11 20.878 11h9.744c3.37 0 5.055 0 6.342.656a6.018 6.018 0 0 1 2.63 2.63c.656 1.287.656 2.972.656 6.342v67.744c0 3.37 0 5.055-.656 6.342a6.018 6.018 0 0 1-2.63 2.63C35.678 98 33.993 98 30.623 98h-9.744c-3.37 0-5.055 0-6.343-.656a6.017 6.017 0 0 1-2.63-2.63c-.655-1.287-.655-2.972-.655-6.342V20.628Z"/><path fill="#fff" d="M30.348 55.463c-.007-1.332.596-2.336 1.815-3.076-.682-.977-1.713-1.514-3.072-1.617-1.288-.102-2.696.75-3.211.75-.545 0-1.791-.715-2.772-.715-2.023.03-4.174 1.613-4.174 4.832 0 .95.174 1.933.522 2.945.465 1.332 2.14 4.596 3.889 4.543.914-.022 1.56-.648 2.75-.648 1.154 0 1.751.648 2.771.648 1.764-.025 3.28-2.992 3.72-4.328-2.365-1.115-2.238-3.266-2.238-3.334Zm-2.052-5.957c.99-1.176.9-2.246.87-2.631-.874.05-1.886.596-2.462 1.266-.635.718-1.008 1.607-.928 2.609.945.072 1.809-.414 2.52-1.244Z"/><path fill="#595959" fill-rule="evenodd" d="M35.023 52.99 33.2 54.096c-.39.238-.583.456-.685.627-.096.162-.17.38-.168.728l-2 .012c-.006-1.12.42-2.01 1.281-2.704.163-.13.34-.255.534-.372a3.582 3.582 0 0 0-1.64-1.301 4.39 4.39 0 0 0-.756-.224 5.444 5.444 0 0 0-.676-.092c-.818-.065-1.684.255-2.34.497-.376.14-.683.253-.871.253a.946.946 0 0 1-.162-.016c-.223-.04-.518-.146-.845-.264a10.39 10.39 0 0 0-1.04-.335l-.052-.012a3.004 3.004 0 0 0-.673-.088c-2.023.031-4.174 1.613-4.174 4.832 0 .951.174 1.933.522 2.945.465 1.332 2.14 4.596 3.889 4.543.42-.01.783-.147 1.168-.293.454-.172.938-.355 1.581-.355.595 0 1.043.172 1.476.339.407.157.802.31 1.296.31 1.764-.026 3.28-2.993 3.72-4.329-2.3-1.085-2.243-3.149-2.238-3.324v-.01h2v.012c-.002.056-.009.264.099.544.1.261.327.655.993.969l1.601.755-.555 1.681a12.746 12.746 0 0 1-1.64 3.195c-.395.552-.896 1.134-1.504 1.598-.606.461-1.437.893-2.447.908H28.866c-.878 0-1.586-.275-1.978-.428l-.076-.03c-.402-.155-.54-.19-.718-.19-.219 0-.398.047-.775.188l-.101.04c-.356.137-1.036.4-1.82.42-1.077.03-1.956-.45-2.562-.922-.619-.482-1.136-1.094-1.546-1.67-.817-1.147-1.435-2.468-1.723-3.292l-.003-.009c-.41-1.195-.63-2.397-.63-3.595 0-4.314 3.03-6.784 6.143-6.832h.031c.308 0 .614.037.901.092a5.796 5.796 0 0 1 1.188-2.07c.89-1.03 2.383-1.863 3.854-1.948l1.96-.114.15 1.958a5.32 5.32 0 0 1-.316 2.356 5.598 5.598 0 0 1 2.958 2.163l1.22 1.748Zm-5.842-5.865a4.72 4.72 0 0 0-.014-.241v-.009a2.625 2.625 0 0 0-.087.007c-.7.066-1.473.434-2.037.92a4.179 4.179 0 0 0-.698.805 3.594 3.594 0 0 0-.49 1.117 3.271 3.271 0 0 0-.079 1.026l.104.006c.22.007.434-.016.644-.066.491-.117.951-.385 1.37-.767a4.377 4.377 0 0 0 .667-.765c.092-.135.17-.267.238-.396a3.268 3.268 0 0 0 .382-1.637Z" clip-rule="evenodd" opacity=".5"/><path fill="#fff" d="M21.274 84.57c0 .457.373.83.832.83h.951v2.352c0 .596.479 1.082 1.067 1.082.59 0 1.066-.485 1.066-1.082v-2.354h1.66v2.352c0 .596.479 1.082 1.067 1.082.59 0 1.066-.484 1.066-1.082v-2.352h.951a.832.832 0 0 0 .832-.83V76.85h-9.492v7.721Zm6.975-11.72.877-1.27c.05-.074.039-.174-.03-.223-.068-.047-.166-.023-.216.051l-.91 1.32a5.373 5.373 0 0 0-1.97-.367c-.7 0-1.368.131-1.968.367l-.91-1.318c-.051-.074-.149-.1-.217-.05-.068.046-.08.144-.03.222l.878 1.27c-1.395.648-2.371 1.876-2.496 3.312h9.492c-.13-1.438-1.108-2.666-2.5-3.315Zm-4.252 2.001a.525.525 0 1 1 0-1.05.525.525 0 0 1 0 1.05Zm4.07 0a.525.525 0 1 1 0-1.05.525.525 0 0 1 0 1.05Zm4.363 1.967c-.59 0-1.066.484-1.066 1.082v4.227c0 .596.479 1.082 1.066 1.082.59 0 1.067-.485 1.067-1.082v-4.229a1.07 1.07 0 0 0-1.067-1.08Zm-12.863 0c-.59 0-1.066.484-1.066 1.082v4.227c0 .596.478 1.082 1.066 1.082.59 0 1.067-.485 1.067-1.082v-4.229c0-.597-.479-1.08-1.067-1.08Z"/><path stroke="#595959" stroke-opacity=".5" stroke-width="2" d="M22.057 86.4a1.832 1.832 0 0 1-1.783-1.83v-.486c-.22.08-.457.125-.707.125a2.076 2.076 0 0 1-2.066-2.082V77.9c0-1.136.91-2.082 2.066-2.082.25 0 .487.044.707.125v-.094h.012c.186-1.356.958-2.512 2.037-3.308l-.27-.39-.008-.012-.008-.012c-.272-.42-.316-1.162.295-1.587.614-.432 1.315-.13 1.613.302l.49.71c.5-.125 1.026-.19 1.566-.19s1.065.065 1.565.19l.488-.709.002-.002c.312-.454 1.011-.716 1.606-.308l.008.005.008.005c.583.417.579 1.155.273 1.602l-.003.003-.27.392c1.079.796 1.852 1.952 2.041 3.31h.047v.077a2.07 2.07 0 0 1 2.73 1.972m-12.439 8.5 11.44-8.5m-11.44 8.5v1.353c0 1.133.913 2.082 2.067 2.082.859 0 1.582-.523 1.897-1.257a2.065 2.065 0 0 0 1.896 1.255 2.074 2.074 0 0 0 2.066-2.082v-1.352m-7.926.002 7.926-.002m4.514-8.498v.001l-1-.003m1 .002v-.002h-1m1 .002v4.227c0 1.135-.91 2.082-2.067 2.082a2.05 2.05 0 0 1-.664-.11m1.73-6.2v4.228c0 .597-.476 1.082-1.066 1.082a1.05 1.05 0 0 1-.664-.237V84.1m0 0v.47c0 .994-.796 1.803-1.783 1.829m1.783-2.299-1.783 2.299m.663-9.549c.032-.054.066-.107.103-.159l.017-.024a2.077 2.077 0 0 1 .965-.726l.014.135-1.099.774Zm0 0h-.88m.88 0h-.88m0 0h-8.414a2.145 2.145 0 0 0-.095-.148 2.08 2.08 0 0 0-.983-.758v.906h9.492Zm2.062.158-.062-.692v.534l.062.158Zm-1.062.157h.883l-.883 4.963v-4.963Zm-9.492 0V83.3v-6.136Zm1.025-5.186v.002-.002Zm1.232 2.255a.471.471 0 0 1 .048-.133 3.85 3.85 0 0 1 .407-.248h.008l.001.467v.006h-.005l-.468-.002c0-.03.003-.06.01-.09Zm-.009.093h.474v.475a.475.475 0 0 1-.474-.475Zm.475.475v-.475h.474a.475.475 0 0 1-.474.475Zm.474-.475-.47-.001h-.004v-.474a.476.476 0 0 1 .474.475Zm3.503-.466a.505.505 0 0 1 .048-.007l.043.023v.449h-.005l-.467-.002a.475.475 0 0 1 .381-.463Zm.093.465v-.447a3.956 3.956 0 0 1 .426.272l.02.015a.475.475 0 0 1 .029.16h-.474Zm0 .001h.475a.475.475 0 0 1-.475.475v-.475Zm-.001.003.001.472a.475.475 0 0 1-.474-.475h.473v.003Z"/><path fill="#595959" fill-opacity=".5" d="m29.115 71.581 1.54 1.065.005-.007-1.545-1.058Zm-.876 1.268-1.541-1.064-1.261 1.826 2.011.936.79-1.698Zm.846-1.49 1.09-1.524-.015-.01-.015-.01-1.06 1.544Zm-.216.05 1.542 1.063.004-.005-1.546-1.058Zm-.91 1.32-.686 1.742 1.384.545.845-1.225-1.542-1.063Zm-3.932 0-1.542 1.063.845 1.224 1.383-.545-.686-1.743Zm-.91-1.318-1.545 1.058.004.007 1.541-1.065Zm-.216-.05 1.06 1.544.014-.01.014-.01-1.088-1.524Zm-.03.222-1.57 1.02.015.023.015.022 1.54-1.065Zm.877 1.268.79 1.698 2.012-.936-1.261-1.826-1.541 1.064Zm-2.494 3.31-1.866-.163-.177 2.035h2.043V76.16Zm9.482 0v1.872h2.048l-.183-2.04-1.865.167Zm2.987 1.69-1.873-.006v.006h1.873Zm-10.688 7.513h1.873V83.49h-1.873v1.873Zm2.13-.002v-1.873h-1.872v1.873h1.873Zm1.66 0h1.872v-1.873h-1.873v1.873Zm2.13 0v-1.873h-1.873v1.873h1.873Zm1.781-8.54h1.873V74.95h-1.873v1.873Zm-9.482 0V74.95h-1.873v1.873h1.873Zm6.32-6.305-.876 1.268 3.082 2.129.876-1.268-3.082-2.13Zm.423 2.366c-.897-.64-.855-1.736-.428-2.36l3.091 2.116c.529-.772.547-2.066-.486-2.804l-2.177 3.048Zm2.418-.416c-.438.64-1.47 1.067-2.389.436l2.119-3.089c-1.056-.724-2.282-.25-2.822.538l3.092 2.115Zm-.913 1.324.909-1.319-3.084-2.126-.91 1.32 3.085 2.125Zm-3.509.444c.468 0 .902.087 1.28.236l1.373-3.485a7.24 7.24 0 0 0-2.653-.497v3.745Zm-1.28.236a3.494 3.494 0 0 1 1.28-.237V70.49a7.24 7.24 0 0 0-2.653.497l1.373 3.485Zm-3.137-1.996.91 1.317 3.082-2.128-.91-1.317-3.082 2.129Zm2.413.41c-.96.686-2.005.186-2.417-.416l3.091-2.115c-.514-.751-1.753-1.301-2.85-.517l2.177 3.048Zm.453-2.323c.367.565.48 1.684-.482 2.343l-2.118-3.089c-1.1.753-1.009 2.067-.54 2.788l3.14-2.042Zm.847 1.225-.876-1.268-3.082 2.129.876 1.268 3.082-2.13Zm-2.169 4.535c.057-.65.52-1.355 1.417-1.773l-1.58-3.396c-1.887.878-3.376 2.628-3.569 4.845l3.732.325Zm7.616-2.035h-9.482v3.746h9.482v-3.746Zm-3.288.26c.897.418 1.364 1.124 1.422 1.78l3.731-.334c-.198-2.216-1.687-3.964-3.572-4.842l-1.58 3.396Zm6.018 3.306a.8.8 0 0 1-.808.792l-.21-3.746c-1.65 0-2.728 1.35-2.728 2.954h3.746Zm0 4.222v-4.222H29.72v4.222h3.746Zm-.808-.792c.474 0 .808.38.808.792H29.72c0 1.603 1.08 2.954 2.728 2.954l.21-3.746Zm-.808.792a.8.8 0 0 1 .808-.792l-.21 3.746c1.65 0 2.934-1.35 2.934-2.954H31.85Zm0-4.224v4.224h3.532v-4.224H31.85Zm.808.794a.805.805 0 0 1-.808-.8l3.532.012a2.938 2.938 0 0 0-2.934-2.958l.21 3.746Zm-10.573 4.846c.573 0 1.042.463 1.042 1.043h-3.746a2.704 2.704 0 0 0 2.704 2.703V83.49Zm.95 0h-.95v3.746h.95V83.49Zm1.873 4.222v-2.35h-3.745v2.35h3.745Zm-.807-.793c.473 0 .807.38.807.793h-3.745c0 1.602 1.29 2.953 2.938 2.953V86.92Zm-.808.793a.8.8 0 0 1 .808-.793v3.746c1.65 0 2.938-1.349 2.938-2.953h-3.746Zm0-2.351v2.35h3.746v-2.35h-3.746Zm3.531-1.873h-1.658v3.746h1.658v-3.746Zm1.873 4.222v-2.35h-3.746v2.35h3.746Zm-.807-.793c.473 0 .807.38.807.793h-3.746c0 1.602 1.29 2.953 2.939 2.953v-3.746Zm-.808.793a.8.8 0 0 1 .808-.793v3.746c1.65 0 2.938-1.349 2.938-2.953h-3.746Zm0-2.35v2.35h3.746v-2.35h-3.746Zm2.823-1.872h-.95v3.746h.95v-3.746Zm-1.042 1.043c0-.58.469-1.043 1.042-1.043v3.746a2.704 2.704 0 0 0 2.704-2.703h-3.746Zm0-7.71v7.71h3.746v-7.71h-3.746Zm-7.609 1.873h9.482V74.95h-9.482v3.746Zm1.873 5.84v-7.713h-3.746v7.712h3.746Zm-3.58-9.617c-1.65 0-2.938 1.35-2.938 2.954h3.746a.8.8 0 0 1-.808.792v-3.746Zm2.939 2.952c0-1.611-1.297-2.952-2.939-2.952v3.746a.801.801 0 0 1-.807-.794h3.746Zm0 4.224V77.87H18.74v4.224h3.746Zm-2.939 2.954c1.65 0 2.939-1.35 2.939-2.954H18.74a.8.8 0 0 1 .808-.792v3.746Zm-2.938-2.954c0 1.603 1.29 2.954 2.938 2.954v-3.746c.474 0 .808.38.808.792H16.61Zm0-4.222v4.222h3.746v-4.222H16.61Z"/><path fill="#fff" fill-rule="evenodd" d="m29.114 71.581-.876 1.268c1.392.648 2.369 1.875 2.498 3.311h-9.482c.125-1.434 1.1-2.661 2.493-3.309l-.876-1.268c-.05-.078-.039-.176.03-.222.068-.05.166-.024.216.05l.91 1.317a5.368 5.368 0 0 1 1.966-.366c.7 0 1.368.13 1.967.366l.909-1.319c.05-.074.148-.097.216-.05.069.048.08.148.03.222Zm-5.414 3.18a.525.525 0 1 0 .583-.872.525.525 0 0 0-.583.872Zm4.065 0a.525.525 0 1 0 .584-.872.525.525 0 0 0-.584.872Zm4.683 2.011c-.59 0-1.068.484-1.068 1.081v4.222c0 .595.48 1.08 1.068 1.08a1.07 1.07 0 0 0 1.061-1.08v-4.224a1.065 1.065 0 0 0-1.061-1.079Zm-11.194 7.762c0 .457.373.83.831.83h.95v2.348c0 .595.478 1.081 1.066 1.081.589 0 1.065-.484 1.065-1.08V85.36h1.658v2.35c0 .594.478 1.08 1.065 1.08.59 0 1.066-.484 1.066-1.08v-2.35h.95a.831.831 0 0 0 .83-.829v-7.71h-9.48v7.712Zm-2.772-6.662c0-.597.476-1.08 1.065-1.08.588 0 1.066.481 1.066 1.078v4.224c0 .597-.476 1.08-1.066 1.08a1.075 1.075 0 0 1-1.065-1.08v-4.222Z" clip-rule="evenodd"/><path fill="#fff" d="M11.37 20.153c0-3.37 0-5.055.657-6.342a6.018 6.018 0 0 1 2.63-2.63c1.287-.656 2.972-.656 6.342-.656h9.628c3.37 0 5.055 0 6.343.656a6.017 6.017 0 0 1 2.63 2.63c.655 1.287.655 2.972.655 6.342v9.628c0 3.37 0 5.056-.656 6.343a6.018 6.018 0 0 1-2.63 2.63c-1.287.655-2.972.655-6.342.655H21c-3.37 0-5.055 0-6.342-.655a6.019 6.019 0 0 1-2.63-2.63c-.656-1.288-.656-2.973-.656-6.343v-9.628Z"/><path fill="#40A9FF" d="M36.645 24.967c0 5.982-4.85 10.832-10.832 10.832-5.982 0-10.832-4.85-10.832-10.832 0-5.982 4.85-10.832 10.832-10.832 5.982 0 10.832 4.85 10.832 10.832Z" opacity=".8"/><g opacity=".3"><path fill="#fff" d="M11.31 117.257c0-3.371 0-5.056.657-6.343a6.02 6.02 0 0 1 2.63-2.63c1.287-.656 2.972-.656 6.342-.656h9.628c3.37 0 5.055 0 6.343.656a6.02 6.02 0 0 1 2.63 2.63c.655 1.287.655 2.972.655 6.343v9.628c0 3.37 0 5.055-.656 6.342a6.015 6.015 0 0 1-2.63 2.63c-1.287.656-2.972.656-6.342.656H20.94c-3.37 0-5.055 0-6.342-.656a6.015 6.015 0 0 1-2.63-2.63c-.656-1.287-.656-2.972-.656-6.342v-9.628Z"/><circle cx="25.753" cy="122.071" r="10.832" fill="#9254DE" opacity=".8"/></g><g opacity=".3"><path fill="#fff" d="M11.31 155.769c0-3.37 0-5.055.657-6.342a6.015 6.015 0 0 1 2.63-2.63c1.287-.656 2.972-.656 6.342-.656h9.628c3.37 0 5.055 0 6.343.656a6.015 6.015 0 0 1 2.63 2.63c.655 1.287.655 2.972.655 6.342v9.628c0 3.371 0 5.056-.656 6.343a6.02 6.02 0 0 1-2.63 2.63c-1.287.656-2.972.656-6.342.656H20.94c-3.37 0-5.055 0-6.342-.656a6.02 6.02 0 0 1-2.63-2.63c-.656-1.287-.656-2.972-.656-6.343v-9.628Z"/><circle cx="25.753" cy="160.584" r="10.832" fill="#C41D7F" opacity=".8"/></g><rect width="119.574" height="10" x="218.704" y="30.564" fill="#F0F0F0" rx="5"/><rect width="160.772" height="10" x="218.704" y="56.737" fill="#F0F0F0" rx="5"/><rect width="65.314" height="10" x="218.704" y="102.911" fill="#91D5FF" opacity=".5" rx="5"/><rect width="160.772" height="10" x="218.704" y="129.084" fill="#F0F0F0" rx="5"/><rect width="160.772" height="10" x="218.704" y="154.254" fill="#F0F0F0" rx="5"/><rect width="36.174" height="10" x="218.704" y="211.432" fill="#F0F0F0" rx="5"/><rect width="50.241" height="10" x="218.704" y="236.601" fill="#F0F0F0" rx="5"/><rect width="407.96" height="322.55" x="1.5" y="1.5" stroke="#595959" rx="9.13"/></svg>