<svg width="800" height="127" viewBox="0 0 800 127" fill="none" xmlns="http://www.w3.org/2000/svg">
<path d="M18.6419 18.7875H49.3719C55.3917 19.9527 59.858 22.914 62.7708 27.6716C65.8778 33.5943 65.2952 39.9053 61.0231 46.6048C58.2074 50.003 54.081 52.1391 48.6437 53.0129H18.6419V18.7875ZM0 0V125.25H19.2245V72.383H49.5176L70.4897 125.396H91.3162L67.8682 66.1205C70.1013 64.567 71.8005 63.3048 72.9656 62.3339C74.2278 61.363 75.5871 59.9066 77.0435 57.9647C78.597 56.0228 79.7621 53.9353 80.5389 51.7022C84.6168 43.5463 85.345 34.7594 82.7235 25.3413C80.4903 18.5448 76.8979 12.962 71.9461 8.59276C66.4118 3.641 59.4696 0.776748 51.1196 0H0Z" fill="#333333"/>
<path d="M138.067 1.4564V95.5398C140.203 104.084 145.64 111.803 154.378 118.697C163.311 124.328 172.243 127.095 181.176 126.998C193.118 126.415 202.634 122.677 209.721 115.784C216.906 109.861 221.178 102.628 222.538 94.0834V1.31076H203.459V91.3162C201.323 97.5302 196.808 102.433 189.914 106.026C181.953 108.55 174.622 107.919 167.923 104.133C162.874 102.094 159.476 97.5787 157.728 90.588V1.4564H138.067Z" fill="#333333"/>
<path d="M277.881 126.852H296.814V41.3617L341.526 126.852H361.624V1.74768H342.836V87.8209L298.125 1.74768H277.735L277.881 126.852Z" fill="#333333"/>
<path d="M417.258 1.31076L435.026 126.707H454.688L472.31 46.4591L490.078 126.561H509.885L527.071 1.4564H507.992L498.088 71.9461L482.068 1.60205H462.552L446.969 71.6548L437.065 1.31076H417.258Z" fill="#333333"/>
<path d="M627.854 70.1984H602.221L615.037 32.9146L627.854 70.1984ZM667.759 126.852L625.523 1.01949H605.425L562.316 126.852H583.288L595.813 89.5685H633.825L646.787 126.852H667.759Z" fill="#333333"/>
<path d="M737.957 71.3636L737.666 125.979L756.745 125.833V70.781L800 0.291286H776.843L747.133 49.0807L716.84 0.291286H694.411L737.957 71.3636Z" fill="#333333"/>
</svg>
